<svg xmlns="http://www.w3.org/2000/svg" xmlns:xlink="http://www.w3.org/1999/xlink" contentStyleType="text/css" data-diagram-type="DESCRIPTION" height="1012px" preserveAspectRatio="none" style="width:2482px;height:1012px;background:#FFFFFF;" version="1.1" viewBox="0 0 2482 1012" width="2482px" zoomAndPan="magnify"><?plantuml 1.2026.4beta2?><defs/><g><g class="title" data-source-line="29"><text fill="#1E293B" font-family="Verdana" font-size="22" font-weight="700" lengthAdjust="spacing" textLength="601.4229" x="939.2886" y="35.4209">Dashboard Frontend &#8212; M&#243;dulos e Depend&#234;ncias</text></g><!--cluster src/boot--><g class="cluster" data-qualified-name="src.boot" data-source-line="31" id="ent0002"><path d="M1725,393.1194 L1769.1426,393.1194 A6,6 0 0 1 1773.1426,397.1194 L1780.1426,410.76 L1895,410.76 A4,4 0 0 1 1899,414.76 L1899,488.3994 A4,4 0 0 1 1895,492.3994 L1725,492.3994 A4,4 0 0 1 1721,488.3994 L1721,397.1194 A4,4 0 0 1 1725,393.1194" fill="#F1F5F9" style="stroke:#CBD5E1;stroke-width:1;"/><line style="stroke:#CBD5E1;stroke-width:1;" x1="1721" x2="1780.1426" y1="410.76" y2="410.76"/><text fill="#0F172A" font-family="Verdana" font-size="10" font-weight="700" lengthAdjust="spacing" textLength="46.1426" x="1725" y="404.4016">src/boot</text></g><!--cluster src/core--><g class="cluster" data-qualified-name="src.core" data-source-line="35" id="ent0004"><path d="M1701,875.3494 L1743.9756,875.3494 A6,6 0 0 1 1747.9756,879.3494 L1754.9756,892.99 L2368,892.99 A4,4 0 0 1 2372,896.99 L2372,993.9094 A4,4 0 0 1 2368,997.9094 L1701,997.9094 A4,4 0 0 1 1697,993.9094 L1697,879.3494 A4,4 0 0 1 1701,875.3494" fill="#F1F5F9" style="stroke:#CBD5E1;stroke-width:1;"/><line style="stroke:#CBD5E1;stroke-width:1;" x1="1697" x2="1754.9756" y1="892.99" y2="892.99"/><text fill="#0F172A" font-family="Verdana" font-size="10" font-weight="700" lengthAdjust="spacing" textLength="44.9756" x="1701" y="886.6316">src/core</text></g><!--cluster src/data--><g class="cluster" data-qualified-name="src.data" data-source-line="42" id="ent0009"><path d="M2327,393.1194 L2370.8984,393.1194 A6,6 0 0 1 2374.8984,397.1194 L2381.8984,410.76 L2463,410.76 A4,4 0 0 1 2467,414.76 L2467,488.3994 A4,4 0 0 1 2463,492.3994 L2327,492.3994 A4,4 0 0 1 2323,488.3994 L2323,397.1194 A4,4 0 0 1 2327,393.1194" fill="#F1F5F9" style="stroke:#CBD5E1;stroke-width:1;"/><line style="stroke:#CBD5E1;stroke-width:1;" x1="2323" x2="2381.8984" y1="410.76" y2="410.76"/><text fill="#0F172A" font-family="Verdana" font-size="10" font-weight="700" lengthAdjust="spacing" textLength="45.8984" x="2327" y="404.4016">src/data</text></g><!--cluster src/components--><g class="cluster" data-qualified-name="src.components" data-source-line="46" id="ent0011"><path d="M15,57.6094 L102.4629,57.6094 A6,6 0 0 1 106.4629,61.6094 L113.4629,75.25 L1445,75.25 A4,4 0 0 1 1449,79.25 L1449,732.4294 A4,4 0 0 1 1445,736.4294 L15,736.4294 A4,4 0 0 1 11,732.4294 L11,61.6094 A4,4 0 0 1 15,57.6094" fill="#F1F5F9" style="stroke:#CBD5E1;stroke-width:1;"/><line style="stroke:#CBD5E1;stroke-width:1;" x1="11" x2="113.4629" y1="75.25" y2="75.25"/><text fill="#0F172A" font-family="Verdana" font-size="10" font-weight="700" lengthAdjust="spacing" textLength="89.4629" x="15" y="68.8916">src/components</text></g><!--cluster src/extension--><g class="cluster" data-qualified-name="src.extension" data-source-line="59" id="ent0022"><path d="M1477,631.3194 L1550.7471,631.3194 A6,6 0 0 1 1554.7471,635.3194 L1561.7471,648.96 L1677,648.96 A4,4 0 0 1 1681,652.96 L1681,738.2494 A4,4 0 0 1 1677,742.2494 L1477,742.2494 A4,4 0 0 1 1473,738.2494 L1473,635.3194 A4,4 0 0 1 1477,631.3194" fill="#F1F5F9" style="stroke:#CBD5E1;stroke-width:1;"/><line style="stroke:#CBD5E1;stroke-width:1;" x1="1473" x2="1561.7471" y1="648.96" y2="648.96"/><text fill="#0F172A" font-family="Verdana" font-size="10" font-weight="700" lengthAdjust="spacing" textLength="75.7471" x="1477" y="642.6016">src/extension</text></g><!--cluster Servidor SSE :5001--><g class="cluster" data-qualified-name="Servidor SSE .5001" data-source-line="63" id="ent0024"><path d="M1477,393.1194 L1582.8516,393.1194 A6,6 0 0 1 1586.8516,397.1194 L1593.8516,410.76 L1693,410.76 A4,4 0 0 1 1697,414.76 L1697,488.3994 A4,4 0 0 1 1693,492.3994 L1477,492.3994 A4,4 0 0 1 1473,488.3994 L1473,397.1194 A4,4 0 0 1 1477,393.1194" fill="#F1F5F9" style="stroke:#CBD5E1;stroke-width:1;"/><line style="stroke:#CBD5E1;stroke-width:1;" x1="1473" x2="1593.8516" y1="410.76" y2="410.76"/><text fill="#0F172A" font-family="Verdana" font-size="10" font-weight="700" lengthAdjust="spacing" textLength="107.8516" x="1477" y="404.4016">Servidor SSE :5001</text></g><!--entity TMPL--><g class="entity" data-qualified-name="src.boot.TMPL" data-source-line="32" id="ent0003"><rect fill="#F8FAFC" height="53.2813" rx="4" ry="4" style="stroke:#94A3B8;stroke-width:1;" width="146.8311" x="1736.58" y="423.1194"/><rect fill="#F8FAFC" height="10" style="stroke:#94A3B8;stroke-width:1;" width="15" x="1863.4111" y="428.1194"/><rect fill="#F8FAFC" height="2" style="stroke:#94A3B8;stroke-width:1;" width="4" x="1861.4111" y="430.1194"/><rect fill="#F8FAFC" height="2" style="stroke:#94A3B8;stroke-width:1;" width="4" x="1861.4111" y="434.1194"/><text fill="#0F172A" font-family="Verdana" font-size="10" lengthAdjust="spacing" textLength="57.4512" x="1751.58" y="452.4016">template.ts</text><text fill="#0F172A" font-family="Verdana" font-size="10" lengthAdjust="spacing" textLength="106.8311" x="1751.58" y="464.0422">APP_TEMPLATE HTML</text></g><!--entity STORE--><g class="entity" data-qualified-name="src.core.STORE" data-source-line="36" id="ent0005"><rect fill="#F8FAFC" height="76.5625" rx="4" ry="4" style="stroke:#94A3B8;stroke-width:1;" width="151.5234" x="2056.24" y="905.3494"/><rect fill="#F8FAFC" height="10" style="stroke:#94A3B8;stroke-width:1;" width="15" x="2187.7634" y="910.3494"/><rect fill="#F8FAFC" height="2" style="stroke:#94A3B8;stroke-width:1;" width="4" x="2185.7634" y="912.3494"/><rect fill="#F8FAFC" height="2" style="stroke:#94A3B8;stroke-width:1;" width="4" x="2185.7634" y="916.3494"/><text fill="#0F172A" font-family="Verdana" font-size="10" lengthAdjust="spacing" textLength="3.1787" x="2071.24" y="934.6316">&#160;</text><text fill="#0F172A" font-family="Verdana" font-size="10" lengthAdjust="spacing" textLength="37.8223" x="2071.24" y="946.2722">store.ts</text><text fill="#0F172A" font-family="Verdana" font-size="10" lengthAdjust="spacing" textLength="111.5234" x="2071.24" y="957.9129">Estado global reactivo</text><text fill="#0F172A" font-family="Verdana" font-size="10" lengthAdjust="spacing" textLength="3.1787" x="2071.24" y="969.5535">&#160;</text></g><!--entity TYPES--><g class="entity" data-qualified-name="src.core.TYPES" data-source-line="37" id="ent0006"><rect fill="#F8FAFC" height="76.5625" rx="4" ry="4" style="stroke:#94A3B8;stroke-width:1;" width="146.6895" x="1712.66" y="905.3494"/><rect fill="#F8FAFC" height="10" style="stroke:#94A3B8;stroke-width:1;" width="15" x="1839.3495" y="910.3494"/><rect fill="#F8FAFC" height="2" style="stroke:#94A3B8;stroke-width:1;" width="4" x="1837.3495" y="912.3494"/><rect fill="#F8FAFC" height="2" style="stroke:#94A3B8;stroke-width:1;" width="4" x="1837.3495" y="916.3494"/><text fill="#0F172A" font-family="Verdana" font-size="10" lengthAdjust="spacing" textLength="3.1787" x="1727.66" y="934.6316">&#160;</text><text fill="#0F172A" font-family="Verdana" font-size="10" lengthAdjust="spacing" textLength="39.8584" x="1727.66" y="946.2722">types.ts</text><text fill="#0F172A" font-family="Verdana" font-size="10" lengthAdjust="spacing" textLength="106.6895" x="1727.66" y="957.9129">Interfaces TypeScript</text><text fill="#0F172A" font-family="Verdana" font-size="10" lengthAdjust="spacing" textLength="3.1787" x="1727.66" y="969.5535">&#160;</text></g><!--entity LOG--><g class="entity" data-qualified-name="src.core.LOG" data-source-line="38" id="ent0007"><rect fill="#F8FAFC" height="76.5625" rx="4" ry="4" style="stroke:#94A3B8;stroke-width:1;" width="136.5234" x="1889.74" y="905.3494"/><rect fill="#F8FAFC" height="10" style="stroke:#94A3B8;stroke-width:1;" width="15" x="2006.2634" y="910.3494"/><rect fill="#F8FAFC" height="2" style="stroke:#94A3B8;stroke-width:1;" width="4" x="2004.2634" y="912.3494"/><rect fill="#F8FAFC" height="2" style="stroke:#94A3B8;stroke-width:1;" width="4" x="2004.2634" y="916.3494"/><text fill="#0F172A" font-family="Verdana" font-size="10" lengthAdjust="spacing" textLength="3.1787" x="1904.74" y="934.6316">&#160;</text><text fill="#0F172A" font-family="Verdana" font-size="10" lengthAdjust="spacing" textLength="44.165" x="1904.74" y="946.2722">logger.ts</text><text fill="#0F172A" font-family="Verdana" font-size="10" lengthAdjust="spacing" textLength="96.5234" x="1904.74" y="957.9129">Logger estruturado</text><text fill="#0F172A" font-family="Verdana" font-size="10" lengthAdjust="spacing" textLength="3.1787" x="1904.74" y="969.5535">&#160;</text></g><!--entity CONST--><g class="entity" data-qualified-name="src.core.CONST" data-source-line="39" id="ent0008"><rect fill="#F8FAFC" height="76.5625" rx="4" ry="4" style="stroke:#94A3B8;stroke-width:1;" width="118.5156" x="2237.74" y="905.3494"/><rect fill="#F8FAFC" height="10" style="stroke:#94A3B8;stroke-width:1;" width="15" x="2336.2556" y="910.3494"/><rect fill="#F8FAFC" height="2" style="stroke:#94A3B8;stroke-width:1;" width="4" x="2334.2556" y="912.3494"/><rect fill="#F8FAFC" height="2" style="stroke:#94A3B8;stroke-width:1;" width="4" x="2334.2556" y="916.3494"/><text fill="#0F172A" font-family="Verdana" font-size="10" lengthAdjust="spacing" textLength="3.1787" x="2252.74" y="934.6316">&#160;</text><text fill="#0F172A" font-family="Verdana" font-size="10" lengthAdjust="spacing" textLength="60.9912" x="2252.74" y="946.2722">constants.ts</text><text fill="#0F172A" font-family="Verdana" font-size="10" lengthAdjust="spacing" textLength="78.5156" x="2252.74" y="957.9129">STORAGE_KEYS</text><text fill="#0F172A" font-family="Verdana" font-size="10" lengthAdjust="spacing" textLength="3.1787" x="2252.74" y="969.5535">&#160;</text></g><!--entity HAND--><g class="entity" data-qualified-name="src.data.HAND" data-source-line="43" id="ent0010"><rect fill="#F8FAFC" height="53.2813" rx="4" ry="4" style="stroke:#94A3B8;stroke-width:1;" width="112.666" x="2338.67" y="423.1194"/><rect fill="#F8FAFC" height="10" style="stroke:#94A3B8;stroke-width:1;" width="15" x="2431.336" y="428.1194"/><rect fill="#F8FAFC" height="2" style="stroke:#94A3B8;stroke-width:1;" width="4" x="2429.336" y="430.1194"/><rect fill="#F8FAFC" height="2" style="stroke:#94A3B8;stroke-width:1;" width="4" x="2429.336" y="434.1194"/><text fill="#0F172A" font-family="Verdana" font-size="10" lengthAdjust="spacing" textLength="55.7129" x="2353.67" y="452.4016">handlers.ts</text><text fill="#0F172A" font-family="Verdana" font-size="10" lengthAdjust="spacing" textLength="72.666" x="2353.67" y="464.0422">computeKPIs()</text></g><!--entity MAIN--><g class="entity" data-qualified-name="src.components.MAIN" data-source-line="47" id="ent0012"><rect fill="#F8FAFC" height="169.6875" rx="4" ry="4" style="stroke:#94A3B8;stroke-width:1;" width="178.8965" x="1254.55" y="87.6094"/><rect fill="#F8FAFC" height="10" style="stroke:#94A3B8;stroke-width:1;" width="15" x="1413.4465" y="92.6094"/><rect fill="#F8FAFC" height="2" style="stroke:#94A3B8;stroke-width:1;" width="4" x="1411.4465" y="94.6094"/><rect fill="#F8FAFC" height="2" style="stroke:#94A3B8;stroke-width:1;" width="4" x="1411.4465" y="98.6094"/><text fill="#0F172A" font-family="Verdana" font-size="10" lengthAdjust="spacing" textLength="3.1787" x="1269.55" y="116.8916">&#160;</text><text fill="#0F172A" font-family="Verdana" font-size="10" lengthAdjust="spacing" textLength="3.1787" x="1269.55" y="128.5322">&#160;</text><text fill="#0F172A" font-family="Verdana" font-size="10" lengthAdjust="spacing" textLength="3.1787" x="1269.55" y="140.1729">&#160;</text><text fill="#0F172A" font-family="Verdana" font-size="10" lengthAdjust="spacing" textLength="3.1787" x="1269.55" y="151.8135">&#160;</text><text fill="#0F172A" font-family="Verdana" font-size="10" lengthAdjust="spacing" textLength="3.1787" x="1269.55" y="163.4541">&#160;</text><text fill="#0F172A" font-family="Verdana" font-size="10" lengthAdjust="spacing" textLength="3.1787" x="1269.55" y="175.0947">&#160;</text><text fill="#0F172A" font-family="Verdana" font-size="10" lengthAdjust="spacing" textLength="37.2949" x="1269.55" y="186.7354">main.ts</text><text fill="#0F172A" font-family="Verdana" font-size="10" lengthAdjust="spacing" textLength="138.8965" x="1269.55" y="198.376">Orchestrador SSE + Render</text><text fill="#0F172A" font-family="Verdana" font-size="10" lengthAdjust="spacing" textLength="3.1787" x="1269.55" y="210.0166">&#160;</text><text fill="#0F172A" font-family="Verdana" font-size="10" lengthAdjust="spacing" textLength="3.1787" x="1269.55" y="221.6572">&#160;</text><text fill="#0F172A" font-family="Verdana" font-size="10" lengthAdjust="spacing" textLength="3.1787" x="1269.55" y="233.2979">&#160;</text><text fill="#0F172A" font-family="Verdana" font-size="10" lengthAdjust="spacing" textLength="3.1787" x="1269.55" y="244.9385">&#160;</text></g><!--entity WP--><g class="entity" data-qualified-name="src.components.WP" data-source-line="48" id="ent0013"><rect fill="#F8FAFC" height="53.2813" rx="4" ry="4" style="stroke:#94A3B8;stroke-width:1;" width="153.3008" x="259.35" y="423.1194"/><rect fill="#F8FAFC" height="10" style="stroke:#94A3B8;stroke-width:1;" width="15" x="392.6508" y="428.1194"/><rect fill="#F8FAFC" height="2" style="stroke:#94A3B8;stroke-width:1;" width="4" x="390.6508" y="430.1194"/><rect fill="#F8FAFC" height="2" style="stroke:#94A3B8;stroke-width:1;" width="4" x="390.6508" y="434.1194"/><text fill="#0F172A" font-family="Verdana" font-size="10" lengthAdjust="spacing" textLength="88.2031" x="274.35" y="452.4016">windows_panel.ts</text><text fill="#0F172A" font-family="Verdana" font-size="10" lengthAdjust="spacing" textLength="113.3008" x="274.35" y="464.0422">renderWindowsPanel()</text></g><!--entity A2--><g class="entity" data-qualified-name="src.components.A2" data-source-line="49" id="ent0014"><rect fill="#F8FAFC" height="53.2813" rx="4" ry="4" style="stroke:#94A3B8;stroke-width:1;" width="144.4043" x="600.8" y="423.1194"/><rect fill="#F8FAFC" height="10" style="stroke:#94A3B8;stroke-width:1;" width="15" x="725.2043" y="428.1194"/><rect fill="#F8FAFC" height="2" style="stroke:#94A3B8;stroke-width:1;" width="4" x="723.2043" y="430.1194"/><rect fill="#F8FAFC" height="2" style="stroke:#94A3B8;stroke-width:1;" width="4" x="723.2043" y="434.1194"/><text fill="#0F172A" font-family="Verdana" font-size="10" lengthAdjust="spacing" textLength="47.5586" x="615.8" y="452.4016">agent2.ts</text><text fill="#0F172A" font-family="Verdana" font-size="10" lengthAdjust="spacing" textLength="104.4043" x="615.8" y="464.0422">renderAgent2Panel()</text></g><!--entity AT--><g class="entity" data-qualified-name="src.components.AT" data-source-line="50" id="ent0015"><rect fill="#F8FAFC" height="53.2813" rx="4" ry="4" style="stroke:#94A3B8;stroke-width:1;" width="168.584" x="251.71" y="667.1394"/><rect fill="#F8FAFC" height="10" style="stroke:#94A3B8;stroke-width:1;" width="15" x="400.294" y="672.1394"/><rect fill="#F8FAFC" height="2" style="stroke:#94A3B8;stroke-width:1;" width="4" x="398.294" y="674.1394"/><rect fill="#F8FAFC" height="2" style="stroke:#94A3B8;stroke-width:1;" width="4" x="398.294" y="678.1394"/><text fill="#0F172A" font-family="Verdana" font-size="10" lengthAdjust="spacing" textLength="81.04" x="266.71" y="696.4216">alert_timeline.ts</text><text fill="#0F172A" font-family="Verdana" font-size="10" lengthAdjust="spacing" textLength="128.584" x="266.71" y="708.0622">renderAlertTimelineSVG()</text></g><!--entity SL--><g class="entity" data-qualified-name="src.components.SL" data-source-line="51" id="ent0016"><rect fill="#F8FAFC" height="64.9219" rx="4" ry="4" style="stroke:#94A3B8;stroke-width:1;" width="128.0127" x="442.99" y="417.2994"/><rect fill="#F8FAFC" height="10" style="stroke:#94A3B8;stroke-width:1;" width="15" x="551.0027" y="422.2994"/><rect fill="#F8FAFC" height="2" style="stroke:#94A3B8;stroke-width:1;" width="4" x="549.0027" y="424.2994"/><rect fill="#F8FAFC" height="2" style="stroke:#94A3B8;stroke-width:1;" width="4" x="549.0027" y="428.2994"/><text fill="#0F172A" font-family="Verdana" font-size="10" lengthAdjust="spacing" textLength="34.7266" x="457.99" y="446.5816">slice.ts</text><text fill="#0F172A" font-family="Verdana" font-size="10" lengthAdjust="spacing" textLength="88.0127" x="457.99" y="458.2222">Controlo de ritmo</text><text fill="#0F172A" font-family="Verdana" font-size="10" lengthAdjust="spacing" textLength="87.7002" x="457.99" y="469.8629">+ Slicer temporal</text></g><!--entity GV--><g class="entity" data-qualified-name="src.components.GV" data-source-line="52" id="ent0017"><rect fill="#F8FAFC" height="53.2813" rx="4" ry="4" style="stroke:#94A3B8;stroke-width:1;" width="167.2021" x="775.4" y="423.1194"/><rect fill="#F8FAFC" height="10" style="stroke:#94A3B8;stroke-width:1;" width="15" x="922.6021" y="428.1194"/><rect fill="#F8FAFC" height="2" style="stroke:#94A3B8;stroke-width:1;" width="4" x="920.6021" y="430.1194"/><rect fill="#F8FAFC" height="2" style="stroke:#94A3B8;stroke-width:1;" width="4" x="920.6021" y="434.1194"/><text fill="#0F172A" font-family="Verdana" font-size="10" lengthAdjust="spacing" textLength="60.5273" x="790.4" y="452.4016">graph_viz.ts</text><text fill="#0F172A" font-family="Verdana" font-size="10" lengthAdjust="spacing" textLength="127.2021" x="790.4" y="464.0422">renderHypothesisGraph()</text></g><!--entity SB--><g class="entity" data-qualified-name="src.components.SB" data-source-line="53" id="ent0018"><rect fill="#F8FAFC" height="53.2813" rx="4" ry="4" style="stroke:#94A3B8;stroke-width:1;" width="139.9756" x="973.01" y="423.1194"/><rect fill="#F8FAFC" height="10" style="stroke:#94A3B8;stroke-width:1;" width="15" x="1092.9856" y="428.1194"/><rect fill="#F8FAFC" height="2" style="stroke:#94A3B8;stroke-width:1;" width="4" x="1090.9856" y="430.1194"/><rect fill="#F8FAFC" height="2" style="stroke:#94A3B8;stroke-width:1;" width="4" x="1090.9856" y="434.1194"/><text fill="#0F172A" font-family="Verdana" font-size="10" lengthAdjust="spacing" textLength="49.3848" x="988.01" y="452.4016">sidebar.ts</text><text fill="#0F172A" font-family="Verdana" font-size="10" lengthAdjust="spacing" textLength="99.9756" x="988.01" y="464.0422">renderSidebarKPIs()</text></g><!--entity KPI--><g class="entity" data-qualified-name="src.components.KPI" data-source-line="54" id="ent0019"><rect fill="#F8FAFC" height="53.2813" rx="4" ry="4" style="stroke:#94A3B8;stroke-width:1;" width="120.0586" x="1142.97" y="423.1194"/><rect fill="#F8FAFC" height="10" style="stroke:#94A3B8;stroke-width:1;" width="15" x="1243.0286" y="428.1194"/><rect fill="#F8FAFC" height="2" style="stroke:#94A3B8;stroke-width:1;" width="4" x="1241.0286" y="430.1194"/><rect fill="#F8FAFC" height="2" style="stroke:#94A3B8;stroke-width:1;" width="4" x="1241.0286" y="434.1194"/><text fill="#0F172A" font-family="Verdana" font-size="10" lengthAdjust="spacing" textLength="27.2266" x="1157.97" y="452.4016">kpi.ts</text><text fill="#0F172A" font-family="Verdana" font-size="10" lengthAdjust="spacing" textLength="80.0586" x="1157.97" y="464.0422">renderKPIStrip()</text></g><!--entity MOD--><g class="entity" data-qualified-name="src.components.MOD" data-source-line="55" id="ent0020"><rect fill="#F8FAFC" height="53.2813" rx="4" ry="4" style="stroke:#94A3B8;stroke-width:1;" width="140.4736" x="1292.76" y="423.1194"/><rect fill="#F8FAFC" height="10" style="stroke:#94A3B8;stroke-width:1;" width="15" x="1413.2336" y="428.1194"/><rect fill="#F8FAFC" height="2" style="stroke:#94A3B8;stroke-width:1;" width="4" x="1411.2336" y="430.1194"/><rect fill="#F8FAFC" height="2" style="stroke:#94A3B8;stroke-width:1;" width="4" x="1411.2336" y="434.1194"/><text fill="#0F172A" font-family="Verdana" font-size="10" lengthAdjust="spacing" textLength="48.6328" x="1307.76" y="452.4016">modals.ts</text><text fill="#0F172A" font-family="Verdana" font-size="10" lengthAdjust="spacing" textLength="100.4736" x="1307.76" y="464.0422">renderDetailModal()</text></g><!--entity FOOT--><g class="entity" data-qualified-name="src.components.FOOT" data-source-line="56" id="ent0021"><rect fill="#F8FAFC" height="53.2813" rx="4" ry="4" style="stroke:#94A3B8;stroke-width:1;" width="169.4336" x="27.28" y="423.1194"/><rect fill="#F8FAFC" height="10" style="stroke:#94A3B8;stroke-width:1;" width="15" x="176.7136" y="428.1194"/><rect fill="#F8FAFC" height="2" style="stroke:#94A3B8;stroke-width:1;" width="4" x="174.7136" y="430.1194"/><rect fill="#F8FAFC" height="2" style="stroke:#94A3B8;stroke-width:1;" width="4" x="174.7136" y="434.1194"/><text fill="#0F172A" font-family="Verdana" font-size="10" lengthAdjust="spacing" textLength="42.251" x="42.28" y="452.4016">footer.ts</text><text fill="#0F172A" font-family="Verdana" font-size="10" lengthAdjust="spacing" textLength="129.4336" x="42.28" y="464.0422">renderConnectionBadge()</text></g><!--entity CONT--><g class="entity" data-qualified-name="src.extension.CONT" data-source-line="60" id="ent0023"><rect fill="#F8FAFC" height="64.9219" rx="4" ry="4" style="stroke:#94A3B8;stroke-width:1;" width="176.958" x="1488.52" y="661.3194"/><rect fill="#F8FAFC" height="10" style="stroke:#94A3B8;stroke-width:1;" width="15" x="1645.478" y="666.3194"/><rect fill="#F8FAFC" height="2" style="stroke:#94A3B8;stroke-width:1;" width="4" x="1643.478" y="668.3194"/><rect fill="#F8FAFC" height="2" style="stroke:#94A3B8;stroke-width:1;" width="4" x="1643.478" y="672.3194"/><text fill="#0F172A" font-family="Verdana" font-size="10" lengthAdjust="spacing" textLength="50.5957" x="1503.52" y="690.6016">content.ts</text><text fill="#0F172A" font-family="Verdana" font-size="10" lengthAdjust="spacing" textLength="136.958" x="1503.52" y="702.2422">__wmPushAlertToExtension</text><text fill="#0F172A" font-family="Verdana" font-size="10" lengthAdjust="spacing" textLength="114.3457" x="1503.52" y="713.8829">window.postMessage()</text></g><!--entity SSE--><g class="entity" data-qualified-name="Servidor SSE .5001.SSE" data-source-line="64" id="ent0025"><rect fill="#F8FAFC" height="53.2813" rx="4" ry="4" style="stroke:#94A3B8;stroke-width:1;" width="95.3369" x="1489.33" y="423.1194"/><rect fill="#F8FAFC" height="10" style="stroke:#94A3B8;stroke-width:1;" width="15" x="1564.6669" y="428.1194"/><rect fill="#F8FAFC" height="2" style="stroke:#94A3B8;stroke-width:1;" width="4" x="1562.6669" y="430.1194"/><rect fill="#F8FAFC" height="2" style="stroke:#94A3B8;stroke-width:1;" width="4" x="1562.6669" y="434.1194"/><text fill="#0F172A" font-family="Verdana" font-size="10" lengthAdjust="spacing" textLength="55.3369" x="1504.33" y="452.4016">SSE Broker</text><text fill="#0F172A" font-family="Verdana" font-size="10" lengthAdjust="spacing" textLength="37.0605" x="1504.33" y="464.0422">/events</text></g><!--entity ISSE--><g class="entity" data-qualified-name="Servidor SSE .5001.ISSE" data-source-line="65" id="ent0026"><ellipse cx="1624" cy="449.7594" fill="#E2E8F0" rx="8" ry="8" style="stroke:#64748B;stroke-width:1;"/><text fill="#1E293B" font-family="Verdana" font-size="10" lengthAdjust="spacing" textLength="60.415" x="1593.7925" y="476.0416">GET /events</text></g><!--entity IAPI--><g class="entity" data-qualified-name="Servidor SSE .5001.IAPI" data-source-line="66" id="ent0027"><ellipse cx="1672" cy="449.7594" fill="#E2E8F0" rx="8" ry="8" style="stroke:#64748B;stroke-width:1;"/><text fill="#1E293B" font-family="Verdana" font-size="10" lengthAdjust="spacing" textLength="95.1465" x="1624.4268" y="476.0416">POST /api/agent1/*</text></g><g class="entity" data-qualified-name="GMN52" data-source-line="98" id="ent0053"><path d="M2039.49,646.2194 L2039.49,741.3444 A4,4 0 0 0 2043.49,745.3444 L2128,745.3444 L2132,904.9894 L2136,745.3444 L2240.5134,745.3444 A4,4 0 0 0 2244.5134,741.3444 L2244.5134,652.2194 L2234.5134,642.2194 L2043.49,642.2194 A4,4 0 0 0 2039.49,646.2194" fill="#FEF9C3" style="stroke:#FCD34D;stroke-width:1;"/><path d="M2234.5134,642.2194 L2234.5134,650.2194 A2,2 0 0 0 2236.5134,652.2194 L2244.5134,652.2194 L2234.5134,642.2194" fill="#FEF9C3" style="stroke:#FCD34D;stroke-width:1;"/><text fill="#1E293B" font-family="Verdana" font-size="10" lengthAdjust="spacing" textLength="71.0889" x="2045.49" y="656.5016">Estado global:</text><text fill="#1E293B" font-family="Verdana" font-size="10" lengthAdjust="spacing" textLength="114.9805" x="2045.49" y="668.1422">&#8226; alerts: AlertPayload[]</text><text fill="#1E293B" font-family="Verdana" font-size="10" lengthAdjust="spacing" textLength="164.7998" x="2045.49" y="679.7829">&#8226; activeWindows: WindowState[]</text><text fill="#1E293B" font-family="Verdana" font-size="10" lengthAdjust="spacing" textLength="167.0459" x="2045.49" y="691.4235">&#8226; agent2Reports: Agent2Report[]</text><text fill="#1E293B" font-family="Verdana" font-size="10" lengthAdjust="spacing" textLength="184.0234" x="2045.49" y="703.0641">&#8226; graphState: HypothesisGraphState</text><text fill="#1E293B" font-family="Verdana" font-size="10" lengthAdjust="spacing" textLength="99.4287" x="2045.49" y="714.7047">&#8226; connection: string</text><text fill="#1E293B" font-family="Verdana" font-size="10" lengthAdjust="spacing" textLength="114.5361" x="2045.49" y="726.3454">&#8226; sliceState: SliceState</text><text fill="#1E293B" font-family="Verdana" font-size="10" lengthAdjust="spacing" textLength="147.0508" x="2045.49" y="737.986">Persistido em sessionStorage</text></g><g class="entity" data-qualified-name="GMN55" data-source-line="109" id="ent0056"><path d="M1464.53,130.7094 L1464.53,168.9094 L1433.91,172.9094 L1464.53,176.9094 L1464.53,214.1937 A4,4 0 0 0 1468.53,218.1937 L1601.4665,218.1937 A4,4 0 0 0 1605.4665,214.1937 L1605.4665,136.7094 L1595.4665,126.7094 L1468.53,126.7094 A4,4 0 0 0 1464.53,130.7094" fill="#FEF9C3" style="stroke:#FCD34D;stroke-width:1;"/><path d="M1595.4665,126.7094 L1595.4665,134.7094 A2,2 0 0 0 1597.4665,136.7094 L1605.4665,136.7094 L1595.4665,126.7094" fill="#FEF9C3" style="stroke:#FCD34D;stroke-width:1;"/><text fill="#1E293B" font-family="Verdana" font-size="10" lengthAdjust="spacing" textLength="119.9365" x="1470.53" y="140.9916">Ponto de entrada &#250;nico.</text><text fill="#1E293B" font-family="Verdana" font-size="10" lengthAdjust="spacing" textLength="53.5596" x="1470.53" y="152.6322">Orquestra:</text><text fill="#1E293B" font-family="Verdana" font-size="10" lengthAdjust="spacing" textLength="84.292" x="1470.53" y="164.2729">&#8226; SSE event loop</text><text fill="#1E293B" font-family="Verdana" font-size="10" lengthAdjust="spacing" textLength="87.9785" x="1470.53" y="175.9135">&#8226; Render pipeline</text><text fill="#1E293B" font-family="Verdana" font-size="10" lengthAdjust="spacing" textLength="108.1348" x="1470.53" y="187.5541">&#8226; Timer management</text><text fill="#1E293B" font-family="Verdana" font-size="10" lengthAdjust="spacing" textLength="85.5811" x="1470.53" y="199.1947">&#8226; Extension push</text><text fill="#1E293B" font-family="Verdana" font-size="10" lengthAdjust="spacing" textLength="68.7402" x="1470.53" y="210.8354">&#8226; User events</text></g><!--link SSE to ISSE--><g class="link" data-entity-1="ent0025" data-entity-2="ent0026" data-link-type="association" data-source-line="67" id="lnk28"><path d="M1585.08,449.9094 C1596.4,449.9094 1607.3,449.9094 1614.67,449.9094" fill="none" id="SSE-ISSE" style="stroke:#64748B;stroke-width:1;"/></g><!--link SSE to IAPI--><g class="link" data-entity-1="ent0025" data-entity-2="ent0027" data-link-type="association" data-source-line="68" id="lnk29"><path d="M1585.03,432.9094 C1622.77,432.9094 1669,432.9094 1669,432.9094 C1669,432.9094 1669,436.6094 1669,440.5494" fill="none" id="SSE-IAPI" style="stroke:#64748B;stroke-width:1;"/></g><!--link MAIN to TMPL--><g class="link" data-entity-1="ent0012" data-entity-2="ent0003" data-link-type="dependency" data-source-line="72" id="lnk30"><path d="M1433.85,237.9094 C1569.26,237.9094 1810,237.9094 1810,237.9094 C1810,237.9094 1810,359.9194 1810,416.9294" fill="none" id="MAIN-to-TMPL" style="stroke:#64748B;stroke-width:1;"/><polygon fill="#64748B" points="1810,422.9294,1814,413.9294,1810,417.9294,1806,413.9294,1810,422.9294" style="stroke:#64748B;stroke-width:1;"/><text fill="#475569" font-family="Verdana" font-size="10" lengthAdjust="spacing" textLength="50.4639" x="1663.43" y="235.1916">&#171;imports&#187;</text></g><!--link MAIN to STORE--><g class="link" data-entity-1="ent0012" data-entity-2="ent0005" data-link-type="dependency" data-source-line="73" id="lnk31"><path d="M1433.7,228.9094 C1620.27,228.9094 2032.87,228.9094 2032.87,228.9094 C2032.87,228.9094 2032.87,943.9094 2032.87,943.9094 C2032.87,943.9094 2036.56,943.9094 2049.87,943.9094" fill="none" id="MAIN-to-STORE" style="stroke:#64748B;stroke-width:1;"/><polygon fill="#64748B" points="2055.87,943.9094,2046.87,939.9094,2050.87,943.9094,2046.87,947.9094,2055.87,943.9094" style="stroke:#64748B;stroke-width:1;"/><text fill="#475569" font-family="Verdana" font-size="10" lengthAdjust="spacing" textLength="50.4639" x="1945.4667" y="272.6016">&#171;imports&#187;</text><text fill="#475569" font-family="Verdana" font-size="10" lengthAdjust="spacing" textLength="123.6572" x="1908.87" y="284.2422">getAlerts, setConnection</text><text fill="#475569" font-family="Verdana" font-size="10" lengthAdjust="spacing" textLength="100.7275" x="1920.3348" y="295.8829">getAgent2Reports...</text></g><!--link MAIN to TYPES--><g class="link" data-entity-1="ent0012" data-entity-2="ent0006" data-link-type="dependency" data-source-line="74" id="lnk32"><path d="M1433.72,242.9094 C1546.25,242.9094 1724.62,242.9094 1724.62,242.9094 C1724.62,242.9094 1724.62,752.0594 1724.62,898.9594" fill="none" id="MAIN-to-TYPES" style="stroke:#64748B;stroke-width:1;"/><polygon fill="#64748B" points="1724.62,904.9594,1728.62,895.9594,1724.62,899.9594,1720.62,895.9594,1724.62,904.9594" style="stroke:#64748B;stroke-width:1;"/><text fill="#475569" font-family="Verdana" font-size="10" lengthAdjust="spacing" textLength="50.4639" x="1626.0199" y="413.7616">&#171;imports&#187;</text><text fill="#475569" font-family="Verdana" font-size="10" lengthAdjust="spacing" textLength="145.2637" x="1578.62" y="425.4022">WindowState, AlertPayload...</text></g><!--link MAIN to LOG--><g class="link" data-entity-1="ent0012" data-entity-2="ent0007" data-link-type="dependency" data-source-line="75" id="lnk33"><path d="M1433.94,232.9094 C1604.48,232.9094 1958,232.9094 1958,232.9094 C1958,232.9094 1958,750.5994 1958,898.9094" fill="none" id="MAIN-to-LOG" style="stroke:#64748B;stroke-width:1;"/><polygon fill="#64748B" points="1958,904.9094,1962,895.9094,1958,899.9094,1954,895.9094,1958,904.9094" style="stroke:#64748B;stroke-width:1;"/><text fill="#475569" font-family="Verdana" font-size="10" lengthAdjust="spacing" textLength="50.4639" x="1907" y="317.1616">&#171;imports&#187;</text></g><!--link MAIN to HAND--><g class="link" data-entity-1="ent0012" data-entity-2="ent0010" data-link-type="dependency" data-source-line="76" id="lnk34"><path d="M1433.61,223.9094 C1687.77,223.9094 2395,223.9094 2395,223.9094 C2395,223.9094 2395,357.1394 2395,416.9694" fill="none" id="MAIN-to-HAND" style="stroke:#64748B;stroke-width:1;"/><polygon fill="#64748B" points="2395,422.9694,2399,413.9694,2395,417.9694,2391,413.9694,2395,422.9694" style="stroke:#64748B;stroke-width:1;"/><text fill="#475569" font-family="Verdana" font-size="10" lengthAdjust="spacing" textLength="72.666" x="1940.83" y="221.1916">computeKPIs()</text></g><!--link MAIN to WP--><g class="link" data-entity-1="ent0012" data-entity-2="ent0013" data-link-type="dependency" data-source-line="77" id="lnk35"><path d="M1254.1,136.9094 C1007.05,136.9094 336,136.9094 336,136.9094 C336,136.9094 336,340.9294 336,416.8194" fill="none" id="MAIN-to-WP" style="stroke:#64748B;stroke-width:1;"/><polygon fill="#64748B" points="336,422.8194,340,413.8194,336,417.8194,332,413.8194,336,422.8194" style="stroke:#64748B;stroke-width:1;"/><text fill="#475569" font-family="Verdana" font-size="10" lengthAdjust="spacing" textLength="113.3008" x="538.1" y="134.1916">renderWindowsPanel()</text></g><!--link MAIN to A2--><g class="link" data-entity-1="ent0012" data-entity-2="ent0014" data-link-type="dependency" data-source-line="78" id="lnk36"><path d="M1254.2,184.9094 C1071.36,184.9094 673,184.9094 673,184.9094 C673,184.9094 673,349.5794 673,416.9094" fill="none" id="MAIN-to-A2" style="stroke:#64748B;stroke-width:1;"/><polygon fill="#64748B" points="673,422.9094,677,413.9094,673,417.9094,669,413.9094,673,422.9094" style="stroke:#64748B;stroke-width:1;"/><text fill="#475569" font-family="Verdana" font-size="10" lengthAdjust="spacing" textLength="104.4043" x="739.6" y="182.1916">renderAgent2Panel()</text></g><!--link MAIN to AT--><g class="link" data-entity-1="ent0012" data-entity-2="ent0015" data-link-type="dependency" data-source-line="79" id="lnk37"><path d="M1277.9,257.6794 C1277.9,407.6294 1277.9,702.9094 1277.9,702.9094 C1277.9,702.9094 657.61,702.9094 426.42,702.9094" fill="none" id="MAIN-to-AT" style="stroke:#64748B;stroke-width:1;"/><polygon fill="#64748B" points="420.42,702.9094,429.42,706.9094,425.42,702.9094,429.42,698.9094,420.42,702.9094" style="stroke:#64748B;stroke-width:1;"/><text fill="#475569" font-family="Verdana" font-size="10" lengthAdjust="spacing" textLength="128.584" x="942.77" y="700.1916">renderAlertTimelineSVG()</text></g><!--link MAIN to SL--><g class="link" data-entity-1="ent0012" data-entity-2="ent0016" data-link-type="dependency" data-source-line="80" id="lnk38"><path d="M1254.43,160.9094 C1038.5,160.9094 507,160.9094 507,160.9094 C507,160.9094 507,335.1994 507,410.9094" fill="none" id="MAIN-to-SL" style="stroke:#64748B;stroke-width:1;"/><polygon fill="#64748B" points="507,416.9094,511,407.9094,507,411.9094,503,407.9094,507,416.9094" style="stroke:#64748B;stroke-width:1;"/><text fill="#475569" font-family="Verdana" font-size="10" lengthAdjust="spacing" textLength="94.1553" x="657.71" y="146.1916">wireSliceControls()</text><text fill="#475569" font-family="Verdana" font-size="10" lengthAdjust="spacing" textLength="87.7734" x="660.9009" y="157.8322">startCountdown()</text></g><!--link MAIN to GV--><g class="link" data-entity-1="ent0012" data-entity-2="ent0017" data-link-type="dependency" data-source-line="81" id="lnk39"><path d="M1254.2,208.9094 C1114,208.9094 859,208.9094 859,208.9094 C859,208.9094 859,354.3594 859,417.0694" fill="none" id="MAIN-to-GV" style="stroke:#64748B;stroke-width:1;"/><polygon fill="#64748B" points="859,423.0694,863,414.0694,859,418.0694,855,414.0694,859,423.0694" style="stroke:#64748B;stroke-width:1;"/><text fill="#475569" font-family="Verdana" font-size="10" lengthAdjust="spacing" textLength="127.2021" x="821.52" y="206.1916">renderHypothesisGraph()</text></g><!--link MAIN to SB--><g class="link" data-entity-1="ent0012" data-entity-2="ent0018" data-link-type="dependency" data-source-line="82" id="lnk40"><path d="M1254.1,233.9094 C1165.4,233.9094 1043,233.9094 1043,233.9094 C1043,233.9094 1043,358.9994 1043,416.8594" fill="none" id="MAIN-to-SB" style="stroke:#64748B;stroke-width:1;"/><polygon fill="#64748B" points="1043,422.8594,1047,413.8594,1043,417.8594,1039,413.8594,1043,422.8594" style="stroke:#64748B;stroke-width:1;"/><text fill="#475569" font-family="Verdana" font-size="10" lengthAdjust="spacing" textLength="99.9756" x="954.07" y="231.1916">renderSidebarKPIs()</text></g><!--link MAIN to KPI--><g class="link" data-entity-1="ent0012" data-entity-2="ent0019" data-link-type="dependency" data-source-line="83" id="lnk41"><path d="M1258.79,257.5394 C1258.79,314.2194 1258.79,379.0094 1258.79,416.8894" fill="none" id="MAIN-to-KPI" style="stroke:#64748B;stroke-width:1;"/><polygon fill="#64748B" points="1258.79,422.8894,1262.79,413.8894,1258.79,417.8894,1254.79,413.8894,1258.79,422.8894" style="stroke:#64748B;stroke-width:1;"/><text fill="#475569" font-family="Verdana" font-size="10" lengthAdjust="spacing" textLength="80.0586" x="1177.79" y="337.4916">renderKPIStrip()</text></g><!--link MAIN to MOD--><g class="link" data-entity-1="ent0012" data-entity-2="ent0020" data-link-type="dependency" data-source-line="84" id="lnk42"><path d="M1363,257.5394 C1363,314.2194 1363,379.0094 1363,416.8894" fill="none" id="MAIN-to-MOD" style="stroke:#64748B;stroke-width:1;"/><polygon fill="#64748B" points="1363,422.8894,1367,413.8894,1363,417.8894,1359,413.8894,1363,422.8894" style="stroke:#64748B;stroke-width:1;"/><text fill="#475569" font-family="Verdana" font-size="10" lengthAdjust="spacing" textLength="100.4736" x="1262" y="337.4916">renderDetailModal()</text></g><!--link MAIN to FOOT--><g class="link" data-entity-1="ent0012" data-entity-2="ent0021" data-link-type="dependency" data-source-line="85" id="lnk43"><path d="M1254.41,111.9094 C970.9,111.9094 112,111.9094 112,111.9094 C112,111.9094 112,336.5094 112,416.6794" fill="none" id="MAIN-to-FOOT" style="stroke:#64748B;stroke-width:1;"/><polygon fill="#64748B" points="112,422.6794,116,413.6794,112,417.6794,108,413.6794,112,422.6794" style="stroke:#64748B;stroke-width:1;"/><text fill="#475569" font-family="Verdana" font-size="10" lengthAdjust="spacing" textLength="129.4336" x="397.82" y="109.1916">renderConnectionBadge()</text></g><!--link WP to TYPES--><g class="link" data-entity-1="ent0013" data-entity-2="ent0006" data-link-type="dependency" data-source-line="87" id="lnk44"><path d="M413.1,458.9094 C421.94,458.9094 427.86,458.9094 427.86,458.9094 C427.86,458.9094 427.86,951.9094 427.86,951.9094 C427.86,951.9094 1423.74,951.9094 1706.5,951.9094" fill="none" id="WP-to-TYPES" style="stroke:#64748B;stroke-width:1;"/><polygon fill="#64748B" points="1712.5,951.9094,1703.5,947.9094,1707.5,951.9094,1703.5,955.9094,1712.5,951.9094" style="stroke:#64748B;stroke-width:1;"/><text fill="#475569" font-family="Verdana" font-size="10" lengthAdjust="spacing" textLength="50.4639" x="765.3" y="949.1916">&#171;imports&#187;</text></g><!--link WP to AT--><g class="link" data-entity-1="ent0013" data-entity-2="ent0015" data-link-type="dependency" data-source-line="88" id="lnk45"><path d="M336,476.8094 C336,523.8394 336,614.1294 336,660.9894" fill="none" id="WP-to-AT" style="stroke:#64748B;stroke-width:1;"/><polygon fill="#64748B" points="336,666.9894,340,657.9894,336,661.9894,332,657.9894,336,666.9894" style="stroke:#64748B;stroke-width:1;"/><text fill="#475569" font-family="Verdana" font-size="10" lengthAdjust="spacing" textLength="128.584" x="207" y="557.1816">renderAlertTimelineSVG()</text><text fill="#475569" font-family="Verdana" font-size="10" lengthAdjust="spacing" textLength="125.0049" x="208.7896" y="568.8222">(mini-timeline nos cards)</text></g><!--link WP to CONT--><g class="link" data-entity-1="ent0013" data-entity-2="ent0023" data-link-type="dependency" data-source-line="89" id="lnk46"><path d="M412.87,440.9094 C425.96,440.9094 435.43,440.9094 435.43,440.9094 C435.43,440.9094 435.43,684.9094 435.43,684.9094 C435.43,684.9094 1214.15,684.9094 1482.37,684.9094" fill="none" id="WP-to-CONT" style="stroke:#64748B;stroke-width:1;"/><polygon fill="#64748B" points="1488.37,684.9094,1479.37,680.9094,1483.37,684.9094,1479.37,688.9094,1488.37,684.9094" style="stroke:#64748B;stroke-width:1;"/><text fill="#475569" font-family="Verdana" font-size="10" lengthAdjust="spacing" textLength="114.3457" x="698.8275" y="670.1916">window.postMessage()</text><text fill="#475569" font-family="Verdana" font-size="10" lengthAdjust="spacing" textLength="144.7607" x="683.62" y="681.8322">__wmPushAlertToExtension()</text></g><!--link A2 to TYPES--><g class="link" data-entity-1="ent0014" data-entity-2="ent0006" data-link-type="dependency" data-source-line="90" id="lnk47"><path d="M673,476.7794 C673,576.8994 673,920.9094 673,920.9094 C673,920.9094 1458.44,920.9094 1706.54,920.9094" fill="none" id="A2-to-TYPES" style="stroke:#64748B;stroke-width:1;"/><polygon fill="#64748B" points="1712.54,920.9094,1703.54,916.9094,1707.54,920.9094,1703.54,924.9094,1712.54,920.9094" style="stroke:#64748B;stroke-width:1;"/><text fill="#475569" font-family="Verdana" font-size="10" lengthAdjust="spacing" textLength="50.4639" x="919.71" y="918.1916">&#171;imports&#187;</text></g><!--link AT to TYPES--><g class="link" data-entity-1="ent0015" data-entity-2="ent0006" data-link-type="dependency" data-source-line="91" id="lnk48"><path d="M336,720.4694 C336,789.1994 336,966.9094 336,966.9094 C336,966.9094 1411.84,966.9094 1706.6,966.9094" fill="none" id="AT-to-TYPES" style="stroke:#64748B;stroke-width:1;"/><polygon fill="#64748B" points="1712.6,966.9094,1703.6,962.9094,1707.6,966.9094,1703.6,970.9094,1712.6,966.9094" style="stroke:#64748B;stroke-width:1;"/><text fill="#475569" font-family="Verdana" font-size="10" lengthAdjust="spacing" textLength="50.4639" x="850.08" y="964.1916">&#171;imports&#187;</text></g><!--link SL to TYPES--><g class="link" data-entity-1="ent0016" data-entity-2="ent0006" data-link-type="dependency" data-source-line="92" id="lnk49"><path d="M507,482.4794 C507,591.7094 507,936.9094 507,936.9094 C507,936.9094 1433.8,936.9094 1706.18,936.9094" fill="none" id="SL-to-TYPES" style="stroke:#64748B;stroke-width:1;"/><polygon fill="#64748B" points="1712.18,936.9094,1703.18,932.9094,1707.18,936.9094,1703.18,940.9094,1712.18,936.9094" style="stroke:#64748B;stroke-width:1;"/><text fill="#475569" font-family="Verdana" font-size="10" lengthAdjust="spacing" textLength="50.4639" x="831.37" y="934.1916">&#171;imports&#187;</text></g><!--link MAIN to ISSE--><g class="link" data-entity-1="ent0012" data-entity-2="ent0026" data-link-type="dependency" data-source-line="94" id="lnk50"><path d="M1433.75,252.9094 C1515.65,252.9094 1624,252.9094 1624,252.9094 C1624,252.9094 1624,394.9494 1624,434.2694" fill="none" id="MAIN-to-ISSE" style="stroke:#64748B;stroke-width:1;"/><polygon fill="#64748B" points="1624,440.2694,1628,431.2694,1624,435.2694,1620,431.2694,1624,440.2694" style="stroke:#64748B;stroke-width:1;"/><text fill="#475569" font-family="Verdana" font-size="10" lengthAdjust="spacing" textLength="94.8633" x="1527.55" y="238.1916">new EventSource()</text><text fill="#475569" font-family="Verdana" font-size="10" lengthAdjust="spacing" textLength="66.4697" x="1541.7468" y="249.8322">conectaSSE()</text></g><!--link MAIN to IAPI--><g class="link" data-entity-1="ent0012" data-entity-2="ent0027" data-link-type="dependency" data-source-line="95" id="lnk51"><path d="M1433.57,247.9094 C1531.6,247.9094 1675,247.9094 1675,247.9094 C1675,247.9094 1675,394.3894 1675,434.2994" fill="none" id="MAIN-to-IAPI" style="stroke:#64748B;stroke-width:1;"/><polygon fill="#64748B" points="1675,440.2994,1679,431.2994,1675,435.2994,1671,431.2994,1675,440.2994" style="stroke:#64748B;stroke-width:1;"/><text fill="#475569" font-family="Verdana" font-size="10" lengthAdjust="spacing" textLength="94.1211" x="1667.21" y="258.1916">POST process-next</text><text fill="#475569" font-family="Verdana" font-size="10" lengthAdjust="spacing" textLength="125.5811" x="1651.48" y="269.8322">POST confirm-hypothesis</text><text fill="#475569" font-family="Verdana" font-size="10" lengthAdjust="spacing" textLength="52.8418" x="1687.8496" y="281.4729">POST seek</text><text fill="#475569" font-family="Verdana" font-size="10" lengthAdjust="spacing" textLength="56.499" x="1686.021" y="293.1135">POST finish</text></g><?plantuml-src tLRDZjis4BxhAQRRGv8c--FzINQD881shJX6rhQmSX84SR2W9SecLY9LajvjKXJ8kQS2RL-WnrvxwtNV94_I8INBb7_o0CtcOCrytt0ud6_81_3rpz_-7_-z1z3f-Tqhl-z32xv--GFwzxzttbmE8mYW4uJ1e7F_w-2YvqVmy6BO3uU3O30AeaV8-__KmFjEpsXEeSW8uvwdHG5Qm4HeBN98cAInPe9xweRnWaYIGyOurPyA2aBgcN0SN2HKqGAE3XoZ9Fp665jF3ppNBEOyYONaLCAfOv-G-6PgdHSY4nA-J-q_1v7GbCmp_L9mNK5QzF3iQB8P4h7F55fkGXSYBmIdN9yBcL1PnJWx9aUJqusmjOnEKvB6cw1EJWTfwzaXSK0zhgbCIKmRopuzVdPyEja8MrsM7jBJrDr8Y0WoRSQB9ya9RMq0hMsYbPwaP-l0Rst1brBSRKlSEXtsyREJawVk0WEXDwH1qxFuQ1NbxYYDawFZ1FkIwOn2XwZPH12Pm4k9Qr6ULBBz9vbdGW4YQ87M-xzvp8ZolABS5kme6UzFXD0xyBC742-E33veccFhQxgdrPZxONWz2lhXfJyAuDMeV_aHY88H6hnVLe9XyzArO6EkDDfjh41faWYOPc92Cf2Ke91knPZRaD5eU1MiSesgbENMRO2Bep6A9IjqHHsz3uDebPg9wPHAoxsqFu4gBUTwBZ67YdWvxAxIOe494wxBLKrIVZUuVXsyZohEnN0GZTRsdX1DrlO-8pp9g2n36VjSqzTXJpryP2EzyWUT3KMiw6f3APT_EOuc6tOeuvdP66vAGXG5y1YkyBYfN23jKds_DsW6ksCy4NVgkY2SPZQIjBHtfJqqvYhFTs6JYhboVUXmV6jmAVxX2WNBeAyrowcPbIxLE4QLFNhRNV17JRxAM5pIBh399Ge1Hnf8fdCyoiSG6RS4qxX2agpifyjcYAaanUpwbdrsLd_rgH0uwnLJNUEj5k--NLcS9NH2fCEBIejpbj5vatDJC0UFm4XZmrPW_6oYSv6GJ3c43jM4PNrZhZZzOQV9IL6wr4qAAyFBg-cS95DQyLuEX-lTId_2GQ4GkTPZiPqXseQzlhxBmxcQbMSaWWLfpClcsIk4qdsg5AbNGt4qLukel6MBrcoV71oqrfOqddCfRapBxjDRq_fbIICp3jX2zx3J3KPG0NOCeBU628SHGaZ1zcsFjlP_A86-BRXPQ7V1gZwC1_Dzi38bZLvWT_U57NJGXkVFcMajhLwyMFhin6ewntnAjQsNUWAAwkMPb1uhb2jgqNjxUyuwPeIjnYgr66cSnK_0HWt9fqoGf4758ROjGpDXqDSOFKllkn1zcrI_XFY7DQGXSWSnMYBMjEpKobJn3jzELggLY34RSpqGYNMQSuqPS9VJVLk7NXEg4_cyHZLakKJWTmrPAd7fHsdL_eRmbX2ZeXgp9ZJFmr9kESM5wvjr6lE7EUDiTp4WyU6e8CPBNJrQy8soR0dNbRTTgPWQdk2sp32bRIuyhcskPL5wLjF0wHq4HfMHcClOveDJ10j4qEyMqOWDyLQaXHHubQjTZgDepAq9IIcJ-UwiFklAeIYzgNwcM2KrypoEim_CmroazSEXyRfee-7hbx_0NZogtL3FXuyBftb_qAhts-38RGbn5OjXdCyQOsyMIsl3IgDQQmMBwxPf0rxOZ4yhXxtSAdvK_qPdY6y7fZJEJw0vba6PCutmEOLPUUQbPyfG5KEowKoRSbHNVOWIivSa9eoF0mBt_t8MYprq3UMFS_jaM1J9dAETgv09KLJ6yXK11IjiIrPMqxOISi8nXHmPbRdkE2Ym3IlZ6sKUNNPUrzd-1m00?></g></svg>