<svg xmlns="http://www.w3.org/2000/svg" xmlns:xlink="http://www.w3.org/1999/xlink" contentStyleType="text/css" data-diagram-type="SEQUENCE" height="1243px" preserveAspectRatio="none" style="width:908px;height:1243px;background:#FFFFFF;" version="1.1" viewBox="0 0 908 1243" width="908px" zoomAndPan="magnify"><?plantuml 1.2026.4beta2?><defs/><g><g class="title" data-source-line="23"><text fill="#1E293B" font-family="Verdana" font-size="22" font-weight="700" lengthAdjust="spacing" textLength="876.4766" x="15" y="35.4209">Dashboard Frontend &#8212; Sequ&#234;ncia: Confirma&#231;&#227;o Manual pelo Operador</text></g><g class="participant-lifeline" data-entity-uid="part1" data-qualified-name="UI" data-source-line="25" id="part1-lifeline"><g><title>Analista</title><rect fill="#000000" fill-opacity="0.00000" height="1040.6719" width="8" x="48.1194" y="124.25"/><line style="stroke:#94A3B8;stroke-width:1;stroke-dasharray:5,5;" x1="52.0583" x2="52.0583" y1="124.25" y2="1164.9219"/></g></g><g class="participant-lifeline" data-entity-uid="part2" data-qualified-name="WP" data-source-line="26" id="part2-lifeline"><g><title>windows_panel.ts</title><rect fill="#000000" fill-opacity="0.00000" height="1040.6719" width="8" x="230.4456" y="124.25"/><line style="stroke:#94A3B8;stroke-width:1;stroke-dasharray:5,5;" x1="234.344" x2="234.344" y1="124.25" y2="1164.9219"/></g></g><g class="participant-lifeline" data-entity-uid="part3" data-qualified-name="MAIN" data-source-line="27" id="part3-lifeline"><g><title>main.ts</title><rect fill="#000000" fill-opacity="0.00000" height="1040.6719" width="8" x="389.1877" y="124.25"/><line style="stroke:#94A3B8;stroke-width:1;stroke-dasharray:5,5;" x1="392.5403" x2="392.5403" y1="124.25" y2="1164.9219"/></g></g><g class="participant-lifeline" data-entity-uid="part4" data-qualified-name="SSE" data-source-line="28" id="part4-lifeline"><g><title>SSE Server</title><rect fill="#000000" fill-opacity="0.00000" height="1040.6719" width="8" x="574.5022" y="124.25"/><line style="stroke:#94A3B8;stroke-width:1;stroke-dasharray:5,5;" x1="578.0095" x2="578.0095" y1="124.25" y2="1164.9219"/></g></g><g class="participant-lifeline" data-entity-uid="part5" data-qualified-name="A2" data-source-line="29" id="part5-lifeline"><g><title>Agent 2</title><rect fill="#000000" fill-opacity="0.00000" height="1040.6719" width="8" x="774.7239" y="124.25"/><line style="stroke:#94A3B8;stroke-width:1;stroke-dasharray:5,5;" x1="778.5544" x2="778.5544" y1="124.25" y2="1164.9219"/></g></g><g class="participant participant-head" data-entity-uid="part1" data-qualified-name="UI" data-source-line="25" id="part1-head"><text fill="#1E293B" font-family="Verdana" font-size="10" lengthAdjust="spacing" textLength="40.1221" x="29.0583" y="121.8916">Analista</text><ellipse cx="52.1194" cy="60.6094" fill="#FFFFFF" rx="8" ry="8" style="stroke:#000000;stroke-width:1;"/><path d="M52.1194,68.6094 L52.1194,95.6094 M39.1194,76.6094 L65.1194,76.6094 M52.1194,95.6094 L39.1194,110.6094 M52.1194,95.6094 L65.1194,110.6094" fill="none" style="stroke:#000000;stroke-width:1;"/></g><g class="participant participant-tail" data-entity-uid="part1" data-qualified-name="UI" data-source-line="25" id="part1-tail"><text fill="#1E293B" font-family="Verdana" font-size="10" lengthAdjust="spacing" textLength="40.1221" x="29.0583" y="1173.2041">Analista</text><ellipse cx="52.1194" cy="1184.5625" fill="#FFFFFF" rx="8" ry="8" style="stroke:#000000;stroke-width:1;"/><path d="M52.1194,1192.5625 L52.1194,1219.5625 M39.1194,1200.5625 L65.1194,1200.5625 M52.1194,1219.5625 L39.1194,1234.5625 M52.1194,1219.5625 L65.1194,1234.5625" fill="none" style="stroke:#000000;stroke-width:1;"/></g><g class="participant participant-head" data-entity-uid="part2" data-qualified-name="WP" data-source-line="26" id="part2-head"><rect fill="#E2E8F0" height="33.2813" rx="3" ry="3" style="stroke:#94A3B8;stroke-width:1;" width="98.2031" x="185.344" y="84.9688"/><text fill="#0F172A" font-family="Verdana" font-size="10" lengthAdjust="spacing" textLength="88.2031" x="190.344" y="99.251">windows_panel.ts</text><text fill="#0F172A" font-family="Verdana" font-size="10" lengthAdjust="spacing" textLength="32.002" x="218.4446" y="110.8916">(DOM)</text></g><g class="participant participant-tail" data-entity-uid="part2" data-qualified-name="WP" data-source-line="26" id="part2-tail"><rect fill="#E2E8F0" height="33.2813" rx="3" ry="3" style="stroke:#94A3B8;stroke-width:1;" width="98.2031" x="185.344" y="1168.9219"/><text fill="#0F172A" font-family="Verdana" font-size="10" lengthAdjust="spacing" textLength="88.2031" x="190.344" y="1183.2041">windows_panel.ts</text><text fill="#0F172A" font-family="Verdana" font-size="10" lengthAdjust="spacing" textLength="32.002" x="218.4446" y="1194.8447">(DOM)</text></g><g class="participant participant-head" data-entity-uid="part3" data-qualified-name="MAIN" data-source-line="27" id="part3-head"><rect fill="#E2E8F0" height="21.6406" rx="3" ry="3" style="stroke:#94A3B8;stroke-width:1;" width="47.2949" x="369.5403" y="96.6094"/><text fill="#0F172A" font-family="Verdana" font-size="10" lengthAdjust="spacing" textLength="37.2949" x="374.5403" y="110.8916">main.ts</text></g><g class="participant participant-tail" data-entity-uid="part3" data-qualified-name="MAIN" data-source-line="27" id="part3-tail"><rect fill="#E2E8F0" height="21.6406" rx="3" ry="3" style="stroke:#94A3B8;stroke-width:1;" width="47.2949" x="369.5403" y="1168.9219"/><text fill="#0F172A" font-family="Verdana" font-size="10" lengthAdjust="spacing" textLength="37.2949" x="374.5403" y="1183.2041">main.ts</text></g><g class="participant participant-head" data-entity-uid="part4" data-qualified-name="SSE" data-source-line="28" id="part4-head"><rect fill="#E2E8F0" height="33.2813" rx="3" ry="3" style="stroke:#94A3B8;stroke-width:1;" width="64.9854" x="546.0095" y="84.9688"/><text fill="#0F172A" font-family="Verdana" font-size="10" lengthAdjust="spacing" textLength="54.9854" x="551.0095" y="99.251">SSE Server</text><text fill="#0F172A" font-family="Verdana" font-size="10" lengthAdjust="spacing" textLength="28.8184" x="564.093" y="110.8916">:5001</text></g><g class="participant participant-tail" data-entity-uid="part4" data-qualified-name="SSE" data-source-line="28" id="part4-tail"><rect fill="#E2E8F0" height="33.2813" rx="3" ry="3" style="stroke:#94A3B8;stroke-width:1;" width="64.9854" x="546.0095" y="1168.9219"/><text fill="#0F172A" font-family="Verdana" font-size="10" lengthAdjust="spacing" textLength="54.9854" x="551.0095" y="1183.2041">SSE Server</text><text fill="#0F172A" font-family="Verdana" font-size="10" lengthAdjust="spacing" textLength="28.8184" x="564.093" y="1194.8447">:5001</text></g><g class="participant participant-head" data-entity-uid="part5" data-qualified-name="A2" data-source-line="29" id="part5-head"><rect fill="#E2E8F0" height="33.2813" rx="3" ry="3" style="stroke:#94A3B8;stroke-width:1;" width="92.3389" x="732.5544" y="84.9688"/><text fill="#0F172A" font-family="Verdana" font-size="10" lengthAdjust="spacing" textLength="39.1406" x="759.1536" y="99.251">Agent 2</text><text fill="#0F172A" font-family="Verdana" font-size="10" lengthAdjust="spacing" textLength="82.3389" x="737.5544" y="110.8916">(GraphReporter)</text></g><g class="participant participant-tail" data-entity-uid="part5" data-qualified-name="A2" data-source-line="29" id="part5-tail"><rect fill="#E2E8F0" height="33.2813" rx="3" ry="3" style="stroke:#94A3B8;stroke-width:1;" width="92.3389" x="732.5544" y="1168.9219"/><text fill="#0F172A" font-family="Verdana" font-size="10" lengthAdjust="spacing" textLength="39.1406" x="759.1536" y="1183.2041">Agent 2</text><text fill="#0F172A" font-family="Verdana" font-size="10" lengthAdjust="spacing" textLength="82.3389" x="737.5544" y="1194.8447">(GraphReporter)</text></g><path d="M14.0583,142.25 L14.0583,192.25 A3,3 0 0 0 17.0583,195.25 L270.0583,195.25 A3,3 0 0 0 273.0583,192.25 L273.0583,149.25 L263.0583,139.25 L17.0583,139.25 A3,3 0 0 0 14.0583,142.25" fill="#FEF9C3" style="stroke:#FCD34D;stroke-width:1;"/><path d="M263.0583,139.25 L263.0583,147.75 A1.5,1.5 0 0 0 264.5583,149.25 L273.0583,149.25 L263.0583,139.25" fill="#FEF9C3" style="stroke:#FCD34D;stroke-width:1;"/><text fill="#1E293B" font-family="Verdana" font-size="10" lengthAdjust="spacing" textLength="194.5752" x="38.0161" y="153.5322">Botao de confirmacao aparece no card</text><text fill="#1E293B" font-family="Verdana" font-size="10" lengthAdjust="spacing" textLength="133.6279" x="38.0161" y="165.1729">quando prob_top &gt;= 75%.</text><text fill="#1E293B" font-family="Verdana" font-size="10" lengthAdjust="spacing" textLength="202.5732" x="38.0161" y="176.8135">Cada botao mostra tier + probabilidade.</text><text fill="#1E293B" font-family="Verdana" font-size="10" lengthAdjust="spacing" textLength="156.0791" x="38.0161" y="188.4541">ex: [CR 85%] [HI 10%] [LO 5%]</text><g class="message" data-entity-1="part1" data-entity-2="part2" data-source-line="38" id="msg1"><polygon fill="#64748B" points="222.4456,237.7344,232.4456,241.7344,222.4456,245.7344,226.4456,241.7344" style="stroke:#64748B;stroke-width:1;"/><line style="stroke:#64748B;stroke-width:1;" x1="52.1194" x2="228.4456" y1="241.7344" y2="241.7344"/><text fill="#475569" font-family="Verdana" font-size="10" font-weight="700" lengthAdjust="spacing" textLength="6.958" x="59.1194" y="225.7354">1</text><text fill="#475569" font-family="Verdana" font-size="10" lengthAdjust="spacing" textLength="72.6611" x="70.0774" y="214.0947">click [CR 85%]</text><text fill="#475569" font-family="Verdana" font-size="10" lengthAdjust="spacing" textLength="126.9238" x="70.0774" y="225.7354">__wmConfirmHypothesis(</text><text fill="#475569" font-family="Verdana" font-size="10" lengthAdjust="spacing" textLength="141.0107" x="76.4348" y="237.376">windowId, hypothesis_label)</text></g><g class="message" data-entity-1="part2" data-entity-2="part4" data-source-line="39" id="msg2"><polygon fill="#64748B" points="566.5022,275.0156,576.5022,279.0156,566.5022,283.0156,570.5022,279.0156" style="stroke:#64748B;stroke-width:1;"/><line style="stroke:#64748B;stroke-width:1;" x1="234.4456" x2="572.5022" y1="279.0156" y2="279.0156"/><text fill="#475569" font-family="Verdana" font-size="10" font-weight="700" lengthAdjust="spacing" textLength="6.958" x="241.4456" y="268.8369">2</text><text fill="#475569" font-family="Verdana" font-size="10" lengthAdjust="spacing" textLength="186.1914" x="252.4036" y="263.0166">POST /api/agent1/confirm-hypothesis</text><text fill="#475569" font-family="Verdana" font-size="10" lengthAdjust="spacing" textLength="154.6631" x="252.4036" y="274.6572">{window_id, hypothesis_label}</text></g><path d="M239.0583,295.0156 L239.0583,333.0156 A3,3 0 0 0 242.0583,336.0156 L400.0583,336.0156 A3,3 0 0 0 403.0583,333.0156 L403.0583,302.0156 L393.0583,292.0156 L242.0583,292.0156 A3,3 0 0 0 239.0583,295.0156" fill="#FEF9C3" style="stroke:#FCD34D;stroke-width:1;"/><path d="M393.0583,292.0156 L393.0583,300.5156 A1.5,1.5 0 0 0 394.5583,302.0156 L403.0583,302.0156 L393.0583,292.0156" fill="#FEF9C3" style="stroke:#FCD34D;stroke-width:1;"/><text fill="#1E293B" font-family="Verdana" font-size="10" lengthAdjust="spacing" textLength="106.9531" x="245.0583" y="306.2979">Nao espera pelo SSE.</text><text fill="#1E293B" font-family="Verdana" font-size="10" lengthAdjust="spacing" textLength="143.8867" x="245.0583" y="317.9385">Fecha o card imediatamente</text><text fill="#1E293B" font-family="Verdana" font-size="10" lengthAdjust="spacing" textLength="88.1396" x="245.0583" y="329.5791">via CustomEvent.</text><g class="message" data-entity-1="part2" data-entity-2="part2" data-source-line="47" id="msg3"><line style="stroke:#64748B;stroke-width:1;" x1="234.4456" x2="276.4456" y1="382.8594" y2="382.8594"/><line style="stroke:#64748B;stroke-width:1;" x1="276.4456" x2="276.4456" y1="382.8594" y2="395.8594"/><line style="stroke:#64748B;stroke-width:1;" x1="235.4456" x2="276.4456" y1="395.8594" y2="395.8594"/><polygon fill="#64748B" points="245.4456,391.8594,235.4456,395.8594,245.4456,399.8594,241.4456,395.8594" style="stroke:#64748B;stroke-width:1;"/><text fill="#475569" font-family="Verdana" font-size="10" font-weight="700" lengthAdjust="spacing" textLength="6.958" x="241.4456" y="366.8604">3</text><text fill="#475569" font-family="Verdana" font-size="10" lengthAdjust="spacing" textLength="116.2354" x="252.4036" y="355.2197">window.dispatchEvent(</text><text fill="#475569" font-family="Verdana" font-size="10" lengthAdjust="spacing" textLength="127.4268" x="258.761" y="366.8604">'wm-operator-confirmed',</text><text fill="#475569" font-family="Verdana" font-size="10" lengthAdjust="spacing" textLength="94.4043" x="258.761" y="378.501">{windowId, label})</text></g><g class="message" data-entity-1="part3" data-entity-2="part3" data-source-line="49" id="msg4"><line style="stroke:#64748B;stroke-width:1;" x1="393.1877" x2="435.1877" y1="468.0625" y2="468.0625"/><line style="stroke:#64748B;stroke-width:1;" x1="435.1877" x2="435.1877" y1="468.0625" y2="481.0625"/><line style="stroke:#64748B;stroke-width:1;" x1="394.1877" x2="435.1877" y1="481.0625" y2="481.0625"/><polygon fill="#64748B" points="404.1877,477.0625,394.1877,481.0625,404.1877,485.0625,400.1877,481.0625" style="stroke:#64748B;stroke-width:1;"/><text fill="#475569" font-family="Verdana" font-size="10" font-weight="700" lengthAdjust="spacing" textLength="6.958" x="400.1877" y="440.4229">4</text><text fill="#475569" font-family="Verdana" font-size="10" lengthAdjust="spacing" textLength="160.3564" x="411.1458" y="417.1416">[listener] _activeWindows[i] = {</text><text fill="#475569" font-family="Verdana" font-size="10" lengthAdjust="spacing" textLength="75.3418" x="417.5032" y="428.7822">is_closed: true,</text><text fill="#475569" font-family="Verdana" font-size="10" lengthAdjust="spacing" textLength="148.4473" x="417.5032" y="440.4229">close_reason: "[HAND] label",</text><text fill="#475569" font-family="Verdana" font-size="10" lengthAdjust="spacing" textLength="126.626" x="417.5032" y="452.0635">confirmed_by: "operator"</text><text fill="#475569" font-family="Verdana" font-size="10" lengthAdjust="spacing" textLength="6.3623" x="411.1458" y="463.7041">}</text></g><g class="message" data-entity-1="part3" data-entity-2="part3" data-source-line="50" id="msg5"><line style="stroke:#64748B;stroke-width:1;" x1="393.1877" x2="435.1877" y1="506.7031" y2="506.7031"/><line style="stroke:#64748B;stroke-width:1;" x1="435.1877" x2="435.1877" y1="506.7031" y2="519.7031"/><line style="stroke:#64748B;stroke-width:1;" x1="394.1877" x2="435.1877" y1="519.7031" y2="519.7031"/><polygon fill="#64748B" points="404.1877,515.7031,394.1877,519.7031,404.1877,523.7031,400.1877,519.7031" style="stroke:#64748B;stroke-width:1;"/><text fill="#475569" font-family="Verdana" font-size="10" font-weight="700" lengthAdjust="spacing" textLength="6.958" x="400.1877" y="502.3447">5</text><text fill="#475569" font-family="Verdana" font-size="10" lengthAdjust="spacing" textLength="138.4473" x="411.1458" y="502.3447">_pendingReports.add(label)</text></g><g class="message" data-entity-1="part3" data-entity-2="part3" data-source-line="51" id="msg6"><line style="stroke:#64748B;stroke-width:1;" x1="393.1877" x2="435.1877" y1="556.9844" y2="556.9844"/><line style="stroke:#64748B;stroke-width:1;" x1="435.1877" x2="435.1877" y1="556.9844" y2="569.9844"/><line style="stroke:#64748B;stroke-width:1;" x1="394.1877" x2="435.1877" y1="569.9844" y2="569.9844"/><polygon fill="#64748B" points="404.1877,565.9844,394.1877,569.9844,404.1877,573.9844,400.1877,569.9844" style="stroke:#64748B;stroke-width:1;"/><text fill="#475569" font-family="Verdana" font-size="10" font-weight="700" lengthAdjust="spacing" textLength="6.958" x="400.1877" y="546.8057">6</text><text fill="#475569" font-family="Verdana" font-size="10" lengthAdjust="spacing" textLength="120.2051" x="411.1458" y="540.9854">_updatePendingBadge()</text><text fill="#475569" font-family="Verdana" font-size="10" lengthAdjust="spacing" textLength="118.4326" x="411.1458" y="552.626">[HOURGLASS] N em fila</text></g><g class="message" data-entity-1="part3" data-entity-2="part3" data-source-line="52" id="msg7"><line style="stroke:#64748B;stroke-width:1;" x1="393.1877" x2="435.1877" y1="595.625" y2="595.625"/><line style="stroke:#64748B;stroke-width:1;" x1="435.1877" x2="435.1877" y1="595.625" y2="608.625"/><line style="stroke:#64748B;stroke-width:1;" x1="394.1877" x2="435.1877" y1="608.625" y2="608.625"/><polygon fill="#64748B" points="404.1877,604.625,394.1877,608.625,404.1877,612.625,400.1877,608.625" style="stroke:#64748B;stroke-width:1;"/><text fill="#475569" font-family="Verdana" font-size="10" font-weight="700" lengthAdjust="spacing" textLength="6.958" x="400.1877" y="591.2666">7</text><text fill="#475569" font-family="Verdana" font-size="10" lengthAdjust="spacing" textLength="58.6621" x="411.1458" y="591.2666">renderFull()</text></g><path d="M398.0583,624.625 L398.0583,686.625 A3,3 0 0 0 401.0583,689.625 L632.0583,689.625 A3,3 0 0 0 635.0583,686.625 L635.0583,631.625 L625.0583,621.625 L401.0583,621.625 A3,3 0 0 0 398.0583,624.625" fill="#FEF9C3" style="stroke:#FCD34D;stroke-width:1;"/><path d="M625.0583,621.625 L625.0583,630.125 A1.5,1.5 0 0 0 626.5583,631.625 L635.0583,631.625 L625.0583,621.625" fill="#FEF9C3" style="stroke:#FCD34D;stroke-width:1;"/><text fill="#1E293B" font-family="Verdana" font-size="10" lengthAdjust="spacing" textLength="151.9287" x="404.0583" y="635.9072">Card desaparece das ACTIVAS</text><text fill="#1E293B" font-family="Verdana" font-size="10" lengthAdjust="spacing" textLength="150.9375" x="404.0583" y="647.5479">e aparece em FECHADAS com</text><text fill="#1E293B" font-family="Verdana" font-size="10" lengthAdjust="spacing" textLength="209.5703" x="404.0583" y="659.1885">badge "[HAND] Confirmado pelo analista"</text><text fill="#1E293B" font-family="Verdana" font-size="10" lengthAdjust="spacing" textLength="216.2158" x="404.0583" y="670.8291">Badge [HOURGLASS] N em fila aparece em</text><text fill="#1E293B" font-family="Verdana" font-size="10" lengthAdjust="spacing" textLength="168.9063" x="404.0583" y="682.4697">[CLIPBOARD] Intelligence Reports</text><g class="message" data-entity-1="part4" data-entity-2="part3" data-source-line="61" id="msg8"><polygon fill="#64748B" points="404.1877,731.75,394.1877,735.75,404.1877,739.75,400.1877,735.75" style="stroke:#64748B;stroke-width:1;"/><line style="stroke:#64748B;stroke-width:1;stroke-dasharray:2,2;" x1="398.1877" x2="577.5022" y1="735.75" y2="735.75"/><text fill="#475569" font-family="Verdana" font-size="10" font-weight="700" lengthAdjust="spacing" textLength="6.958" x="410.1877" y="719.751">8</text><text fill="#475569" font-family="Verdana" font-size="10" lengthAdjust="spacing" textLength="144.9658" x="421.1458" y="708.1104">event: hypothesis_confirmed</text><text fill="#475569" font-family="Verdana" font-size="10" lengthAdjust="spacing" textLength="137.4561" x="421.1458" y="719.751">{label, method: "operator",</text><text fill="#475569" font-family="Verdana" font-size="10" lengthAdjust="spacing" textLength="91.875" x="424.3245" y="731.3916">window_id, score}</text></g><path d="M398.0583,751.75 L398.0583,801.75 A3,3 0 0 0 401.0583,804.75 L566.0583,804.75 A3,3 0 0 0 569.0583,801.75 L569.0583,758.75 L559.0583,748.75 L401.0583,748.75 A3,3 0 0 0 398.0583,751.75" fill="#FEF9C3" style="stroke:#FCD34D;stroke-width:1;"/><path d="M559.0583,748.75 L559.0583,757.25 A1.5,1.5 0 0 0 560.5583,758.75 L569.0583,758.75 L559.0583,748.75" fill="#FEF9C3" style="stroke:#FCD34D;stroke-width:1;"/><text fill="#1E293B" font-family="Verdana" font-size="10" lengthAdjust="spacing" textLength="150.918" x="404.0583" y="763.0322">SSE confirma depois do POST.</text><text fill="#1E293B" font-family="Verdana" font-size="10" lengthAdjust="spacing" textLength="126.2695" x="404.0583" y="774.6729">O card ja esta fechado &#8212;</text><text fill="#1E293B" font-family="Verdana" font-size="10" lengthAdjust="spacing" textLength="137.1045" x="404.0583" y="786.3135">o evento apenas sincroniza</text><text fill="#1E293B" font-family="Verdana" font-size="10" lengthAdjust="spacing" textLength="121.3037" x="404.0583" y="797.9541">o estado (idempotente).</text><g class="message" data-entity-1="part4" data-entity-2="part5" data-source-line="69" id="msg9"><polygon fill="#64748B" points="766.7239,835.5938,776.7239,839.5938,766.7239,843.5938,770.7239,839.5938" style="stroke:#64748B;stroke-width:1;"/><line style="stroke:#64748B;stroke-width:1;" x1="578.5022" x2="772.7239" y1="839.5938" y2="839.5938"/><text fill="#475569" font-family="Verdana" font-size="10" font-weight="700" lengthAdjust="spacing" textLength="6.958" x="585.5022" y="829.415">9</text><text fill="#475569" font-family="Verdana" font-size="10" lengthAdjust="spacing" textLength="99.0674" x="596.4602" y="823.5947">trigger_report_now(</text><text fill="#475569" font-family="Verdana" font-size="10" lengthAdjust="spacing" textLength="158.9063" x="602.8176" y="835.2354">label, score, ts, tier, "operator")</text></g><g class="message" data-entity-1="part5" data-entity-2="part5" data-source-line="70" id="msg10"><line style="stroke:#64748B;stroke-width:1;" x1="778.7239" x2="820.7239" y1="876.875" y2="876.875"/><line style="stroke:#64748B;stroke-width:1;" x1="820.7239" x2="820.7239" y1="876.875" y2="889.875"/><line style="stroke:#64748B;stroke-width:1;" x1="779.7239" x2="820.7239" y1="889.875" y2="889.875"/><polygon fill="#64748B" points="789.7239,885.875,779.7239,889.875,789.7239,893.875,785.7239,889.875" style="stroke:#64748B;stroke-width:1;"/><text fill="#475569" font-family="Verdana" font-size="10" font-weight="700" lengthAdjust="spacing" textLength="13.916" x="785.7239" y="866.6963">10</text><text fill="#475569" font-family="Verdana" font-size="10" lengthAdjust="spacing" textLength="80.8057" x="803.6399" y="860.876">_enqueue(label)</text><text fill="#475569" font-family="Verdana" font-size="10" lengthAdjust="spacing" textLength="87.7783" x="803.6399" y="872.5166">_process_queue()</text></g><g class="message" data-entity-1="part5" data-entity-2="part4" data-source-line="72" id="msg11"><polygon fill="#64748B" points="589.5022,923.1563,579.5022,927.1563,589.5022,931.1563,585.5022,927.1563" style="stroke:#64748B;stroke-width:1;"/><line style="stroke:#64748B;stroke-width:1;" x1="583.5022" x2="777.7239" y1="927.1563" y2="927.1563"/><text fill="#475569" font-family="Verdana" font-size="10" font-weight="700" lengthAdjust="spacing" textLength="13.916" x="595.5022" y="916.9775">11</text><text fill="#475569" font-family="Verdana" font-size="10" lengthAdjust="spacing" textLength="63.6523" x="613.4182" y="911.1572">POST /ingest</text><text fill="#475569" font-family="Verdana" font-size="10" lengthAdjust="spacing" textLength="152.2998" x="613.4182" y="922.7979">{type: "ciso_report", payload}</text></g><g class="message" data-entity-1="part4" data-entity-2="part3" data-source-line="73" id="msg12"><polygon fill="#64748B" points="404.1877,948.7969,394.1877,952.7969,404.1877,956.7969,400.1877,952.7969" style="stroke:#64748B;stroke-width:1;"/><line style="stroke:#64748B;stroke-width:1;stroke-dasharray:2,2;" x1="398.1877" x2="577.5022" y1="952.7969" y2="952.7969"/><text fill="#475569" font-family="Verdana" font-size="10" font-weight="700" lengthAdjust="spacing" textLength="13.916" x="410.1877" y="948.4385">12</text><text fill="#475569" font-family="Verdana" font-size="10" lengthAdjust="spacing" textLength="137.0605" x="428.1038" y="948.4385">event: ciso_report {report}</text></g><g class="message" data-entity-1="part3" data-entity-2="part3" data-source-line="75" id="msg13"><line style="stroke:#64748B;stroke-width:1;" x1="393.1877" x2="435.1877" y1="978.4375" y2="978.4375"/><line style="stroke:#64748B;stroke-width:1;" x1="435.1877" x2="435.1877" y1="978.4375" y2="991.4375"/><line style="stroke:#64748B;stroke-width:1;" x1="394.1877" x2="435.1877" y1="991.4375" y2="991.4375"/><polygon fill="#64748B" points="404.1877,987.4375,394.1877,991.4375,404.1877,995.4375,400.1877,991.4375" style="stroke:#64748B;stroke-width:1;"/><text fill="#475569" font-family="Verdana" font-size="10" font-weight="700" lengthAdjust="spacing" textLength="13.916" x="400.1877" y="974.0791">13</text><text fill="#475569" font-family="Verdana" font-size="10" lengthAdjust="spacing" textLength="151.1279" x="418.1038" y="974.0791">_pendingReports.delete(label)</text></g><g class="message" data-entity-1="part3" data-entity-2="part3" data-source-line="76" id="msg14"><line style="stroke:#64748B;stroke-width:1;" x1="393.1877" x2="435.1877" y1="1017.0781" y2="1017.0781"/><line style="stroke:#64748B;stroke-width:1;" x1="435.1877" x2="435.1877" y1="1017.0781" y2="1030.0781"/><line style="stroke:#64748B;stroke-width:1;" x1="394.1877" x2="435.1877" y1="1030.0781" y2="1030.0781"/><polygon fill="#64748B" points="404.1877,1026.0781,394.1877,1030.0781,404.1877,1034.0781,400.1877,1030.0781" style="stroke:#64748B;stroke-width:1;"/><text fill="#475569" font-family="Verdana" font-size="10" font-weight="700" lengthAdjust="spacing" textLength="13.916" x="400.1877" y="1012.7197">14</text><text fill="#475569" font-family="Verdana" font-size="10" lengthAdjust="spacing" textLength="120.2051" x="418.1038" y="1012.7197">_updatePendingBadge()</text></g><g class="message" data-entity-1="part3" data-entity-2="part3" data-source-line="77" id="msg15"><line style="stroke:#64748B;stroke-width:1;" x1="393.1877" x2="435.1877" y1="1055.7188" y2="1055.7188"/><line style="stroke:#64748B;stroke-width:1;" x1="435.1877" x2="435.1877" y1="1055.7188" y2="1068.7188"/><line style="stroke:#64748B;stroke-width:1;" x1="394.1877" x2="435.1877" y1="1068.7188" y2="1068.7188"/><polygon fill="#64748B" points="404.1877,1064.7188,394.1877,1068.7188,404.1877,1072.7188,400.1877,1068.7188" style="stroke:#64748B;stroke-width:1;"/><text fill="#475569" font-family="Verdana" font-size="10" font-weight="700" lengthAdjust="spacing" textLength="13.916" x="400.1877" y="1051.3604">15</text><text fill="#475569" font-family="Verdana" font-size="10" lengthAdjust="spacing" textLength="58.6621" x="418.1038" y="1051.3604">renderFull()</text></g><path d="M398.0583,1084.7188 L398.0583,1146.7188 A3,3 0 0 0 401.0583,1149.7188 L585.0583,1149.7188 A3,3 0 0 0 588.0583,1146.7188 L588.0583,1091.7188 L578.0583,1081.7188 L401.0583,1081.7188 A3,3 0 0 0 398.0583,1084.7188" fill="#FEF9C3" style="stroke:#FCD34D;stroke-width:1;"/><path d="M578.0583,1081.7188 L578.0583,1090.2188 A1.5,1.5 0 0 0 579.5583,1091.7188 L588.0583,1091.7188 L578.0583,1081.7188" fill="#FEF9C3" style="stroke:#FCD34D;stroke-width:1;"/><text fill="#1E293B" font-family="Verdana" font-size="10" lengthAdjust="spacing" textLength="169.917" x="404.0583" y="1096.001">Badge [HOURGLASS] desaparece.</text><text fill="#1E293B" font-family="Verdana" font-size="10" lengthAdjust="spacing" textLength="113.667" x="404.0583" y="1107.6416">Novo card aparece em</text><text fill="#1E293B" font-family="Verdana" font-size="10" lengthAdjust="spacing" textLength="168.9063" x="404.0583" y="1119.2822">[CLIPBOARD] Intelligence Reports</text><text fill="#1E293B" font-family="Verdana" font-size="10" lengthAdjust="spacing" textLength="133.9111" x="404.0583" y="1130.9229">com methodIcon [HAND] e</text><text fill="#1E293B" font-family="Verdana" font-size="10" lengthAdjust="spacing" textLength="96.2988" x="404.0583" y="1142.5635">contexto da janela.</text><?plantuml-src tLNDRjj64BxpAQOg0bkexFWtjWKa02tvHu0jkLBS72o36767qYRaBhDSsN4C0m5wAD1J3-qJz52Wh-4toPDqbgHjHb7Sv1h10gsTR-Vdcs-62_3nhp--Zpzl0TeT_w3l7_km0Hy__0c3lPzFRt_ljZf-4rgzxdwdV-pV_dRxQm-E_UwfVmJj7lHEzlf-kzVdszyF4zuFTa89GHgZL5xsHgeK3IPWz5I9K1j51fvLpaSOlXddnfQEjO4Ve_nJGGYAS1hRVQri2LcbjPtrqNp8GBudM5sf60VqTaeg9DyOVLbwUBQnjR4z-XAe4cfZQtFpsSuSu96C-AjeLnj1faJlRE3wQFinz6VLRaSOXNDkdA2nCfGfAljr8QeNPgFG6cr7AuzVgXIz4grkhU4S-04xJRykdHpw695TRUVGGT5Ek3wBgWQCGh6-8JoSMgscoOYCvrbfOu8sPfEHHYDWtt1OKg8OHCxdzbyLIkH1r2gI9i7RVsx_rd2CQeenf1HhwALaK6XsXg7bCBx2M6OM0JCuxNZf0qrGkvHAwCiiu5yKBzjig1RRlUDwpM5VdNoAJNW869BRZlrEzrFhOB37-PaBCaFLt5nPMSrnVFefp1yJFzOupe71TDAdL1jBfeZehtcUOf90inlEjU5o0DZL5ZNF1OHbpI7_H7PB8O7I439H37ixHIu6KgD7WTKfl7WEMvjFbjdIGe4mohqaEhC6mKeEy5EEnP6CfK113adlcd3MwiFsvfDpE3liyFIvVuvwm0UUwuFBp_DEEx3qWhE39eIn3D_SNngg8BXCokOSNgMQDqWciyMX0YZ8xeW6JEuDGOmZYkiUksA7ZiGcdFG6B-4ffl8fEhPMdvPrBprS6whhmbiWvxYxAMaqSZoneAE2nYwNJvaJHw4J3kPAtgTmWb2m238X8T5Ymd69ZHSIeJNDh4xsBlXekK91aN5EGP7Aif1PYZQSvD2yueNBP4cxYAp3fR8A4WiDPxj-eAD8kkvvJbREQ_xaJZZT4c_PSmXOo_A2NXLwFPFdy1okdHkkEOnrHg89ramfTvqV18Omqwe9jRD3lzi-BwBK2i1TAi7eYW5tATQ6wcOsXo3bagKQ5qhDbb68nR9diyXfAj3IIO7VHJ6cnVfGdHtsJli7H_vWS0vTe0GY6UFiNSENoEnFutYnFjExVDISXhazWh8xtGitBwsNdL_yWTFj_JnmWFszrg7VzWTSPiAsaSladeMxlU4cnQa0o-rGSuEM8-ScNF7FmBFMKUTaj-VtsM67bHB7SkmM9PGiLMJY9BtqK2WvRJIhYhtl1Miw9xO12Tc95jN6kAvL19_novTkvXFb0juj2YOirJ83BjODbPDxhn3wQ-HPu9qOEVMpcTSh6tMHdzikf9ZWJAgG5x1yZuMHRp1sKGfAE7yt8_NbsLfVy1e39qOv7fDX5Jf60gKlyuaeAymBQ83D6lagQbHAhNjy_yvBG8fVGLCg9SVRXLTMI5aM5CSyCmMwkZbOVPmfqsclKc8MGvdfCezQ0rAyYZMAcozqfWA6w-9vu_tVK0YAoTAtpCMt3y3dudoO1jVOhhuebzYtITLjWwIKN8U50-MWK6xX6-zO3_p-UErUaVZGxly0?></g></svg>