<svg xmlns="http://www.w3.org/2000/svg" xmlns:xlink="http://www.w3.org/1999/xlink" contentStyleType="text/css" data-diagram-type="ACTIVITY" height="1008px" preserveAspectRatio="none" style="width:1845px;height:1008px;background:#FFFFFF;" version="1.1" viewBox="0 0 1845 1008" width="1845px" zoomAndPan="magnify"><?plantuml 1.2026.4beta2?><defs/><g><g class="title" data-source-line="24"><text fill="#1E293B" font-family="Verdana" font-size="22" font-weight="700" lengthAdjust="spacing" textLength="527.6777" x="657.6729" y="35.4209">Dashboard Frontend &#8212; Pipeline de Render</text></g><rect fill="#FFFFFF" height="11.6406" style="stroke:#FFFFFF;stroke-width:1;" width="1808.0234" x="15" y="57.6094"/><ellipse cx="155.4609" cy="84.25" fill="#FFFFFF" rx="10" ry="10" style="stroke:#000000;stroke-width:1;"/><rect fill="#F8FAFC" height="66.5625" rx="4" ry="4" style="stroke:#94A3B8;stroke-width:1;" width="117.4414" x="96.7402" y="114.25"/><text fill="#0F172A" font-family="Verdana" font-size="10" lengthAdjust="spacing" textLength="91.3965" x="106.7402" y="133.5322">Trigger de render:</text><text fill="#0F172A" font-family="Verdana" font-size="10" lengthAdjust="spacing" textLength="97.3584" x="106.7402" y="145.1729">SSE event recebido</text><text fill="#0F172A" font-family="Verdana" font-size="10" lengthAdjust="spacing" textLength="97.4414" x="106.7402" y="156.8135">OU user interaction</text><text fill="#0F172A" font-family="Verdana" font-size="10" lengthAdjust="spacing" textLength="66.2402" x="106.7402" y="168.4541">OU timer tick</text><rect fill="#F8FAFC" height="31.6406" rx="4" ry="4" style="stroke:#94A3B8;stroke-width:1;" width="78.6621" x="116.1299" y="200.8125"/><text fill="#0F172A" font-family="Verdana" font-size="10" lengthAdjust="spacing" textLength="58.6621" x="126.1299" y="220.0947">renderFull()</text><rect fill="#000000" height="6" rx="2.5" ry="2.5" style="stroke:#000000;stroke-width:1;" width="268.9219" x="21" y="252.4531"/><rect fill="#F8FAFC" height="54.9219" rx="4" ry="4" style="stroke:#94A3B8;stroke-width:1;" width="244.9219" x="33" y="654.0625"/><text fill="#0F172A" font-family="Verdana" font-size="10" lengthAdjust="spacing" textLength="80.2539" x="43" y="673.3447">_activeWindows</text><text fill="#0F172A" font-family="Verdana" font-size="10" lengthAdjust="spacing" textLength="125.9961" x="49.3574" y="684.9854">.filter(w =&gt; !w.is_closed)</text><text fill="#0F172A" font-family="Verdana" font-size="10" lengthAdjust="spacing" textLength="218.5645" x="49.3574" y="696.626">.forEach(_pushWindowContextToExtension)</text><rect fill="#F8FAFC" height="66.5625" rx="4" ry="4" style="stroke:#94A3B8;stroke-width:1;" width="196.3525" x="57.2847" y="776.9844"/><text fill="#0F172A" font-family="Verdana" font-size="10" lengthAdjust="spacing" textLength="110.4443" x="67.2847" y="796.2666">window.postMessage(</text><text fill="#0F172A" font-family="Verdana" font-size="10" lengthAdjust="spacing" textLength="169.9951" x="73.6421" y="807.9072">REDSHIFT_WINDOW_CONTEXT, '*'</text><text fill="#0F172A" font-family="Verdana" font-size="10" lengthAdjust="spacing" textLength="3.9014" x="67.2847" y="819.5479">)</text><text fill="#0F172A" font-family="Verdana" font-size="10" lengthAdjust="spacing" textLength="106.8799" x="67.2847" y="831.1885">-&gt; Chrome Extension</text><polygon fill="#E2E8F0" points="70.2144,728.9844,240.7075,728.9844,252.7075,740.9844,240.7075,752.9844,70.2144,752.9844,58.2144,740.9844,70.2144,728.9844" style="stroke:#64748B;stroke-width:1;"/><text fill="#475569" font-family="Verdana" font-size="10" lengthAdjust="spacing" textLength="17.7295" x="159.4609" y="762.2666">sim</text><text fill="#0F172A" font-family="Verdana" font-size="10" lengthAdjust="spacing" textLength="89.6533" x="70.2144" y="738.626">prob_top &gt;= 75%</text><text fill="#0F172A" font-family="Verdana" font-size="10" lengthAdjust="spacing" textLength="170.4932" x="70.2144" y="750.2666">AND NOT in _pushedToExtension?</text><text fill="#475569" font-family="Verdana" font-size="10" lengthAdjust="spacing" textLength="18.584" x="252.7075" y="738.626">nao</text><polygon fill="#E2E8F0" points="155.4609,863.5469,167.4609,875.5469,155.4609,887.5469,143.4609,875.5469,155.4609,863.5469" style="stroke:#64748B;stroke-width:1;"/><rect fill="#F8FAFC" height="43.2813" rx="4" ry="4" style="stroke:#94A3B8;stroke-width:1;" width="172.9346" x="68.9937" y="907.5469"/><text fill="#0F172A" font-family="Verdana" font-size="10" lengthAdjust="spacing" textLength="120.2051" x="78.9937" y="926.8291">_updatePendingBadge()</text><text fill="#0F172A" font-family="Verdana" font-size="10" lengthAdjust="spacing" textLength="152.9346" x="78.9937" y="938.4697">badge [HOURGLASS] N em fila</text><ellipse cx="155.4609" cy="981.8281" fill="none" rx="11" ry="11" style="stroke:#000000;stroke-width:1;"/><ellipse cx="155.4609" cy="981.8281" fill="#FFFFFF" rx="6" ry="6" style="stroke:#000000;stroke-width:1;"/><line style="stroke:#000000;stroke-width:1;" x1="15" x2="15" y1="57.6094" y2="992.8281"/><rect fill="#F8FAFC" height="124.7656" rx="4" ry="4" style="stroke:#94A3B8;stroke-width:1;" width="198.4473" x="299.9219" y="385.0547"/><text fill="#0F172A" font-family="Verdana" font-size="10" lengthAdjust="spacing" textLength="122.7246" x="309.9219" y="404.3369">updateTimelineDisplay()</text><text fill="#0F172A" font-family="Verdana" font-size="10" lengthAdjust="spacing" textLength="68.4033" x="309.9219" y="415.9775">-&gt; getAlerts()</text><text fill="#0F172A" font-family="Verdana" font-size="10" lengthAdjust="spacing" textLength="139.8486" x="309.9219" y="427.6182">-&gt; renderAlertTimelineSVG(</text><text fill="#0F172A" font-family="Verdana" font-size="10" lengthAdjust="spacing" textLength="90.8154" x="309.9219" y="439.2588">alerts, height=72,</text><text fill="#0F172A" font-family="Verdana" font-size="10" lengthAdjust="spacing" textLength="109.3652" x="309.9219" y="450.8994">selectedAlertNumber,</text><text fill="#0F172A" font-family="Verdana" font-size="10" lengthAdjust="spacing" textLength="127.3584" x="309.9219" y="462.54">onAlertClick -&gt; extension</text><text fill="#0F172A" font-family="Verdana" font-size="10" lengthAdjust="spacing" textLength="3.9014" x="309.9219" y="474.1807">)</text><text fill="#0F172A" font-family="Verdana" font-size="10" lengthAdjust="spacing" textLength="178.4473" x="309.9219" y="485.8213">-&gt; innerHTML do #timeline-content</text><text fill="#0F172A" font-family="Verdana" font-size="10" lengthAdjust="spacing" textLength="122.1826" x="309.9219" y="497.4619">-&gt; auto-scroll para o fim</text><line style="stroke:#000000;stroke-width:1;" x1="293.9219" x2="293.9219" y1="57.6094" y2="992.8281"/><rect fill="#F8FAFC" height="54.9219" rx="4" ry="4" style="stroke:#94A3B8;stroke-width:1;" width="147.4414" x="529.856" y="278.4531"/><text fill="#0F172A" font-family="Verdana" font-size="10" lengthAdjust="spacing" textLength="109.3994" x="539.856" y="297.7354">renderWindowsPanel(</text><text fill="#0F172A" font-family="Verdana" font-size="10" lengthAdjust="spacing" textLength="121.084" x="546.2134" y="309.376">_activeWindows, nowMs</text><text fill="#0F172A" font-family="Verdana" font-size="10" lengthAdjust="spacing" textLength="3.9014" x="539.856" y="321.0166">)</text><rect fill="#F8FAFC" height="31.6406" rx="4" ry="4" style="stroke:#94A3B8;stroke-width:1;" width="133.5303" x="536.8115" y="368.375"/><text fill="#0F172A" font-family="Verdana" font-size="10" lengthAdjust="spacing" textLength="113.5303" x="546.8115" y="387.6572">Filtrar: alert_count &gt; 0</text><path d="M708.2983,435.0156 L708.2983,488.3984 L688.2983,492.3984 L708.2983,496.3984 L708.2983,549.7813 A0,0 0 0 0 708.2983,549.7813 L996.8179,549.7813 A0,0 0 0 0 996.8179,549.7813 L996.8179,445.0156 L986.8179,435.0156 L708.2983,435.0156 A0,0 0 0 0 708.2983,435.0156" fill="#FEF9C3" style="stroke:#FCD34D;stroke-width:1;"/><path d="M986.8179,435.0156 L986.8179,445.0156 L996.8179,445.0156 L986.8179,435.0156" fill="#FEF9C3" style="stroke:#FCD34D;stroke-width:1;"/><text fill="#1E293B" font-family="Verdana" font-size="10" lengthAdjust="spacing" textLength="116.7725" x="714.2983" y="449.2979">Card ACTIVA (4 linhas):</text><text fill="#1E293B" font-family="Verdana" font-size="10" lengthAdjust="spacing" textLength="267.5195" x="714.2983" y="460.9385">1. [CLOCK] 09:00-&gt;09:19 [CHART] N Score:N [TIMER]</text><text fill="#1E293B" font-family="Verdana" font-size="10" lengthAdjust="spacing" textLength="146.1572" x="714.2983" y="472.5791">2. [TARGET] N Fases: Ph-&gt;Ph</text><text fill="#1E293B" font-family="Verdana" font-size="10" lengthAdjust="spacing" textLength="106.6455" x="714.2983" y="484.2197">3. Alert Timeline SVG</text><text fill="#1E293B" font-family="Verdana" font-size="10" lengthAdjust="spacing" textLength="164.1602" x="714.2983" y="495.8604">4. Hip&#243;teses com bot&#245;es CR/HI%</text><text fill="#1E293B" font-family="Verdana" font-size="10" lengthAdjust="spacing" text-decoration="line-through" textLength="3.6084" x="714.2983" y="507.501">-</text><text fill="#1E293B" font-family="Verdana" font-size="10" lengthAdjust="spacing" text-decoration="line-through" textLength="3.6084" x="717.9067" y="507.501">-</text><text fill="#1E293B" font-family="Verdana" font-size="10" lengthAdjust="spacing" text-decoration="line-through" textLength="3.6084" x="721.5151" y="507.501">-</text><text fill="#1E293B" font-family="Verdana" font-size="10" lengthAdjust="spacing" text-decoration="line-through" textLength="3.6084" x="725.1235" y="507.501">-</text><text fill="#1E293B" font-family="Verdana" font-size="10" lengthAdjust="spacing" text-decoration="line-through" textLength="3.6084" x="728.7319" y="507.501">-</text><text fill="#1E293B" font-family="Verdana" font-size="10" lengthAdjust="spacing" textLength="14.4336" x="732.3403" y="507.501">----</text><text fill="#1E293B" font-family="Verdana" font-size="10" lengthAdjust="spacing" textLength="129.3359" x="714.2983" y="519.1416">Card FECHADA (minimal):</text><text fill="#1E293B" font-family="Verdana" font-size="10" lengthAdjust="spacing" textLength="217.5635" x="714.2983" y="530.7822">09:00-&gt;09:05 [85% Hypothesis] [CHART N]</text><text fill="#1E293B" font-family="Verdana" font-size="10" lengthAdjust="spacing" textLength="175.8252" x="714.2983" y="542.4229">+ badge [HAND] / [TIMER] / [BOLT]</text><rect fill="#F8FAFC" height="31.6406" rx="4" ry="4" style="stroke:#94A3B8;stroke-width:1;" width="169.4434" x="518.855" y="476.5781"/><text fill="#0F172A" font-family="Verdana" font-size="10" lengthAdjust="spacing" textLength="149.4434" x="528.855" y="495.8604">Separar ACTIVAS / FECHADAS</text><rect fill="#F8FAFC" height="31.6406" rx="4" ry="4" style="stroke:#94A3B8;stroke-width:1;" width="190.415" x="508.3691" y="576.4219"/><text fill="#0F172A" font-family="Verdana" font-size="10" lengthAdjust="spacing" textLength="170.415" x="518.3691" y="595.7041">-&gt; innerHTML do #windows-panel</text><line style="stroke:#000000;stroke-width:1;" x1="502.3691" x2="502.3691" y1="57.6094" y2="992.8281"/><rect fill="#F8FAFC" height="101.4844" rx="4" ry="4" style="stroke:#94A3B8;stroke-width:1;" width="203.125" x="1007.8179" y="396.6953"/><text fill="#0F172A" font-family="Verdana" font-size="10" lengthAdjust="spacing" textLength="123.3008" x="1017.8179" y="415.9775">renderHypothesisGraph(</text><text fill="#0F172A" font-family="Verdana" font-size="10" lengthAdjust="spacing" textLength="60.7422" x="1024.1753" y="427.6182">_graphState</text><text fill="#0F172A" font-family="Verdana" font-size="10" lengthAdjust="spacing" textLength="3.9014" x="1017.8179" y="439.2588">)</text><text fill="#0F172A" font-family="Verdana" font-size="10" lengthAdjust="spacing" textLength="148.2373" x="1017.8179" y="450.8994">-&gt; SVG do grafo de hip&#243;teses</text><text fill="#0F172A" font-family="Verdana" font-size="10" lengthAdjust="spacing" textLength="120.9863" x="1017.8179" y="462.54">-&gt; n&#243;s coloridos por tier</text><text fill="#0F172A" font-family="Verdana" font-size="10" lengthAdjust="spacing" textLength="107.7832" x="1017.8179" y="474.1807">-&gt; edges ponderadas</text><text fill="#0F172A" font-family="Verdana" font-size="10" lengthAdjust="spacing" textLength="183.125" x="1017.8179" y="485.8213">-&gt; innerHTML do #hypothesis-graph</text><line style="stroke:#000000;stroke-width:1;" x1="1001.8179" x2="1001.8179" y1="57.6094" y2="992.8281"/><rect fill="#F8FAFC" height="78.2031" rx="4" ry="4" style="stroke:#94A3B8;stroke-width:1;" width="120.5029" x="1269.2363" y="285.0938"/><text fill="#0F172A" font-family="Verdana" font-size="10" lengthAdjust="spacing" textLength="100.5029" x="1279.2363" y="304.376">renderAgent2Panel(</text><text fill="#0F172A" font-family="Verdana" font-size="10" lengthAdjust="spacing" textLength="23.7012" x="1285.5938" y="316.0166">[], 0,</text><text fill="#0F172A" font-family="Verdana" font-size="10" lengthAdjust="spacing" textLength="77.2363" x="1285.5938" y="327.6572">agent2Reports,</text><text fill="#0F172A" font-family="Verdana" font-size="10" lengthAdjust="spacing" textLength="12.7246" x="1285.5938" y="339.2979">{}</text><text fill="#0F172A" font-family="Verdana" font-size="10" lengthAdjust="spacing" textLength="3.9014" x="1279.2363" y="350.9385">)</text><rect fill="#F8FAFC" height="31.6406" rx="4" ry="4" style="stroke:#94A3B8;stroke-width:1;" width="106.9873" x="1275.9941" y="398.2969"/><text fill="#0F172A" font-family="Verdana" font-size="10" lengthAdjust="spacing" textLength="86.9873" x="1285.9941" y="417.5791">Para cada report:</text><rect fill="#F8FAFC" height="78.2031" rx="4" ry="4" style="stroke:#94A3B8;stroke-width:1;" width="217.0898" x="1220.9429" y="464.9375"/><text fill="#0F172A" font-family="Verdana" font-size="10" lengthAdjust="spacing" textLength="116.3428" x="1230.9429" y="484.2197">card com label, tier, %,</text><text fill="#0F172A" font-family="Verdana" font-size="10" lengthAdjust="spacing" textLength="190.7324" x="1237.3003" y="495.8604">methodIcon ([HAND]/[TIMER]/[BOLT]),</text><text fill="#0F172A" font-family="Verdana" font-size="10" lengthAdjust="spacing" textLength="132.8955" x="1237.3003" y="507.501">windowCtx (alertas, score,</text><text fill="#0F172A" font-family="Verdana" font-size="10" lengthAdjust="spacing" textLength="95.6299" x="1237.3003" y="519.1416">fases, timestamps)</text><text fill="#0F172A" font-family="Verdana" font-size="10" lengthAdjust="spacing" textLength="170.3369" x="1230.9429" y="530.7822">-&gt; botao [BOX] abre relat&#243;rio PDF</text><rect fill="#F8FAFC" height="31.6406" rx="4" ry="4" style="stroke:#94A3B8;stroke-width:1;" width="182.5146" x="1238.2305" y="569.7813"/><text fill="#0F172A" font-family="Verdana" font-size="10" lengthAdjust="spacing" textLength="162.5146" x="1248.2305" y="589.0635">-&gt; innerHTML do #agent2-panel</text><line style="stroke:#000000;stroke-width:1;" x1="1214.9429" x2="1214.9429" y1="57.6094" y2="992.8281"/><rect fill="#F8FAFC" height="66.5625" rx="4" ry="4" style="stroke:#94A3B8;stroke-width:1;" width="161.6553" x="1448.0327" y="414.1563"/><text fill="#0F172A" font-family="Verdana" font-size="10" lengthAdjust="spacing" textLength="85.4248" x="1458.0327" y="433.4385">syncSliceInputs()</text><text fill="#0F172A" font-family="Verdana" font-size="10" lengthAdjust="spacing" textLength="98.7793" x="1458.0327" y="445.0791">updateSliceLabels()</text><text fill="#0F172A" font-family="Verdana" font-size="10" lengthAdjust="spacing" textLength="141.6553" x="1458.0327" y="456.7197">updateCurrentAlertDisplay()</text><text fill="#0F172A" font-family="Verdana" font-size="10" lengthAdjust="spacing" textLength="133.1934" x="1458.0327" y="468.3604">-&gt; DOM do slicer temporal</text><line style="stroke:#000000;stroke-width:1;" x1="1442.0327" x2="1442.0327" y1="57.6094" y2="992.8281"/><rect fill="#F8FAFC" height="78.2031" rx="4" ry="4" style="stroke:#94A3B8;stroke-width:1;" width="174.7461" x="1631.688" y="408.3359"/><text fill="#0F172A" font-family="Verdana" font-size="10" lengthAdjust="spacing" textLength="99.9756" x="1641.688" y="427.6182">renderSidebarKPIs()</text><text fill="#0F172A" font-family="Verdana" font-size="10" lengthAdjust="spacing" textLength="80.0586" x="1641.688" y="439.2588">renderKPIStrip()</text><text fill="#0F172A" font-family="Verdana" font-size="10" lengthAdjust="spacing" textLength="94.7363" x="1641.688" y="450.8994">renderScoreFilter()</text><text fill="#0F172A" font-family="Verdana" font-size="10" lengthAdjust="spacing" textLength="129.4336" x="1641.688" y="462.54">renderConnectionBadge()</text><text fill="#0F172A" font-family="Verdana" font-size="10" lengthAdjust="spacing" textLength="154.7461" x="1641.688" y="474.1807">-&gt; DOM das sec&#231;&#245;es auxiliares</text><rect fill="#000000" height="6" rx="2.5" ry="2.5" style="stroke:#000000;stroke-width:1;" width="198.7461" x="1619.688" y="628.0625"/><line style="stroke:#000000;stroke-width:1;" x1="1613.688" x2="1613.688" y1="57.6094" y2="992.8281"/><line style="stroke:#000000;stroke-width:1;" x1="1822.4341" x2="1822.4341" y1="57.6094" y2="992.8281"/><line style="stroke:#64748B;stroke-width:1;" x1="155.4609" x2="155.4609" y1="94.25" y2="114.25"/><polygon fill="#64748B" points="151.4609,104.25,155.4609,114.25,159.4609,104.25,155.4609,108.25" style="stroke:#64748B;stroke-width:1;"/><line style="stroke:#64748B;stroke-width:1;" x1="155.4609" x2="155.4609" y1="180.8125" y2="200.8125"/><polygon fill="#64748B" points="151.4609,190.8125,155.4609,200.8125,159.4609,190.8125,155.4609,194.8125" style="stroke:#64748B;stroke-width:1;"/><line style="stroke:#64748B;stroke-width:1;" x1="155.4609" x2="155.4609" y1="232.4531" y2="252.4531"/><polygon fill="#64748B" points="151.4609,242.4531,155.4609,252.4531,159.4609,242.4531,155.4609,246.4531" style="stroke:#64748B;stroke-width:1;"/><line style="stroke:#64748B;stroke-width:1;" x1="155.4609" x2="155.4609" y1="752.9844" y2="776.9844"/><polygon fill="#64748B" points="151.4609,766.9844,155.4609,776.9844,159.4609,766.9844,155.4609,770.9844" style="stroke:#64748B;stroke-width:1;"/><line style="stroke:#64748B;stroke-width:1;" x1="252.7075" x2="264.7075" y1="740.9844" y2="740.9844"/><polygon fill="#64748B" points="260.7075,800.2656,264.7075,810.2656,268.7075,800.2656,264.7075,804.2656" style="stroke:#64748B;stroke-width:1;"/><line style="stroke:#64748B;stroke-width:1;" x1="264.7075" x2="264.7075" y1="740.9844" y2="875.5469"/><line style="stroke:#64748B;stroke-width:1;" x1="264.7075" x2="167.4609" y1="875.5469" y2="875.5469"/><polygon fill="#64748B" points="177.4609,871.5469,167.4609,875.5469,177.4609,879.5469,173.4609,875.5469" style="stroke:#64748B;stroke-width:1;"/><line style="stroke:#64748B;stroke-width:1;" x1="155.4609" x2="155.4609" y1="843.5469" y2="863.5469"/><polygon fill="#64748B" points="151.4609,853.5469,155.4609,863.5469,159.4609,853.5469,155.4609,857.5469" style="stroke:#64748B;stroke-width:1;"/><line style="stroke:#64748B;stroke-width:1;" x1="155.4609" x2="155.4609" y1="708.9844" y2="728.9844"/><polygon fill="#64748B" points="151.4609,718.9844,155.4609,728.9844,159.4609,718.9844,155.4609,722.9844" style="stroke:#64748B;stroke-width:1;"/><line style="stroke:#64748B;stroke-width:1;" x1="155.4609" x2="155.4609" y1="887.5469" y2="907.5469"/><polygon fill="#64748B" points="151.4609,897.5469,155.4609,907.5469,159.4609,897.5469,155.4609,901.5469" style="stroke:#64748B;stroke-width:1;"/><line style="stroke:#64748B;stroke-width:1;" x1="155.4609" x2="155.4609" y1="950.8281" y2="970.8281"/><polygon fill="#64748B" points="151.4609,960.8281,155.4609,970.8281,159.4609,960.8281,155.4609,964.8281" style="stroke:#64748B;stroke-width:1;"/><line style="stroke:#64748B;stroke-width:1;" x1="603.5767" x2="603.5767" y1="333.375" y2="368.375"/><polygon fill="#64748B" points="599.5767,358.375,603.5767,368.375,607.5767,358.375,603.5767,362.375" style="stroke:#64748B;stroke-width:1;"/><line style="stroke:#64748B;stroke-width:1;" x1="603.5767" x2="603.5767" y1="400.0156" y2="476.5781"/><polygon fill="#64748B" points="599.5767,466.5781,603.5767,476.5781,607.5767,466.5781,603.5767,470.5781" style="stroke:#64748B;stroke-width:1;"/><line style="stroke:#64748B;stroke-width:1;" x1="603.5767" x2="603.5767" y1="508.2188" y2="576.4219"/><polygon fill="#64748B" points="599.5767,566.4219,603.5767,576.4219,607.5767,566.4219,603.5767,570.4219" style="stroke:#64748B;stroke-width:1;"/><line style="stroke:#64748B;stroke-width:1;" x1="1329.4878" x2="1329.4878" y1="363.2969" y2="398.2969"/><polygon fill="#64748B" points="1325.4878,388.2969,1329.4878,398.2969,1333.4878,388.2969,1329.4878,392.2969" style="stroke:#64748B;stroke-width:1;"/><line style="stroke:#64748B;stroke-width:1;" x1="1329.4878" x2="1329.4878" y1="429.9375" y2="464.9375"/><polygon fill="#64748B" points="1325.4878,454.9375,1329.4878,464.9375,1333.4878,454.9375,1329.4878,458.9375" style="stroke:#64748B;stroke-width:1;"/><line style="stroke:#64748B;stroke-width:1;" x1="1329.4878" x2="1329.4878" y1="543.1406" y2="569.7813"/><polygon fill="#64748B" points="1325.4878,559.7813,1329.4878,569.7813,1333.4878,559.7813,1329.4878,563.7813" style="stroke:#64748B;stroke-width:1;"/><line style="stroke:#64748B;stroke-width:1;" x1="1719.061" x2="1719.061" y1="486.5391" y2="628.0625"/><polygon fill="#64748B" points="1715.061,618.0625,1719.061,628.0625,1723.061,618.0625,1719.061,622.0625" style="stroke:#64748B;stroke-width:1;"/><line style="stroke:#64748B;stroke-width:1;" x1="28" x2="28" y1="258.4531" y2="262.4531"/><line style="stroke:#64748B;stroke-width:1;" x1="28" x2="399.1455" y1="262.4531" y2="262.4531"/><line style="stroke:#64748B;stroke-width:1;" x1="399.1455" x2="399.1455" y1="262.4531" y2="385.0547"/><polygon fill="#64748B" points="395.1455,375.0547,399.1455,385.0547,403.1455,375.0547,399.1455,379.0547" style="stroke:#64748B;stroke-width:1;"/><line style="stroke:#64748B;stroke-width:1;" x1="28" x2="28" y1="258.4531" y2="262.4531"/><line style="stroke:#64748B;stroke-width:1;" x1="28" x2="603.5767" y1="262.4531" y2="262.4531"/><line style="stroke:#64748B;stroke-width:1;" x1="603.5767" x2="603.5767" y1="262.4531" y2="278.4531"/><polygon fill="#64748B" points="599.5767,268.4531,603.5767,278.4531,607.5767,268.4531,603.5767,272.4531" style="stroke:#64748B;stroke-width:1;"/><line style="stroke:#64748B;stroke-width:1;" x1="208.1633" x2="208.1633" y1="258.4531" y2="262.4531"/><line style="stroke:#64748B;stroke-width:1;" x1="208.1633" x2="1109.3804" y1="262.4531" y2="262.4531"/><line style="stroke:#64748B;stroke-width:1;" x1="1109.3804" x2="1109.3804" y1="262.4531" y2="396.6953"/><polygon fill="#64748B" points="1105.3804,386.6953,1109.3804,396.6953,1113.3804,386.6953,1109.3804,390.6953" style="stroke:#64748B;stroke-width:1;"/><line style="stroke:#64748B;stroke-width:1;" x1="282.9219" x2="282.9219" y1="258.4531" y2="262.4531"/><line style="stroke:#64748B;stroke-width:1;" x1="282.9219" x2="1329.4878" y1="262.4531" y2="262.4531"/><line style="stroke:#64748B;stroke-width:1;" x1="1329.4878" x2="1329.4878" y1="262.4531" y2="285.0938"/><polygon fill="#64748B" points="1325.4878,275.0938,1329.4878,285.0938,1333.4878,275.0938,1329.4878,279.0938" style="stroke:#64748B;stroke-width:1;"/><line style="stroke:#64748B;stroke-width:1;" x1="282.9219" x2="282.9219" y1="258.4531" y2="262.4531"/><line style="stroke:#64748B;stroke-width:1;" x1="282.9219" x2="1528.8604" y1="262.4531" y2="262.4531"/><line style="stroke:#64748B;stroke-width:1;" x1="1528.8604" x2="1528.8604" y1="262.4531" y2="414.1563"/><polygon fill="#64748B" points="1524.8604,404.1563,1528.8604,414.1563,1532.8604,404.1563,1528.8604,408.1563" style="stroke:#64748B;stroke-width:1;"/><line style="stroke:#64748B;stroke-width:1;" x1="282.9219" x2="282.9219" y1="258.4531" y2="262.4531"/><line style="stroke:#64748B;stroke-width:1;" x1="282.9219" x2="1719.061" y1="262.4531" y2="262.4531"/><line style="stroke:#64748B;stroke-width:1;" x1="1719.061" x2="1719.061" y1="262.4531" y2="408.3359"/><polygon fill="#64748B" points="1715.061,398.3359,1719.061,408.3359,1723.061,398.3359,1719.061,402.3359" style="stroke:#64748B;stroke-width:1;"/><line style="stroke:#64748B;stroke-width:1;" x1="399.1455" x2="399.1455" y1="509.8203" y2="614.0625"/><line style="stroke:#64748B;stroke-width:1;" x1="399.1455" x2="1626.688" y1="614.0625" y2="614.0625"/><line style="stroke:#64748B;stroke-width:1;" x1="1626.688" x2="1626.688" y1="614.0625" y2="628.0625"/><polygon fill="#64748B" points="1622.688,618.0625,1626.688,628.0625,1630.688,618.0625,1626.688,622.0625" style="stroke:#64748B;stroke-width:1;"/><line style="stroke:#64748B;stroke-width:1;" x1="603.5767" x2="603.5767" y1="608.0625" y2="614.0625"/><line style="stroke:#64748B;stroke-width:1;" x1="603.5767" x2="1626.688" y1="614.0625" y2="614.0625"/><line style="stroke:#64748B;stroke-width:1;" x1="1626.688" x2="1626.688" y1="614.0625" y2="628.0625"/><polygon fill="#64748B" points="1622.688,618.0625,1626.688,628.0625,1630.688,618.0625,1626.688,622.0625" style="stroke:#64748B;stroke-width:1;"/><line style="stroke:#64748B;stroke-width:1;" x1="1109.3804" x2="1109.3804" y1="498.1797" y2="614.0625"/><line style="stroke:#64748B;stroke-width:1;" x1="1109.3804" x2="1626.688" y1="614.0625" y2="614.0625"/><line style="stroke:#64748B;stroke-width:1;" x1="1626.688" x2="1626.688" y1="614.0625" y2="628.0625"/><polygon fill="#64748B" points="1622.688,618.0625,1626.688,628.0625,1630.688,618.0625,1626.688,622.0625" style="stroke:#64748B;stroke-width:1;"/><line style="stroke:#64748B;stroke-width:1;" x1="1329.4878" x2="1329.4878" y1="601.4219" y2="614.0625"/><line style="stroke:#64748B;stroke-width:1;" x1="1329.4878" x2="1626.688" y1="614.0625" y2="614.0625"/><line style="stroke:#64748B;stroke-width:1;" x1="1626.688" x2="1626.688" y1="614.0625" y2="628.0625"/><polygon fill="#64748B" points="1622.688,618.0625,1626.688,628.0625,1630.688,618.0625,1626.688,622.0625" style="stroke:#64748B;stroke-width:1;"/><line style="stroke:#64748B;stroke-width:1;" x1="1528.8604" x2="1528.8604" y1="480.7188" y2="614.0625"/><line style="stroke:#64748B;stroke-width:1;" x1="1528.8604" x2="1626.688" y1="614.0625" y2="614.0625"/><line style="stroke:#64748B;stroke-width:1;" x1="1626.688" x2="1626.688" y1="614.0625" y2="628.0625"/><polygon fill="#64748B" points="1622.688,618.0625,1626.688,628.0625,1630.688,618.0625,1626.688,622.0625" style="stroke:#64748B;stroke-width:1;"/><line style="stroke:#64748B;stroke-width:1;" x1="1626.688" x2="1626.688" y1="634.0625" y2="639.0625"/><line style="stroke:#64748B;stroke-width:1;" x1="1626.688" x2="155.4609" y1="639.0625" y2="639.0625"/><line style="stroke:#64748B;stroke-width:1;" x1="155.4609" x2="155.4609" y1="639.0625" y2="654.0625"/><polygon fill="#64748B" points="151.4609,644.0625,155.4609,654.0625,159.4609,644.0625,155.4609,648.0625" style="stroke:#64748B;stroke-width:1;"/><text fill="#1E293B" font-family="Verdana" font-size="10" lengthAdjust="spacing" textLength="37.2949" x="135.8135" y="66.8916">main.ts</text><text fill="#1E293B" font-family="Verdana" font-size="10" lengthAdjust="spacing" textLength="81.04" x="357.6255" y="66.8916">alert_timeline.ts</text><text fill="#1E293B" font-family="Verdana" font-size="10" lengthAdjust="spacing" textLength="88.2031" x="707.9919" y="66.8916">windows_panel.ts</text><text fill="#1E293B" font-family="Verdana" font-size="10" lengthAdjust="spacing" textLength="60.5273" x="1078.1167" y="66.8916">graph_viz.ts</text><text fill="#1E293B" font-family="Verdana" font-size="10" lengthAdjust="spacing" textLength="47.5586" x="1304.7085" y="66.8916">agent2.ts</text><text fill="#1E293B" font-family="Verdana" font-size="10" lengthAdjust="spacing" textLength="34.7266" x="1510.4971" y="66.8916">slice.ts</text><text fill="#1E293B" font-family="Verdana" font-size="10" lengthAdjust="spacing" textLength="125.2197" x="1655.4512" y="66.8916">sidebar.ts kpi.ts footer.ts</text><?plantuml-src tLPhRk984FxlKzHe50LsWP049e5eilA02MWIG9XvI152ZTs6LepRwcxocCrAUuJziNk6FS1eJv2Rp4cskjiaJa0vm20axAglkkghLxCBF_xvw-VuEhlGxhbd8_V2XJhy-FDlS5lZtkTUssrxJHZsXjvvh-z1suEHrszx8yJ_FDoTDsf1bnJIcB34aLSiIOaWIn1ybOG15maLS9oJpqXmDJVA5e-vWBUH-UGG8Ot8AbOTdgWCiayF6eUpxH2VVQEmNyqfNI7uJMRvhdPKEvwzLEQEhXtLw-yQUK2Ws3LJTn-u2Ad8K8qQEPmTRqDji3cEI1HiGUPyLgFzemEo1TDcPCcJSEDGUa2Fe-eh1lbODoa_1xyMo908nHJZoUlids0RzFUZUjJO1dtDRPyhkdaKZHh1uKjKFgue20zheUEWWvX2cyZ5Z1CHGaUWBvg4PXI7BAKnIoZs38nGYEteEFTBRDQAalUEL1YWqnmBDf-Z2a72W9gExtj0hscYK1BG6GkvC_W4AuaeXiSB4cXQMgRO4eMA1LSdZjEqzfrL71UA-1vnSUK0t9EO2ZNLK1sDyGtGNAKXKNISITjCuXZT5OgeAf_2d2fNMycrm1vjP6iJ__DP0PNcT5c21MNpXNf_T512eQGn3HGDZK5_jPnHeSKyCO9MZ07hK-aj9ajgBW2P8vRWs7R75-SGSdYx3heScBmgYo4hnSio43oEGHS8E4HiUM880vdhRO2qRrWIyXivJKb2upLho-EBLGsrHdC0cEgSNjDCKOA4trn87TM9jkgmM0aYcfRiDC1UKN0ALQFqgOv1sCth-h077Q_LTTkkhzK9jWu8dHhZfwMxn2AXK0FajY2os3Iw_GfSjiu7hOyJg3QQrMhv57_s6oZikgFn1FhWurQZpJvSZdiNtcXYh0xGQkoEpZo3w1199Mx-HVbqk33wmmgOfCEwRe25CvfQ1ReiVVYkADf0m753SlNm7pwtHdlTteu1bL_xF57AA4DXoHAs9756wOb7jGwNn_KTwDwb7DUsP7AI4OE-9V8hBkXmJk6ow_RR4qnZnb8_VHYSZpLAZvREgCxxHhDa1I-RWh_iXhaWwM9wpRuzxuIdSCuq86i60_OLCOwoniIiQI-eYhWUriLZwgm-UVYkauZh0UTLGihrN59XbHI9QPbsIK8Yj_NwuZ6Kil7_aW6Pum0SF0_VDR9S7rzEIb0jcKUB7r6C1EVJY7x_ux6bXtfk0em5HriZcaOQw5hgJeZ9ZCObmw04EzPwITM2XpqSHIZO8krb9Tgp1IfQdAr3Izr2mSmBmNcIkdEjEj8jMZAh2rVWCfLPWh7v2DUb_Ze1CXDw7SP4FNmNZCEmtJdPMdDBSdl99QwPntKdxvB0ru9UagwolMPNe96UQxvvQMibCCLs2xvOZkt1XVPjZiSYqoNcZsnwPo6T4O7-uIfb-YVYsBdYUG5zY_eux5ddLegllX8ipOdCwEizH4LEskAOZS3UXzXYpo8a4jTmyF2lcMYokcKn8uBA4qSFaRaRSfTHy_a2n6CgaNLs0-zFuSrDXSbf47D9mw9HSk6HO56OfYkvi4OjlQ9lrPXxwwsEdSOYAAI2pwQAft3w7exgEmvs3lG7Owma67CQvcn-Am8E0NQOP4ljgMcxgP9ogIweb5Xms-aZh-rtUvtnz4kltnvycRO6_R7tTLo2tLzsdwQsjH0S_o8-7e_iOqcXa11Ur8bW4TwRKrloeNvFvkjChhVHuDFexDprVRrUwH9lcfZWvIgHqFy0?></g></svg>