<svg xmlns="http://www.w3.org/2000/svg" xmlns:xlink="http://www.w3.org/1999/xlink" contentStyleType="text/css" data-diagram-type="DESCRIPTION" height="1003px" preserveAspectRatio="none" style="width:2411px;height:1003px;background:#FFFFFF;" version="1.1" viewBox="0 0 2411 1003" width="2411px" zoomAndPan="magnify"><?plantuml 1.2026.4beta2?><defs/><g><g class="title" data-source-line="29"><text fill="#1E293B" font-family="Verdana" font-size="22" font-weight="700" lengthAdjust="spacing" textLength="708.1035" x="850.4482" y="35.4209">Dashboard Frontend &#8212; Deployment: Browser + Extens&#227;o</text></g><!--cluster SERVER--><g class="cluster" data-qualified-name="SERVER" data-source-line="31" id="ent0002"><polygon fill="#F1F5F9" points="1634,174.3294,1644,164.3294,2386,164.3294,2386,569.4494,2376,579.4494,1634,579.4494,1634,174.3294" style="stroke:#94A3B8;stroke-width:1;"/><line style="stroke:#94A3B8;stroke-width:1;" x1="2376" x2="2386" y1="174.3294" y2="164.3294"/><line style="stroke:#94A3B8;stroke-width:1;" x1="1634" x2="2376" y1="174.3294" y2="174.3294"/><line style="stroke:#94A3B8;stroke-width:1;" x1="2376" x2="2376" y1="174.3294" y2="579.4494"/><text fill="#0F172A" font-family="Verdana" font-size="10" font-weight="700" lengthAdjust="spacing" textLength="74.3457" x="1968.8271" y="186.6116">Servidor SOC</text></g><!--cluster SSE_NODE--><g class="cluster" data-qualified-name="SERVER.SSE_NODE" data-source-line="32" id="ent0003"><polygon fill="#F1F5F9" points="1666,267.6094,1676,257.6094,2130,257.6094,2130,537.4494,2120,547.4494,1666,547.4494,1666,267.6094" style="stroke:#94A3B8;stroke-width:1;"/><line style="stroke:#94A3B8;stroke-width:1;" x1="2120" x2="2130" y1="267.6094" y2="257.6094"/><line style="stroke:#94A3B8;stroke-width:1;" x1="1666" x2="2120" y1="267.6094" y2="267.6094"/><line style="stroke:#94A3B8;stroke-width:1;" x1="2120" x2="2120" y1="267.6094" y2="547.4494"/><text fill="#0F172A" font-family="Verdana" font-size="10" font-weight="700" lengthAdjust="spacing" textLength="61.8652" x="1863.0674" y="279.8916">SSE Server</text><text fill="#0F172A" font-family="Verdana" font-size="10" font-weight="700" lengthAdjust="spacing" textLength="31.8311" x="1878.0845" y="291.5322">:5001</text></g><!--cluster API_NODE--><g class="cluster" data-qualified-name="SERVER.API_NODE" data-source-line="41" id="ent0009"><polygon fill="#F1F5F9" points="2170,225.3294,2180,215.3294,2354,215.3294,2354,337.6094,2344,347.6094,2170,347.6094,2170,225.3294" style="stroke:#94A3B8;stroke-width:1;"/><line style="stroke:#94A3B8;stroke-width:1;" x1="2344" x2="2354" y1="225.3294" y2="215.3294"/><line style="stroke:#94A3B8;stroke-width:1;" x1="2170" x2="2344" y1="225.3294" y2="225.3294"/><line style="stroke:#94A3B8;stroke-width:1;" x1="2344" x2="2344" y1="225.3294" y2="347.6094"/><text fill="#0F172A" font-family="Verdana" font-size="10" font-weight="700" lengthAdjust="spacing" textLength="94.5898" x="2210.7051" y="237.6116">FastAPI Backend</text><text fill="#0F172A" font-family="Verdana" font-size="10" font-weight="700" lengthAdjust="spacing" textLength="31.8311" x="2242.0845" y="249.2522">:8000</text></g><!--cluster BROWSER--><g class="cluster" data-qualified-name="BROWSER" data-source-line="46" id="ent0011"><polygon fill="#F1F5F9" points="21,67.6094,31,57.6094,1610,57.6094,1610,968.1794,1600,978.1794,21,978.1794,21,67.6094" style="stroke:#94A3B8;stroke-width:1;"/><line style="stroke:#94A3B8;stroke-width:1;" x1="1600" x2="1610" y1="67.6094" y2="57.6094"/><line style="stroke:#94A3B8;stroke-width:1;" x1="21" x2="1600" y1="67.6094" y2="67.6094"/><line style="stroke:#94A3B8;stroke-width:1;" x1="1600" x2="1600" y1="67.6094" y2="978.1794"/><text fill="#0F172A" font-family="Verdana" font-size="10" font-weight="700" lengthAdjust="spacing" textLength="93.2715" x="764.8643" y="79.8916">Browser Chrome</text></g><!--cluster TAB--><g class="cluster" data-qualified-name="BROWSER.TAB" data-source-line="48" id="ent0012"><polygon fill="#F1F5F9" points="53,118.6094,63,108.6094,978,108.6094,978,569.5894,968,579.5894,53,579.5894,53,118.6094" style="stroke:#94A3B8;stroke-width:1;"/><line style="stroke:#94A3B8;stroke-width:1;" x1="968" x2="978" y1="118.6094" y2="108.6094"/><line style="stroke:#94A3B8;stroke-width:1;" x1="53" x2="968" y1="118.6094" y2="118.6094"/><line style="stroke:#94A3B8;stroke-width:1;" x1="968" x2="968" y1="118.6094" y2="579.5894"/><text fill="#0F172A" font-family="Verdana" font-size="10" font-weight="700" lengthAdjust="spacing" textLength="111.1621" x="455.9189" y="130.8916">Tab: localhost:5001</text><text fill="#0F172A" font-family="Verdana" font-size="10" font-weight="700" lengthAdjust="spacing" textLength="86.7383" x="468.1309" y="142.5322">Dashboard SPA</text></g><!--cluster BUNDLE--><g class="cluster" data-qualified-name="BROWSER.TAB.BUNDLE" data-source-line="50" id="ent0013"><polygon fill="#F1F5F9" points="85,233.3294,95,223.3294,748,223.3294,748,537.5894,738,547.5894,85,547.5894,85,233.3294" style="stroke:#94A3B8;stroke-width:1;"/><line style="stroke:#94A3B8;stroke-width:1;" x1="738" x2="748" y1="233.3294" y2="223.3294"/><line style="stroke:#94A3B8;stroke-width:1;" x1="85" x2="738" y1="233.3294" y2="233.3294"/><line style="stroke:#94A3B8;stroke-width:1;" x1="738" x2="738" y1="233.3294" y2="547.5894"/><text fill="#0F172A" font-family="Verdana" font-size="10" font-weight="700" lengthAdjust="spacing" textLength="65.4395" x="379.7803" y="245.6116">Vite Bundle</text><text fill="#0F172A" font-family="Verdana" font-size="10" font-weight="700" lengthAdjust="spacing" textLength="108.5156" x="358.2422" y="257.2522">(compilado de src/)</text></g><!--cluster EXT--><g class="cluster" data-qualified-name="BROWSER.EXT" data-source-line="70" id="ent0025"><polygon fill="#F1F5F9" points="1018,267.6094,1028,257.6094,1578,257.6094,1578,936.1794,1568,946.1794,1018,946.1794,1018,267.6094" style="stroke:#94A3B8;stroke-width:1;"/><line style="stroke:#94A3B8;stroke-width:1;" x1="1568" x2="1578" y1="267.6094" y2="257.6094"/><line style="stroke:#94A3B8;stroke-width:1;" x1="1018" x2="1568" y1="267.6094" y2="267.6094"/><line style="stroke:#94A3B8;stroke-width:1;" x1="1568" x2="1568" y1="267.6094" y2="946.1794"/><text fill="#0F172A" font-family="Verdana" font-size="10" font-weight="700" lengthAdjust="spacing" textLength="102.2754" x="1242.8623" y="279.8916">Chrome Extension</text><text fill="#0F172A" font-family="Verdana" font-size="10" font-weight="700" lengthAdjust="spacing" textLength="110.9717" x="1238.5142" y="291.5322">RedShift CVE Agent</text></g><!--entity SSE--><g class="entity" data-qualified-name="SERVER.SSE_NODE.SSE" data-source-line="33" id="ent0004"><rect fill="#E2E8F0" height="53.2813" rx="4" ry="4" style="stroke:#94A3B8;stroke-width:1;" width="125.9131" x="1690.04" y="470.1694"/><rect fill="#E2E8F0" height="10" style="stroke:#94A3B8;stroke-width:1;" width="15" x="1795.9531" y="475.1694"/><rect fill="#E2E8F0" height="2" style="stroke:#94A3B8;stroke-width:1;" width="4" x="1793.9531" y="477.1694"/><rect fill="#E2E8F0" height="2" style="stroke:#94A3B8;stroke-width:1;" width="4" x="1793.9531" y="481.1694"/><text fill="#0F172A" font-family="Verdana" font-size="10" lengthAdjust="spacing" textLength="55.3369" x="1705.04" y="499.4516">SSE Broker</text><text fill="#0F172A" font-family="Verdana" font-size="10" lengthAdjust="spacing" textLength="85.9131" x="1705.04" y="511.0922">/events + /ingest</text></g><!--entity DIST--><g class="entity" data-qualified-name="SERVER.SSE_NODE.DIST" data-source-line="34" id="ent0005"><rect fill="#F8FAFC" height="46.2813" rx="4" ry="4" style="stroke:#64748B;stroke-width:1;" width="130.0586" x="1833.97" y="473.6694"/><polygon fill="#F8FAFC" points="1947.0286,478.6694,1947.0286,492.6694,1959.0286,492.6694,1959.0286,484.6694,1953.0286,478.6694,1947.0286,478.6694" style="stroke:#64748B;stroke-width:1;"/><line style="stroke:#64748B;stroke-width:1;" x1="1953.0286" x2="1953.0286" y1="478.6694" y2="484.6694"/><line style="stroke:#64748B;stroke-width:1;" x1="1959.0286" x2="1953.0286" y1="484.6694" y2="484.6694"/><text fill="#334155" font-family="Verdana" font-size="10" lengthAdjust="spacing" textLength="67.8418" x="1843.97" y="495.9516">frontend/dist/</text><text fill="#334155" font-family="Verdana" font-size="10" lengthAdjust="spacing" textLength="100.0586" x="1843.97" y="507.5922">index.html + assets</text></g><g class="entity" data-qualified-name="SERVER.SSE_NODE.GMN6" data-source-line="36" id="ent0007"><path d="M1981.85,478.3494 L1981.85,515.2713 A4,4 0 0 0 1985.85,519.2713 L2102.1508,519.2713 A4,4 0 0 0 2106.1508,515.2713 L2106.1508,484.3494 L2096.1508,474.3494 L1985.85,474.3494 A4,4 0 0 0 1981.85,478.3494" fill="#FEF9C3" style="stroke:#FCD34D;stroke-width:1;"/><path d="M2096.1508,474.3494 L2096.1508,482.3494 A2,2 0 0 0 2098.1508,484.3494 L2106.1508,484.3494 L2096.1508,474.3494" fill="#FEF9C3" style="stroke:#FCD34D;stroke-width:1;"/><text fill="#1E293B" font-family="Verdana" font-size="10" lengthAdjust="spacing" textLength="103.3008" x="1987.85" y="488.6316">Serve a SPA est&#225;tica</text><text fill="#1E293B" font-family="Verdana" font-size="10" lengthAdjust="spacing" textLength="91.7285" x="1987.85" y="500.2722">e o stream SSE na</text><text fill="#1E293B" font-family="Verdana" font-size="10" lengthAdjust="spacing" textLength="95.4053" x="1987.85" y="511.9129">mesma porta 5001</text></g><!--entity API--><g class="entity" data-qualified-name="SERVER.API_NODE.API" data-source-line="42" id="ent0010"><rect fill="#E2E8F0" height="53.2813" rx="4" ry="4" style="stroke:#94A3B8;stroke-width:1;" width="127.207" x="2194.4" y="270.3294"/><rect fill="#E2E8F0" height="10" style="stroke:#94A3B8;stroke-width:1;" width="15" x="2301.607" y="275.3294"/><rect fill="#E2E8F0" height="2" style="stroke:#94A3B8;stroke-width:1;" width="4" x="2299.607" y="277.3294"/><rect fill="#E2E8F0" height="2" style="stroke:#94A3B8;stroke-width:1;" width="4" x="2299.607" y="281.3294"/><text fill="#0F172A" font-family="Verdana" font-size="10" lengthAdjust="spacing" textLength="87.207" x="2209.4" y="299.6116">CVE / SIEM / Chat</text><text fill="#0F172A" font-family="Verdana" font-size="10" lengthAdjust="spacing" textLength="42.168" x="2209.4" y="311.2522">Services</text></g><g class="entity" data-qualified-name="BROWSER.TAB.GMN22" data-source-line="63" id="ent0023"><path d="M763.53,272.6894 L763.53,321.2519 A4,4 0 0 0 767.53,325.2519 L950.4665,325.2519 A4,4 0 0 0 954.4665,321.2519 L954.4665,278.6894 L944.4665,268.6894 L767.53,268.6894 A4,4 0 0 0 763.53,272.6894" fill="#FEF9C3" style="stroke:#FCD34D;stroke-width:1;"/><path d="M944.4665,268.6894 L944.4665,276.6894 A2,2 0 0 0 946.4665,278.6894 L954.4665,278.6894 L944.4665,268.6894" fill="#FEF9C3" style="stroke:#FCD34D;stroke-width:1;"/><text fill="#1E293B" font-family="Verdana" font-size="10" lengthAdjust="spacing" textLength="169.9365" x="769.53" y="282.9716">Constru&#237;do com Vite + TypeScript</text><text fill="#1E293B" font-family="Verdana" font-size="10" lengthAdjust="spacing" textLength="101.8115" x="769.53" y="294.6122">Build: npm run build</text><text fill="#1E293B" font-family="Verdana" font-size="10" lengthAdjust="spacing" textLength="163.0762" x="769.53" y="306.2529">Preview: npm run preview :4173</text><text fill="#1E293B" font-family="Verdana" font-size="10" lengthAdjust="spacing" textLength="166.6943" x="769.53" y="317.8935">HMR em desenvolvimento: :5173</text></g><!--entity MAIN--><g class="entity" data-qualified-name="BROWSER.TAB.BUNDLE.MAIN" data-source-line="51" id="ent0014"><rect fill="#E2E8F0" height="53.2813" rx="4" ry="4" style="stroke:#94A3B8;stroke-width:1;" width="105.918" x="626.04" y="270.3294"/><rect fill="#E2E8F0" height="10" style="stroke:#94A3B8;stroke-width:1;" width="15" x="711.958" y="275.3294"/><rect fill="#E2E8F0" height="2" style="stroke:#94A3B8;stroke-width:1;" width="4" x="709.958" y="277.3294"/><rect fill="#E2E8F0" height="2" style="stroke:#94A3B8;stroke-width:1;" width="4" x="709.958" y="281.3294"/><text fill="#0F172A" font-family="Verdana" font-size="10" lengthAdjust="spacing" textLength="37.2949" x="641.04" y="299.6116">main.ts</text><text fill="#0F172A" font-family="Verdana" font-size="10" lengthAdjust="spacing" textLength="65.918" x="641.04" y="311.2522">Orchestrador</text></g><!--entity WP--><g class="entity" data-qualified-name="BROWSER.TAB.BUNDLE.WP" data-source-line="52" id="ent0015"><rect fill="#E2E8F0" height="41.6406" rx="4" ry="4" style="stroke:#94A3B8;stroke-width:1;" width="128.2031" x="100.9" y="276.1494"/><rect fill="#E2E8F0" height="10" style="stroke:#94A3B8;stroke-width:1;" width="15" x="209.1031" y="281.1494"/><rect fill="#E2E8F0" height="2" style="stroke:#94A3B8;stroke-width:1;" width="4" x="207.1031" y="283.1494"/><rect fill="#E2E8F0" height="2" style="stroke:#94A3B8;stroke-width:1;" width="4" x="207.1031" y="287.1494"/><text fill="#0F172A" font-family="Verdana" font-size="10" lengthAdjust="spacing" textLength="88.2031" x="115.9" y="305.4316">windows_panel.ts</text></g><!--entity A2C--><g class="entity" data-qualified-name="BROWSER.TAB.BUNDLE.A2C" data-source-line="53" id="ent0016"><rect fill="#E2E8F0" height="41.6406" rx="4" ry="4" style="stroke:#94A3B8;stroke-width:1;" width="87.5586" x="247.22" y="276.1494"/><rect fill="#E2E8F0" height="10" style="stroke:#94A3B8;stroke-width:1;" width="15" x="314.7786" y="281.1494"/><rect fill="#E2E8F0" height="2" style="stroke:#94A3B8;stroke-width:1;" width="4" x="312.7786" y="283.1494"/><rect fill="#E2E8F0" height="2" style="stroke:#94A3B8;stroke-width:1;" width="4" x="312.7786" y="287.1494"/><text fill="#0F172A" font-family="Verdana" font-size="10" lengthAdjust="spacing" textLength="47.5586" x="262.22" y="305.4316">agent2.ts</text></g><!--entity ATC--><g class="entity" data-qualified-name="BROWSER.TAB.BUNDLE.ATC" data-source-line="54" id="ent0017"><rect fill="#E2E8F0" height="41.6406" rx="4" ry="4" style="stroke:#94A3B8;stroke-width:1;" width="121.04" x="352.48" y="276.1494"/><rect fill="#E2E8F0" height="10" style="stroke:#94A3B8;stroke-width:1;" width="15" x="453.52" y="281.1494"/><rect fill="#E2E8F0" height="2" style="stroke:#94A3B8;stroke-width:1;" width="4" x="451.52" y="283.1494"/><rect fill="#E2E8F0" height="2" style="stroke:#94A3B8;stroke-width:1;" width="4" x="451.52" y="287.1494"/><text fill="#0F172A" font-family="Verdana" font-size="10" lengthAdjust="spacing" textLength="81.04" x="367.48" y="305.4316">alert_timeline.ts</text></g><!--entity SLC--><g class="entity" data-qualified-name="BROWSER.TAB.BUNDLE.SLC" data-source-line="55" id="ent0018"><rect fill="#E2E8F0" height="41.6406" rx="4" ry="4" style="stroke:#94A3B8;stroke-width:1;" width="74.7266" x="127.64" y="475.9894"/><rect fill="#E2E8F0" height="10" style="stroke:#94A3B8;stroke-width:1;" width="15" x="182.3666" y="480.9894"/><rect fill="#E2E8F0" height="2" style="stroke:#94A3B8;stroke-width:1;" width="4" x="180.3666" y="482.9894"/><rect fill="#E2E8F0" height="2" style="stroke:#94A3B8;stroke-width:1;" width="4" x="180.3666" y="486.9894"/><text fill="#0F172A" font-family="Verdana" font-size="10" lengthAdjust="spacing" textLength="34.7266" x="142.64" y="505.2716">slice.ts</text></g><!--entity GVC--><g class="entity" data-qualified-name="BROWSER.TAB.BUNDLE.GVC" data-source-line="56" id="ent0019"><rect fill="#E2E8F0" height="41.6406" rx="4" ry="4" style="stroke:#94A3B8;stroke-width:1;" width="100.5273" x="220.74" y="475.9894"/><rect fill="#E2E8F0" height="10" style="stroke:#94A3B8;stroke-width:1;" width="15" x="301.2673" y="480.9894"/><rect fill="#E2E8F0" height="2" style="stroke:#94A3B8;stroke-width:1;" width="4" x="299.2673" y="482.9894"/><rect fill="#E2E8F0" height="2" style="stroke:#94A3B8;stroke-width:1;" width="4" x="299.2673" y="486.9894"/><text fill="#0F172A" font-family="Verdana" font-size="10" lengthAdjust="spacing" textLength="60.5273" x="235.74" y="505.2716">graph_viz.ts</text></g><!--entity ST--><g class="entity" data-qualified-name="BROWSER.TAB.BUNDLE.ST" data-source-line="57" id="ent0020"><rect fill="#E2E8F0" height="53.2813" rx="4" ry="4" style="stroke:#94A3B8;stroke-width:1;" width="116.1426" x="491.93" y="270.3294"/><rect fill="#E2E8F0" height="10" style="stroke:#94A3B8;stroke-width:1;" width="15" x="588.0726" y="275.3294"/><rect fill="#E2E8F0" height="2" style="stroke:#94A3B8;stroke-width:1;" width="4" x="586.0726" y="277.3294"/><rect fill="#E2E8F0" height="2" style="stroke:#94A3B8;stroke-width:1;" width="4" x="586.0726" y="281.3294"/><text fill="#0F172A" font-family="Verdana" font-size="10" lengthAdjust="spacing" textLength="37.8223" x="506.93" y="299.6116">store.ts</text><text fill="#0F172A" font-family="Verdana" font-size="10" lengthAdjust="spacing" textLength="76.1426" x="506.93" y="311.2522">sessionStorage</text></g><!--entity SS--><g class="entity" data-qualified-name="BROWSER.TAB.BUNDLE.SS" data-source-line="59" id="ent0021"><rect fill="#F8FAFC" height="69.5625" rx="4" ry="4" style="stroke:#64748B;stroke-width:1;" width="106.2207" x="496.89" y="462.0294"/><polygon fill="#F8FAFC" points="586.1107,467.0294,586.1107,481.0294,598.1107,481.0294,598.1107,473.0294,592.1107,467.0294,586.1107,467.0294" style="stroke:#64748B;stroke-width:1;"/><line style="stroke:#64748B;stroke-width:1;" x1="592.1107" x2="592.1107" y1="467.0294" y2="473.0294"/><line style="stroke:#64748B;stroke-width:1;" x1="598.1107" x2="592.1107" y1="473.0294" y2="473.0294"/><text fill="#334155" font-family="Verdana" font-size="10" lengthAdjust="spacing" textLength="76.1426" x="506.89" y="484.3116">sessionStorage</text><text fill="#334155" font-family="Verdana" font-size="10" lengthAdjust="spacing" textLength="76.2207" x="506.89" y="495.9522">agent2_reports</text><text fill="#334155" font-family="Verdana" font-size="10" lengthAdjust="spacing" textLength="57.7051" x="506.89" y="507.5929">hypotheses</text><text fill="#334155" font-family="Verdana" font-size="10" lengthAdjust="spacing" textLength="52.749" x="506.89" y="519.2335">slice_state</text></g><!--entity POPUP--><g class="entity" data-qualified-name="BROWSER.EXT.POPUP" data-source-line="71" id="ent0026"><rect fill="#E2E8F0" height="53.2813" rx="4" ry="4" style="stroke:#94A3B8;stroke-width:1;" width="100.5908" x="1453.7" y="866.5794"/><rect fill="#E2E8F0" height="10" style="stroke:#94A3B8;stroke-width:1;" width="15" x="1534.2908" y="871.5794"/><rect fill="#E2E8F0" height="2" style="stroke:#94A3B8;stroke-width:1;" width="4" x="1532.2908" y="873.5794"/><rect fill="#E2E8F0" height="2" style="stroke:#94A3B8;stroke-width:1;" width="4" x="1532.2908" y="877.5794"/><text fill="#0F172A" font-family="Verdana" font-size="10" lengthAdjust="spacing" textLength="43.8086" x="1468.7" y="895.8616">popup.ts</text><text fill="#0F172A" font-family="Verdana" font-size="10" lengthAdjust="spacing" textLength="60.5908" x="1468.7" y="907.5022">UI do popup</text></g><!--entity CONTENT--><g class="entity" data-qualified-name="BROWSER.EXT.CONTENT" data-source-line="72" id="ent0027"><rect fill="#E2E8F0" height="53.2813" rx="4" ry="4" style="stroke:#94A3B8;stroke-width:1;" width="111.9531" x="1042.02" y="470.1694"/><rect fill="#E2E8F0" height="10" style="stroke:#94A3B8;stroke-width:1;" width="15" x="1133.9731" y="475.1694"/><rect fill="#E2E8F0" height="2" style="stroke:#94A3B8;stroke-width:1;" width="4" x="1131.9731" y="477.1694"/><rect fill="#E2E8F0" height="2" style="stroke:#94A3B8;stroke-width:1;" width="4" x="1131.9731" y="481.1694"/><text fill="#0F172A" font-family="Verdana" font-size="10" lengthAdjust="spacing" textLength="50.5957" x="1057.02" y="499.4516">content.ts</text><text fill="#0F172A" font-family="Verdana" font-size="10" lengthAdjust="spacing" textLength="71.9531" x="1057.02" y="511.0922">Content Script</text></g><!--entity BG--><g class="entity" data-qualified-name="BROWSER.EXT.BG" data-source-line="73" id="ent0028"><rect fill="#E2E8F0" height="53.2813" rx="4" ry="4" style="stroke:#94A3B8;stroke-width:1;" width="116.3086" x="1180.85" y="668.3794"/><rect fill="#E2E8F0" height="10" style="stroke:#94A3B8;stroke-width:1;" width="15" x="1277.1586" y="673.3794"/><rect fill="#E2E8F0" height="2" style="stroke:#94A3B8;stroke-width:1;" width="4" x="1275.1586" y="675.3794"/><rect fill="#E2E8F0" height="2" style="stroke:#94A3B8;stroke-width:1;" width="4" x="1275.1586" y="679.3794"/><text fill="#0F172A" font-family="Verdana" font-size="10" lengthAdjust="spacing" textLength="71.6748" x="1195.85" y="697.6616">background.ts</text><text fill="#0F172A" font-family="Verdana" font-size="10" lengthAdjust="spacing" textLength="76.3086" x="1195.85" y="709.3022">Service Worker</text></g><!--entity CST--><g class="entity" data-qualified-name="BROWSER.EXT.CST" data-source-line="75" id="ent0029"><rect fill="#F8FAFC" height="57.9219" rx="4" ry="4" style="stroke:#64748B;stroke-width:1;" width="149.6484" x="1164.18" y="864.2594"/><polygon fill="#F8FAFC" points="1296.8284,869.2594,1296.8284,883.2594,1308.8284,883.2594,1308.8284,875.2594,1302.8284,869.2594,1296.8284,869.2594" style="stroke:#64748B;stroke-width:1;"/><line style="stroke:#64748B;stroke-width:1;" x1="1302.8284" x2="1302.8284" y1="869.2594" y2="875.2594"/><line style="stroke:#64748B;stroke-width:1;" x1="1308.8284" x2="1302.8284" y1="875.2594" y2="875.2594"/><text fill="#334155" font-family="Verdana" font-size="10" lengthAdjust="spacing" textLength="105.6055" x="1174.18" y="886.5416">chrome.storage.local</text><text fill="#334155" font-family="Verdana" font-size="10" lengthAdjust="spacing" textLength="119.6484" x="1174.18" y="898.1822">pendingWindowContext</text><text fill="#334155" font-family="Verdana" font-size="10" lengthAdjust="spacing" textLength="59.7021" x="1174.18" y="909.8229">pendingCve</text></g><g class="entity" data-qualified-name="BROWSER.EXT.GMN30" data-source-line="78" id="ent0031"><path d="M1407.75,472.5294 L1407.75,521.0919 A4,4 0 0 0 1411.75,525.0919 L1550.248,525.0919 A4,4 0 0 0 1554.248,521.0919 L1554.248,478.5294 L1544.248,468.5294 L1411.75,468.5294 A4,4 0 0 0 1407.75,472.5294" fill="#FEF9C3" style="stroke:#FCD34D;stroke-width:1;"/><path d="M1544.248,468.5294 L1544.248,476.5294 A2,2 0 0 0 1546.248,478.5294 L1554.248,478.5294 L1544.248,468.5294" fill="#FEF9C3" style="stroke:#FCD34D;stroke-width:1;"/><text fill="#1E293B" font-family="Verdana" font-size="10" lengthAdjust="spacing" textLength="125.498" x="1413.75" y="482.8116">Compilado com webpack</text><text fill="#1E293B" font-family="Verdana" font-size="10" lengthAdjust="spacing" textLength="104.458" x="1413.75" y="494.4522">Load unpacked: dist/</text><text fill="#1E293B" font-family="Verdana" font-size="10" lengthAdjust="spacing" textLength="114.7168" x="1413.75" y="506.0929">Porta de comunica&#231;&#227;o:</text><text fill="#1E293B" font-family="Verdana" font-size="10" lengthAdjust="spacing" textLength="114.3457" x="1413.75" y="517.7335">window.postMessage()</text></g><g class="entity" data-qualified-name="BROWSER.EXT.GMN33" data-source-line="84" id="ent0034"><path d="M1171.76,449.2494 L1171.76,493.1794 L1154.4,497.1794 L1171.76,501.1794 L1171.76,544.3744 A4,4 0 0 0 1175.76,548.3744 L1386.2307,548.3744 A4,4 0 0 0 1390.2307,544.3744 L1390.2307,455.2494 L1380.2307,445.2494 L1175.76,445.2494 A4,4 0 0 0 1171.76,449.2494" fill="#FEF9C3" style="stroke:#FCD34D;stroke-width:1;"/><path d="M1380.2307,445.2494 L1380.2307,453.2494 A2,2 0 0 0 1382.2307,455.2494 L1390.2307,455.2494 L1380.2307,445.2494" fill="#FEF9C3" style="stroke:#FCD34D;stroke-width:1;"/><text fill="#1E293B" font-family="Verdana" font-size="10" lengthAdjust="spacing" textLength="48.8135" x="1177.76" y="459.5316">Listeners:</text><text fill="#1E293B" font-family="Verdana" font-size="10" lengthAdjust="spacing" textLength="196.1426" x="1177.76" y="471.1722">&#8226; window.addEventListener('message')</text><text fill="#1E293B" font-family="Verdana" font-size="10" lengthAdjust="spacing" textLength="191.1133" x="1184.1174" y="482.8129">&#8594; filtra REDSHIFT_WINDOW_CONTEXT</text><text fill="#1E293B" font-family="Verdana" font-size="10" lengthAdjust="spacing" textLength="149.0576" x="1177.76" y="494.4535">&#8226; chrome.runtime.onMessage</text><text fill="#1E293B" font-family="Verdana" font-size="10" lengthAdjust="spacing" textLength="121.7773" x="1184.1174" y="506.0941">&#8594; GET_DETECTED_CVES</text><text fill="#1E293B" font-family="Verdana" font-size="10" lengthAdjust="spacing" textLength="166.0791" x="1177.76" y="517.7347">Try/catch em todas as chamadas</text><text fill="#1E293B" font-family="Verdana" font-size="10" lengthAdjust="spacing" textLength="160.0537" x="1177.76" y="529.3754">chrome.runtime.* para suportar</text><text fill="#1E293B" font-family="Verdana" font-size="10" lengthAdjust="spacing" textLength="151.499" x="1177.76" y="541.016">extension context invalidation</text></g><g class="entity" data-qualified-name="GMN45" data-source-line="114" id="ent0046"><path d="M1625.53,845.6594 L1625.53,890.1794 L1554.54,894.1794 L1625.53,898.1794 L1625.53,940.7844 A4,4 0 0 0 1629.53,944.7844 L1836.4655,944.7844 A4,4 0 0 0 1840.4655,940.7844 L1840.4655,851.6594 L1830.4655,841.6594 L1629.53,841.6594 A4,4 0 0 0 1625.53,845.6594" fill="#FEF9C3" style="stroke:#FCD34D;stroke-width:1;"/><path d="M1830.4655,841.6594 L1830.4655,849.6594 A2,2 0 0 0 1832.4655,851.6594 L1840.4655,851.6594 L1830.4655,841.6594" fill="#FEF9C3" style="stroke:#FCD34D;stroke-width:1;"/><text fill="#1E293B" font-family="Verdana" font-size="10" lengthAdjust="spacing" textLength="84.6436" x="1631.53" y="855.9416">Fluxo de an&#225;lise:</text><text fill="#1E293B" font-family="Verdana" font-size="10" lengthAdjust="spacing" textLength="174.541" x="1631.53" y="867.5822">1. checkBackendStatus() &#8594; /health</text><text fill="#1E293B" font-family="Verdana" font-size="10" lengthAdjust="spacing" textLength="188.4814" x="1631.53" y="879.2229">2. fetchBackendConfig() &#8594; /api/config</text><text fill="#1E293B" font-family="Verdana" font-size="10" lengthAdjust="spacing" textLength="185.249" x="1631.53" y="890.8635">3. consumePendingWindowContext()</text><text fill="#1E293B" font-family="Verdana" font-size="10" lengthAdjust="spacing" textLength="193.9355" x="1631.53" y="902.5041">4. renderWindowContext() &#8594; card SOC</text><text fill="#1E293B" font-family="Verdana" font-size="10" lengthAdjust="spacing" textLength="174.4482" x="1631.53" y="914.1447">5. Analista clica "Analisar no SIEM"</text><text fill="#1E293B" font-family="Verdana" font-size="10" lengthAdjust="spacing" textLength="147.6367" x="1631.53" y="925.7854">6. POST /api/v1/analysis/siem</text><text fill="#1E293B" font-family="Verdana" font-size="10" lengthAdjust="spacing" textLength="171.1035" x="1631.53" y="937.426">7. LLM responde &#8594; mostra an&#225;lise</text></g><!--link SSE_NODE to GMN6--><g class="link" data-entity-1="ent0003" data-entity-2="ent0007" data-link-type="association" data-source-line="36" id="lnk8"><path d="M1859.82,297.1794 C1873.17,297.1794 2044,297.1794 2044,297.1794 C2044,297.1794 2044,421.4794 2044,473.9094" fill="none" id="SSE_NODE-GMN6" style="stroke:#64748B;stroke-width:1;stroke-dasharray:7,7;"/></g><!--link TAB to GMN22--><g class="link" data-entity-1="ent0012" data-entity-2="ent0023" data-link-type="association" data-source-line="63" id="lnk24"><path d="M970,148.3594 C970,156.2894 970,283.1794 970,283.1794 C970,283.1794 963.9,283.1794 954.57,283.1794" fill="none" id="TAB-GMN22" style="stroke:#64748B;stroke-width:1;stroke-dasharray:7,7;"/></g><!--link EXT to GMN30--><g class="link" data-entity-1="ent0025" data-entity-2="ent0031" data-link-type="association" data-source-line="78" id="lnk32"><path d="M1481,297.5394 C1481,306.3794 1481,415.1494 1481,468.1494" fill="none" id="EXT-GMN30" style="stroke:#64748B;stroke-width:1;stroke-dasharray:7,7;"/></g><!--link SSE_NODE to TAB--><g class="link" data-entity-1="ent0003" data-entity-2="ent0012" data-link-type="dependency" data-source-line="98" id="lnk36"><path d="M1859,257.194 C1859,253.1871 1859,249.0077 1859,244.7204 C1859,236.1458 1859,227.1394 1859,218.2169 C1859,182.5269 1859,148.1794 1859,148.1794 C1859,148.1794 1643.64,148.1794 1424.915,148.1794 C1315.5525,148.1794 1205.3488,148.1794 1120.8031,148.1794 C1078.5303,148.1794 1042.672,148.1794 1016.5407,148.1794 C1003.475,148.1794 992.8411,148.1794 985.053,148.1794 C983.1059,148.1794 981.3368,148.1794 979.7519,148.1794 C979.3557,148.1794 984.971,148.1794 984.598,148.1794" fill="none" id="SSE_NODE-to-TAB" style="stroke:#64748B;stroke-width:1;"/><polygon fill="#64748B" points="978.598,148.1794,987.598,152.1794,983.598,148.1794,987.598,144.1794,978.598,148.1794" style="stroke:#64748B;stroke-width:1;"/><text fill="#475569" font-family="Verdana" font-size="10" lengthAdjust="spacing" textLength="82.373" x="1368.5389" y="133.4616">GET :5001 (SPA)</text><text fill="#475569" font-family="Verdana" font-size="10" lengthAdjust="spacing" textLength="157.6709" x="1330.89" y="145.1022">GET :5001/events (SSE stream)</text></g><!--link TAB to SSE_NODE--><g class="link" data-entity-1="ent0012" data-entity-2="ent0003" data-link-type="dependency" data-source-line="99" id="lnk37"><path d="M978.7632,129.1794 C979.3964,129.1794 980.0621,129.1794 980.7597,129.1794 C982.1549,129.1794 983.6778,129.1794 985.3237,129.1794 C988.6155,129.1794 992.3991,129.1794 996.6368,129.1794 C1013.5874,129.1794 1037.8027,129.1794 1066.8609,129.1794 C1124.9775,129.1794 1202.4663,129.1794 1279.955,129.1794 C1434.9325,129.1794 1589.91,129.1794 1589.91,129.1794 C1589.91,129.1794 1589.91,297.1794 1589.91,297.1794 C1589.91,297.1794 1605.6931,297.1794 1629.6145,297.1794 C1635.5949,297.1794 1642.0839,297.1794 1648.9621,297.1794 C1652.4012,297.1794 1655.9375,297.1794 1659.5563,297.1794 C1661.3657,297.1794 1657.1957,297.1794 1659.0443,297.1794" fill="none" id="TAB-to-SSE_NODE" style="stroke:#64748B;stroke-width:1;"/><polygon fill="#64748B" points="1665.0443,297.1794,1656.0443,293.1794,1660.0443,297.1794,1656.0443,301.1794,1665.0443,297.1794" style="stroke:#64748B;stroke-width:1;"/><text fill="#475569" font-family="Verdana" font-size="10" lengthAdjust="spacing" textLength="123.9648" x="1490.12" y="103.4616">POST :5001/api/agent1/*</text><text fill="#475569" font-family="Verdana" font-size="10" lengthAdjust="spacing" textLength="116.1279" x="1494.0385" y="115.1022">(process-next, confirm,</text><text fill="#475569" font-family="Verdana" font-size="10" lengthAdjust="spacing" textLength="60.5273" x="1523.4281" y="126.7429">seek, finish)</text></g><!--link TAB to API_NODE--><g class="link" data-entity-1="ent0012" data-entity-2="ent0009" data-link-type="dependency" data-source-line="100" id="lnk38"><path d="M979.2323,209.1794 C979.9028,209.1794 980.5915,209.1794 981.2985,209.1794 C982.7123,209.1794 984.1988,209.1794 985.7566,209.1794 C988.8721,209.1794 992.2728,209.1794 995.9481,209.1794 C1003.2987,209.1794 1011.7476,209.1794 1021.2104,209.1794 C1059.0615,209.1794 1113.1345,209.1794 1178.0222,209.1794 C1307.7975,209.1794 1480.8313,209.1794 1653.865,209.1794 C1999.9325,209.1794 2346,209.1794 2346,209.1794 C2346,209.1794 2346,210.4255 2346,212.6207 C2346,213.1696 2346,213.7777 2346,214.4405 C2346,214.6062 2346,214.7754 2346,214.9478 C2346,215.0341 2346,209.1211 2346,209.209" fill="none" id="TAB-to-API_NODE" style="stroke:#64748B;stroke-width:1;"/><polygon fill="#64748B" points="2346,215.209,2350,206.209,2346,210.209,2342,206.209,2346,215.209" style="stroke:#64748B;stroke-width:1;"/><text fill="#475569" font-family="Verdana" font-size="10" lengthAdjust="spacing" textLength="100.9961" x="1562.23" y="194.4616">POST :8000/api/v1/*</text><text fill="#475569" font-family="Verdana" font-size="10" lengthAdjust="spacing" textLength="86.7871" x="1569.3345" y="206.1022">(CVE, SIEM, chat)</text></g><!--link MAIN to CONTENT--><g class="link" data-entity-1="ent0014" data-entity-2="ent0027" data-link-type="dependency" data-source-line="103" id="lnk39"><path d="M679,323.9694 C679,378.6194 679,497.1794 679,497.1794 C679,497.1794 921.75,497.1794 1035.93,497.1794" fill="none" id="MAIN-to-CONTENT" style="stroke:#64748B;stroke-width:1;"/><polygon fill="#64748B" points="1041.93,497.1794,1032.93,493.1794,1036.93,497.1794,1032.93,501.1794,1041.93,497.1794" style="stroke:#64748B;stroke-width:1;"/><text fill="#475569" font-family="Verdana" font-size="10" lengthAdjust="spacing" textLength="110.4443" x="807.8141" y="471.4616">window.postMessage(</text><text fill="#475569" font-family="Verdana" font-size="10" lengthAdjust="spacing" textLength="169.9951" x="781.2174" y="483.1022">REDSHIFT_WINDOW_CONTEXT, '*'</text><text fill="#475569" font-family="Verdana" font-size="10" lengthAdjust="spacing" textLength="3.9014" x="861.0856" y="494.7429">)</text></g><!--link CONTENT to BG--><g class="link" data-entity-1="ent0027" data-entity-2="ent0028" data-link-type="dependency" data-source-line="104" id="lnk40"><path d="M1098,523.5694 C1098,577.7094 1098,695.1794 1098,695.1794 C1098,695.1794 1135.69,695.1794 1174.43,695.1794" fill="none" id="CONTENT-to-BG" style="stroke:#64748B;stroke-width:1;"/><polygon fill="#64748B" points="1180.43,695.1794,1171.43,691.1794,1175.43,695.1794,1171.43,699.1794,1180.43,695.1794" style="stroke:#64748B;stroke-width:1;"/><text fill="#475569" font-family="Verdana" font-size="10" lengthAdjust="spacing" textLength="155.4736" x="942" y="612.8716">chrome.runtime.sendMessage(</text><text fill="#475569" font-family="Verdana" font-size="10" lengthAdjust="spacing" textLength="85.2441" x="980.2935" y="624.5122">CVE_DETECTED /</text><text fill="#475569" font-family="Verdana" font-size="10" lengthAdjust="spacing" textLength="137.4121" x="954.2095" y="636.1529">WINDOW_CONTEXT_READY</text><text fill="#475569" font-family="Verdana" font-size="10" lengthAdjust="spacing" textLength="3.9014" x="1017.7861" y="647.7935">)</text></g><!--link BG to POPUP--><g class="link" data-entity-1="ent0028" data-entity-2="ent0026" data-link-type="dependency" data-source-line="105" id="lnk41"><path d="M1297.51,704.1794 C1370.89,704.1794 1487.22,704.1794 1487.22,704.1794 C1487.22,704.1794 1487.22,807.8594 1487.22,860.1294" fill="none" id="BG-to-POPUP" style="stroke:#64748B;stroke-width:1;"/><polygon fill="#64748B" points="1487.22,866.1294,1491.22,857.1294,1487.22,861.1294,1483.22,857.1294,1487.22,866.1294" style="stroke:#64748B;stroke-width:1;"/><text fill="#475569" font-family="Verdana" font-size="10" lengthAdjust="spacing" textLength="105.6055" x="1356.2629" y="689.4616">chrome.storage.local</text><text fill="#475569" font-family="Verdana" font-size="10" lengthAdjust="spacing" textLength="127.4512" x="1345.34" y="701.1022">(pendingWindowContext)</text></g><!--link POPUP to API_NODE--><g class="link" data-entity-1="ent0026" data-entity-2="ent0009" data-link-type="dependency" data-source-line="106" id="lnk42"><path d="M1520.73,866.1494 C1520.73,810.0294 1520.73,686.1794 1520.73,686.1794 C1520.73,686.1794 2346,686.1794 2346,686.1794 C2346,686.1794 2346,593.3844 2346,498.4144 C2346,450.9294 2346,402.9006 2346,365.6556 C2346,361 2346,356.5129 2346,352.2164 C2346,351.1422 2346,356.08 2346,355.0301" fill="none" id="POPUP-to-API_NODE" style="stroke:#64748B;stroke-width:1;"/><polygon fill="#64748B" points="2346,349.0301,2342,358.0301,2346,354.0301,2350,358.0301,2346,349.0301" style="stroke:#64748B;stroke-width:1;"/><text fill="#475569" font-family="Verdana" font-size="10" lengthAdjust="spacing" textLength="157.4219" x="1876.8267" y="660.4616">POST :8000/api/v1/analysis/cve</text><text fill="#475569" font-family="Verdana" font-size="10" lengthAdjust="spacing" textLength="163.7354" x="1873.67" y="672.1022">POST :8000/api/v1/analysis/siem</text><text fill="#475569" font-family="Verdana" font-size="10" lengthAdjust="spacing" textLength="161.7383" x="1874.6685" y="683.7429">POST :8000/api/v1/analysis/chat</text></g><!--link ST to SS--><g class="link" data-entity-1="ent0020" data-entity-2="ent0021" data-link-type="dependency" data-source-line="109" id="lnk43"><path d="M550,323.9194 C550,359.5094 550,416.2394 550,455.5594" fill="none" id="ST-to-SS" style="stroke:#64748B;stroke-width:1;"/><polygon fill="#64748B" points="550,461.5594,554,452.5594,550,456.5594,546,452.5594,550,461.5594" style="stroke:#64748B;stroke-width:1;"/><text fill="#475569" font-family="Verdana" font-size="10" lengthAdjust="spacing" textLength="125.1709" x="424" y="390.0216">sessionStorage.setItem()</text></g><!--link BG to CST--><g class="link" data-entity-1="ent0028" data-entity-2="ent0029" data-link-type="dependency" data-source-line="110" id="lnk44"><path d="M1239,721.7494 C1239,758.8394 1239,819.6594 1239,858.0194" fill="none" id="BG-to-CST" style="stroke:#64748B;stroke-width:1;"/><polygon fill="#64748B" points="1239,864.0194,1243,855.0194,1239,859.0194,1235,855.0194,1239,864.0194" style="stroke:#64748B;stroke-width:1;"/><text fill="#475569" font-family="Verdana" font-size="10" lengthAdjust="spacing" textLength="131.8701" x="1107" y="790.1616">chrome.storage.local.set()</text></g><?plantuml-src tLRBRXit5DtFLzow2rk9euSb-Q550LaQEm9iIT0eTeCg4AWPZcVW6N90KhAT8a200bqNHVi1QHTTzIly9_wINd8UUbXnzp44M2BFVPtxuYuy_VdRj_6nTg7RQv-FsfTjE8Idptz0rnvU3DvVslrn2yv6W_xOxdVXDTW_uXVdyPS1IdmxqLlVgO3659A8XCnIF075OSQLuZ5ueQ2k2Zcpv6t84Y983578g7f8A72X0hvomRX79KsWThnoA0YxDOS7LMlrcC-PvtB1g81L-8oujpVciiCZBk1xt_oj83pgatcapZXJ6QH63qxgi-qG9_n8eLPTkUoZbwTSU5HauYSDKfyTRoAU-L7pc_x91ch5YQfVEpeWA_TjeKAVk6hDrc7Zg74ysuPwPk_O9xwx1RbYirvlr9hD5Ko7nmbdbAcN0rp2DgtI0thiLxT1NmvLyBklHuYNAzADesRpS9r8jOLkwf-uzKtKQbI-wzKRdcMfK4KKkaG6Cqw41sS2RL7cfOrCauW_nEX_2qxH3udbXdryZm3v-3UtB5spiEDGiGWzrEeCEZj093ZswCeUmSyMG8PmRD0eAYQirQnMQodCiQVzGTSsG00t9mj-qdWqUAln5Rh0Cuc6Ao6xeL9zo6ID4Cdo2Zj-vdd52wMgJ5Z8F7fV3bGSeIYHaYffh7PxpjY8CkGaxrJk5zwOEqZT1GBEi0rezF6B2bsItM7pWbI28h7QKvQVnrJ611BiR08wIdEioTIcyCUdWf0p8bLxs0ETEGGWAyVLQjNuXyTVOQLpPKC5d9vzYVyw0L4JPgXtgVoGIHeZd_B4v3dh18B7r6W_7Gsk7PERmfSncRKWuYw90YwLIS-4BIi22J2Iu_PfAfNBNON8toaMNKGdR4_x6KR4upW_G0gtKahjlUjtB_9OrgA9SLwMbPomWN03P5YWh31nNBPx_UVuEqmeXZDD2ACH2XhezV0vaDpWluCSqJxeR854LAYf2cEgnt417M-1oWZvpH7EnHR4ZI19C5s47tFK-TKsFOeBQkALL4hS2GuUeAkfth6LIIphUHqsOMbOKq5rVQ6Qu27Xk7eGXYgrarEfYA9PPnbrdwnjXOw9p8nrE4FUvu__OjRGLJ0PVGrZN4-EAy94PRZJUHXvBM09RfuvWvd-cLqD1Ls4z6vvcQG7q6hKZkePwEtb2AXUB9Ao1OyMeHufl0MjPevPQvAYCjEwpGOESZ5X8-evGUWhqBtGreoOUF5fyRnT4fxC4yFuknvWXEQteNiu6BuRRi9TCpwK4UYato5bmSXqp3jcl2crtBX6CEj7kEO2XvSHF3stDYQLQy8gopIpPTDw4vOW1pZWhasP6mVkLN7QMQI9xUILif5J9A38QTw7EgDtT9QWXzdT1ISUp9a-ePXFCoZpF9gXXQIZr9pXg7ly1oTyAxjDUw-Su7ounB94h_TAwtap_eZm9b3QdILP5sY3uZD5QbLFd__ALH7Fi_LSp-_tTkDKyMwg-EdNty4F8vmACBAxpjlUsNXwtUjt1zTJezp4g_LbP6BfwNOkSvOvM6WvjyVJhZssEsExEyMoqQqn5WyLboWtq6Mfk8VCuiSDI4pmEm8sjBu2lKP1piri5mYWUKs2cwOAGhOWKUWHyzvRhsVyx6RxpxYKpMMhM81ltlnWvcjBUmjc1CCU3jxIX1K7-HxSqoidtJubImjfuK9J2ulRoIL84bRCsAXLNk68JWJ7LI7VC7HtN_ljXoBUdp2GbDxk8zqibC5IPx68SfrwHHcTYrGVahblrj6-fawLJ9IuBdM8HSzQUfeRVLbHeBejvOHUV2tH-x3xQdV2IbQkG2ixFKSz6rd2wUAjwaF_Yin3HP-iAvwEx7RtlTQCshHICnUMUZSQT6zRXvQiLEX_2IECH0yob1LtWSFyXNiPqlX5WEPQKstZlDTZ3PiBcmWVO9Oppee1FLXV7yYDwYaQxnMnThJ-hP5gBEAiZPxEX-PPDBytIvwmnozHAAdkx5ePLL7tDdlFEBY9vdAlP4gX4b0IgG1H1sNmANPTXkhe2hp9KJfCKvCtYAoNTNtAUKo7MqWtmwTH1e5tL6nS6MskURaCz1vkbg6Dr25515pSamHsqjz4O8kQ-jr1s64vJThMVE3zKHakBYxHfCJHZz5hAp7NpvQ2YABh_mC0?></g></svg>