<svg xmlns="http://www.w3.org/2000/svg" xmlns:xlink="http://www.w3.org/1999/xlink" contentStyleType="text/css" data-diagram-type="ACTIVITY" height="1646px" preserveAspectRatio="none" style="width:2922px;height:1646px;background:#FFFFFF;" version="1.1" viewBox="0 0 2922 1646" width="2922px" zoomAndPan="magnify"><?plantuml 1.2026.4beta2?><defs/><g><g class="title" data-source-line="25"><text fill="#1E293B" font-family="Verdana" font-size="22" font-weight="700" lengthAdjust="spacing" textLength="474.4824" x="1223.0227" y="35.4209">Agent 1 &#8212; Fluxo de Classifica&#231;&#227;o CISO</text><text fill="#1E293B" font-family="Verdana" font-size="22" font-weight="700" lengthAdjust="spacing" textLength="445.8652" x="1237.3313" y="61.0303">(por cada alerta recebido na janela)</text></g><rect fill="#FFFFFF" height="11.6406" style="stroke:#FFFFFF;stroke-width:1;" width="2885.5278" x="15" y="83.2188"/><ellipse cx="130.7144" cy="109.8594" fill="#FFFFFF" rx="10" ry="10" style="stroke:#000000;stroke-width:1;"/><rect fill="#F8FAFC" height="43.2813" rx="4" ry="4" style="stroke:#94A3B8;stroke-width:1;" width="219.4287" x="21" y="139.8594"/><text fill="#0F172A" font-family="Verdana" font-size="10" lengthAdjust="spacing" textLength="73.7598" x="31" y="159.1416">Receber alerta</text><text fill="#0F172A" font-family="Verdana" font-size="10" lengthAdjust="spacing" textLength="199.4287" x="31" y="170.7822">{Category, Type, Severity, Timestamp}</text><line style="stroke:#000000;stroke-width:1;" x1="15" x2="15" y1="83.2188" y2="1630.8916"/><path d="M415.4678,193.1406 L415.4678,252.3438 L395.4678,256.3438 L415.4678,260.3438 L415.4678,319.5469 A0,0 0 0 0 415.4678,319.5469 L701.1553,319.5469 A0,0 0 0 0 701.1553,319.5469 L701.1553,203.1406 L691.1553,193.1406 L415.4678,193.1406 A0,0 0 0 0 415.4678,193.1406" fill="#FEF9C3" style="stroke:#FCD34D;stroke-width:1;"/><path d="M691.1553,193.1406 L691.1553,203.1406 L701.1553,203.1406 L691.1553,193.1406" fill="#FEF9C3" style="stroke:#FCD34D;stroke-width:1;"/><text fill="#1E293B" font-family="Verdana" font-size="10" lengthAdjust="spacing" textLength="122.6367" x="421.4678" y="207.4229">Tabela de mapeamento:</text><text fill="#1E293B" font-family="Verdana" font-size="10" lengthAdjust="spacing" textLength="180.6152" x="421.4678" y="219.0635">&#9472;&#9472;&#9472;&#9472;&#9472;&#9472;&#9472;&#9472;&#9472;&#9472;&#9472;&#9472;&#9472;&#9472;&#9472;&#9472;&#9472;&#9472;&#9472;&#9472;&#9472;&#9472;&#9472;&#9472;&#9472;&#9472;&#9472;&#9472;&#9472;&#9472;</text><text fill="#1E293B" font-family="Verdana" font-size="10" lengthAdjust="spacing" textLength="208.2178" x="421.4678" y="230.7041">Reconnaissance*     &#8594; RECON         (w=5)</text><text fill="#1E293B" font-family="Verdana" font-size="10" lengthAdjust="spacing" textLength="232.124" x="421.4678" y="242.3447">Credential Access*  &#8594; INITIAL_ACCESS (w=10)</text><text fill="#1E293B" font-family="Verdana" font-size="10" lengthAdjust="spacing" textLength="212.0801" x="421.4678" y="253.9854">Execution*          &#8594; EXECUTION      (w=15)</text><text fill="#1E293B" font-family="Verdana" font-size="10" lengthAdjust="spacing" textLength="217.4902" x="421.4678" y="265.626">Persistence*        &#8594; PERSISTENCE    (w=15)</text><text fill="#1E293B" font-family="Verdana" font-size="10" lengthAdjust="spacing" textLength="264.6875" x="421.4678" y="277.2666">Lateral Movement*   &#8594; LATERAL_MOVEMENT (w=20)</text><text fill="#1E293B" font-family="Verdana" font-size="10" lengthAdjust="spacing" textLength="211.8066" x="421.4678" y="288.9072">Exfiltration*       &#8594; EXFILTRATION   (w=25)</text><text fill="#1E293B" font-family="Verdana" font-size="10" lengthAdjust="spacing" textLength="217.2998" x="421.4678" y="300.5479">Impact / Ransom*    &#8594; IMPACT         (w=30)</text><text fill="#1E293B" font-family="Verdana" font-size="10" lengthAdjust="spacing" textLength="205.9131" x="421.4678" y="312.1885">(outros)            &#8594; UNKNOWN        (w=10)</text><rect fill="#F8FAFC" height="43.2813" rx="4" ry="4" style="stroke:#94A3B8;stroke-width:1;" width="145.0391" x="250.4287" y="234.7031"/><text fill="#0F172A" font-family="Verdana" font-size="10" lengthAdjust="spacing" textLength="125.0391" x="260.4287" y="253.9854">Mapear (Category, Type)</text><text fill="#0F172A" font-family="Verdana" font-size="10" lengthAdjust="spacing" textLength="119.126" x="260.4287" y="265.626">&#8594; fase kill-chain + peso</text><rect fill="#F8FAFC" height="31.6406" rx="4" ry="4" style="stroke:#94A3B8;stroke-width:1;" width="90.249" x="277.8237" y="339.5469"/><text fill="#0F172A" font-family="Verdana" font-size="10" lengthAdjust="spacing" textLength="70.249" x="287.8237" y="358.8291">phase, weight</text><line style="stroke:#000000;stroke-width:1;" x1="244.4287" x2="244.4287" y1="83.2188" y2="1630.8916"/><rect fill="#F8FAFC" height="54.9219" rx="4" ry="4" style="stroke:#94A3B8;stroke-width:1;" width="199.1211" x="712.1553" y="391.1875"/><text fill="#0F172A" font-family="Verdana" font-size="10" lengthAdjust="spacing" textLength="153.3789" x="722.1553" y="410.4697">Deduplicar sequ&#234;ncia de fases</text><text fill="#0F172A" font-family="Verdana" font-size="10" lengthAdjust="spacing" textLength="109.7607" x="722.1553" y="422.1104">acumuladas na janela</text><text fill="#0F172A" font-family="Verdana" font-size="10" lengthAdjust="spacing" textLength="179.1211" x="722.1553" y="433.751">[RECON, INITIAL_ACCESS, EXFIL, ...]</text><rect fill="#F8FAFC" height="31.6406" rx="4" ry="4" style="stroke:#94A3B8;stroke-width:1;" width="139.751" x="741.8403" y="466.1094"/><text fill="#0F172A" font-family="Verdana" font-size="10" lengthAdjust="spacing" textLength="119.751" x="751.8403" y="485.3916">unique_phases: List[str]</text><line style="stroke:#000000;stroke-width:1;" x1="706.1553" x2="706.1553" y1="83.2188" y2="1630.8916"/><path d="M1150.0996,507.75 L1150.0996,584.4141 L1130.0996,588.4141 L1150.0996,592.4141 L1150.0996,669.0781 A0,0 0 0 0 1150.0996,669.0781 L1424.6396,669.0781 A0,0 0 0 0 1424.6396,669.0781 L1424.6396,517.75 L1414.6396,507.75 L1150.0996,507.75 A0,0 0 0 0 1150.0996,507.75" fill="#FEF9C3" style="stroke:#FCD34D;stroke-width:1;"/><path d="M1414.6396,507.75 L1414.6396,517.75 L1424.6396,517.75 L1414.6396,507.75" fill="#FEF9C3" style="stroke:#FCD34D;stroke-width:1;"/><text fill="#1E293B" font-family="Verdana" font-size="10" lengthAdjust="spacing" textLength="232.7783" x="1156.0996" y="522.0322">Prior est&#225;tico &#8212; exemplos de categorias CISO:</text><text fill="#1E293B" font-family="Verdana" font-size="10" lengthAdjust="spacing" textLength="252.8613" x="1156.0996" y="533.6729">&#9472;&#9472;&#9472;&#9472;&#9472;&#9472;&#9472;&#9472;&#9472;&#9472;&#9472;&#9472;&#9472;&#9472;&#9472;&#9472;&#9472;&#9472;&#9472;&#9472;&#9472;&#9472;&#9472;&#9472;&#9472;&#9472;&#9472;&#9472;&#9472;&#9472;&#9472;&#9472;&#9472;&#9472;&#9472;&#9472;&#9472;&#9472;&#9472;&#9472;&#9472;&#9472;</text><text fill="#1E293B" font-family="Verdana" font-size="10" lengthAdjust="spacing" textLength="237.6074" x="1156.0996" y="545.3135">&#8226; Reconnaissance &amp; Pre-Attack Intel. Gathering</text><text fill="#1E293B" font-family="Verdana" font-size="10" lengthAdjust="spacing" textLength="155.5957" x="1156.0996" y="556.9541">&#8226; Targeted Intrusion Campaign</text><text fill="#1E293B" font-family="Verdana" font-size="10" lengthAdjust="spacing" textLength="137.2656" x="1156.0996" y="568.5947">&#8226; Major Breach with Impact</text><text fill="#1E293B" font-family="Verdana" font-size="10" lengthAdjust="spacing" textLength="209.8242" x="1156.0996" y="580.2354">&#8226; Data Exfiltration &amp; Corporate Espionage</text><text fill="#1E293B" font-family="Verdana" font-size="10" lengthAdjust="spacing" textLength="232.8174" x="1156.0996" y="591.876">&#8226; Insider Threats &amp; Physical Security Breaches</text><text fill="#1E293B" font-family="Verdana" font-size="10" lengthAdjust="spacing" textLength="98.667" x="1156.0996" y="603.5166">&#8226; Operational Noise</text><text fill="#1E293B" font-family="Verdana" font-size="10" lengthAdjust="spacing" textLength="84.3311" x="1156.0996" y="615.1572">&#8226; APT Data Theft</text><text fill="#1E293B" font-family="Verdana" font-size="10" lengthAdjust="spacing" textLength="181.2646" x="1156.0996" y="626.7979">&#8226; Ransomware &amp; Destructive Attack</text><text fill="#1E293B" font-family="Verdana" font-size="10" lengthAdjust="spacing" textLength="252.8613" x="1156.0996" y="638.4385">&#9472;&#9472;&#9472;&#9472;&#9472;&#9472;&#9472;&#9472;&#9472;&#9472;&#9472;&#9472;&#9472;&#9472;&#9472;&#9472;&#9472;&#9472;&#9472;&#9472;&#9472;&#9472;&#9472;&#9472;&#9472;&#9472;&#9472;&#9472;&#9472;&#9472;&#9472;&#9472;&#9472;&#9472;&#9472;&#9472;&#9472;&#9472;&#9472;&#9472;&#9472;&#9472;</text><text fill="#1E293B" font-family="Verdana" font-size="10" lengthAdjust="spacing" textLength="241.7822" x="1156.0996" y="650.0791">Cada entrada tem probabilidade prior e risk_tier</text><text fill="#1E293B" font-family="Verdana" font-size="10" lengthAdjust="spacing" textLength="253.54" x="1156.0996" y="661.7197">(CRITICAL / HIGH / MEDIUM-HIGH / MEDIUM / LOW)</text><rect fill="#F8FAFC" height="43.2813" rx="4" ry="4" style="stroke:#94A3B8;stroke-width:1;" width="208.8232" x="921.2764" y="566.7734"/><text fill="#0F172A" font-family="Verdana" font-size="10" lengthAdjust="spacing" textLength="188.8232" x="931.2764" y="586.0557">Consultar tabela SEQUENCE_TO_CISO</text><text fill="#0F172A" font-family="Verdana" font-size="10" lengthAdjust="spacing" textLength="113.7305" x="931.2764" y="597.6963">com as unique_phases</text><rect fill="#F8FAFC" height="31.6406" rx="4" ry="4" style="stroke:#94A3B8;stroke-width:1;" width="194.7217" x="928.3271" y="689.0781"/><text fill="#0F172A" font-family="Verdana" font-size="10" lengthAdjust="spacing" textLength="174.7217" x="938.3271" y="708.3604">prior_options: List[Tuple[str, float]]</text><line style="stroke:#000000;stroke-width:1;" x1="915.2764" x2="915.2764" y1="83.2188" y2="1630.8916"/><rect fill="#F8FAFC" height="59.5781" rx="4" ry="4" style="stroke:#94A3B8;stroke-width:1;" width="203.8115" x="1540.4514" y="740.7188"/><text fill="#0F172A" font-family="Verdana" font-size="10" lengthAdjust="spacing" textLength="96.958" x="1550.4514" y="760.001">Calcular phase_key</text><text fill="#0F172A" font-family="Verdana" font-size="14" font-weight="700" lengthAdjust="spacing" textLength="183.8115" x="1550.4514" y="775.3545">"|".join(unique_phases)</text><text fill="#0F172A" font-family="Verdana" font-size="10" lengthAdjust="spacing" textLength="138.5352" x="1556.8088" y="787.9385">ex: "RECON|EXFILTRATION"</text><polygon fill="#E2E8F0" points="1587.9309,820.2969,1696.7834,820.2969,1708.7834,832.2969,1696.7834,844.2969,1587.9309,844.2969,1575.9309,832.2969,1587.9309,820.2969" style="stroke:#64748B;stroke-width:1;"/><text fill="#0F172A" font-family="Verdana" font-size="10" lengthAdjust="spacing" textLength="97.0215" x="1587.9309" y="829.9385">learned data existe</text><text fill="#0F172A" font-family="Verdana" font-size="10" lengthAdjust="spacing" textLength="108.8525" x="1587.9309" y="841.5791">para este phase_key?</text><text fill="#475569" font-family="Verdana" font-size="10" lengthAdjust="spacing" textLength="17.7295" x="1558.2014" y="829.9385">sim</text><text fill="#475569" font-family="Verdana" font-size="10" lengthAdjust="spacing" textLength="82.1533" x="1708.7834" y="829.9385">n&#227;o &#8212; cold start</text><rect fill="#F8FAFC" height="78.2031" rx="4" ry="4" style="stroke:#94A3B8;stroke-width:1;" width="165.9766" x="1459.5508" y="854.2969"/><text fill="#0F172A" font-family="Verdana" font-size="10" lengthAdjust="spacing" textLength="115.0635" x="1469.5508" y="873.5791">Calcular learned_probs</text><text fill="#0F172A" font-family="Verdana" font-size="10" lengthAdjust="spacing" textLength="122.5977" x="1469.5508" y="885.2197">com Laplace smoothing:</text><text fill="#0F172A" font-family="Verdana" font-size="10" lengthAdjust="spacing" textLength="130.4004" x="1475.9082" y="896.8604">P(cat) = (confirmed + &#945;) /</text><text fill="#0F172A" font-family="Verdana" font-size="10" lengthAdjust="spacing" textLength="99.9707" x="1469.5508" y="908.501">(total + &#945; &#215; N_cats)</text><text fill="#0F172A" font-family="Verdana" font-size="10" lengthAdjust="spacing" textLength="139.6191" x="1475.9082" y="920.1416">&#945; = 1.0 (constante Laplace)</text><rect fill="#F8FAFC" height="31.6406" rx="4" ry="4" style="stroke:#94A3B8;stroke-width:1;" width="128.4863" x="1478.2959" y="952.5"/><text fill="#0F172A" font-family="Verdana" font-size="10" lengthAdjust="spacing" textLength="108.4863" x="1488.2959" y="971.7822">Normalizar prior_map</text><rect fill="#F8FAFC" height="54.9219" rx="4" ry="4" style="stroke:#94A3B8;stroke-width:1;" width="213.7988" x="1435.6396" y="1004.1406"/><text fill="#0F172A" font-family="Verdana" font-size="10" lengthAdjust="spacing" textLength="97.6807" x="1445.6396" y="1023.4229">Mistura ponderada:</text><text fill="#0F172A" font-family="Verdana" font-size="10" lengthAdjust="spacing" textLength="187.4414" x="1451.9971" y="1035.0635">p_final = (1-w) &#215; prior + w &#215; learned</text><text fill="#0F172A" font-family="Verdana" font-size="10" lengthAdjust="spacing" textLength="146.6699" x="1451.9971" y="1046.7041">w = 0.3 (LEARNING_WEIGHT)</text><rect fill="#F8FAFC" height="31.6406" rx="4" ry="4" style="stroke:#94A3B8;stroke-width:1;" width="110.6934" x="1487.1924" y="1079.0625"/><text fill="#0F172A" font-family="Verdana" font-size="10" lengthAdjust="spacing" textLength="90.6934" x="1497.1924" y="1098.3447">Normalizar p_final</text><rect fill="#F8FAFC" height="43.2813" rx="4" ry="4" style="stroke:#94A3B8;stroke-width:1;" width="145.4736" x="1669.4385" y="854.2969"/><text fill="#0F172A" font-family="Verdana" font-size="10" lengthAdjust="spacing" textLength="125.4736" x="1679.4385" y="873.5791">Devolver prior inalterado</text><text fill="#0F172A" font-family="Verdana" font-size="10" lengthAdjust="spacing" textLength="121.2939" x="1679.4385" y="885.2197">(sem dados aprendidos)</text><polygon fill="#E2E8F0" points="1642.3572,1116.7031,1654.3572,1128.7031,1642.3572,1140.7031,1630.3572,1128.7031,1642.3572,1116.7031" style="stroke:#64748B;stroke-width:1;"/><rect fill="#F8FAFC" height="31.6406" rx="4" ry="4" style="stroke:#94A3B8;stroke-width:1;" width="220.4932" x="1532.1106" y="1160.7031"/><text fill="#0F172A" font-family="Verdana" font-size="10" lengthAdjust="spacing" textLength="200.4932" x="1542.1106" y="1179.9854">Ordenar descendente por probabilidade</text><rect fill="#F8FAFC" height="43.2813" rx="4" ry="4" style="stroke:#94A3B8;stroke-width:1;" width="224.0967" x="1530.3088" y="1212.3438"/><text fill="#0F172A" font-family="Verdana" font-size="10" lengthAdjust="spacing" textLength="78.8818" x="1540.3088" y="1231.626">top-N hip&#243;teses</text><text fill="#0F172A" font-family="Verdana" font-size="10" lengthAdjust="spacing" textLength="204.0967" x="1540.3088" y="1243.2666">(N = PROBABILISTIC_MAX_HYPOTHESES)</text><line style="stroke:#000000;stroke-width:1;" x1="1429.6396" x2="1429.6396" y1="83.2188" y2="1630.8916"/><rect fill="#F8FAFC" height="54.9219" rx="4" ry="4" style="stroke:#94A3B8;stroke-width:1;" width="190.5762" x="1824.9121" y="1275.625"/><text fill="#0F172A" font-family="Verdana" font-size="10" lengthAdjust="spacing" textLength="170.5762" x="1834.9121" y="1294.9072">Atribuir risk_tier a cada categoria:</text><text fill="#0F172A" font-family="Verdana" font-size="10" lengthAdjust="spacing" textLength="161.4111" x="1841.2695" y="1306.5479">CRITICAL / HIGH / MEDIUM-HIGH</text><text fill="#0F172A" font-family="Verdana" font-size="10" lengthAdjust="spacing" textLength="74.5996" x="1841.2695" y="1318.1885">MEDIUM / LOW</text><line style="stroke:#000000;stroke-width:1;" x1="1818.9121" x2="1818.9121" y1="83.2188" y2="1630.8916"/><rect fill="#F8FAFC" height="43.2813" rx="4" ry="4" style="stroke:#94A3B8;stroke-width:1;" width="183.0615" x="2025.4883" y="1350.5469"/><text fill="#0F172A" font-family="Verdana" font-size="10" lengthAdjust="spacing" textLength="76.5625" x="2035.4883" y="1369.8291">CISOOption &#215;N</text><text fill="#0F172A" font-family="Verdana" font-size="10" lengthAdjust="spacing" textLength="163.0615" x="2035.4883" y="1381.4697">{category, probability, risk_tier}</text><line style="stroke:#000000;stroke-width:1;" x1="2019.4883" x2="2019.4883" y1="83.2188" y2="1630.8916"/><polygon fill="#E2E8F0" points="2239.5498,1413.8281,2330.7949,1413.8281,2342.7949,1425.8281,2330.7949,1437.8281,2239.5498,1437.8281,2227.5498,1425.8281,2239.5498,1413.8281" style="stroke:#64748B;stroke-width:1;"/><text fill="#475569" font-family="Verdana" font-size="10" lengthAdjust="spacing" textLength="102.3975" x="2289.1724" y="1447.1104">converg&#234;ncia r&#225;pida</text><text fill="#0F172A" font-family="Verdana" font-size="10" lengthAdjust="spacing" textLength="74.0918" x="2239.5498" y="1423.4697">prob[0] &#8805; 0.97</text><text fill="#0F172A" font-family="Verdana" font-size="10" lengthAdjust="spacing" textLength="91.2451" x="2239.5498" y="1435.1104">AND n_alerts &#8805; 1?</text><rect fill="#F8FAFC" height="43.2813" rx="4" ry="4" style="stroke:#94A3B8;stroke-width:1;" width="120.8154" x="2224.7646" y="1468.6104"/><text fill="#0F172A" font-family="Verdana" font-size="10" lengthAdjust="spacing" textLength="82.5391" x="2234.7646" y="1487.8926">is_closed = True</text><text fill="#0F172A" font-family="Verdana" font-size="10" lengthAdjust="spacing" textLength="100.8154" x="2234.7646" y="1499.5332">emit window_closed</text><ellipse cx="2285.1724" cy="1557.8916" fill="none" rx="11" ry="11" style="stroke:#000000;stroke-width:1;"/><ellipse cx="2285.1724" cy="1557.8916" fill="#FFFFFF" rx="6" ry="6" style="stroke:#000000;stroke-width:1;"/><polygon fill="#E2E8F0" points="2422.355,1413.8281,2513.6001,1413.8281,2525.6001,1425.8281,2513.6001,1437.8281,2422.355,1437.8281,2410.355,1425.8281,2422.355,1413.8281" style="stroke:#64748B;stroke-width:1;"/><text fill="#475569" font-family="Verdana" font-size="10" lengthAdjust="spacing" textLength="105.7715" x="2471.9775" y="1447.1104">converg&#234;ncia normal</text><text fill="#0F172A" font-family="Verdana" font-size="10" lengthAdjust="spacing" textLength="74.0918" x="2422.355" y="1423.4697">prob[0] &#8805; 0.85</text><text fill="#0F172A" font-family="Verdana" font-size="10" lengthAdjust="spacing" textLength="91.2451" x="2422.355" y="1435.1104">AND n_alerts &#8805; 3?</text><rect fill="#F8FAFC" height="43.2813" rx="4" ry="4" style="stroke:#94A3B8;stroke-width:1;" width="120.8154" x="2407.5698" y="1468.6104"/><text fill="#0F172A" font-family="Verdana" font-size="10" lengthAdjust="spacing" textLength="82.5391" x="2417.5698" y="1487.8926">is_closed = True</text><text fill="#0F172A" font-family="Verdana" font-size="10" lengthAdjust="spacing" textLength="100.8154" x="2417.5698" y="1499.5332">emit window_closed</text><ellipse cx="2467.9775" cy="1557.8916" fill="none" rx="11" ry="11" style="stroke:#000000;stroke-width:1;"/><ellipse cx="2467.9775" cy="1557.8916" fill="#FFFFFF" rx="6" ry="6" style="stroke:#000000;stroke-width:1;"/><polygon fill="#E2E8F0" points="2613.1958,1413.8281,2692.5952,1413.8281,2704.5952,1425.8281,2692.5952,1437.8281,2613.1958,1437.8281,2601.1958,1425.8281,2613.1958,1413.8281" style="stroke:#64748B;stroke-width:1;"/><text fill="#475569" font-family="Verdana" font-size="10" lengthAdjust="spacing" textLength="98.75" x="2656.8955" y="1447.1104">valida&#231;&#227;o pendente</text><text fill="#0F172A" font-family="Verdana" font-size="10" lengthAdjust="spacing" textLength="79.3994" x="2613.1958" y="1429.29">prob[0] &#8805; 0.75?</text><text fill="#475569" font-family="Verdana" font-size="10" lengthAdjust="spacing" textLength="47.0605" x="2704.5952" y="1423.4697">acumular</text><rect fill="#F8FAFC" height="43.2813" rx="4" ry="4" style="stroke:#94A3B8;stroke-width:1;" width="130.293" x="2587.749" y="1468.6104"/><text fill="#0F172A" font-family="Verdana" font-size="10" lengthAdjust="spacing" textLength="110.293" x="2597.749" y="1487.8926">emit window_updated</text><text fill="#0F172A" font-family="Verdana" font-size="10" lengthAdjust="spacing" textLength="107.2217" x="2597.749" y="1499.5332">{ciso_options, timer}</text><rect fill="#F8FAFC" height="31.6406" rx="4" ry="4" style="stroke:#94A3B8;stroke-width:1;" width="130.293" x="2765.6455" y="1500.1104"/><text fill="#0F172A" font-family="Verdana" font-size="10" lengthAdjust="spacing" textLength="110.293" x="2775.6455" y="1519.3926">emit window_updated</text><ellipse cx="2566.3516" cy="1619.8916" fill="none" rx="11" ry="11" style="stroke:#000000;stroke-width:1;"/><ellipse cx="2566.3516" cy="1619.8916" fill="#FFFFFF" rx="6" ry="6" style="stroke:#000000;stroke-width:1;"/><line style="stroke:#000000;stroke-width:1;" x1="2212.5498" x2="2212.5498" y1="83.2188" y2="1630.8916"/><line style="stroke:#000000;stroke-width:1;" x1="2899.9385" x2="2899.9385" y1="83.2188" y2="1630.8916"/><line style="stroke:#64748B;stroke-width:1;" x1="130.7144" x2="130.7144" y1="119.8594" y2="139.8594"/><polygon fill="#64748B" points="126.7144,129.8594,130.7144,139.8594,134.7144,129.8594,130.7144,133.8594" style="stroke:#64748B;stroke-width:1;"/><line style="stroke:#64748B;stroke-width:1;" x1="322.9482" x2="322.9482" y1="277.9844" y2="339.5469"/><polygon fill="#64748B" points="318.9482,329.5469,322.9482,339.5469,326.9482,329.5469,322.9482,333.5469" style="stroke:#64748B;stroke-width:1;"/><line style="stroke:#64748B;stroke-width:1;" x1="811.7158" x2="811.7158" y1="446.1094" y2="466.1094"/><polygon fill="#64748B" points="807.7158,456.1094,811.7158,466.1094,815.7158,456.1094,811.7158,460.1094" style="stroke:#64748B;stroke-width:1;"/><line style="stroke:#64748B;stroke-width:1;" x1="1025.688" x2="1025.688" y1="610.0547" y2="689.0781"/><polygon fill="#64748B" points="1021.688,679.0781,1025.688,689.0781,1029.688,679.0781,1025.688,683.0781" style="stroke:#64748B;stroke-width:1;"/><line style="stroke:#64748B;stroke-width:1;" x1="1542.5391" x2="1542.5391" y1="932.5" y2="952.5"/><polygon fill="#64748B" points="1538.5391,942.5,1542.5391,952.5,1546.5391,942.5,1542.5391,946.5" style="stroke:#64748B;stroke-width:1;"/><line style="stroke:#64748B;stroke-width:1;" x1="1542.5391" x2="1542.5391" y1="984.1406" y2="1004.1406"/><polygon fill="#64748B" points="1538.5391,994.1406,1542.5391,1004.1406,1546.5391,994.1406,1542.5391,998.1406" style="stroke:#64748B;stroke-width:1;"/><line style="stroke:#64748B;stroke-width:1;" x1="1542.5391" x2="1542.5391" y1="1059.0625" y2="1079.0625"/><polygon fill="#64748B" points="1538.5391,1069.0625,1542.5391,1079.0625,1546.5391,1069.0625,1542.5391,1073.0625" style="stroke:#64748B;stroke-width:1;"/><line style="stroke:#64748B;stroke-width:1;" x1="1575.9309" x2="1542.5391" y1="832.2969" y2="832.2969"/><line style="stroke:#64748B;stroke-width:1;" x1="1542.5391" x2="1542.5391" y1="832.2969" y2="854.2969"/><polygon fill="#64748B" points="1538.5391,844.2969,1542.5391,854.2969,1546.5391,844.2969,1542.5391,848.2969" style="stroke:#64748B;stroke-width:1;"/><line style="stroke:#64748B;stroke-width:1;" x1="1708.7834" x2="1742.1753" y1="832.2969" y2="832.2969"/><line style="stroke:#64748B;stroke-width:1;" x1="1742.1753" x2="1742.1753" y1="832.2969" y2="854.2969"/><polygon fill="#64748B" points="1738.1753,844.2969,1742.1753,854.2969,1746.1753,844.2969,1742.1753,848.2969" style="stroke:#64748B;stroke-width:1;"/><line style="stroke:#64748B;stroke-width:1;" x1="1542.5391" x2="1542.5391" y1="1110.7031" y2="1128.7031"/><line style="stroke:#64748B;stroke-width:1;" x1="1542.5391" x2="1630.3572" y1="1128.7031" y2="1128.7031"/><polygon fill="#64748B" points="1620.3572,1124.7031,1630.3572,1128.7031,1620.3572,1132.7031,1624.3572,1128.7031" style="stroke:#64748B;stroke-width:1;"/><line style="stroke:#64748B;stroke-width:1;" x1="1742.1753" x2="1742.1753" y1="897.5781" y2="1128.7031"/><line style="stroke:#64748B;stroke-width:1;" x1="1742.1753" x2="1654.3572" y1="1128.7031" y2="1128.7031"/><polygon fill="#64748B" points="1664.3572,1124.7031,1654.3572,1128.7031,1664.3572,1132.7031,1660.3572,1128.7031" style="stroke:#64748B;stroke-width:1;"/><line style="stroke:#64748B;stroke-width:1;" x1="1642.3572" x2="1642.3572" y1="800.2969" y2="820.2969"/><polygon fill="#64748B" points="1638.3572,810.2969,1642.3572,820.2969,1646.3572,810.2969,1642.3572,814.2969" style="stroke:#64748B;stroke-width:1;"/><line style="stroke:#64748B;stroke-width:1;" x1="1642.3572" x2="1642.3572" y1="1140.7031" y2="1160.7031"/><polygon fill="#64748B" points="1638.3572,1150.7031,1642.3572,1160.7031,1646.3572,1150.7031,1642.3572,1154.7031" style="stroke:#64748B;stroke-width:1;"/><line style="stroke:#64748B;stroke-width:1;" x1="1642.3572" x2="1642.3572" y1="1192.3438" y2="1212.3438"/><polygon fill="#64748B" points="1638.3572,1202.3438,1642.3572,1212.3438,1646.3572,1202.3438,1642.3572,1206.3438" style="stroke:#64748B;stroke-width:1;"/><line style="stroke:#64748B;stroke-width:1;" x1="2285.1724" x2="2285.1724" y1="1511.8916" y2="1546.8916"/><polygon fill="#64748B" points="2281.1724,1536.8916,2285.1724,1546.8916,2289.1724,1536.8916,2285.1724,1540.8916" style="stroke:#64748B;stroke-width:1;"/><line style="stroke:#64748B;stroke-width:1;" x1="2467.9775" x2="2467.9775" y1="1511.8916" y2="1546.8916"/><polygon fill="#64748B" points="2463.9775,1536.8916,2467.9775,1546.8916,2471.9775,1536.8916,2467.9775,1540.8916" style="stroke:#64748B;stroke-width:1;"/><line style="stroke:#64748B;stroke-width:1;" x1="2285.1724" x2="2285.1724" y1="1437.8281" y2="1468.6104"/><polygon fill="#64748B" points="2281.1724,1458.6104,2285.1724,1468.6104,2289.1724,1458.6104,2285.1724,1462.6104" style="stroke:#64748B;stroke-width:1;"/><line style="stroke:#64748B;stroke-width:1;" x1="2467.9775" x2="2467.9775" y1="1437.8281" y2="1468.6104"/><polygon fill="#64748B" points="2463.9775,1458.6104,2467.9775,1468.6104,2471.9775,1458.6104,2467.9775,1462.6104" style="stroke:#64748B;stroke-width:1;"/><line style="stroke:#64748B;stroke-width:1;" x1="2652.8955" x2="2652.8955" y1="1437.8281" y2="1468.6104"/><polygon fill="#64748B" points="2648.8955,1458.6104,2652.8955,1468.6104,2656.8955,1458.6104,2652.8955,1462.6104" style="stroke:#64748B;stroke-width:1;"/><line style="stroke:#64748B;stroke-width:1;" x1="2652.8955" x2="2652.8955" y1="1511.8916" y2="1588.8916"/><polygon fill="#64748B" points="2648.8955,1578.8916,2652.8955,1588.8916,2656.8955,1578.8916,2652.8955,1582.8916" style="stroke:#64748B;stroke-width:1;"/><line style="stroke:#64748B;stroke-width:1;" x1="2342.7949" x2="2410.355" y1="1425.8281" y2="1425.8281"/><polygon fill="#64748B" points="2400.355,1421.8281,2410.355,1425.8281,2400.355,1429.8281,2404.355,1425.8281" style="stroke:#64748B;stroke-width:1;"/><line style="stroke:#64748B;stroke-width:1;" x1="2525.6001" x2="2601.1958" y1="1425.8281" y2="1425.8281"/><polygon fill="#64748B" points="2591.1958,1421.8281,2601.1958,1425.8281,2591.1958,1429.8281,2595.1958,1425.8281" style="stroke:#64748B;stroke-width:1;"/><line style="stroke:#64748B;stroke-width:1;" x1="2117.019" x2="2117.019" y1="1393.8281" y2="1398.8281"/><line style="stroke:#64748B;stroke-width:1;" x1="2117.019" x2="2285.1724" y1="1398.8281" y2="1398.8281"/><line style="stroke:#64748B;stroke-width:1;" x1="2285.1724" x2="2285.1724" y1="1398.8281" y2="1413.8281"/><polygon fill="#64748B" points="2281.1724,1403.8281,2285.1724,1413.8281,2289.1724,1403.8281,2285.1724,1407.8281" style="stroke:#64748B;stroke-width:1;"/><line style="stroke:#64748B;stroke-width:1;" x1="2704.5952" x2="2830.792" y1="1425.8281" y2="1425.8281"/><line style="stroke:#64748B;stroke-width:1;" x1="2830.792" x2="2830.792" y1="1425.8281" y2="1500.1104"/><polygon fill="#64748B" points="2826.792,1490.1104,2830.792,1500.1104,2834.792,1490.1104,2830.792,1494.1104" style="stroke:#64748B;stroke-width:1;"/><line style="stroke:#64748B;stroke-width:1;" x1="2830.792" x2="2830.792" y1="1531.751" y2="1588.8916"/><polygon fill="#64748B" points="2826.792,1578.8916,2830.792,1588.8916,2834.792,1578.8916,2830.792,1582.8916" style="stroke:#64748B;stroke-width:1;"/><line style="stroke:#64748B;stroke-width:1;" x1="2566.3516" x2="2830.792" y1="1588.8916" y2="1588.8916"/><line style="stroke:#64748B;stroke-width:1;" x1="2566.3516" x2="2566.3516" y1="1588.8916" y2="1608.8916"/><polygon fill="#64748B" points="2562.3516,1598.8916,2566.3516,1608.8916,2570.3516,1598.8916,2566.3516,1602.8916" style="stroke:#64748B;stroke-width:1;"/><line style="stroke:#64748B;stroke-width:1;" x1="130.7144" x2="130.7144" y1="183.1406" y2="196.4219"/><line style="stroke:#64748B;stroke-width:1;" x1="130.7144" x2="322.9482" y1="196.4219" y2="196.4219"/><line style="stroke:#64748B;stroke-width:1;" x1="322.9482" x2="322.9482" y1="196.4219" y2="234.7031"/><polygon fill="#64748B" points="318.9482,224.7031,322.9482,234.7031,326.9482,224.7031,322.9482,228.7031" style="stroke:#64748B;stroke-width:1;"/><line style="stroke:#64748B;stroke-width:1;" x1="322.9482" x2="322.9482" y1="371.1875" y2="376.1875"/><line style="stroke:#64748B;stroke-width:1;" x1="322.9482" x2="811.7158" y1="376.1875" y2="376.1875"/><line style="stroke:#64748B;stroke-width:1;" x1="811.7158" x2="811.7158" y1="376.1875" y2="391.1875"/><polygon fill="#64748B" points="807.7158,381.1875,811.7158,391.1875,815.7158,381.1875,811.7158,385.1875" style="stroke:#64748B;stroke-width:1;"/><line style="stroke:#64748B;stroke-width:1;" x1="811.7158" x2="811.7158" y1="497.75" y2="519.7617"/><line style="stroke:#64748B;stroke-width:1;" x1="811.7158" x2="1025.688" y1="519.7617" y2="519.7617"/><line style="stroke:#64748B;stroke-width:1;" x1="1025.688" x2="1025.688" y1="519.7617" y2="566.7734"/><polygon fill="#64748B" points="1021.688,556.7734,1025.688,566.7734,1029.688,556.7734,1025.688,560.7734" style="stroke:#64748B;stroke-width:1;"/><line style="stroke:#64748B;stroke-width:1;" x1="1025.688" x2="1025.688" y1="720.7188" y2="725.7188"/><line style="stroke:#64748B;stroke-width:1;" x1="1025.688" x2="1642.3572" y1="725.7188" y2="725.7188"/><line style="stroke:#64748B;stroke-width:1;" x1="1642.3572" x2="1642.3572" y1="725.7188" y2="740.7188"/><polygon fill="#64748B" points="1638.3572,730.7188,1642.3572,740.7188,1646.3572,730.7188,1642.3572,734.7188" style="stroke:#64748B;stroke-width:1;"/><line style="stroke:#64748B;stroke-width:1;" x1="1642.3572" x2="1642.3572" y1="1255.625" y2="1260.625"/><line style="stroke:#64748B;stroke-width:1;" x1="1642.3572" x2="1920.2002" y1="1260.625" y2="1260.625"/><line style="stroke:#64748B;stroke-width:1;" x1="1920.2002" x2="1920.2002" y1="1260.625" y2="1275.625"/><polygon fill="#64748B" points="1916.2002,1265.625,1920.2002,1275.625,1924.2002,1265.625,1920.2002,1269.625" style="stroke:#64748B;stroke-width:1;"/><line style="stroke:#64748B;stroke-width:1;" x1="1920.2002" x2="1920.2002" y1="1330.5469" y2="1335.5469"/><line style="stroke:#64748B;stroke-width:1;" x1="1920.2002" x2="2117.019" y1="1335.5469" y2="1335.5469"/><line style="stroke:#64748B;stroke-width:1;" x1="2117.019" x2="2117.019" y1="1335.5469" y2="1350.5469"/><polygon fill="#64748B" points="2113.019,1340.5469,2117.019,1350.5469,2121.019,1340.5469,2117.019,1344.5469" style="stroke:#64748B;stroke-width:1;"/><text fill="#1E293B" font-family="Verdana" font-size="10" lengthAdjust="spacing" textLength="29.9316" x="114.7485" y="92.501">Alerta</text><text fill="#1E293B" font-family="Verdana" font-size="10" lengthAdjust="spacing" textLength="59.3994" x="445.5923" y="92.501">get_phase()</text><text fill="#1E293B" font-family="Verdana" font-size="10" lengthAdjust="spacing" textLength="146.2891" x="737.5713" y="92.501">get_phases_from_sequence()</text><text fill="#1E293B" font-family="Verdana" font-size="10" lengthAdjust="spacing" textLength="198.2227" x="1073.3467" y="92.501">generate_hypotheses() &#8212; Prior est&#225;tico</text><text fill="#1E293B" font-family="Verdana" font-size="10" lengthAdjust="spacing" textLength="152.6123" x="1547.9697" y="92.501">ProbabilisticClassifier.predict()</text><text fill="#1E293B" font-family="Verdana" font-size="10" lengthAdjust="spacing" textLength="69.0771" x="1884.6616" y="92.501">get_risk_tier()</text><text fill="#1E293B" font-family="Verdana" font-size="10" lengthAdjust="spacing" textLength="68.5059" x="2081.7661" y="92.501">CISOOption[ ]</text><text fill="#1E293B" font-family="Verdana" font-size="10" lengthAdjust="spacing" textLength="111.7041" x="2500.3921" y="92.501">_check_convergence()</text><?plantuml-src tLRTRkF65RxNKvnkWKJosewrjcDRXX5mAUukKVrLehjRh0rYH0wbMPCpxCpGMYSEi4201BqhYXIvJegYGE-AFeBk-n1-afuPKh9aEqOk4g288C0M-Stvc-yxvtmCDt_xow_ZM_iOshxpSkXq7MZ2pOTluKNdz4qVsXwu7MSqyb_uhZF_PlvL7rn_r4VuhoVrsc_qb6OKyfGmNbCNZET4aWoaA7WS2ScfXCELvsCINKpiIrUaGi9l4_jPGSGq8KMgNmYkAqYJFZlQ7JyC6R7FAJHtLbuwKefPTVBJlOEzm_7TbokczmxszpyzMWL4cbqoVVLSo9ZA2dMqHtR7Xm-XxcLpc90aUW2vudCdQHuy8mzWsenaWiVtZD9dz33PUUJ0QgptKru7FnR8W4ZDD1FyyUnlOVVIRoRxoT53qCVSzeIczqtHv2ZQlOjQZIk9ujsz-0xYFcrg641AmPbGhXVoJ8lt0ba4RagKOWcBoFoVyxyBAyypNi_nU4HY0YIbKXEGDA9Z5WlW1DuHJbFIgDMk7VlokgOq9bbh3Gq8sLwUEUDVk4JJYP1Ncn1SvNGJHlIIIhm8_CqoYgUo_CjZj3EXEiodHD5wuxhMwfAS4WdrzTEDCtxpzLyXGHHSi3JTYgQeDtWAELNYkCOnSv1iCjKrW82CCKAJNcPiPPYtQE7pcsy__49VD8xP2yu9KuhmY6w0-PY8XvxRxy7YKv-Tx3SGxKeQOrYCf4ZFY2grKQBzdX_uJYTqNDSRZGoykMFmtdiQ5OP66qjJ5k-zyTpJm5zuC7XhVq2bOahJPIWLVk0DH_uey7gkjuRlOB4b1jCLbzJKQwF2Tvp06s8ytVuVlAxN2yo9PrL42Kkr9Aj1bH6zy3l1qAc2CdZhmSzo4cdu18Q4Av5jBF1-T-2umMg1TgtzkYYq5Ae1i9xnQUztlVxhtWhUL8Zo60m7QYrBf4sOKKE6DNQfC94Y2nNzKs7gOidMfd6HfqX_2URv_5yyOfOvXcZgZ9Eeo8eKbQ1kgN_6tzfBtRnpMvjbxfkmlRrzVbnh5PoXfyft2pfu7s-LbkTbK3WNiERXz2eNE40GKMzOQGuaG_6XEkRVQnO9ZD4LN66pnn1rIUoHz_jJSuDXq0zBmKOY0mnnpUCTKTonQttHzpJBKw5Cmb4fDuPcZCrVLYy_KLCt7twueolu21EXMuxMs2x1vvgcs_2IO0KbuvFgI40aNZgDpNjPA2GekDXh29lm2j4bxx0OpoKbqHHcJ4yhUbQlsmHxtYh1qQqh97P5B19uAiT7P48hjCyLmwOCmHJjQML2d5ufv5IA7IygJCUhN55L7Uddj3ICc9vWQc7A6GIbys1AaqKqfM1cH9histY3iZ0J3JkwhSB_mqMvPbPWsv3chwOPv5ACoPYbB2R8hRpa7d9HNOIQKMdqxGvHFAxJmPRmod_v2lzqlRP_sjrQ-uN_TFglrmHkZ8KYD-LRo2f04LCZhar8Ka7qkHNPO164GiOl9XsLspasNnPfsm1SaaOeS0bMDE45lJhZ9_3a-idsEy5uVKrHE8C0DTE29rR_rwkjxWawP0dKKvnT7AaNcrkaxqqFFhFJsKYFtdhvh058MWvrnJBJxcu3gIo4feIgb7Q7u7Q9v5UPm6Q1H6-PI0Prr6m3Jg2E2acOpD3jK_Zllnlm2OvmBJIIo_o6-NVG2n5R9e0FJg2vlMEFuH163IqSD8vD93qXCvAopqrHRArnYjeNNSocm4notAAekMeRHXucpF0OusXkpHh6MtdVJs5cVbJv6EWCGJlRkr3lUCwmv_TUXgyzlEpWlj_Ivd6DfZZlwzoi9gPXHIADmQuRjcPjUYbIt2agX-Q86MEnmFmLiX39XysDu7tp6BSNXNuCZrXIgxNwk4XnT1LJ5U53QifWrfurvc8NroBVwi6KvVF_Q6fdGhs7QGo6_UVESx-3mzHtmwxp9dprnq4_UEMDl55ZCNQMVBTKSxHauuB9Mna0ARUiPU-r1NrK60QmgWpZolJhljN3MpWtd5x-nlhtS16BbglKCZkpXItZi5jOYFqfkWYH55ZHoM926awRGsztpk7cp__0wpiwEEDEhmqyj8kUie-RIpvNvwj9AkVVvrX9UrjCXH4E6sJf2GIoG5tGZ6bilpmMi-gL8OB2ajkBl-_xSFy1txi_ufjRFlrShW_sbsukYM57kJ3d5NUicrMZHOujmD3-YuWfiUXNcw1nzJK5BvbTxHVonuul2MiY-ny0?></g></svg>