<svg xmlns="http://www.w3.org/2000/svg" xmlns:xlink="http://www.w3.org/1999/xlink" contentStyleType="text/css" data-diagram-type="SEQUENCE" height="1784px" preserveAspectRatio="none" style="width:1157px;height:1784px;background:#FFFFFF;" version="1.1" viewBox="0 0 1157 1784" width="1157px" zoomAndPan="magnify"><?plantuml 1.2026.4beta2?><defs/><g><g class="title" data-source-line="25"><text fill="#1E293B" font-family="Verdana" font-size="22" font-weight="700" lengthAdjust="spacing" textLength="605.8379" x="274.8167" y="35.4209">Agent 1 &#8212; Fluxo de Processamento de um Alerta</text></g><rect fill="#FFFFFF" height="225.4063" rx="4" ry="4" style="stroke:#CBD5E1;stroke-width:1;" width="882.022" x="156.4531" y="343.0156"/><rect fill="#FFFFFF" height="147.4844" rx="4" ry="4" style="stroke:#CBD5E1;stroke-width:1;" width="862.022" x="166.4531" y="413.9375"/><path d="M166.4531,496.5 L1028.4751,496.5 L1028.4751,557.4219 A4,4 0 0 1 1024.4751,561.4219 L170.4531,561.4219 A4,4 0 0 1 166.4531,557.4219 L166.4531,496.5" fill="#FFFFFF" style="stroke:none;stroke-width:1;"/><rect fill="#FFFFFF" height="406.8125" rx="4" ry="4" style="stroke:#CBD5E1;stroke-width:1;" width="839.7793" x="156.4531" y="750.625"/><rect fill="#FFFFFF" height="340.5313" rx="4" ry="4" style="stroke:#CBD5E1;stroke-width:1;" width="819.7793" x="166.4531" y="809.9063"/><path d="M166.4531,933.3906 L986.2324,933.3906 L986.2324,1044.5938 A4,4 0 0 1 982.2324,1048.5938 L170.4531,1048.5938 A4,4 0 0 1 166.4531,1044.5938 L166.4531,933.3906" fill="#FFFFFF" style="stroke:none;stroke-width:1;"/><path d="M166.4531,1048.5938 L986.2324,1048.5938 L986.2324,1107.1563 A4,4 0 0 1 982.2324,1111.1563 L170.4531,1111.1563 A4,4 0 0 1 166.4531,1107.1563 L166.4531,1048.5938" fill="#FFFFFF" style="stroke:none;stroke-width:1;"/><path d="M166.4531,1111.1563 L986.2324,1111.1563 L986.2324,1146.4375 A4,4 0 0 1 982.2324,1150.4375 L170.4531,1150.4375 A4,4 0 0 1 166.4531,1146.4375 L166.4531,1111.1563" fill="#FFFFFF" style="stroke:none;stroke-width:1;"/><rect fill="#FFFFFF" height="109.4844" rx="4" ry="4" style="stroke:#CBD5E1;stroke-width:1;" width="886.8726" x="166.4531" y="1568.0469"/><g class="participant-lifeline" data-entity-uid="part1" data-qualified-name="UI" data-source-line="27" id="part1-lifeline"><g><title>Dashboard</title><rect fill="#000000" fill-opacity="0.00000" height="1558.6406" width="8" x="36.2144" y="135.8906"/><line style="stroke:#94A3B8;stroke-width:1;stroke-dasharray:5,5;" x1="40" x2="40" y1="135.8906" y2="1694.5313"/></g></g><g class="participant-lifeline" data-entity-uid="part2" data-qualified-name="SSE" data-source-line="28" id="part2-lifeline"><g><title>SSE Server</title><rect fill="#000000" fill-opacity="0.00000" height="1558.6406" width="8" x="214.9458" y="135.8906"/><line style="stroke:#94A3B8;stroke-width:1;stroke-dasharray:5,5;" x1="218.4531" x2="218.4531" y1="135.8906" y2="1694.5313"/></g></g><g class="participant-lifeline" data-entity-uid="part3" data-qualified-name="MAIN" data-source-line="29" id="part3-lifeline"><g><title>main.py</title><rect fill="#000000" fill-opacity="0.00000" height="1558.6406" width="8" x="393.3306" y="135.8906"/><line style="stroke:#94A3B8;stroke-width:1;stroke-dasharray:5,5;" x1="397.1157" x2="397.1157" y1="135.8906" y2="1694.5313"/></g></g><g class="participant-lifeline" data-entity-uid="part4" data-qualified-name="WM" data-source-line="30" id="part4-lifeline"><g><title>WindowManager</title><rect fill="#000000" fill-opacity="0.00000" height="1558.6406" width="8" x="569.02" y="135.8906"/><line style="stroke:#94A3B8;stroke-width:1;stroke-dasharray:5,5;" x1="572.2793" x2="572.2793" y1="135.8906" y2="1694.5313"/></g></g><g class="participant-lifeline" data-entity-uid="part5" data-qualified-name="AW" data-source-line="31" id="part5-lifeline"><g><title>AdaptiveWindow</title><rect fill="#000000" fill-opacity="0.00000" height="1558.6406" width="8" x="746.7651" y="135.8906"/><line style="stroke:#94A3B8;stroke-width:1;stroke-dasharray:5,5;" x1="750.7241" x2="750.7241" y1="135.8906" y2="1694.5313"/></g></g><g class="participant-lifeline" data-entity-uid="part6" data-qualified-name="HG" data-source-line="32" id="part6-lifeline"><g><title>HypothesisGraph</title><rect fill="#000000" fill-opacity="0.00000" height="1558.6406" width="8" x="914.1392" y="135.8906"/><line style="stroke:#94A3B8;stroke-width:1;stroke-dasharray:5,5;" x1="918.0459" x2="918.0459" y1="135.8906" y2="1694.5313"/></g></g><g class="participant-lifeline" data-entity-uid="part7" data-qualified-name="CL" data-source-line="33" id="part7-lifeline"><g><title>Classifier</title><rect fill="#000000" fill-opacity="0.00000" height="1558.6406" width="8" x="1044.3257" y="135.8906"/><line style="stroke:#94A3B8;stroke-width:1;stroke-dasharray:5,5;" x1="1047.501" x2="1047.501" y1="135.8906" y2="1694.5313"/></g></g><g class="participant participant-head" data-entity-uid="part1" data-qualified-name="UI" data-source-line="27" id="part1-head"><text fill="#1E293B" font-family="Verdana" font-size="10" lengthAdjust="spacing" textLength="54.4287" x="10" y="121.8916">Dashboard</text><text fill="#1E293B" font-family="Verdana" font-size="10" lengthAdjust="spacing" textLength="47.9248" x="13.252" y="133.5322">(Analista)</text><ellipse cx="40.2144" cy="60.6094" fill="#FFFFFF" rx="8" ry="8" style="stroke:#000000;stroke-width:1;"/><path d="M40.2144,68.6094 L40.2144,95.6094 M27.2144,76.6094 L53.2144,76.6094 M40.2144,95.6094 L27.2144,110.6094 M40.2144,95.6094 L53.2144,110.6094" fill="none" style="stroke:#000000;stroke-width:1;"/></g><g class="participant participant-tail" data-entity-uid="part1" data-qualified-name="UI" data-source-line="27" id="part1-tail"><text fill="#1E293B" font-family="Verdana" font-size="10" lengthAdjust="spacing" textLength="54.4287" x="10" y="1702.8135">Dashboard</text><text fill="#1E293B" font-family="Verdana" font-size="10" lengthAdjust="spacing" textLength="47.9248" x="13.252" y="1714.4541">(Analista)</text><ellipse cx="40.2144" cy="1725.8125" fill="#FFFFFF" rx="8" ry="8" style="stroke:#000000;stroke-width:1;"/><path d="M40.2144,1733.8125 L40.2144,1760.8125 M27.2144,1741.8125 L53.2144,1741.8125 M40.2144,1760.8125 L27.2144,1775.8125 M40.2144,1760.8125 L53.2144,1775.8125" fill="none" style="stroke:#000000;stroke-width:1;"/></g><g class="participant participant-head" data-entity-uid="part2" data-qualified-name="SSE" data-source-line="28" id="part2-head"><rect fill="#F8FAFC" height="33.2813" rx="4" ry="4" style="stroke:#94A3B8;stroke-width:1;" width="64.9854" x="186.4531" y="96.6094"/><text fill="#0F172A" font-family="Verdana" font-size="10" lengthAdjust="spacing" textLength="54.9854" x="191.4531" y="110.8916">SSE Server</text><text fill="#0F172A" font-family="Verdana" font-size="10" lengthAdjust="spacing" textLength="28.8184" x="204.5366" y="122.5322">:5001</text></g><g class="participant participant-tail" data-entity-uid="part2" data-qualified-name="SSE" data-source-line="28" id="part2-tail"><rect fill="#F8FAFC" height="33.2813" rx="4" ry="4" style="stroke:#94A3B8;stroke-width:1;" width="64.9854" x="186.4531" y="1698.5313"/><text fill="#0F172A" font-family="Verdana" font-size="10" lengthAdjust="spacing" textLength="54.9854" x="191.4531" y="1712.8135">SSE Server</text><text fill="#0F172A" font-family="Verdana" font-size="10" lengthAdjust="spacing" textLength="28.8184" x="204.5366" y="1724.4541">:5001</text></g><g class="participant participant-head" data-entity-uid="part3" data-qualified-name="MAIN" data-source-line="29" id="part3-head"><rect fill="#F8FAFC" height="33.2813" rx="4" ry="4" style="stroke:#94A3B8;stroke-width:1;" width="50.4297" x="372.1157" y="96.6094"/><text fill="#0F172A" font-family="Verdana" font-size="10" lengthAdjust="spacing" textLength="40.4297" x="377.1157" y="110.8916">main.py</text><text fill="#0F172A" font-family="Verdana" font-size="10" lengthAdjust="spacing" textLength="28.8184" x="382.9214" y="122.5322">:8002</text></g><g class="participant participant-tail" data-entity-uid="part3" data-qualified-name="MAIN" data-source-line="29" id="part3-tail"><rect fill="#F8FAFC" height="33.2813" rx="4" ry="4" style="stroke:#94A3B8;stroke-width:1;" width="50.4297" x="372.1157" y="1698.5313"/><text fill="#0F172A" font-family="Verdana" font-size="10" lengthAdjust="spacing" textLength="40.4297" x="377.1157" y="1712.8135">main.py</text><text fill="#0F172A" font-family="Verdana" font-size="10" lengthAdjust="spacing" textLength="28.8184" x="382.9214" y="1724.4541">:8002</text></g><g class="participant participant-head" data-entity-uid="part4" data-qualified-name="WM" data-source-line="30" id="part4-head"><rect fill="#F8FAFC" height="21.6406" rx="4" ry="4" style="stroke:#94A3B8;stroke-width:1;" width="93.4814" x="526.2793" y="108.25"/><text fill="#0F172A" font-family="Verdana" font-size="10" lengthAdjust="spacing" textLength="83.4814" x="531.2793" y="122.5322">WindowManager</text></g><g class="participant participant-tail" data-entity-uid="part4" data-qualified-name="WM" data-source-line="30" id="part4-tail"><rect fill="#F8FAFC" height="21.6406" rx="4" ry="4" style="stroke:#94A3B8;stroke-width:1;" width="93.4814" x="526.2793" y="1698.5313"/><text fill="#0F172A" font-family="Verdana" font-size="10" lengthAdjust="spacing" textLength="83.4814" x="531.2793" y="1712.8135">WindowManager</text></g><g class="participant participant-head" data-entity-uid="part5" data-qualified-name="AW" data-source-line="31" id="part5-head"><rect fill="#F8FAFC" height="21.6406" rx="4" ry="4" style="stroke:#94A3B8;stroke-width:1;" width="94.082" x="703.7241" y="108.25"/><text fill="#0F172A" font-family="Verdana" font-size="10" lengthAdjust="spacing" textLength="84.082" x="708.7241" y="122.5322">AdaptiveWindow</text></g><g class="participant participant-tail" data-entity-uid="part5" data-qualified-name="AW" data-source-line="31" id="part5-tail"><rect fill="#F8FAFC" height="21.6406" rx="4" ry="4" style="stroke:#94A3B8;stroke-width:1;" width="94.082" x="703.7241" y="1698.5313"/><text fill="#0F172A" font-family="Verdana" font-size="10" lengthAdjust="spacing" textLength="84.082" x="708.7241" y="1712.8135">AdaptiveWindow</text></g><g class="participant participant-head" data-entity-uid="part6" data-qualified-name="HG" data-source-line="32" id="part6-head"><rect fill="#F8FAFC" height="21.6406" rx="4" ry="4" style="stroke:#94A3B8;stroke-width:1;" width="96.1865" x="870.0459" y="108.25"/><text fill="#0F172A" font-family="Verdana" font-size="10" lengthAdjust="spacing" textLength="86.1865" x="875.0459" y="122.5322">HypothesisGraph</text></g><g class="participant participant-tail" data-entity-uid="part6" data-qualified-name="HG" data-source-line="32" id="part6-tail"><rect fill="#F8FAFC" height="21.6406" rx="4" ry="4" style="stroke:#94A3B8;stroke-width:1;" width="96.1865" x="870.0459" y="1698.5313"/><text fill="#0F172A" font-family="Verdana" font-size="10" lengthAdjust="spacing" textLength="86.1865" x="875.0459" y="1712.8135">HypothesisGraph</text></g><g class="participant participant-head" data-entity-uid="part7" data-qualified-name="CL" data-source-line="33" id="part7-head"><rect fill="#F8FAFC" height="21.6406" rx="4" ry="4" style="stroke:#94A3B8;stroke-width:1;" width="55.6494" x="1020.501" y="108.25"/><text fill="#0F172A" font-family="Verdana" font-size="10" lengthAdjust="spacing" textLength="45.6494" x="1025.501" y="122.5322">Classifier</text></g><g class="participant participant-tail" data-entity-uid="part7" data-qualified-name="CL" data-source-line="33" id="part7-tail"><rect fill="#F8FAFC" height="21.6406" rx="4" ry="4" style="stroke:#94A3B8;stroke-width:1;" width="55.6494" x="1020.501" y="1698.5313"/><text fill="#0F172A" font-family="Verdana" font-size="10" lengthAdjust="spacing" textLength="45.6494" x="1025.501" y="1712.8135">Classifier</text></g><g class="message" data-entity-1="part1" data-entity-2="part2" data-source-line="35" id="msg1"><polygon fill="#64748B" points="206.9458,171.1719,216.9458,175.1719,206.9458,179.1719,210.9458,175.1719" style="stroke:#64748B;stroke-width:1;"/><line style="stroke:#64748B;stroke-width:1;" x1="40.2144" x2="212.9458" y1="175.1719" y2="175.1719"/><text fill="#475569" font-family="Verdana" font-size="10" lengthAdjust="spacing" textLength="154.7314" x="47.2144" y="159.1729">POST /api/agent1/process-next</text><text fill="#475569" font-family="Verdana" font-size="10" lengthAdjust="spacing" textLength="82.3779" x="47.2144" y="170.8135">{alert_index: N}</text></g><g class="message" data-entity-1="part2" data-entity-2="part3" data-source-line="36" id="msg2"><polygon fill="#64748B" points="385.3306,208.4531,395.3306,212.4531,385.3306,216.4531,389.3306,212.4531" style="stroke:#64748B;stroke-width:1;"/><line style="stroke:#64748B;stroke-width:1;" x1="218.9458" x2="391.3306" y1="212.4531" y2="212.4531"/><text fill="#475569" font-family="Verdana" font-size="10" lengthAdjust="spacing" textLength="112.4707" x="225.9458" y="196.4541">POST /agent1/callback</text><text fill="#475569" font-family="Verdana" font-size="10" lengthAdjust="spacing" textLength="64.624" x="225.9458" y="208.0947">{alert: {...}}</text></g><g class="message" data-entity-1="part3" data-entity-2="part3" data-source-line="37" id="msg3"><line style="stroke:#64748B;stroke-width:1;" x1="397.3306" x2="439.3306" y1="249.7344" y2="249.7344"/><line style="stroke:#64748B;stroke-width:1;" x1="439.3306" x2="439.3306" y1="249.7344" y2="262.7344"/><line style="stroke:#64748B;stroke-width:1;" x1="398.3306" x2="439.3306" y1="262.7344" y2="262.7344"/><polygon fill="#64748B" points="408.3306,258.7344,398.3306,262.7344,408.3306,266.7344,404.3306,262.7344" style="stroke:#64748B;stroke-width:1;"/><text fill="#475569" font-family="Verdana" font-size="10" lengthAdjust="spacing" textLength="74.7119" x="404.3306" y="233.7354">enqueue(alert)</text><text fill="#475569" font-family="Verdana" font-size="10" lengthAdjust="spacing" textLength="92.0068" x="404.3306" y="245.376">_alert_queue.put()</text></g><rect fill="#FFFFFF" height="3" rx="4" ry="4" style="stroke:#FFFFFF;stroke-width:1;" width="1146.4712" x="5" y="289.5547"/><line style="stroke:#000000;stroke-width:0.5;" x1="5" x2="1151.4712" y1="289.5547" y2="289.5547"/><line style="stroke:#000000;stroke-width:0.5;" x1="5" x2="1151.4712" y1="292.5547" y2="292.5547"/><rect fill="#FFFFFF" height="19.6406" rx="4" ry="4" style="stroke:#000000;stroke-width:1;" width="158.3555" x="499.0579" y="280.7344"/><text fill="#1E293B" font-family="Verdana" font-size="10" font-weight="700" lengthAdjust="spacing" textLength="140.874" x="505.0579" y="294.0166">Processamento do alerta</text><g class="message" data-entity-1="part3" data-entity-2="part4" data-source-line="41" id="msg4"><polygon fill="#64748B" points="561.02,324.0156,571.02,328.0156,561.02,332.0156,565.02,328.0156" style="stroke:#64748B;stroke-width:1;"/><line style="stroke:#64748B;stroke-width:1;" x1="397.3306" x2="567.02" y1="328.0156" y2="328.0156"/><text fill="#475569" font-family="Verdana" font-size="10" lengthAdjust="spacing" textLength="151.6895" x="404.3306" y="323.6572">on_alert(alert, timestamp_ms)</text></g><path d="M160.4531,343.0156 L298.1377,343.0156 L298.1377,346.6563 L288.1377,356.6563 L156.4531,356.6563 L156.4531,347.0156 A4,4 0 0 1 160.4531,343.0156" fill="#F8FAFC" style="stroke:#CBD5E1;stroke-width:1;"/><rect fill="none" height="225.4063" rx="4" ry="4" style="stroke:#CBD5E1;stroke-width:1;" width="882.022" x="156.4531" y="343.0156"/><text fill="#1E293B" font-family="Verdana" font-size="10" font-weight="700" lengthAdjust="spacing" textLength="96.6846" x="171.4531" y="353.2979">Janela existente?</text><g class="message" data-entity-1="part4" data-entity-2="part4" data-source-line="44" id="msg5"><line style="stroke:#64748B;stroke-width:1;" x1="573.02" x2="615.02" y1="385.9375" y2="385.9375"/><line style="stroke:#64748B;stroke-width:1;" x1="615.02" x2="615.02" y1="385.9375" y2="398.9375"/><line style="stroke:#64748B;stroke-width:1;" x1="574.02" x2="615.02" y1="398.9375" y2="398.9375"/><polygon fill="#64748B" points="584.02,394.9375,574.02,398.9375,584.02,402.9375,580.02,398.9375" style="stroke:#64748B;stroke-width:1;"/><text fill="#475569" font-family="Verdana" font-size="10" lengthAdjust="spacing" textLength="105.6836" x="580.02" y="369.9385">procura janela activa</text><text fill="#475569" font-family="Verdana" font-size="10" lengthAdjust="spacing" textLength="108.3545" x="580.02" y="381.5791">no intervalo temporal</text></g><path d="M170.4531,413.9375 L226.4092,413.9375 L226.4092,417.5781 L216.4092,427.5781 L166.4531,427.5781 L166.4531,417.9375 A4,4 0 0 1 170.4531,413.9375" fill="#F8FAFC" style="stroke:#CBD5E1;stroke-width:1;"/><rect fill="none" height="147.4844" rx="4" ry="4" style="stroke:#CBD5E1;stroke-width:1;" width="862.022" x="166.4531" y="413.9375"/><text fill="#1E293B" font-family="Verdana" font-size="10" font-weight="700" lengthAdjust="spacing" textLength="14.9561" x="181.4531" y="424.2197">alt</text><text fill="#475569" font-family="Verdana" font-size="10" font-weight="700" lengthAdjust="spacing" textLength="81.0498" x="241.4092" y="425.2197">[janela existe]</text><g class="message" data-entity-1="part4" data-entity-2="part5" data-source-line="46" id="msg6"><polygon fill="#64748B" points="738.7651,441.2188,748.7651,445.2188,738.7651,449.2188,742.7651,445.2188" style="stroke:#64748B;stroke-width:1;"/><line style="stroke:#64748B;stroke-width:1;" x1="573.02" x2="744.7651" y1="445.2188" y2="445.2188"/><text fill="#475569" font-family="Verdana" font-size="10" lengthAdjust="spacing" textLength="93.2959" x="580.02" y="440.8604">add_alert(alert, ts)</text></g><g class="message" data-entity-1="part5" data-entity-2="part5" data-source-line="47" id="msg7"><line style="stroke:#64748B;stroke-width:1;" x1="750.7651" x2="792.7651" y1="473.1797" y2="473.1797"/><line style="stroke:#64748B;stroke-width:1;" x1="792.7651" x2="792.7651" y1="473.1797" y2="486.1797"/><line style="stroke:#64748B;stroke-width:1;" x1="751.7651" x2="792.7651" y1="486.1797" y2="486.1797"/><polygon fill="#64748B" points="761.7651,482.1797,751.7651,486.1797,761.7651,490.1797,757.7651,486.1797" style="stroke:#64748B;stroke-width:1;"/><text fill="#475569" font-family="Verdana" font-size="10" lengthAdjust="spacing" textLength="136.8311" x="757.7651" y="468.8213">_try_extend(phase, weight)</text></g><path d="M905.8311,462.2188 L905.8311,487.2188 A4,4 0 0 0 909.8311,491.2188 L1007.8311,491.2188 A4,4 0 0 0 1011.8311,487.2188 L1011.8311,468.2188 L1001.8311,458.2188 L909.8311,458.2188 A4,4 0 0 0 905.8311,462.2188" fill="#FEF9C3" style="stroke:#FCD34D;stroke-width:1;"/><path d="M1001.8311,458.2188 L1001.8311,466.2188 A2,2 0 0 0 1003.8311,468.2188 L1011.8311,468.2188 L1001.8311,458.2188" fill="#FEF9C3" style="stroke:#FCD34D;stroke-width:1;"/><text fill="#1E293B" font-family="Verdana" font-size="10" lengthAdjust="spacing" textLength="77.5781" x="911.8311" y="472.501">RECON&#8594;+5min</text><text fill="#1E293B" font-family="Verdana" font-size="10" lengthAdjust="spacing" textLength="85.8789" x="911.8311" y="484.1416">IMPACT&#8594;+30min</text><line style="stroke:#CBD5E1;stroke-width:1;stroke-dasharray:2,2;" x1="166.4531" x2="1028.4751" y1="497.5" y2="497.5"/><text fill="#475569" font-family="Verdana" font-size="10" font-weight="700" lengthAdjust="spacing" textLength="74.1309" x="171.4531" y="506.7822">[nova janela]</text><g class="message" data-entity-1="part4" data-entity-2="part5" data-source-line="50" id="msg9"><polygon fill="#64748B" points="738.7651,523.7813,748.7651,527.7813,738.7651,531.7813,742.7651,527.7813" style="stroke:#64748B;stroke-width:1;"/><line style="stroke:#64748B;stroke-width:1;" x1="573.02" x2="744.7651" y1="527.7813" y2="527.7813"/><text fill="#475569" font-family="Verdana" font-size="10" lengthAdjust="spacing" textLength="153.7451" x="580.02" y="523.4229">AdaptiveWindow(trigger_alert)</text></g><g class="message" data-entity-1="part5" data-entity-2="part2" data-source-line="51" id="msg10"><polygon fill="#64748B" points="229.9458,549.4219,219.9458,553.4219,229.9458,557.4219,225.9458,553.4219" style="stroke:#64748B;stroke-width:1;"/><line style="stroke:#64748B;stroke-width:1;" x1="223.9458" x2="749.7651" y1="553.4219" y2="553.4219"/><text fill="#475569" font-family="Verdana" font-size="10" lengthAdjust="spacing" textLength="107.0215" x="235.9458" y="549.0635">emit window_created</text></g><rect fill="#FFFFFF" height="3" rx="4" ry="4" style="stroke:#FFFFFF;stroke-width:1;" width="1146.4712" x="5" y="594.2422"/><line style="stroke:#000000;stroke-width:0.5;" x1="5" x2="1151.4712" y1="594.2422" y2="594.2422"/><line style="stroke:#000000;stroke-width:0.5;" x1="5" x2="1151.4712" y1="597.2422" y2="597.2422"/><rect fill="#FFFFFF" height="19.6406" rx="4" ry="4" style="stroke:#000000;stroke-width:1;" width="120.5723" x="517.9495" y="585.4219"/><text fill="#1E293B" font-family="Verdana" font-size="10" font-weight="700" lengthAdjust="spacing" textLength="103.0908" x="523.9495" y="598.7041">Classifica&#231;&#227;o CISO</text><g class="message" data-entity-1="part5" data-entity-2="part7" data-source-line="57" id="msg11"><polygon fill="#64748B" points="1036.3257,628.7031,1046.3257,632.7031,1036.3257,636.7031,1040.3257,632.7031" style="stroke:#64748B;stroke-width:1;"/><line style="stroke:#64748B;stroke-width:1;" x1="750.7651" x2="1042.3257" y1="632.7031" y2="632.7031"/><text fill="#475569" font-family="Verdana" font-size="10" lengthAdjust="spacing" textLength="130.7813" x="757.7651" y="628.3447">classify(phases, category)</text></g><g class="message" data-entity-1="part7" data-entity-2="part7" data-source-line="58" id="msg12"><line style="stroke:#64748B;stroke-width:1;" x1="1048.3257" x2="1090.3257" y1="658.3438" y2="658.3438"/><line style="stroke:#64748B;stroke-width:1;" x1="1090.3257" x2="1090.3257" y1="658.3438" y2="671.3438"/><line style="stroke:#64748B;stroke-width:1;" x1="1049.3257" x2="1090.3257" y1="671.3438" y2="671.3438"/><polygon fill="#64748B" points="1059.3257,667.3438,1049.3257,671.3438,1059.3257,675.3438,1055.3257,671.3438" style="stroke:#64748B;stroke-width:1;"/><text fill="#475569" font-family="Verdana" font-size="10" lengthAdjust="spacing" textLength="89.1455" x="1055.3257" y="653.9854">P(H|fase) &#215; priors</text></g><g class="message" data-entity-1="part7" data-entity-2="part5" data-source-line="59" id="msg13"><polygon fill="#64748B" points="761.7651,692.9844,751.7651,696.9844,761.7651,700.9844,757.7651,696.9844" style="stroke:#64748B;stroke-width:1;"/><line style="stroke:#64748B;stroke-width:1;" x1="755.7651" x2="1047.3257" y1="696.9844" y2="696.9844"/><text fill="#475569" font-family="Verdana" font-size="10" lengthAdjust="spacing" textLength="166.4209" x="767.7651" y="692.626">top-3 hip&#243;teses + probabilidades</text></g><g class="message" data-entity-1="part5" data-entity-2="part5" data-source-line="60" id="msg14"><line style="stroke:#64748B;stroke-width:1;" x1="750.7651" x2="792.7651" y1="722.625" y2="722.625"/><line style="stroke:#64748B;stroke-width:1;" x1="792.7651" x2="792.7651" y1="722.625" y2="735.625"/><line style="stroke:#64748B;stroke-width:1;" x1="751.7651" x2="792.7651" y1="735.625" y2="735.625"/><polygon fill="#64748B" points="761.7651,731.625,751.7651,735.625,761.7651,739.625,757.7651,735.625" style="stroke:#64748B;stroke-width:1;"/><text fill="#475569" font-family="Verdana" font-size="10" lengthAdjust="spacing" textLength="114.4727" x="757.7651" y="718.2666">_update_ciso_options()</text></g><path d="M160.4531,750.625 L283.9775,750.625 L283.9775,754.2656 L273.9775,764.2656 L156.4531,764.2656 L156.4531,754.625 A4,4 0 0 1 160.4531,750.625" fill="#F8FAFC" style="stroke:#CBD5E1;stroke-width:1;"/><rect fill="none" height="406.8125" rx="4" ry="4" style="stroke:#CBD5E1;stroke-width:1;" width="839.7793" x="156.4531" y="750.625"/><text fill="#1E293B" font-family="Verdana" font-size="10" font-weight="700" lengthAdjust="spacing" textLength="82.5244" x="171.4531" y="760.9072">Converg&#234;ncia?</text><g class="message" data-entity-1="part5" data-entity-2="part5" data-source-line="63" id="msg15"><line style="stroke:#64748B;stroke-width:1;" x1="750.7651" x2="792.7651" y1="781.9063" y2="781.9063"/><line style="stroke:#64748B;stroke-width:1;" x1="792.7651" x2="792.7651" y1="781.9063" y2="794.9063"/><line style="stroke:#64748B;stroke-width:1;" x1="751.7651" x2="792.7651" y1="794.9063" y2="794.9063"/><polygon fill="#64748B" points="761.7651,790.9063,751.7651,794.9063,761.7651,798.9063,757.7651,794.9063" style="stroke:#64748B;stroke-width:1;"/><text fill="#475569" font-family="Verdana" font-size="10" lengthAdjust="spacing" textLength="111.7041" x="757.7651" y="777.5479">_check_convergence()</text></g><path d="M170.4531,809.9063 L226.4092,809.9063 L226.4092,813.5469 L216.4092,823.5469 L166.4531,823.5469 L166.4531,813.9063 A4,4 0 0 1 170.4531,809.9063" fill="#F8FAFC" style="stroke:#CBD5E1;stroke-width:1;"/><rect fill="none" height="340.5313" rx="4" ry="4" style="stroke:#CBD5E1;stroke-width:1;" width="819.7793" x="166.4531" y="809.9063"/><text fill="#1E293B" font-family="Verdana" font-size="10" font-weight="700" lengthAdjust="spacing" textLength="14.9561" x="181.4531" y="820.1885">alt</text><text fill="#475569" font-family="Verdana" font-size="10" font-weight="700" lengthAdjust="spacing" textLength="131.4551" x="241.4092" y="821.1885">[prob&#8805;97% e alertas&#8805;1</text><text fill="#475569" font-family="Verdana" font-size="10" font-weight="700" lengthAdjust="spacing" textLength="67.8027" x="241.4092" y="832.8291">(high_conf)]</text><g class="message" data-entity-1="part5" data-entity-2="part5" data-source-line="65" id="msg16"><line style="stroke:#64748B;stroke-width:1;" x1="750.7651" x2="792.7651" y1="861.1094" y2="861.1094"/><line style="stroke:#64748B;stroke-width:1;" x1="792.7651" x2="792.7651" y1="861.1094" y2="874.1094"/><line style="stroke:#64748B;stroke-width:1;" x1="751.7651" x2="792.7651" y1="874.1094" y2="874.1094"/><polygon fill="#64748B" points="761.7651,870.1094,751.7651,874.1094,761.7651,878.1094,757.7651,874.1094" style="stroke:#64748B;stroke-width:1;"/><text fill="#475569" font-family="Verdana" font-size="10" lengthAdjust="spacing" textLength="82.5391" x="757.7651" y="845.1104">is_closed = True</text><text fill="#475569" font-family="Verdana" font-size="10" lengthAdjust="spacing" textLength="153.374" x="757.7651" y="856.751">close_reason = "convergence"</text></g><g class="message" data-entity-1="part5" data-entity-2="part2" data-source-line="66" id="msg17"><polygon fill="#64748B" points="229.9458,895.75,219.9458,899.75,229.9458,903.75,225.9458,899.75" style="stroke:#64748B;stroke-width:1;"/><line style="stroke:#64748B;stroke-width:1;" x1="223.9458" x2="749.7651" y1="899.75" y2="899.75"/><text fill="#475569" font-family="Verdana" font-size="10" lengthAdjust="spacing" textLength="100.8154" x="235.9458" y="895.3916">emit window_closed</text></g><g class="message" data-entity-1="part5" data-entity-2="part6" data-source-line="67" id="msg18"><polygon fill="#64748B" points="906.1392,921.3906,916.1392,925.3906,906.1392,929.3906,910.1392,925.3906" style="stroke:#64748B;stroke-width:1;"/><line style="stroke:#64748B;stroke-width:1;" x1="750.7651" x2="912.1392" y1="925.3906" y2="925.3906"/><text fill="#475569" font-family="Verdana" font-size="10" lengthAdjust="spacing" textLength="76.9629" x="757.7651" y="921.0322">add_evidence()</text></g><line style="stroke:#CBD5E1;stroke-width:1;stroke-dasharray:2,2;" x1="166.4531" x2="986.2324" y1="934.3906" y2="934.3906"/><text fill="#475569" font-family="Verdana" font-size="10" font-weight="700" lengthAdjust="spacing" textLength="131.4551" x="171.4531" y="943.6729">[prob&#8805;85% e alertas&#8805;3</text><text fill="#475569" font-family="Verdana" font-size="10" font-weight="700" lengthAdjust="spacing" textLength="53.2275" x="171.4531" y="955.3135">(normal)]</text><g class="message" data-entity-1="part5" data-entity-2="part5" data-source-line="69" id="msg19"><line style="stroke:#64748B;stroke-width:1;" x1="750.7651" x2="792.7651" y1="976.3125" y2="976.3125"/><line style="stroke:#64748B;stroke-width:1;" x1="792.7651" x2="792.7651" y1="976.3125" y2="989.3125"/><line style="stroke:#64748B;stroke-width:1;" x1="751.7651" x2="792.7651" y1="989.3125" y2="989.3125"/><polygon fill="#64748B" points="761.7651,985.3125,751.7651,989.3125,761.7651,993.3125,757.7651,989.3125" style="stroke:#64748B;stroke-width:1;"/><text fill="#475569" font-family="Verdana" font-size="10" lengthAdjust="spacing" textLength="82.5391" x="757.7651" y="971.9541">is_closed = True</text></g><g class="message" data-entity-1="part5" data-entity-2="part2" data-source-line="70" id="msg20"><polygon fill="#64748B" points="229.9458,1010.9531,219.9458,1014.9531,229.9458,1018.9531,225.9458,1014.9531" style="stroke:#64748B;stroke-width:1;"/><line style="stroke:#64748B;stroke-width:1;" x1="223.9458" x2="749.7651" y1="1014.9531" y2="1014.9531"/><text fill="#475569" font-family="Verdana" font-size="10" lengthAdjust="spacing" textLength="100.8154" x="235.9458" y="1010.5947">emit window_closed</text></g><g class="message" data-entity-1="part5" data-entity-2="part6" data-source-line="71" id="msg21"><polygon fill="#64748B" points="906.1392,1036.5938,916.1392,1040.5938,906.1392,1044.5938,910.1392,1040.5938" style="stroke:#64748B;stroke-width:1;"/><line style="stroke:#64748B;stroke-width:1;" x1="750.7651" x2="912.1392" y1="1040.5938" y2="1040.5938"/><text fill="#475569" font-family="Verdana" font-size="10" lengthAdjust="spacing" textLength="76.9629" x="757.7651" y="1036.2354">add_evidence()</text></g><line style="stroke:#CBD5E1;stroke-width:1;stroke-dasharray:2,2;" x1="166.4531" x2="986.2324" y1="1049.5938" y2="1049.5938"/><text fill="#475569" font-family="Verdana" font-size="10" font-weight="700" lengthAdjust="spacing" textLength="63.0029" x="171.4531" y="1058.876">[prob&#8805;75%</text><text fill="#475569" font-family="Verdana" font-size="10" font-weight="700" lengthAdjust="spacing" textLength="124.4482" x="171.4531" y="1070.5166">(valida&#231;&#227;o pendente)]</text><g class="message" data-entity-1="part5" data-entity-2="part2" data-source-line="73" id="msg22"><polygon fill="#64748B" points="229.9458,1099.1563,219.9458,1103.1563,229.9458,1107.1563,225.9458,1103.1563" style="stroke:#64748B;stroke-width:1;"/><line style="stroke:#64748B;stroke-width:1;" x1="223.9458" x2="749.7651" y1="1103.1563" y2="1103.1563"/><text fill="#475569" font-family="Verdana" font-size="10" lengthAdjust="spacing" textLength="110.293" x="235.9458" y="1087.1572">emit window_updated</text><text fill="#475569" font-family="Verdana" font-size="10" lengthAdjust="spacing" textLength="146.748" x="235.9458" y="1098.7979">(bot&#245;es confirma&#231;&#227;o vis&#237;veis)</text></g><line style="stroke:#CBD5E1;stroke-width:1;stroke-dasharray:2,2;" x1="166.4531" x2="986.2324" y1="1112.1563" y2="1112.1563"/><text fill="#475569" font-family="Verdana" font-size="10" font-weight="700" lengthAdjust="spacing" textLength="99.917" x="171.4531" y="1121.4385">[abaixo do limiar]</text><g class="message" data-entity-1="part5" data-entity-2="part2" data-source-line="75" id="msg23"><polygon fill="#64748B" points="229.9458,1138.4375,219.9458,1142.4375,229.9458,1146.4375,225.9458,1142.4375" style="stroke:#64748B;stroke-width:1;"/><line style="stroke:#64748B;stroke-width:1;" x1="223.9458" x2="749.7651" y1="1142.4375" y2="1142.4375"/><text fill="#475569" font-family="Verdana" font-size="10" lengthAdjust="spacing" textLength="110.293" x="235.9458" y="1138.0791">emit window_updated</text></g><rect fill="#FFFFFF" height="3" rx="4" ry="4" style="stroke:#FFFFFF;stroke-width:1;" width="1146.4712" x="5" y="1183.2578"/><line style="stroke:#000000;stroke-width:0.5;" x1="5" x2="1151.4712" y1="1183.2578" y2="1183.2578"/><line style="stroke:#000000;stroke-width:0.5;" x1="5" x2="1151.4712" y1="1186.2578" y2="1186.2578"/><rect fill="#FFFFFF" height="19.6406" rx="4" ry="4" style="stroke:#000000;stroke-width:1;" width="125.5674" x="515.4519" y="1174.4375"/><text fill="#1E293B" font-family="Verdana" font-size="10" font-weight="700" lengthAdjust="spacing" textLength="108.0859" x="521.4519" y="1187.7197">Grafo de Hip&#243;teses</text><g class="message" data-entity-1="part5" data-entity-2="part6" data-source-line="81" id="msg24"><polygon fill="#64748B" points="906.1392,1229.3594,916.1392,1233.3594,906.1392,1237.3594,910.1392,1233.3594" style="stroke:#64748B;stroke-width:1;"/><line style="stroke:#64748B;stroke-width:1;" x1="750.7651" x2="912.1392" y1="1233.3594" y2="1233.3594"/><text fill="#475569" font-family="Verdana" font-size="10" lengthAdjust="spacing" textLength="128.3057" x="757.7651" y="1217.3604">add_evidence(window_id,</text><text fill="#475569" font-family="Verdana" font-size="10" lengthAdjust="spacing" textLength="133.4229" x="757.7651" y="1229.001">hypothesis, score, phases)</text></g><g class="message" data-entity-1="part6" data-entity-2="part6" data-source-line="82" id="msg25"><line style="stroke:#64748B;stroke-width:1;" x1="918.1392" x2="960.1392" y1="1270.6406" y2="1270.6406"/><line style="stroke:#64748B;stroke-width:1;" x1="960.1392" x2="960.1392" y1="1270.6406" y2="1283.6406"/><line style="stroke:#64748B;stroke-width:1;" x1="919.1392" x2="960.1392" y1="1283.6406" y2="1283.6406"/><polygon fill="#64748B" points="929.1392,1279.6406,919.1392,1283.6406,929.1392,1287.6406,925.1392,1283.6406" style="stroke:#64748B;stroke-width:1;"/><text fill="#475569" font-family="Verdana" font-size="10" lengthAdjust="spacing" textLength="75.3662" x="925.1392" y="1254.6416">_apply_decay()</text><text fill="#475569" font-family="Verdana" font-size="10" lengthAdjust="spacing" textLength="103.6963" x="925.1392" y="1266.2822">reduz scores antigos</text></g><g class="message" data-entity-1="part6" data-entity-2="part6" data-source-line="83" id="msg26"><line style="stroke:#64748B;stroke-width:1;" x1="918.1392" x2="960.1392" y1="1309.2813" y2="1309.2813"/><line style="stroke:#64748B;stroke-width:1;" x1="960.1392" x2="960.1392" y1="1309.2813" y2="1322.2813"/><line style="stroke:#64748B;stroke-width:1;" x1="919.1392" x2="960.1392" y1="1322.2813" y2="1322.2813"/><polygon fill="#64748B" points="929.1392,1318.2813,919.1392,1322.2813,929.1392,1326.2813,925.1392,1322.2813" style="stroke:#64748B;stroke-width:1;"/><text fill="#475569" font-family="Verdana" font-size="10" lengthAdjust="spacing" textLength="105.5273" x="925.1392" y="1304.9229">actualiza n&#243; + edges</text></g><g class="message" data-entity-1="part6" data-entity-2="part2" data-source-line="84" id="msg27"><polygon fill="#64748B" points="229.9458,1343.9219,219.9458,1347.9219,229.9458,1351.9219,225.9458,1347.9219" style="stroke:#64748B;stroke-width:1;"/><line style="stroke:#64748B;stroke-width:1;" x1="223.9458" x2="917.1392" y1="1347.9219" y2="1347.9219"/><text fill="#475569" font-family="Verdana" font-size="10" lengthAdjust="spacing" textLength="125.6104" x="235.9458" y="1343.5635">emit graph_state_update</text></g><rect fill="#FFFFFF" height="3" rx="4" ry="4" style="stroke:#FFFFFF;stroke-width:1;" width="1146.4712" x="5" y="1374.7422"/><line style="stroke:#000000;stroke-width:0.5;" x1="5" x2="1151.4712" y1="1374.7422" y2="1374.7422"/><line style="stroke:#000000;stroke-width:0.5;" x1="5" x2="1151.4712" y1="1377.7422" y2="1377.7422"/><rect fill="#FFFFFF" height="19.6406" rx="4" ry="4" style="stroke:#000000;stroke-width:1;" width="143.6924" x="506.3894" y="1365.9219"/><text fill="#1E293B" font-family="Verdana" font-size="10" font-weight="700" lengthAdjust="spacing" textLength="126.2109" x="512.3894" y="1379.2041">Feedback ao Frontend</text><g class="message" data-entity-1="part3" data-entity-2="part2" data-source-line="88" id="msg28"><polygon fill="#64748B" points="229.9458,1420.8438,219.9458,1424.8438,229.9458,1428.8438,225.9458,1424.8438" style="stroke:#64748B;stroke-width:1;"/><line style="stroke:#64748B;stroke-width:1;" x1="223.9458" x2="396.3306" y1="1424.8438" y2="1424.8438"/><text fill="#475569" font-family="Verdana" font-size="10" lengthAdjust="spacing" textLength="109.6289" x="235.9458" y="1408.8447">emit agent1_progress</text><text fill="#475569" font-family="Verdana" font-size="10" lengthAdjust="spacing" textLength="154.3848" x="235.9458" y="1420.4854">{index, total, active_windows}</text></g><g class="message" data-entity-1="part3" data-entity-2="part2" data-source-line="89" id="msg29"><polygon fill="#64748B" points="229.9458,1458.125,219.9458,1462.125,229.9458,1466.125,225.9458,1462.125" style="stroke:#64748B;stroke-width:1;"/><line style="stroke:#64748B;stroke-width:1;" x1="223.9458" x2="396.3306" y1="1462.125" y2="1462.125"/><text fill="#475569" font-family="Verdana" font-size="10" lengthAdjust="spacing" textLength="99.9463" x="235.9458" y="1446.126">emit next_alert_info</text><text fill="#475569" font-family="Verdana" font-size="10" lengthAdjust="spacing" textLength="108.2764" x="235.9458" y="1457.7666">{next_alert, gap_ms}</text></g><g class="message" data-entity-1="part2" data-entity-2="part1" data-source-line="90" id="msg30"><polygon fill="#64748B" points="51.2144,1483.7656,41.2144,1487.7656,51.2144,1491.7656,47.2144,1487.7656" style="stroke:#64748B;stroke-width:1;"/><line style="stroke:#64748B;stroke-width:1;" x1="45.2144" x2="217.9458" y1="1487.7656" y2="1487.7656"/><text fill="#475569" font-family="Verdana" font-size="10" lengthAdjust="spacing" textLength="57.4561" x="57.2144" y="1483.4072">SSE stream</text></g><rect fill="#FFFFFF" height="3" rx="4" ry="4" style="stroke:#FFFFFF;stroke-width:1;" width="1146.4712" x="5" y="1514.5859"/><line style="stroke:#000000;stroke-width:0.5;" x1="5" x2="1151.4712" y1="1514.5859" y2="1514.5859"/><line style="stroke:#000000;stroke-width:0.5;" x1="5" x2="1151.4712" y1="1517.5859" y2="1517.5859"/><rect fill="#FFFFFF" height="19.6406" rx="4" ry="4" style="stroke:#000000;stroke-width:1;" width="223.7949" x="466.3381" y="1505.7656"/><text fill="#1E293B" font-family="Verdana" font-size="10" font-weight="700" lengthAdjust="spacing" textLength="206.3135" x="472.3381" y="1519.0479">Auto-confirma&#231;&#227;o (ap&#243;s cada alerta)</text><g class="message" data-entity-1="part3" data-entity-2="part6" data-source-line="94" id="msg31"><polygon fill="#64748B" points="906.1392,1549.0469,916.1392,1553.0469,906.1392,1557.0469,910.1392,1553.0469" style="stroke:#64748B;stroke-width:1;"/><line style="stroke:#64748B;stroke-width:1;" x1="397.3306" x2="912.1392" y1="1553.0469" y2="1553.0469"/><text fill="#475569" font-family="Verdana" font-size="10" lengthAdjust="spacing" textLength="122.5928" x="404.3306" y="1548.6885">auto_confirm_timeouts()</text></g><path d="M170.4531,1568.0469 L226.4092,1568.0469 L226.4092,1571.6875 L216.4092,1581.6875 L166.4531,1581.6875 L166.4531,1572.0469 A4,4 0 0 1 170.4531,1568.0469" fill="#F8FAFC" style="stroke:#CBD5E1;stroke-width:1;"/><rect fill="none" height="109.4844" rx="4" ry="4" style="stroke:#CBD5E1;stroke-width:1;" width="886.8726" x="166.4531" y="1568.0469"/><text fill="#1E293B" font-family="Verdana" font-size="10" font-weight="700" lengthAdjust="spacing" textLength="14.9561" x="181.4531" y="1578.3291">alt</text><text fill="#475569" font-family="Verdana" font-size="10" font-weight="700" lengthAdjust="spacing" textLength="179.8975" x="241.4092" y="1579.3291">[pending.expires_at_ms expirou</text><text fill="#475569" font-family="Verdana" font-size="10" font-weight="700" lengthAdjust="spacing" textLength="180.249" x="241.4092" y="1590.9697">e n&#227;o confirmado por operador]</text><g class="message" data-entity-1="part6" data-entity-2="part6" data-source-line="96" id="msg32"><line style="stroke:#64748B;stroke-width:1;" x1="918.1392" x2="960.1392" y1="1619.25" y2="1619.25"/><line style="stroke:#64748B;stroke-width:1;" x1="960.1392" x2="960.1392" y1="1619.25" y2="1632.25"/><line style="stroke:#64748B;stroke-width:1;" x1="919.1392" x2="960.1392" y1="1632.25" y2="1632.25"/><polygon fill="#64748B" points="929.1392,1628.25,919.1392,1632.25,929.1392,1636.25,925.1392,1632.25" style="stroke:#64748B;stroke-width:1;"/><text fill="#475569" font-family="Verdana" font-size="10" lengthAdjust="spacing" textLength="116.1865" x="925.1392" y="1603.251">node.confirmed = True</text><text fill="#475569" font-family="Verdana" font-size="10" lengthAdjust="spacing" textLength="101.5234" x="925.1392" y="1614.8916">method = "timeout"</text></g><g class="message" data-entity-1="part6" data-entity-2="part2" data-source-line="97" id="msg33"><polygon fill="#64748B" points="229.9458,1665.5313,219.9458,1669.5313,229.9458,1673.5313,225.9458,1669.5313" style="stroke:#64748B;stroke-width:1;"/><line style="stroke:#64748B;stroke-width:1;" x1="223.9458" x2="917.1392" y1="1669.5313" y2="1669.5313"/><text fill="#475569" font-family="Verdana" font-size="10" lengthAdjust="spacing" textLength="135.708" x="235.9458" y="1653.5322">emit hypothesis_confirmed</text><text fill="#475569" font-family="Verdana" font-size="10" lengthAdjust="spacing" textLength="106.0596" x="235.9458" y="1665.1729">{method: "timeout"}</text></g><?plantuml-src tLRTRkD45BxtKmn1An9jscsQPjj6AiXa-nFKj6NJgbn4iaxiusHOUyRCZDDcbqfS8S4LGY0U024a9AvMF47Uf4_26Tj9dBPRzeAhZHAfC_ETx_nzSwQViDjVV_emliudx4NNFNpfzbosoMw_-uKT75zyTSfUxBEpbwUT_NxVxUsVd9-oQd__oulPZoUThbiZem-d08xpaHbZZ2o9W0j7l-8Y0GKnKp8LWI-LGCLsIlj3y5-DiiEEZAHY7uVPfuG8C8GqCWTIc0BImCtTvl1XI9-_HjROA1tsyPiKXO-kKlAgO7Y-jRsrCtmNgEHgQxlLUhxx0F2OX_GJ-BbK0Qe2lRi5pU7EO-XxsJR2LlWG_naemtsUW33lvw9iSC_BJWYX_xXHAUcDiB6z2G_03uaqMGd77mOjRBmJ-jw1PF37wduYpGFLmt3NRzv5bUCB_Q2v5Tn1t9UIOxY9aBaZ58OryfiRfTUIbCNEbFHHQuZfBDj8O-P6g0mu3lY6M2elG8-74bGm45LNGCIrWLg5WMONNITPrfXL-lrzobbDK0r4kxMnqSXGjBiAY-doh2TJmkniR6ncc9xRFLa5NN8HoAiU21YXoZ2NlLM46q1Y-0HpP0PnBrSXHzD4qetLN1ygICOPvkXm5TE9G6iUyi9BvzXnBhfixLCRDskpizF-ENi62Ny6jdwDPqbUiJM1rsOWte0jbaSXu7MRdTmuregCRK9BwzpIXoYo4s5krMPlrjVNRswS3BmqGa6oIR6QWMe3uUK-iitr93NLckFixTrjdMGP3DZUdhDWlEmHdomOSi8wCpn6wc6SUB4cAYkwX7q10YDWU4tj9KByp67MUivXiquLiAzp64c3Js0WX6ISm6e2aMG6uqGgYCWI8ZE7veoqD-TpBuaFWk1EK1IAnT3f7ECPDVMeoYY2QZ86ZNLsXNmqDZbIaDYPikisUxdVEJsv_VxdfwsOYu7ezixSphbTDpTeW-0OQIIBoJo3k_6iYgbgY9TqbuTO3YmN1SRSiAiCwlaAmM1WVOZ0iJ_RdBcgV9ZzEVjTiawtVvfr9gVf71EBdsEcUNAwpdmY6aarhJbqFaUTLO--3UcyncQ_KHkuLBeupW8tCbbhiZ5FPcyD4WjxQdirX26FU001QgTSqJG9o8VdSoqzIGbBeQiB2NIaeAixclqbV0ws_sLBVup-Ay_F8NQeLMj5dwsxsn_-sDr-mh3GeAPrWyR5cBfZRS9xlUNQyoEfCM1xx5obE13PqgDYQYbeir9oLNcy0HbF2N9qM0WC9pnOX9efe8XrfxKQQvDY5LB54FrdeFztADkj9-ISxWzrAvTAGXgoD_1nsUMTj3DvACti7sgyhJEd77AM2TUploV8zS8X385VPuCYuZ47zJxqTrHDKpJCNecZfTwMehwVR476W_f0Z1UpkCuq_Qz4jpdNVSqXmxcv1qaIJRq0VPXMQVOf3DBNELupcjTy97KPJuCefTgz1YPcRqdx68nm3YXbDRBZtwEXH-BFKyloEK0Cx4Hc8Dc1eeUJ4bsPdoMAV8XxrBOHnQ9fY6T3doQND13Lyv68Nfwoldc8mZuPtlp122LHB7VgR0Hs82zU47g4sfcnDdGfuYnUDpLoRRNFLQ1EKFCXW4BGjPKCyYgHdLVOUNRyozJOYvzTNygPYz4wNYUS4lF0K1GiMybq86XgMZTpfwGUcl5C9gZeRwkXKZE4372zG9PkTencBEsoKhYkBCnAnLdgmrjGK8Lou_RIziQgyLy0?></g></svg>