<svg xmlns="http://www.w3.org/2000/svg" xmlns:xlink="http://www.w3.org/1999/xlink" contentStyleType="text/css" data-diagram-type="STATE" height="899px" preserveAspectRatio="none" style="width:1330px;height:899px;background:#FFFFFF;" version="1.1" viewBox="0 0 1330 899" width="1330px" zoomAndPan="magnify"><?plantuml 1.2026.4beta2?><defs/><g><g class="title" data-source-line="27"><text fill="#1E293B" font-family="Verdana" font-size="22" font-weight="700" lengthAdjust="spacing" textLength="541.2129" x="393.8096" y="35.4209">Agent 1 &#8212; Ciclo de Vida da Janela Temporal</text></g><g class="entity" data-qualified-name="CRIADA" id="ent0002"><rect fill="#F8FAFC" height="96.8281" rx="5" ry="5" style="stroke:#94A3B8;stroke-width:1;" width="220.0034" x="565.84" y="167.6094"/><line style="stroke:#94A3B8;stroke-width:1;" x1="565.84" x2="785.8434" y1="190.4141" y2="190.4141"/><text fill="#475569" font-family="Verdana" font-size="11" lengthAdjust="spacing" textLength="42.0879" x="654.7978" y="182.8198">CRIADA</text><text fill="#475569" font-family="Verdana" font-size="11" lengthAdjust="spacing" textLength="149.3755" x="570.84" y="205.6245">&#8226; window_id gerado (UUID)</text><text fill="#475569" font-family="Verdana" font-size="11" lengthAdjust="spacing" textLength="200.0034" x="570.84" y="218.4292">&#8226; expires_at = now + base_duration</text><text fill="#475569" font-family="Verdana" font-size="11" lengthAdjust="spacing" textLength="101.8467" x="570.84" y="231.2339">&#8226; 1 alerta (trigger)</text><text fill="#475569" font-family="Verdana" font-size="11" lengthAdjust="spacing" textLength="139.1758" x="570.84" y="244.0386">&#8226; ciso_options calculadas</text><text fill="#475569" font-family="Verdana" font-size="11" lengthAdjust="spacing" textLength="154.8486" x="570.84" y="256.8433">emit &#8594; window_created SSE</text></g><g class="entity" data-qualified-name="ACTIVA" id="ent0003"><rect fill="#F8FAFC" height="96.8281" rx="5" ry="5" style="stroke:#94A3B8;stroke-width:1;" width="196.6821" x="577.5" y="354.4294"/><line style="stroke:#94A3B8;stroke-width:1;" x1="577.5" x2="774.1821" y1="377.2341" y2="377.2341"/><text fill="#475569" font-family="Verdana" font-size="11" lengthAdjust="spacing" textLength="40.2188" x="655.7317" y="369.6398">ACTIVA</text><text fill="#475569" font-family="Verdana" font-size="11" lengthAdjust="spacing" textLength="126.9458" x="582.5" y="392.4445">&#8226; novos alertas aceites</text><text fill="#475569" font-family="Verdana" font-size="11" lengthAdjust="spacing" textLength="161.8149" x="582.5" y="405.2492">&#8226; fases kill-chain acumuladas</text><text fill="#475569" font-family="Verdana" font-size="11" lengthAdjust="spacing" textLength="144.9497" x="582.5" y="418.0539">&#8226; classificador actualizado</text><text fill="#475569" font-family="Verdana" font-size="11" lengthAdjust="spacing" textLength="176.6821" x="582.5" y="430.8586">&#8226; scores recalculados por decay</text><text fill="#475569" font-family="Verdana" font-size="11" lengthAdjust="spacing" textLength="158.4473" x="582.5" y="443.6633">emit &#8594; window_updated SSE</text></g><g class="entity" data-qualified-name="VALIDACAO_PENDENTE" id="ent0004"><rect fill="#F8FAFC" height="71.2188" rx="5" ry="5" style="stroke:#94A3B8;stroke-width:1;" width="167.9468" x="591.86" y="541.2594"/><line style="stroke:#94A3B8;stroke-width:1;" x1="591.86" x2="759.8068" y1="564.0641" y2="564.0641"/><text fill="#475569" font-family="Verdana" font-size="11" lengthAdjust="spacing" textLength="128.9116" x="611.3776" y="556.4698">VALIDACAO_PENDENTE</text><text fill="#475569" font-family="Verdana" font-size="11" lengthAdjust="spacing" textLength="135.2334" x="596.86" y="579.2745">&#8226; 3 hip&#243;teses mostradas</text><text fill="#475569" font-family="Verdana" font-size="11" lengthAdjust="spacing" textLength="141.7539" x="596.86" y="592.0792">&#8226; timer countdown vis&#237;vel</text><text fill="#475569" font-family="Verdana" font-size="11" lengthAdjust="spacing" textLength="147.9468" x="596.86" y="604.8839">&#8226; aguarda operador (120s)</text></g><g class="entity" data-qualified-name="FECHADA_OPERADOR" id="ent0005"><rect fill="#F8FAFC" height="71.2188" rx="5" ry="5" style="stroke:#94A3B8;stroke-width:1;" width="191.4614" x="580.11" y="702.4794"/><line style="stroke:#94A3B8;stroke-width:1;" x1="580.11" x2="771.5714" y1="725.2841" y2="725.2841"/><text fill="#475569" font-family="Verdana" font-size="11" lengthAdjust="spacing" textLength="120.4307" x="615.6254" y="717.6898">FECHADA_OPERADOR</text><text fill="#475569" font-family="Verdana" font-size="11" lengthAdjust="spacing" textLength="116.1177" x="585.11" y="740.4945">method = "operator"</text><text fill="#475569" font-family="Verdana" font-size="11" lengthAdjust="spacing" textLength="171.4614" x="585.11" y="753.2992">classifier.record_confirmation()</text><text fill="#475569" font-family="Verdana" font-size="11" lengthAdjust="spacing" textLength="161.9922" x="585.11" y="766.1039">emit &#8594; hypothesis_confirmed</text></g><g class="entity" data-qualified-name="FECHADA_TIMEOUT" id="ent0006"><rect fill="#F8FAFC" height="71.2188" rx="5" ry="5" style="stroke:#94A3B8;stroke-width:1;" width="181.9922" x="1133.84" y="702.4794"/><line style="stroke:#94A3B8;stroke-width:1;" x1="1133.84" x2="1315.8322" y1="725.2841" y2="725.2841"/><text fill="#475569" font-family="Verdana" font-size="11" lengthAdjust="spacing" textLength="108.0825" x="1170.7948" y="717.6898">FECHADA_TIMEOUT</text><text fill="#475569" font-family="Verdana" font-size="11" lengthAdjust="spacing" textLength="111.6758" x="1138.84" y="740.4945">method = "timeout"</text><text fill="#475569" font-family="Verdana" font-size="11" lengthAdjust="spacing" textLength="134.8521" x="1138.84" y="753.2992">auto_confirm_timeouts()</text><text fill="#475569" font-family="Verdana" font-size="11" lengthAdjust="spacing" textLength="161.9922" x="1138.84" y="766.1039">emit &#8594; hypothesis_confirmed</text></g><g class="entity" data-qualified-name="FECHADA_CONVERGENCIA" id="ent0007"><rect fill="#F8FAFC" height="71.2188" rx="5" ry="5" style="stroke:#94A3B8;stroke-width:1;" width="215.6743" x="12" y="702.4794"/><line style="stroke:#94A3B8;stroke-width:1;" x1="12" x2="227.6743" y1="725.2841" y2="725.2841"/><text fill="#475569" font-family="Verdana" font-size="11" lengthAdjust="spacing" textLength="147.0874" x="46.2935" y="717.6898">FECHADA_CONVERGENCIA</text><text fill="#475569" font-family="Verdana" font-size="11" lengthAdjust="spacing" textLength="139.8955" x="17" y="740.4945">method = "convergence"</text><text fill="#475569" font-family="Verdana" font-size="11" lengthAdjust="spacing" textLength="123.6104" x="17" y="753.2992">emit &#8594; window_closed</text><text fill="#475569" font-family="Verdana" font-size="11" lengthAdjust="spacing" textLength="195.6743" x="17" y="766.1039">&#8594; HypothesisGraph.add_evidence()</text></g><g class="start_entity" data-qualified-name=".start." data-source-line="29" id="ent0002"><ellipse cx="675.84" cy="67.6094" fill="#FFFFFF" rx="10" ry="10" style="stroke:#000000;stroke-width:1;"/></g><g class="end_entity" data-qualified-name=".end." data-source-line="83" id="ent0012"><ellipse cx="675.84" cy="874.6994" fill="none" rx="11" ry="11" style="stroke:#000000;stroke-width:1;"/><ellipse cx="675.84" cy="874.6994" fill="#FFFFFF" rx="6" ry="6" style="stroke:#000000;stroke-width:1;"/></g><g class="entity" data-qualified-name="GMN2" data-source-line="88" id="ent0003"><path d="M861.76,712.4794 L861.76,734.6994 L771.94,738.6994 L861.76,742.6994 L861.76,763.6981 A5,5 0 0 0 866.76,768.6981 L1038.9143,768.6981 A5,5 0 0 0 1043.9143,763.6981 L1043.9143,717.4794 L1033.9143,707.4794 L866.76,707.4794 A5,5 0 0 0 861.76,712.4794" fill="#FEF9C3" style="stroke:#FCD34D;stroke-width:1;"/><path d="M1033.9143,707.4794 L1033.9143,714.9794 A2.5,2.5 0 0 0 1036.4143,717.4794 L1043.9143,717.4794 L1033.9143,707.4794" fill="#FEF9C3" style="stroke:#FCD34D;stroke-width:1;"/><text fill="#1E293B" font-family="Verdana" font-size="11" lengthAdjust="spacing" textLength="83.687" x="867.76" y="722.6898">Feedback loop:</text><text fill="#1E293B" font-family="Verdana" font-size="11" lengthAdjust="spacing" textLength="97.813" x="867.76" y="735.4945">classifier aprende</text><text fill="#1E293B" font-family="Verdana" font-size="11" lengthAdjust="spacing" textLength="137.312" x="867.76" y="748.2992">a prefer&#234;ncia do analista</text><text fill="#1E293B" font-family="Verdana" font-size="11" lengthAdjust="spacing" textLength="161.1543" x="867.76" y="761.1039">para esta sequ&#234;ncia de fases</text></g><g class="entity" data-qualified-name="GMN5" data-source-line="95" id="ent0006"><path d="M317.98,718.8794 L317.98,734.6994 L228.02,738.6994 L317.98,742.6994 L317.98,757.2934 A5,5 0 0 0 322.98,762.2934 L484.6875,762.2934 A5,5 0 0 0 489.6875,757.2934 L489.6875,723.8794 L479.6875,713.8794 L322.98,713.8794 A5,5 0 0 0 317.98,718.8794" fill="#FEF9C3" style="stroke:#FCD34D;stroke-width:1;"/><path d="M479.6875,713.8794 L479.6875,721.3794 A2.5,2.5 0 0 0 482.1875,723.8794 L489.6875,723.8794 L479.6875,713.8794" fill="#FEF9C3" style="stroke:#FCD34D;stroke-width:1;"/><text fill="#1E293B" font-family="Verdana" font-size="11" lengthAdjust="spacing" textLength="60.4033" x="323.98" y="729.0898">Condi&#231;&#245;es:</text><text fill="#1E293B" font-family="Verdana" font-size="11" lengthAdjust="spacing" textLength="150.7075" x="323.98" y="741.8945">NORMAL: prob&#8805;85% e n&#8805;3</text><text fill="#1E293B" font-family="Verdana" font-size="11" lengthAdjust="spacing" textLength="144.0742" x="323.98" y="754.6992">R&#193;PIDA: prob&#8805;97% e n&#8805;1</text></g><!--link *start* to CRIADA--><g class="link" data-entity-1="ent0002" data-entity-2="ent0002" data-link-type="dependency" data-source-line="29" id="lnk3"><path d="M675.84,77.8094 C675.84,96.0094 675.84,129.1994 675.84,161.2094" fill="none" id="*start*-to-CRIADA" style="stroke:#64748B;stroke-width:1;"/><polygon fill="#64748B" points="675.84,167.2094,679.84,158.2094,675.84,162.2094,671.84,158.2094,675.84,167.2094" style="stroke:#64748B;stroke-width:1;"/><text fill="#475569" font-family="Verdana" font-size="11" lengthAdjust="spacing" textLength="119.3994" x="517.0409" y="106.7198">trigger_alert recebido</text><text fill="#475569" font-family="Verdana" font-size="11" lengthAdjust="spacing" textLength="197.8013" x="477.84" y="119.5245">(primeiro alerta de nova sequ&#234;ncia)</text></g><!--link CRIADA to ACTIVA--><g class="link" data-entity-1="ent0002" data-entity-2="ent0003" data-link-type="dependency" data-source-line="39" id="lnk4"><path d="M643.06,264.6194 C643.06,292.1894 643.06,320.5894 643.06,348.1694" fill="none" id="CRIADA-to-ACTIVA" style="stroke:#64748B;stroke-width:1;"/><polygon fill="#64748B" points="643.06,354.1694,647.06,345.1694,643.06,349.1694,639.06,345.1694,643.06,354.1694" style="stroke:#64748B;stroke-width:1;"/><text fill="#475569" font-family="Verdana" font-size="11" lengthAdjust="spacing" textLength="96.481" x="546.06" y="293.5998">alertas adicionais</text><text fill="#475569" font-family="Verdana" font-size="11" lengthAdjust="spacing" textLength="87.377" x="550.612" y="306.4045">correlacionados</text></g><!--link ACTIVA to ACTIVA--><g class="link" data-entity-1="ent0003" data-entity-2="ent0003" data-link-type="dependency" data-source-line="49" id="lnk5"><path d="M708.62,354.0894 C708.62,331.5494 708.62,309.6994 708.62,309.6994 C708.62,309.6994 780.01,309.6994 780.01,309.6994 C780.01,309.6994 780.01,496.6994 780.01,496.6994 C780.01,496.6994 765.69,496.6994 765.69,496.6994 C765.69,496.6994 765.69,480.4994 765.69,457.6994" fill="none" id="ACTIVA-to-ACTIVA" style="stroke:#64748B;stroke-width:1;"/><polygon fill="#64748B" points="765.69,451.6994,761.69,460.6994,765.69,456.6994,769.69,460.6994,765.69,451.6994" style="stroke:#64748B;stroke-width:1;"/><text fill="#475569" font-family="Verdana" font-size="11" lengthAdjust="spacing" textLength="117.2832" x="793.543" y="341.1798">alerta correlacionado</text><text fill="#475569" font-family="Verdana" font-size="11" lengthAdjust="spacing" textLength="116.5688" x="793.9001" y="353.9845">+ extens&#227;o temporal</text><text fill="#475569" font-family="Verdana" font-size="11" lengthAdjust="spacing" textLength="132.3491" x="786.01" y="366.7892">(phase_weight minutos)</text></g><!--link ACTIVA to VALIDACAO_PENDENTE--><g class="link" data-entity-1="ent0003" data-entity-2="ent0004" data-link-type="dependency" data-source-line="50" id="lnk6"><path d="M675.84,451.3194 C675.84,479.6794 675.84,508.8894 675.84,534.7994" fill="none" id="ACTIVA-to-VALIDACAO_PENDENTE" style="stroke:#64748B;stroke-width:1;"/><polygon fill="#64748B" points="675.84,540.7994,679.84,531.7994,675.84,535.7994,671.84,531.7994,675.84,540.7994" style="stroke:#64748B;stroke-width:1;"/><text fill="#475569" font-family="Verdana" font-size="11" lengthAdjust="spacing" textLength="65.8765" x="561.6132" y="480.2698">prob &#8805; 75%</text><text fill="#475569" font-family="Verdana" font-size="11" lengthAdjust="spacing" textLength="161.4229" x="513.84" y="493.0745">(bot&#245;es confirma&#231;&#227;o vis&#237;veis)</text></g><!--link VALIDACAO_PENDENTE to FECHADA_OPERADOR--><g class="link" data-entity-1="ent0004" data-entity-2="ent0005" data-link-type="dependency" data-source-line="58" id="lnk7"><path d="M675.84,612.6494 C675.84,639.2794 675.84,669.4694 675.84,696.1294" fill="none" id="VALIDACAO_PENDENTE-to-FECHADA_OPERADOR" style="stroke:#64748B;stroke-width:1;"/><polygon fill="#64748B" points="675.84,702.1294,679.84,693.1294,675.84,697.1294,671.84,693.1294,675.84,702.1294" style="stroke:#64748B;stroke-width:1;"/><text fill="#475569" font-family="Verdana" font-size="11" lengthAdjust="spacing" textLength="111.3911" x="563.84" y="641.5998">operador selecciona</text><text fill="#475569" font-family="Verdana" font-size="11" lengthAdjust="spacing" textLength="47.3193" x="595.8759" y="654.4045">hip&#243;tese</text></g><!--link VALIDACAO_PENDENTE to FECHADA_TIMEOUT--><g class="link" data-entity-1="ent0004" data-entity-2="ent0006" data-link-type="dependency" data-source-line="59" id="lnk8"><path d="M760.04,577.6994 C906.92,577.6994 1194.51,577.6994 1194.51,577.6994 C1194.51,577.6994 1194.51,648.8094 1194.51,696.0994" fill="none" id="VALIDACAO_PENDENTE-to-FECHADA_TIMEOUT" style="stroke:#64748B;stroke-width:1;"/><polygon fill="#64748B" points="1194.51,702.0994,1198.51,693.0994,1194.51,697.0994,1190.51,693.0994,1194.51,702.0994" style="stroke:#64748B;stroke-width:1;"/><text fill="#475569" font-family="Verdana" font-size="11" lengthAdjust="spacing" textLength="67.4502" x="971.47" y="574.9098">timer expira</text></g><!--link VALIDACAO_PENDENTE to FECHADA_CONVERGENCIA--><g class="link" data-entity-1="ent0004" data-entity-2="ent0007" data-link-type="dependency" data-source-line="60" id="lnk9"><path d="M591.41,577.6994 C444.14,577.6994 155.78,577.6994 155.78,577.6994 C155.78,577.6994 155.78,648.8094 155.78,696.0994" fill="none" id="VALIDACAO_PENDENTE-to-FECHADA_CONVERGENCIA" style="stroke:#64748B;stroke-width:1;"/><polygon fill="#64748B" points="155.78,702.0994,159.78,693.0994,155.78,697.0994,151.78,693.0994,155.78,702.0994" style="stroke:#64748B;stroke-width:1;"/><text fill="#475569" font-family="Verdana" font-size="11" lengthAdjust="spacing" textLength="140.7173" x="161.9991" y="561.9098">prob &#8805; 85% e alertas &#8805; 3</text><text fill="#475569" font-family="Verdana" font-size="11" lengthAdjust="spacing" textLength="157.9155" x="153.4" y="574.7145">ou prob &#8805; 97% e alertas &#8805; 1</text></g><!--link ACTIVA to FECHADA_CONVERGENCIA--><g class="link" data-entity-1="ent0003" data-entity-2="ent0007" data-link-type="dependency" data-source-line="62" id="lnk10"><path d="M577.09,403.6994 C408.67,403.6994 83.89,403.6994 83.89,403.6994 C83.89,403.6994 83.89,609.5194 83.89,695.9894" fill="none" id="ACTIVA-to-FECHADA_CONVERGENCIA" style="stroke:#64748B;stroke-width:1;"/><polygon fill="#64748B" points="83.89,701.9894,87.89,692.9894,83.89,696.9894,79.89,692.9894,83.89,701.9894" style="stroke:#64748B;stroke-width:1;"/><text fill="#475569" font-family="Verdana" font-size="11" lengthAdjust="spacing" textLength="140.7173" x="31.9491" y="387.9098">prob &#8805; 85% e alertas &#8805; 3</text><text fill="#475569" font-family="Verdana" font-size="11" lengthAdjust="spacing" textLength="157.9155" x="23.35" y="400.7145">ou prob &#8805; 97% e alertas &#8805; 1</text></g><!--link ACTIVA to FECHADA_TIMEOUT--><g class="link" data-entity-1="ent0003" data-entity-2="ent0006" data-link-type="dependency" data-source-line="63" id="lnk11"><path d="M774.44,403.6994 C939.82,403.6994 1255.17,403.6994 1255.17,403.6994 C1255.17,403.6994 1255.17,609.5194 1255.17,695.9894" fill="none" id="ACTIVA-to-FECHADA_TIMEOUT" style="stroke:#64748B;stroke-width:1;"/><polygon fill="#64748B" points="1255.17,701.9894,1259.17,692.9894,1255.17,696.9894,1251.17,692.9894,1255.17,701.9894" style="stroke:#64748B;stroke-width:1;"/><text fill="#475569" font-family="Verdana" font-size="11" lengthAdjust="spacing" textLength="123.8735" x="1039.95" y="400.9098">expires_at_ms expirou</text></g><!--link FECHADA_OPERADOR to *end*--><g class="link" data-entity-1="ent0005" data-entity-2="ent0012" data-link-type="dependency" data-source-line="83" id="lnk13"><path d="M675.84,773.9794 C675.84,803.7094 675.84,838.0894 675.84,857.4494" fill="none" id="FECHADA_OPERADOR-to-*end*" style="stroke:#64748B;stroke-width:1;"/><polygon fill="#64748B" points="675.84,863.4494,679.84,854.4494,675.84,858.4494,671.84,854.4494,675.84,863.4494" style="stroke:#64748B;stroke-width:1;"/><text fill="#475569" font-family="Verdana" font-size="11" lengthAdjust="spacing" textLength="134.2129" x="540.84" y="815.9298">&#8594; Agent 2 gera relat&#243;rio</text></g><!--link FECHADA_TIMEOUT to *end*--><g class="link" data-entity-1="ent0006" data-entity-2="ent0012" data-link-type="dependency" data-source-line="84" id="lnk14"><path d="M1224.84,773.9794 C1224.84,814.4594 1224.84,874.6994 1224.84,874.6994 C1224.84,874.6994 772.14,874.6994 693.3,874.6994" fill="none" id="FECHADA_TIMEOUT-to-*end*" style="stroke:#64748B;stroke-width:1;"/><polygon fill="#64748B" points="687.3,874.6994,696.3,878.6994,692.3,874.6994,696.3,870.6994,687.3,874.6994" style="stroke:#64748B;stroke-width:1;"/><text fill="#475569" font-family="Verdana" font-size="11" lengthAdjust="spacing" textLength="134.2129" x="871.43" y="871.9098">&#8594; Agent 2 gera relat&#243;rio</text></g><!--link FECHADA_CONVERGENCIA to *end*--><g class="link" data-entity-1="ent0007" data-entity-2="ent0012" data-link-type="dependency" data-source-line="85" id="lnk15"><path d="M119.84,773.9794 C119.84,814.4594 119.84,874.6994 119.84,874.6994 C119.84,874.6994 580.37,874.6994 658.73,874.6994" fill="none" id="FECHADA_CONVERGENCIA-to-*end*" style="stroke:#64748B;stroke-width:1;"/><polygon fill="#64748B" points="664.73,874.6994,655.73,870.6994,659.73,874.6994,655.73,878.6994,664.73,874.6994" style="stroke:#64748B;stroke-width:1;"/><text fill="#475569" font-family="Verdana" font-size="11" lengthAdjust="spacing" textLength="134.2129" x="206.93" y="871.9098">&#8594; Agent 2 gera relat&#243;rio</text></g><?plantuml-src tLRDRjj64BxpAQOk0iiD74IM7Li1Me2L64U1BHcox4jT22lkK5gOt6LtbtQTea1wAT1RKRGlqA8eKA2de4-WD_6JT9QY98gIc-RGImGUnDrlPhxvvpRS__BZX_5usz3k-CTz_zI71jo_-HbQdTP93ze1N7RQFj3poky69pxKWlE1t-xjaCI7uxtdVMGdc22aCHFIyxQjIi4g62bhLG9SQ0ojKD8prqAcJBC4OY7HtgK8Ijk9Abr8nT5W2isdfKFDv7LnM3vLcUIXqX8rrClm4Gkln_bjIyLAmyTH_YiXE4OiY-qB9Mq1gUDUip7Q33aNhn7gzTAbhxMwBIIVxH_k7usgboNL-uS71y-Q9S2vPHO_LvgZBY3DVTOO7Qr1rlmuYbWKLc4bKq-Z-k4Ugm9yQxKOPIl8DL9TjSaWHismKKMLcKSXR-pp2c8zhfuLDaRmnoWjr6Sj8i9OKPZXKd06zBnY4cC60qnIfLdiULzyyYNixdu6hNx7fnPw3kJ6U8nwo6BK5gYgS2IukfArL8i4XLQGtp2dLQeR1WQ_ogP_ob2m7QeS5ukvicyyMEgzV_Cht0h9rUrGS20BZ2keNLnqsZjL67wTKZcR8RFmATcuXSTKRWQ7FDCih_4AlZwdL2l8hsaCXL53bJfX0o6Bmoncd9ao31DXuVxxd-OaGuta2eVpyy3xrlCAd0kLtnfqBft8pAe1naL8cfamLv9wHLE4ytUkp3mYXOoBo4BS4QC8AhDK5AAmQAgWY9mtS2tYU3USKFSJBaiM7gn0mvWP8o8Had5DE9knMBocbohG455IIlajea4qg2Gego6xAuEhSSbINevBWTiG5rWDnPLyJ8crACtqDmMsA41NLnENsriKuuc5HCZCAhDJrdlfdz20R_czuLdGRGVTGK0sKgr6SF_3xt1uy8YKq1YS_at-X4f6GYTi-eUpSYFCzAyR56PHcHjqkPniDE72r829IATlAIcaF576wYBg3qfOwX9DF39fALnopY7-DnaspfYcxbHftXOQQlMzfqIQuhj1niNaHT1wIVKux9q5VTfrVLAq43OOOvX7_KeksBzBqQ1p6lGk1cu0v0xaFSZU9TNgTI-3_d7GRNNySbAE3Xu1BihQdJIkfCgMWEPX5L1VgQN_nS06_KktbqDdc9ZPcyhcPRCMRbSq6tAG86rQJbDhAy-6LNfhCt3UfwYVK0lIi1_EAzVDgDhEPgb5BqxkKaMV0qQOkHnoLoshREVEbSak7LvoTHbNcTtQ26FKZtCZmm9fLWYMOlX-_5QIMoPPoVgIAIcxGKqBBiIjX_5hepnMXkm_Y7VGbml6nvgbaoUCyo7U2EvCrV9ENCk7goEtFcSAPcjtBzziuEQUdRxLGddLABsVr0hJ_oRgIVew09sFKnMjbP4B0o9ttsyGAvK-fuDbDG9BDKgETCYecJ12FTljGDkQILecb4AwTDyXWFI_jFxT5q6-gZpI08x5GrpANhaTh2GNDB5fW3istLx_r3-PDJirxgpL9Vrhq6L_-jqPJQJ5xQpFtMrzOVOV?></g></svg>