<svg xmlns="http://www.w3.org/2000/svg" xmlns:xlink="http://www.w3.org/1999/xlink" contentStyleType="text/css" data-diagram-type="STATE" height="753px" preserveAspectRatio="none" style="width:1235px;height:753px;background:#FFFFFF;" version="1.1" viewBox="0 0 1235 753" width="1235px" zoomAndPan="magnify"><?plantuml 1.2026.4beta2?><defs/><g><g class="title" data-source-line="26"><text fill="#1E293B" font-family="Verdana" font-size="22" font-weight="700" lengthAdjust="spacing" textLength="609.5869" x="312.1355" y="35.4209">Agent 1 &#8212; M&#225;quina de Estados: AdaptiveWindow</text></g><g class="entity" data-qualified-name="Criada" id="ent0002"><rect fill="#F8FAFC" height="66.5625" rx="5" ry="5" style="stroke:#94A3B8;stroke-width:1;" width="166.2012" x="547.9" y="147.6094"/><line style="stroke:#94A3B8;stroke-width:1;" x1="547.9" x2="714.1012" y1="169.25" y2="169.25"/><text fill="#475569" font-family="Verdana" font-size="10" lengthAdjust="spacing" textLength="32.4756" x="614.7628" y="161.8916">Criada</text><text fill="#475569" font-family="Verdana" font-size="10" lengthAdjust="spacing" textLength="129.6533" x="552.9" y="183.5322">entry / _add_alert(trigger)</text><text fill="#475569" font-family="Verdana" font-size="10" lengthAdjust="spacing" textLength="78.7061" x="552.9" y="195.1729">_emit_created()</text><text fill="#475569" font-family="Verdana" font-size="10" lengthAdjust="spacing" textLength="146.2012" x="552.9" y="206.8135">do    / _update_ciso_options()</text></g><g class="entity" data-qualified-name="Activa" id="ent0003"><rect fill="#F8FAFC" height="78.2031" rx="5" ry="5" style="stroke:#94A3B8;stroke-width:1;" width="166.2012" x="547.9" y="284.1694"/><line style="stroke:#94A3B8;stroke-width:1;" x1="547.9" x2="714.1012" y1="305.81" y2="305.81"/><text fill="#475569" font-family="Verdana" font-size="10" lengthAdjust="spacing" textLength="31.084" x="615.4586" y="298.4516">Activa</text><text fill="#475569" font-family="Verdana" font-size="10" lengthAdjust="spacing" textLength="118.9746" x="552.9" y="320.0922">entry / _add_alert(alert)</text><text fill="#475569" font-family="Verdana" font-size="10" lengthAdjust="spacing" textLength="146.2012" x="552.9" y="331.7329">do    / _update_ciso_options()</text><text fill="#475569" font-family="Verdana" font-size="10" lengthAdjust="spacing" textLength="136.8311" x="552.9" y="343.3735">_try_extend(phase, weight)</text><text fill="#475569" font-family="Verdana" font-size="10" lengthAdjust="spacing" textLength="146.1475" x="552.9" y="355.0141">exit  / _update_ciso_options()</text></g><g class="entity" data-qualified-name="ValidacaoPendente" id="ent0004"><rect fill="#F8FAFC" height="66.5625" rx="5" ry="5" style="stroke:#94A3B8;stroke-width:1;" width="166.46" x="547.77" y="432.3694"/><line style="stroke:#94A3B8;stroke-width:1;" x1="547.77" x2="714.23" y1="454.01" y2="454.01"/><text fill="#475569" font-family="Verdana" font-size="10" lengthAdjust="spacing" textLength="96.1768" x="582.9116" y="446.6516">ValidacaoPendente</text><text fill="#475569" font-family="Verdana" font-size="10" lengthAdjust="spacing" textLength="146.46" x="552.77" y="468.2922">entry / emit window_updated</text><text fill="#475569" font-family="Verdana" font-size="10" lengthAdjust="spacing" textLength="87.7686" x="552.77" y="479.9329">iniciar timer 120s</text><text fill="#475569" font-family="Verdana" font-size="10" lengthAdjust="spacing" textLength="142.5244" x="552.77" y="491.5735">do    / aguardar confirma&#231;&#227;o</text></g><g class="entity" data-qualified-name="FechadaOperador" id="ent0005"><rect fill="#F8FAFC" height="78.2031" rx="5" ry="5" style="stroke:#94A3B8;stroke-width:1;" width="175.874" x="543.06" y="568.9394"/><line style="stroke:#94A3B8;stroke-width:1;" x1="543.06" x2="718.934" y1="590.58" y2="590.58"/><text fill="#475569" font-family="Verdana" font-size="10" lengthAdjust="spacing" textLength="89.5313" x="586.2314" y="583.2216">FechadaOperador</text><text fill="#475569" font-family="Verdana" font-size="10" lengthAdjust="spacing" textLength="118.7061" x="548.06" y="604.8622">entry / is_closed = True</text><text fill="#475569" font-family="Verdana" font-size="10" lengthAdjust="spacing" textLength="131.7578" x="548.06" y="616.5029">close_reason = "operator"</text><text fill="#475569" font-family="Verdana" font-size="10" lengthAdjust="spacing" textLength="155.874" x="548.06" y="628.1435">classifier.record_confirmation()</text><text fill="#475569" font-family="Verdana" font-size="10" lengthAdjust="spacing" textLength="135.708" x="548.06" y="639.7841">emit hypothesis_confirmed</text></g><g class="entity" data-qualified-name="FechadaTimeout" id="ent0006"><rect fill="#F8FAFC" height="78.2031" rx="5" ry="5" style="stroke:#94A3B8;stroke-width:1;" width="155.708" x="1065.15" y="568.9394"/><line style="stroke:#94A3B8;stroke-width:1;" x1="1065.15" x2="1220.858" y1="590.58" y2="590.58"/><text fill="#475569" font-family="Verdana" font-size="10" lengthAdjust="spacing" textLength="83.501" x="1101.2535" y="583.2216">FechadaTimeout</text><text fill="#475569" font-family="Verdana" font-size="10" lengthAdjust="spacing" textLength="118.7061" x="1070.15" y="604.8622">entry / is_closed = True</text><text fill="#475569" font-family="Verdana" font-size="10" lengthAdjust="spacing" textLength="127.7197" x="1070.15" y="616.5029">close_reason = "timeout"</text><text fill="#475569" font-family="Verdana" font-size="10" lengthAdjust="spacing" textLength="135.708" x="1070.15" y="628.1435">emit hypothesis_confirmed</text><text fill="#475569" font-family="Verdana" font-size="10" lengthAdjust="spacing" textLength="106.0596" x="1070.15" y="639.7841">{method: "timeout"}</text></g><g class="entity" data-qualified-name="FechadaConvergencia" id="ent0007"><rect fill="#F8FAFC" height="78.2031" rx="5" ry="5" style="stroke:#94A3B8;stroke-width:1;" width="173.374" x="269.31" y="568.9394"/><line style="stroke:#94A3B8;stroke-width:1;" x1="269.31" x2="442.684" y1="590.58" y2="590.58"/><text fill="#475569" font-family="Verdana" font-size="10" lengthAdjust="spacing" textLength="111.2061" x="300.394" y="583.2216">FechadaConvergencia</text><text fill="#475569" font-family="Verdana" font-size="10" lengthAdjust="spacing" textLength="118.7061" x="274.31" y="604.8622">entry / is_closed = True</text><text fill="#475569" font-family="Verdana" font-size="10" lengthAdjust="spacing" textLength="153.374" x="274.31" y="616.5029">close_reason = "convergence"</text><text fill="#475569" font-family="Verdana" font-size="10" lengthAdjust="spacing" textLength="100.8154" x="274.31" y="628.1435">emit window_closed</text><text fill="#475569" font-family="Verdana" font-size="10" lengthAdjust="spacing" textLength="95.4102" x="274.31" y="639.7841">HG.add_evidence()</text></g><g class="start_entity" data-qualified-name=".start." data-source-line="28" id="ent0002"><ellipse cx="631" cy="67.6094" fill="#FFFFFF" rx="10" ry="10" style="stroke:#000000;stroke-width:1;"/></g><g class="end_entity" data-qualified-name=".end." data-source-line="76" id="ent0013"><ellipse cx="631" cy="728.1394" fill="none" rx="11" ry="11" style="stroke:#000000;stroke-width:1;"/><ellipse cx="631" cy="728.1394" fill="#FFFFFF" rx="6" ry="6" style="stroke:#000000;stroke-width:1;"/></g><g class="entity" data-qualified-name="GMN2" data-source-line="81" id="ent0003"><path d="M818.47,584.7594 L818.47,604.1394 L719.36,608.1394 L818.47,612.1394 L818.47,631.3219 A5,5 0 0 0 823.47,636.3219 L960.5393,636.3219 A5,5 0 0 0 965.5393,631.3219 L965.5393,589.7594 L955.5393,579.7594 L823.47,579.7594 A5,5 0 0 0 818.47,584.7594" fill="#FEF9C3" style="stroke:#FCD34D;stroke-width:1;"/><path d="M955.5393,579.7594 L955.5393,587.2594 A2.5,2.5 0 0 0 958.0393,589.7594 L965.5393,589.7594 L955.5393,579.7594" fill="#FEF9C3" style="stroke:#FCD34D;stroke-width:1;"/><text fill="#1E293B" font-family="Verdana" font-size="10" lengthAdjust="spacing" textLength="76.0791" x="824.47" y="594.0416">Feedback loop:</text><text fill="#1E293B" font-family="Verdana" font-size="10" lengthAdjust="spacing" textLength="106.4746" x="824.47" y="605.6822">ProbabilisticClassifier</text><text fill="#1E293B" font-family="Verdana" font-size="10" lengthAdjust="spacing" textLength="126.0693" x="824.47" y="617.3229">actualiza contagens para</text><text fill="#1E293B" font-family="Verdana" font-size="10" lengthAdjust="spacing" textLength="120.6104" x="824.47" y="628.9635">esta sequ&#234;ncia de fases</text></g><g class="entity" data-qualified-name="GMN5" data-source-line="88" id="ent0006"><path d="M11,578.9394 L11,637.1425 A5,5 0 0 0 16,642.1425 L164.002,642.1425 A5,5 0 0 0 169.002,637.1425 L169.002,612.1394 L269.07,608.1394 L169.002,604.1394 L169.002,583.9394 L159.002,573.9394 L16,573.9394 A5,5 0 0 0 11,578.9394" fill="#FEF9C3" style="stroke:#FCD34D;stroke-width:1;"/><path d="M159.002,573.9394 L159.002,581.4394 A2.5,2.5 0 0 0 161.502,583.9394 L169.002,583.9394 L159.002,573.9394" fill="#FEF9C3" style="stroke:#FCD34D;stroke-width:1;"/><text fill="#1E293B" font-family="Verdana" font-size="10" lengthAdjust="spacing" textLength="93.833" x="17" y="588.2216">Dois limiares (OR):</text><text fill="#1E293B" font-family="Verdana" font-size="10" lengthAdjust="spacing" textLength="137.002" x="17" y="599.8622">&#8226; prob &#8805; 97% e alertas &#8805; 1</text><text fill="#1E293B" font-family="Verdana" font-size="10" lengthAdjust="spacing" textLength="110.2002" x="23.3574" y="611.5029">(converg&#234;ncia r&#225;pida)</text><text fill="#1E293B" font-family="Verdana" font-size="10" lengthAdjust="spacing" textLength="137.002" x="17" y="623.1435">&#8226; prob &#8805; 85% e alertas &#8805; 3</text><text fill="#1E293B" font-family="Verdana" font-size="10" lengthAdjust="spacing" textLength="113.5742" x="23.3574" y="634.7841">(converg&#234;ncia normal)</text></g><!--link *start* to Criada--><g class="link" data-entity-1="ent0002" data-entity-2="ent0002" data-link-type="dependency" data-source-line="28" id="lnk3"><path d="M631,78.0594 C631,93.6194 631,117.5494 631,141.1294" fill="none" id="*start*-to-Criada" style="stroke:#64748B;stroke-width:1;"/><polygon fill="#64748B" points="631,147.1294,635,138.1294,631,142.1294,627,138.1294,631,147.1294" style="stroke:#64748B;stroke-width:1;"/><text fill="#1E293B" font-family="Verdana" font-size="10" lengthAdjust="spacing" textLength="108.5449" x="520.9229" y="97.8816">trigger_alert recebido</text><text fill="#1E293B" font-family="Verdana" font-size="10" lengthAdjust="spacing" textLength="110.3906" x="520" y="109.5222">/emit window_created</text></g><!--link Criada to Activa--><g class="link" data-entity-1="ent0002" data-entity-2="ent0003" data-link-type="dependency" data-source-line="35" id="lnk4"><path d="M603.3,214.6294 C603.3,235.3594 603.3,255.9994 603.3,277.7094" fill="none" id="Criada-to-Activa" style="stroke:#64748B;stroke-width:1;"/><polygon fill="#64748B" points="603.3,283.7094,607.3,274.7094,603.3,278.7094,599.3,274.7094,603.3,283.7094" style="stroke:#64748B;stroke-width:1;"/><text fill="#1E293B" font-family="Verdana" font-size="10" lengthAdjust="spacing" textLength="88.5254" x="501.8684" y="234.4516">add_alert() aceite</text><text fill="#1E293B" font-family="Verdana" font-size="10" lengthAdjust="spacing" textLength="113.6621" x="489.3" y="246.0922">/emit window_updated</text></g><!--link Activa to Activa--><g class="link" data-entity-1="ent0003" data-entity-2="ent0003" data-link-type="dependency" data-source-line="43" id="lnk5"><path d="M658.7,283.7094 C658.7,266.4794 658.7,250.1394 658.7,250.1394 C658.7,250.1394 785.29,250.1394 785.29,250.1394 C785.29,250.1394 785.29,386.1394 785.29,386.1394 C785.29,386.1394 672.55,386.1394 672.55,386.1394 C672.55,386.1394 672.55,381.3594 672.55,368.7294" fill="none" id="Activa-to-Activa" style="stroke:#64748B;stroke-width:1;"/><polygon fill="#64748B" points="672.55,362.7294,668.55,371.7294,672.55,367.7294,676.55,371.7294,672.55,362.7294" style="stroke:#64748B;stroke-width:1;"/><text fill="#1E293B" font-family="Verdana" font-size="10" lengthAdjust="spacing" textLength="110.5225" x="791.29" y="275.4116">[alerta correlacionado</text><text fill="#1E293B" font-family="Verdana" font-size="10" lengthAdjust="spacing" textLength="98.833" x="797.1347" y="287.0522">AND NOT is_closed]</text><text fill="#1E293B" font-family="Verdana" font-size="10" lengthAdjust="spacing" textLength="69.9512" x="811.5756" y="298.6929">/_try_extend()</text></g><!--link Activa to ValidacaoPendente--><g class="link" data-entity-1="ent0003" data-entity-2="ent0004" data-link-type="dependency" data-source-line="45" id="lnk6"><path d="M589.45,362.5594 C589.45,384.4494 589.45,405.4194 589.45,426.2894" fill="none" id="Activa-to-ValidacaoPendente" style="stroke:#64748B;stroke-width:1;"/><polygon fill="#64748B" points="589.45,432.2894,593.45,423.2894,589.45,427.2894,585.45,423.2894,589.45,432.2894" style="stroke:#64748B;stroke-width:1;"/><text fill="#1E293B" font-family="Verdana" font-size="10" lengthAdjust="spacing" textLength="67.7295" x="479.408" y="382.7016">[prob &#8805; 0.75]</text><text fill="#1E293B" font-family="Verdana" font-size="10" lengthAdjust="spacing" textLength="151.6455" x="437.45" y="394.3422">/request_operator_validation()</text></g><!--link ValidacaoPendente to ValidacaoPendente--><g class="link" data-entity-1="ent0004" data-entity-2="ent0004" data-link-type="dependency" data-source-line="52" id="lnk7"><path d="M631,432.1294 C631,419.9594 631,409.1394 631,409.1394 C631,409.1394 752.11,409.1394 752.11,409.1394 C752.11,409.1394 752.11,534.1394 752.11,534.1394 C752.11,534.1394 658.74,534.1394 658.74,534.1394 C658.74,534.1394 658.74,522.4794 658.74,505.0994" fill="none" id="ValidacaoPendente-to-ValidacaoPendente" style="stroke:#64748B;stroke-width:1;"/><polygon fill="#64748B" points="658.74,499.0994,654.74,508.0994,658.74,504.0994,662.74,508.0994,658.74,499.0994" style="stroke:#64748B;stroke-width:1;"/><text fill="#1E293B" font-family="Verdana" font-size="10" lengthAdjust="spacing" textLength="83.7061" x="775.1779" y="409.0816">[alerta recebido]</text><text fill="#1E293B" font-family="Verdana" font-size="10" lengthAdjust="spacing" textLength="117.8418" x="758.11" y="420.7222">/_update_ciso_options()</text><text fill="#1E293B" font-family="Verdana" font-size="10" lengthAdjust="spacing" textLength="3.1787" x="815.4415" y="432.3629">&#160;</text><text fill="#1E293B" font-family="Verdana" font-size="10" lengthAdjust="spacing" textLength="3.1787" x="815.4415" y="444.0035">&#160;</text><text fill="#1E293B" font-family="Verdana" font-size="10" lengthAdjust="spacing" textLength="3.1787" x="815.4415" y="455.6441">&#160;</text></g><!--link ValidacaoPendente to FechadaOperador--><g class="link" data-entity-1="ent0004" data-entity-2="ent0005" data-link-type="dependency" data-source-line="54" id="lnk8"><path d="M603.26,499.3994 C603.26,520.1194 603.26,540.7594 603.26,562.4794" fill="none" id="ValidacaoPendente-to-FechadaOperador" style="stroke:#64748B;stroke-width:1;"/><polygon fill="#64748B" points="603.26,568.4794,607.26,559.4794,603.26,563.4794,599.26,559.4794,603.26,568.4794" style="stroke:#64748B;stroke-width:1;"/><text fill="#1E293B" font-family="Verdana" font-size="10" lengthAdjust="spacing" textLength="102.6074" x="481.9578" y="508.2216">confirma&#231;&#227;o manual</text><text fill="#1E293B" font-family="Verdana" font-size="10" lengthAdjust="spacing" textLength="138.0029" x="464.26" y="519.8622">[hypothesis_label recebido]</text><text fill="#1E293B" font-family="Verdana" font-size="10" lengthAdjust="spacing" textLength="114.5508" x="475.9861" y="531.5029">/confirm_by_operator()</text></g><!--link ValidacaoPendente to FechadaTimeout--><g class="link" data-entity-1="ent0004" data-entity-2="ent0006" data-link-type="dependency" data-source-line="56" id="lnk9"><path d="M714.56,466.1394 C853.52,466.1394 1117.05,466.1394 1117.05,466.1394 C1117.05,466.1394 1117.05,520.5294 1117.05,562.5094" fill="none" id="ValidacaoPendente-to-FechadaTimeout" style="stroke:#64748B;stroke-width:1;"/><polygon fill="#64748B" points="1117.05,568.5094,1121.05,559.5094,1117.05,563.5094,1113.05,559.5094,1117.05,568.5094" style="stroke:#64748B;stroke-width:1;"/><text fill="#1E293B" font-family="Verdana" font-size="10" lengthAdjust="spacing" textLength="114.8438" x="846.5491" y="476.4216">[expires_at_ms &lt; now]</text><text fill="#1E293B" font-family="Verdana" font-size="10" lengthAdjust="spacing" textLength="125.9619" x="840.99" y="488.0622">/auto_confirm_timeouts()</text></g><!--link ValidacaoPendente to FechadaConvergencia--><g class="link" data-entity-1="ent0004" data-entity-2="ent0007" data-link-type="dependency" data-source-line="58" id="lnk10"><path d="M547.34,466.1394 C475.99,466.1394 384.9,466.1394 384.9,466.1394 C384.9,466.1394 384.9,520.5294 384.9,562.5094" fill="none" id="ValidacaoPendente-to-FechadaConvergencia" style="stroke:#64748B;stroke-width:1;"/><polygon fill="#64748B" points="384.9,568.5094,388.9,559.5094,384.9,563.5094,380.9,559.5094,384.9,568.5094" style="stroke:#64748B;stroke-width:1;"/><text fill="#1E293B" font-family="Verdana" font-size="10" lengthAdjust="spacing" textLength="123.5449" x="282.1146" y="440.4216">[prob &#8805; 0.97 AND n &#8805; 1]</text><text fill="#1E293B" font-family="Verdana" font-size="10" lengthAdjust="spacing" textLength="141.9141" x="272.93" y="452.0622">OU [prob &#8805; 0.85 AND n &#8805; 3]</text><text fill="#1E293B" font-family="Verdana" font-size="10" lengthAdjust="spacing" textLength="115.0732" x="286.3504" y="463.7029">/_check_convergence()</text></g><!--link Activa to FechadaConvergencia--><g class="link" data-entity-1="ent0003" data-entity-2="ent0007" data-link-type="dependency" data-source-line="60" id="lnk11"><path d="M547.56,324.1394 C457.59,324.1394 327.11,324.1394 327.11,324.1394 C327.11,324.1394 327.11,484.5594 327.11,562.5594" fill="none" id="Activa-to-FechadaConvergencia" style="stroke:#64748B;stroke-width:1;"/><polygon fill="#64748B" points="327.11,568.5594,331.11,559.5594,327.11,563.5594,323.11,559.5594,327.11,568.5594" style="stroke:#64748B;stroke-width:1;"/><text fill="#1E293B" font-family="Verdana" font-size="10" lengthAdjust="spacing" textLength="123.5449" x="194.2946" y="310.4116">[prob &#8805; 0.97 AND n &#8805; 1]</text><text fill="#1E293B" font-family="Verdana" font-size="10" lengthAdjust="spacing" textLength="141.9141" x="185.11" y="322.0522">OU [prob &#8805; 0.85 AND n &#8805; 3]</text><text fill="#1E293B" font-family="Verdana" font-size="10" lengthAdjust="spacing" textLength="115.0732" x="198.5304" y="333.6929">/_check_convergence()</text></g><!--link Activa to FechadaTimeout--><g class="link" data-entity-1="ent0003" data-entity-2="ent0006" data-link-type="dependency" data-source-line="62" id="lnk12"><path d="M714.47,324.1394 C865.57,324.1394 1168.95,324.1394 1168.95,324.1394 C1168.95,324.1394 1168.95,484.5594 1168.95,562.5594" fill="none" id="Activa-to-FechadaTimeout" style="stroke:#64748B;stroke-width:1;"/><polygon fill="#64748B" points="1168.95,568.5594,1172.95,559.5594,1168.95,563.5594,1164.95,559.5594,1168.95,568.5594" style="stroke:#64748B;stroke-width:1;"/><text fill="#1E293B" font-family="Verdana" font-size="10" lengthAdjust="spacing" textLength="114.8438" x="943.4791" y="309.4216">[expires_at_ms &lt; now]</text><text fill="#1E293B" font-family="Verdana" font-size="10" lengthAdjust="spacing" textLength="125.9619" x="937.92" y="321.0622">/auto_confirm_timeouts()</text></g><!--link FechadaOperador to *end*--><g class="link" data-entity-1="ent0005" data-entity-2="ent0013" data-link-type="dependency" data-source-line="76" id="lnk14"><path d="M631,647.3594 C631,671.5794 631,694.9294 631,710.7294" fill="none" id="FechadaOperador-to-*end*" style="stroke:#64748B;stroke-width:1;"/><polygon fill="#64748B" points="631,716.7294,635,707.7294,631,711.7294,627,707.7294,631,716.7294" style="stroke:#64748B;stroke-width:1;"/><text fill="#1E293B" font-family="Verdana" font-size="10" lengthAdjust="spacing" textLength="148.6572" x="482" y="679.3316">/ Agent2.trigger_report_now()</text></g><!--link FechadaTimeout to *end*--><g class="link" data-entity-1="ent0006" data-entity-2="ent0013" data-link-type="dependency" data-source-line="77" id="lnk15"><path d="M1143,647.3594 C1143,682.3894 1143,728.1394 1143,728.1394 C1143,728.1394 723.05,728.1394 648.17,728.1394" fill="none" id="FechadaTimeout-to-*end*" style="stroke:#64748B;stroke-width:1;"/><polygon fill="#64748B" points="642.17,728.1394,651.17,732.1394,647.17,728.1394,651.17,724.1394,642.17,728.1394" style="stroke:#64748B;stroke-width:1;"/><text fill="#1E293B" font-family="Verdana" font-size="10" lengthAdjust="spacing" textLength="133.4668" x="798.97" y="725.4216">/ Agent2._process_queue()</text></g><!--link FechadaConvergencia to *end*--><g class="link" data-entity-1="ent0007" data-entity-2="ent0013" data-link-type="dependency" data-source-line="78" id="lnk16"><path d="M356,647.3594 C356,682.3894 356,728.1394 356,728.1394 C356,728.1394 561.49,728.1394 613.53,728.1394" fill="none" id="FechadaConvergencia-to-*end*" style="stroke:#64748B;stroke-width:1;"/><polygon fill="#64748B" points="619.53,728.1394,610.53,724.1394,614.53,728.1394,610.53,732.1394,619.53,728.1394" style="stroke:#64748B;stroke-width:1;"/><text fill="#1E293B" font-family="Verdana" font-size="10" lengthAdjust="spacing" textLength="133.4668" x="313.38" y="725.4216">/ Agent2._process_queue()</text></g><?plantuml-src tLRDRjj64BxpAQOkYbX5uyYM75b2Mu2rd9z3h3HsseCL4AlTeRGmjSliBYqxWO7qs5iFxGEaHL6Wh-4tyPDqbY9bYf9T0pqKY2G886Vccsz-Tn_0zM-_V1g_u07qduTFNuKlGcZ3zOTVuSNLJz-_VduOGly03ewEm_xWY9G-dO23u3CtmIb2cZ2fWi2UIfKomwQGI8Nk8aNGnarqHQ2qG8ifR3URbRU6gLF_jjEiWXYTAS6rKMX8lo8OCNuwpgNxEj46Fe_pJqL3OCoon3tHoXKgsxZJROtMgnp9TxZiuSWnXzzf8z0KzjqsQutsLbHMcEp5BEPrjGgFPhpTsM5rXT0v8qVPacQxixlxk5lH38tHiqBukDrfxutgmhlYFTJhw6BSvQswLZNkc8jMMzGqLlq4Jhe48HoZSh1TTF_7jvbKZ38D1zOneMqFGi5I9y_mHwc4dWN1oPTluE73Rs7VI2OOz83oC1wZYLY2ne51ZYCfz50zmgbqCClD8cwGaYQeMNpoIkFt0TpW40zp0OyWOaBCmJOBwCPGHHwiHDbiLEs41lgGNPOAaaPSMXrfugoL9StB82XKFUkGKopUwiP90nX7wR36U8wsO5mOUiOBZ3MCy_z6LUbkUXGPOKHuxb29pNJ2B7u5CvJZoJ8AdXEpEuCiL9U2FCdfCA2HD9WmJjhCboOyxCFXu1YaZNYYBOet57oLI6C9xmUMIC4uqoz9Ha6ZXqwD7i7rptz2Swkpw-qDlitGEcA5XZbjehFSp5FqUFCqhaBvZAvpK2PtJKs6IYh99JFWvDIlcfsclGMbp3uRPym8ik1QnT9CsTLVLtzedxTLgrj3Bh9PjdYUj5kgwh-tOJz1Fg5-7FWy2Ph8tZ8fc3ALiMIeJYONgQPrRQbC2HjXikIvi8b65ukC-pJVwVAOqgKpvsF1yrGQj15pqTJ2rxJcPnwLPKv79RIRgzj_nTtNwWmDRH8gIgqtkXtmtQRonsroCNYz9D_RhSXRUKhv1Fcf9r5WOgqT_q-d_o63ym6e5z-t_sf3bCs_653u1evDHZigVune3rgjwEL6MViDBsBMobYYsQ96eIEXf57Cu53birJfga9EM-wong-CiqBl9lJxiolYtxZ3zL2zdo9TEKJlHlroXSzIiIkaQarmVsQLIfViogCgDnogPq-t_5x7CocAVY1IzLBvrl0dOe-SvaVfpbPv7XfCwIuLKLkGQIs7QymYwa-EraQqHJEyCLcAy3vsWQBp7em_Ga37zURAKuV2NyWWqJhjqOkND1bi91DfdUJxYouY2UEELf5yvuyGvHXvjE0l5IIYLS_0qiw_-ZkdHdU6c4ul6z1-04-X899WNELH3OTG-bfQkdjEQPcZXSt1guOdTFtXTrYCQxVp1I3CTw-TJtJWb_fcKSB2lxdwcDA6QjJDztRhvgrrvahJd2ID1Vj_0000?></g></svg>