<?xml version="1.0" encoding="UTF-8"?>
<svg xmlns="http://www.w3.org/2000/svg" width="207" height="40" viewBox="0 0 207 40">
  <g fill="#E3232F" fill-rule="nonzero">
    <path d="M94.366.347c1.64-.463 3.361-.31 5.043-.339 2.292-.016 4.728-.043 6.78 1.123 1.957 1.059 3.169 3.118 3.622 5.245.203.845.29 1.716.377 2.579-1.493.029-2.986.016-4.484.008-.195-1.361-.615-2.831-1.745-3.72-1.154-.896-2.734-.863-4.093-.582-1.17.24-2.25 1.018-2.667 2.16-.495 1.342-.53 2.934.192 4.201.22.397.491.77.793 1.111 3.136 3.51 6.28 7.008 9.413 10.518 1.508 1.671 2.554 3.836 2.574 6.113-.01 1.053.036 2.11-.041 3.16-.282 3.87-3.465 7.292-7.282 7.944-1.132.194-2.29.099-3.44.12-2.023-.03-4.098.157-6.068-.416-1.607-.432-3.116-1.375-4.032-2.786-1.122-1.679-1.39-3.743-1.437-5.72h4.554c-.043.997-.008 2.085.68 2.877 1.101 1.259 2.893 1.76 4.524 1.553 1.175-.087 2.415-.612 2.985-1.7.915-1.744.849-4.072-.472-5.596-3.022-3.409-6.074-6.787-9.109-10.187-.614-.67-1.226-1.353-1.712-2.124a8.724 8.724 0 0 1-1.435-4.641c-.009-1.847-.135-3.77.581-5.52 1.024-2.543 3.24-4.636 5.899-5.38M116.31.008h8.934v10.28c.004.904-.027 1.814.06 2.712.114-1.42.798-2.9 2.108-3.588 1.243-.683 2.703-.44 4.057-.482 1.883.043 3.838-.211 5.646.48 2.676.984 4.873 3.304 5.61 6.071.265.954.278 1.946.304 2.929v21.578h-8.892c-.009-7.402.012-14.805-.01-22.211.039-2.283-1.974-4.36-4.263-4.389-2.41-.19-4.662 1.977-4.618 4.38-.01 7.408 0 14.816-.002 22.22h-8.934V.008z"></path>
    <path d="M129.628.087h28.513c-.006 2.165.004 4.335-.008 6.496-9.504-.015-19.01.02-28.511-.019.02-2.157 0-4.316.006-6.477M168.788 8.923c-.372-4.477 3.5-8.739 7.975-8.882 3.273-.076 6.543-.012 9.81-.033-.004 1.489-.002 2.974-.002 4.461-1.612.006-3.226-.01-4.841.01-2.305-.058-4.323 2.143-4.064 4.438 1.496.03 2.991-.006 4.486.019-.023 1.487.02 2.978-.02 4.465-1.485-.017-2.97-.017-4.453-.004.01 8.863-.008 17.719.006 26.582-2.963.023-5.931.003-8.897.009-.006-8.868.01-17.736-.012-26.604-1.497.013-2.995 0-4.496.004V8.93c1.503-.007 3.003.004 4.508-.007M192.745.016c2.966-.018 5.936-.002 8.9-.008v8.918c1.503.008 3.004-.009 4.51.01-.013 1.485 0 2.968-.006 4.452-1.5-.004-2.997.009-4.492-.004-.027 5.811-.006 11.627-.013 17.444-.014 1.11.214 2.304.998 3.135.914.941 2.16 1.67 3.513 1.587-.013 1.48 0 2.96-.006 4.433-1.711-.002-3.424.021-5.134-.008-3.105-.126-5.917-2.171-7.325-4.884-.69-1.303-.949-2.795-.94-4.257.001-5.813-.009-11.626.004-17.433a176.152 176.152 0 0 0-4.455 0c-.037-1.487.002-2.978-.023-4.467 1.485-.01 2.97-.01 4.455 0 .041-2.972.016-5.942.014-8.918M11.76 11.167c1.492-1.567 3.71-2.21 5.822-2.242 1.612.009 3.22-.012 4.83.017-.013 2.953-.004 5.91-.004 8.868-3.051 0-6.1-.004-9.148 0-2.272.054-4.237 2.163-4.173 4.421.006 5.915-.008 11.834.006 17.748-2.978.023-5.96.002-8.938.009V8.93c2.978-.005 5.954 0 8.932 0-.018 2.791.048 5.588-.035 8.38.433-2.201 1.052-4.52 2.709-6.143M149.201 8.934c2.978-.012 5.958-.002 8.938-.004.005 10.352.002 20.705.002 31.058-2.974.008-5.947-.017-8.92.012-.037-10.357.003-20.71-.02-31.066M74.836 31.145c.013 2.334-2.103 4.46-4.456 4.388-2.326.056-4.426-2.068-4.393-4.38.002-4.516 0-9.033.002-13.55.017-2.213 2.011-4.186 4.219-4.215 1.54-.008 3.081.013 4.62-.008.023 5.919.008 11.842.008 17.765M83.721 0c-2.96.02-5.919.004-8.88.008-.007 2.978.02 5.954-.015 8.93-3.026-.025-6.053-.002-9.081-.013-4.37-.028-8.386 3.71-8.684 8.053-.074.844-.037 1.692-.045 2.532v11.478c.002 1.575.354 3.172 1.174 4.529 1.216 2.003 3.175 3.606 5.465 4.198 1.566.426 3.2.227 4.8.273 1.374-.046 2.836.198 4.114-.437 1.36-.66 2.09-2.165 2.215-3.617.106 1.349.038 2.706.057 4.054 2.967-.004 5.933.008 8.896-.006-.016-13.33.019-26.656-.016-39.982M33.106 17.326c.158-1.799 1.574-3.38 3.314-3.822 1.255-.293 2.65-.07 3.684.72 1.071.784 1.804 2.041 1.835 3.38.015 1.542-.006 3.08.008 4.62-2.953.007-5.904.01-8.861 0 .022-1.635-.015-3.268.02-4.898m13.281 13.74c-.043 1.088-.213 2.238-.91 3.115-.753.94-2 1.315-3.161 1.344-1.655.004-3.314 0-4.97.004-2.278-.017-4.294-2.124-4.256-4.392 0-1.481.006-2.964 0-4.447 5.914-.008 11.83 0 17.746-.002-.002-3.026 0-6.051 0-9.07.027-4.035-3.146-7.758-7.076-8.533-1.005-.213-2.036-.153-3.058-.155-2.708 0-5.415-.006-8.124.002-4.427.118-8.377 4.072-8.443 8.502-.02 4.682-.027 9.362 0 14.042.072 4.434 4.01 8.384 8.441 8.507 3.243.013 6.49 0 9.74.005 2.106-.025 4.304-.678 5.8-2.221 1.753-1.774 2.445-4.287 2.726-6.7h-4.455z"></path>
  </g>
</svg>
