<svg xmlns="http://www.w3.org/2000/svg" xmlns:xlink="http://www.w3.org/1999/xlink" contentStyleType="text/css" data-diagram-type="CLASS" height="968px" preserveAspectRatio="none" style="width:1316px;height:968px;background:#FFFFFF;" version="1.1" viewBox="0 0 1316 968" width="1316px" zoomAndPan="magnify"><?plantuml 1.2026.4beta2?><defs/><g><g class="title" data-source-line="27"><text fill="#1E293B" font-family="Verdana" font-size="22" font-weight="700" lengthAdjust="spacing" textLength="392.7451" x="460.6274" y="35.4209">Agent 2 &#8212; Diagrama de Classes</text></g><!--cluster agent2--><g class="cluster" data-qualified-name="agent2" data-source-line="29" id="ent0002"><path d="M15,57.6094 L52.5459,57.6094 A6,6 0 0 1 56.5459,61.6094 L63.5459,75.25 L1297,75.25 A4,4 0 0 1 1301,79.25 L1301,949.5894 A4,4 0 0 1 1297,953.5894 L15,953.5894 A4,4 0 0 1 11,949.5894 L11,61.6094 A4,4 0 0 1 15,57.6094" fill="#F8FAFC" style="stroke:#CBD5E1;stroke-width:1;"/><line style="stroke:#CBD5E1;stroke-width:1;" x1="11" x2="63.5459" y1="75.25" y2="75.25"/><text fill="#1E293B" font-family="Verdana" font-size="10" font-weight="700" lengthAdjust="spacing" textLength="39.5459" x="15" y="68.8916">agent2</text></g><!--class GraphReporter--><g class="entity" data-qualified-name="agent2.GraphReporter" data-source-line="31" id="ent0003"><rect fill="#F8FAFC" height="358.2969" rx="4" ry="4" style="stroke:#94A3B8;stroke-width:1;" width="312.1396" x="423.93" y="87.6094"/><rect fill="#E2E8F0" height="28" rx="4" ry="4" style="stroke:#E2E8F0;stroke-width:1;" width="312.1396" x="423.93" y="87.6094"/><rect fill="#E2E8F0" height="4" style="stroke:#E2E8F0;stroke-width:1;" width="312.1396" x="423.93" y="111.6094"/><rect fill="none" height="358.2969" rx="4" ry="4" style="stroke:#94A3B8;stroke-width:1;" width="312.1396" x="423.93" y="87.6094"/><ellipse cx="538.9818" cy="101.6094" fill="#FFFFFF" rx="9" ry="9" style="stroke:#000000;stroke-width:1;"/><path d="M540.263,104.9063 Q539.9193,105.0781 539.5443,105.1563 Q539.1693,105.25 538.7474,105.25 Q537.2786,105.25 536.4974,104.2813 Q535.7318,103.3125 535.7318,101.4688 Q535.7318,99.625 536.4974,98.6563 Q537.2786,97.6875 538.7474,97.6875 Q539.1693,97.6875 539.5443,97.7813 Q539.9349,97.8594 540.263,98.0313 L540.263,99.6406 Q539.888,99.2969 539.5286,99.1406 Q539.1849,98.9844 538.8255,98.9844 Q538.0286,98.9844 537.6224,99.6094 Q537.2161,100.2344 537.2161,101.4688 Q537.2161,102.7031 537.6224,103.3281 Q538.0286,103.9531 538.8255,103.9531 Q539.1849,103.9531 539.5286,103.7969 Q539.888,103.6406 540.263,103.2969 L540.263,104.9063 Z " fill="#1E293B"/><text fill="#334155" font-family="Verdana" font-size="10" lengthAdjust="spacing" textLength="74.5361" x="556.4818" y="105.0713">GraphReporter</text><line style="stroke:#94A3B8;stroke-width:1;" x1="424.93" x2="735.0696" y1="115.6094" y2="115.6094"/><g data-visibility-modifier="PRIVATE_FIELD"><rect fill="none" height="6" style="stroke:#000000;stroke-width:1;" width="6" x="431.93" y="123.9297"/></g><text fill="#334155" font-family="Verdana" font-size="10" lengthAdjust="spacing" textLength="196.5381" x="441.93" y="128.8916">_last_processed_confirmation_ms: float</text><g data-visibility-modifier="PRIVATE_FIELD"><rect fill="none" height="6" style="stroke:#000000;stroke-width:1;" width="6" x="431.93" y="135.5703"/></g><text fill="#334155" font-family="Verdana" font-size="10" lengthAdjust="spacing" textLength="149.3506" x="441.93" y="140.5322">_generated_reports: List[Dict]</text><g data-visibility-modifier="PRIVATE_FIELD"><rect fill="none" height="6" style="stroke:#000000;stroke-width:1;" width="6" x="431.93" y="147.2109"/></g><text fill="#334155" font-family="Verdana" font-size="10" lengthAdjust="spacing" textLength="61.6602" x="441.93" y="152.1729">_lock: RLock</text><g data-visibility-modifier="PRIVATE_FIELD"><rect fill="none" height="6" style="stroke:#000000;stroke-width:1;" width="6" x="431.93" y="158.8516"/></g><text fill="#334155" font-family="Verdana" font-size="10" lengthAdjust="spacing" textLength="71.499" x="441.93" y="163.8135">_running: bool</text><g data-visibility-modifier="PRIVATE_FIELD"><rect fill="none" height="6" style="stroke:#000000;stroke-width:1;" width="6" x="431.93" y="170.4922"/></g><text fill="#334155" font-family="Verdana" font-size="10" lengthAdjust="spacing" textLength="85.7324" x="441.93" y="175.4541">_poll_interval: int</text><g data-visibility-modifier="PRIVATE_FIELD"><rect fill="none" height="6" style="stroke:#000000;stroke-width:1;" width="6" x="431.93" y="182.1328"/></g><text fill="#334155" font-family="Verdana" font-size="10" lengthAdjust="spacing" textLength="108.4229" x="441.93" y="187.0947">_pending_queue: Dict</text><g data-visibility-modifier="PRIVATE_FIELD"><rect fill="none" height="6" style="stroke:#000000;stroke-width:1;" width="6" x="431.93" y="193.7734"/></g><text fill="#334155" font-family="Verdana" font-size="10" lengthAdjust="spacing" textLength="91.04" x="441.93" y="198.7354">_queue_lock: Lock</text><g data-visibility-modifier="PRIVATE_FIELD"><rect fill="none" height="6" style="stroke:#000000;stroke-width:1;" width="6" x="431.93" y="205.4141"/></g><text fill="#334155" font-family="Verdana" font-size="10" lengthAdjust="spacing" textLength="173.7598" x="441.93" y="210.376">_processed_confirmations: Set[str]</text><g data-visibility-modifier="PRIVATE_FIELD"><rect fill="none" height="6" style="stroke:#000000;stroke-width:1;" width="6" x="431.93" y="217.0547"/></g><text fill="#334155" font-family="Verdana" font-size="10" lengthAdjust="spacing" text-decoration="underline" textLength="94.7021" x="441.93" y="222.0166">_QUEUE_FILE: Path</text><line style="stroke:#94A3B8;stroke-width:1;" x1="424.93" x2="735.0696" y1="228.375" y2="228.375"/><g data-visibility-modifier="PUBLIC_METHOD"><ellipse cx="434.93" cy="239.6953" fill="#FFFFFF" rx="3" ry="3" style="stroke:#000000;stroke-width:1;"/></g><text fill="#334155" font-family="Verdana" font-size="10" lengthAdjust="spacing" textLength="52.2998" x="441.93" y="241.6572">run(): void</text><g data-visibility-modifier="PUBLIC_METHOD"><ellipse cx="434.93" cy="251.3359" fill="#FFFFFF" rx="3" ry="3" style="stroke:#000000;stroke-width:1;"/></g><text fill="#334155" font-family="Verdana" font-size="10" lengthAdjust="spacing" textLength="57.1094" x="441.93" y="253.2979">stop(): void</text><g data-visibility-modifier="PUBLIC_METHOD"><ellipse cx="434.93" cy="262.9766" fill="#FFFFFF" rx="3" ry="3" style="stroke:#000000;stroke-width:1;"/></g><text fill="#334155" font-family="Verdana" font-size="10" lengthAdjust="spacing" textLength="272.2949" x="441.93" y="264.9385">trigger_report_now(label, score, ts, tier, method): bool</text><g data-visibility-modifier="PRIVATE_METHOD"><rect fill="#FFFFFF" height="6" style="stroke:#000000;stroke-width:1;" width="6" x="431.93" y="271.6172"/></g><text fill="#334155" font-family="Verdana" font-size="10" lengthAdjust="spacing" textLength="156.2305" x="441.93" y="276.5791">_get_graph(): HypothesisGraph</text><g data-visibility-modifier="PRIVATE_METHOD"><rect fill="#FFFFFF" height="6" style="stroke:#000000;stroke-width:1;" width="6" x="431.93" y="283.2578"/></g><text fill="#334155" font-family="Verdana" font-size="10" lengthAdjust="spacing" textLength="188.0469" x="441.93" y="288.2197">_get_new_confirmations(): List[Tuple]</text><g data-visibility-modifier="PRIVATE_METHOD"><rect fill="#FFFFFF" height="6" style="stroke:#000000;stroke-width:1;" width="6" x="431.93" y="294.8984"/></g><text fill="#334155" font-family="Verdana" font-size="10" lengthAdjust="spacing" textLength="132.8076" x="441.93" y="299.8604">_get_graph_context(): Dict</text><g data-visibility-modifier="PRIVATE_METHOD"><rect fill="#FFFFFF" height="6" style="stroke:#000000;stroke-width:1;" width="6" x="431.93" y="306.5391"/></g><text fill="#334155" font-family="Verdana" font-size="10" lengthAdjust="spacing" textLength="239.7461" x="441.93" y="311.501">_generate_ciso_report(confirmed, context): Dict</text><g data-visibility-modifier="PRIVATE_METHOD"><rect fill="#FFFFFF" height="6" style="stroke:#000000;stroke-width:1;" width="6" x="431.93" y="318.1797"/></g><text fill="#334155" font-family="Verdana" font-size="10" lengthAdjust="spacing" textLength="288.1396" x="441.93" y="323.1416">_get_recommendations(tier, confirmed, context): List[str]</text><g data-visibility-modifier="PRIVATE_METHOD"><rect fill="#FFFFFF" height="6" style="stroke:#000000;stroke-width:1;" width="6" x="431.93" y="329.8203"/></g><text fill="#334155" font-family="Verdana" font-size="10" lengthAdjust="spacing" textLength="168.9697" x="441.93" y="334.7822">_get_regulatory_impact(tier): Dict</text><g data-visibility-modifier="PRIVATE_METHOD"><rect fill="#FFFFFF" height="6" style="stroke:#000000;stroke-width:1;" width="6" x="431.93" y="341.4609"/></g><text fill="#334155" font-family="Verdana" font-size="10" lengthAdjust="spacing" textLength="131.6992" x="441.93" y="346.4229">_save_report(report): Path</text><g data-visibility-modifier="PRIVATE_METHOD"><rect fill="#FFFFFF" height="6" style="stroke:#000000;stroke-width:1;" width="6" x="431.93" y="353.1016"/></g><text fill="#334155" font-family="Verdana" font-size="10" lengthAdjust="spacing" textLength="129.8291" x="441.93" y="358.0635">_emit_report(report): bool</text><g data-visibility-modifier="PRIVATE_METHOD"><rect fill="#FFFFFF" height="6" style="stroke:#000000;stroke-width:1;" width="6" x="431.93" y="364.7422"/></g><text fill="#334155" font-family="Verdana" font-size="10" lengthAdjust="spacing" textLength="155.3027" x="441.93" y="369.7041">_auto_confirm_timeouts(): void</text><g data-visibility-modifier="PRIVATE_METHOD"><rect fill="#FFFFFF" height="6" style="stroke:#000000;stroke-width:1;" width="6" x="431.93" y="376.3828"/></g><text fill="#334155" font-family="Verdana" font-size="10" lengthAdjust="spacing" textLength="225.7471" x="441.93" y="381.3447">_enqueue(label, score, ts, tier, method): void</text><g data-visibility-modifier="PRIVATE_METHOD"><rect fill="#FFFFFF" height="6" style="stroke:#000000;stroke-width:1;" width="6" x="431.93" y="388.0234"/></g><text fill="#334155" font-family="Verdana" font-size="10" lengthAdjust="spacing" textLength="152.6416" x="441.93" y="392.9854">_dequeue_success(label): void</text><g data-visibility-modifier="PRIVATE_METHOD"><rect fill="#FFFFFF" height="6" style="stroke:#000000;stroke-width:1;" width="6" x="431.93" y="399.6641"/></g><text fill="#334155" font-family="Verdana" font-size="10" lengthAdjust="spacing" textLength="115.4883" x="441.93" y="404.626">_process_queue(): void</text><g data-visibility-modifier="PRIVATE_METHOD"><rect fill="#FFFFFF" height="6" style="stroke:#000000;stroke-width:1;" width="6" x="431.93" y="411.3047"/></g><text fill="#334155" font-family="Verdana" font-size="10" lengthAdjust="spacing" textLength="96.9482" x="441.93" y="416.2666">_load_queue(): Dict</text><g data-visibility-modifier="PRIVATE_METHOD"><rect fill="#FFFFFF" height="6" style="stroke:#000000;stroke-width:1;" width="6" x="431.93" y="422.9453"/></g><text fill="#334155" font-family="Verdana" font-size="10" lengthAdjust="spacing" textLength="100.249" x="441.93" y="427.9072">_save_queue(): void</text><text fill="#334155" font-family="Verdana" font-size="10" lengthAdjust="spacing" textLength="3.1787" x="441.93" y="439.5479">&#160;</text></g><!--class AlertLoader--><g class="entity" data-qualified-name="agent2.AlertLoader" data-source-line="62" id="ent0004"><rect fill="#F8FAFC" height="107.4844" rx="4" ry="4" style="stroke:#94A3B8;stroke-width:1;" width="212.2813" x="26.86" y="601.7194"/><rect fill="#E2E8F0" height="33.2813" rx="4" ry="4" style="stroke:#E2E8F0;stroke-width:1;" width="212.2813" x="26.86" y="601.7194"/><rect fill="#E2E8F0" height="4" style="stroke:#E2E8F0;stroke-width:1;" width="212.2813" x="26.86" y="631.0006"/><rect fill="none" height="107.4844" rx="4" ry="4" style="stroke:#94A3B8;stroke-width:1;" width="212.2813" x="26.86" y="601.7194"/><ellipse cx="100.1344" cy="618.36" fill="#FFFFFF" rx="9" ry="9" style="stroke:#000000;stroke-width:1;"/><path d="M101.4157,621.6569 Q101.0719,621.8288 100.6969,621.9069 Q100.3219,622.0006 99.9,622.0006 Q98.4313,622.0006 97.65,621.0319 Q96.8844,620.0631 96.8844,618.2194 Q96.8844,616.3756 97.65,615.4069 Q98.4313,614.4381 99.9,614.4381 Q100.3219,614.4381 100.6969,614.5319 Q101.0875,614.61 101.4157,614.7819 L101.4157,616.3913 Q101.0407,616.0475 100.6813,615.8913 Q100.3375,615.735 99.9782,615.735 Q99.1813,615.735 98.775,616.36 Q98.3688,616.985 98.3688,618.2194 Q98.3688,619.4538 98.775,620.0788 Q99.1813,620.7038 99.9782,620.7038 Q100.3375,620.7038 100.6813,620.5475 Q101.0407,620.3913 101.4157,620.0475 L101.4157,621.6569 Z " fill="#1E293B"/><text fill="#64748B" font-family="Verdana" font-size="10" font-style="italic" lengthAdjust="spacing" textLength="40.6689" x="126.4162" y="616.0016">&#171;utility&#187;</text><text fill="#334155" font-family="Verdana" font-size="10" lengthAdjust="spacing" textLength="58.2324" x="117.6344" y="627.6422">AlertLoader</text><line style="stroke:#94A3B8;stroke-width:1;" x1="27.86" x2="238.1413" y1="635.0006" y2="635.0006"/><g data-visibility-modifier="PRIVATE_FIELD"><rect fill="none" height="6" style="stroke:#000000;stroke-width:1;" width="6" x="34.86" y="643.3209"/></g><text fill="#334155" font-family="Verdana" font-size="10" lengthAdjust="spacing" text-decoration="underline" textLength="108.3594" x="44.86" y="648.2829">_cache: Dict[str, Dict]</text><g data-visibility-modifier="PRIVATE_FIELD"><rect fill="none" height="6" style="stroke:#000000;stroke-width:1;" width="6" x="34.86" y="654.9616"/></g><text fill="#334155" font-family="Verdana" font-size="10" lengthAdjust="spacing" text-decoration="underline" textLength="89.3262" x="44.86" y="659.9235">_cache_lock: Lock</text><line style="stroke:#94A3B8;stroke-width:1;" x1="27.86" x2="238.1413" y1="666.2819" y2="666.2819"/><g data-visibility-modifier="PUBLIC_METHOD"><ellipse cx="37.86" cy="677.6022" fill="#FFFFFF" rx="3" ry="3" style="stroke:#000000;stroke-width:1;"/></g><text fill="#334155" font-family="Verdana" font-size="10" lengthAdjust="spacing" text-decoration="underline" textLength="188.2813" x="44.86" y="679.5641">get_alerts_by_ids(alert_ids): List[Dict]</text><g data-visibility-modifier="PRIVATE_METHOD"><rect fill="#FFFFFF" height="6" style="stroke:#000000;stroke-width:1;" width="6" x="34.86" y="686.2428"/></g><text fill="#334155" font-family="Verdana" font-size="10" lengthAdjust="spacing" text-decoration="underline" textLength="98.4521" x="44.86" y="691.2047">_build_cache(): Dict</text><g data-visibility-modifier="PUBLIC_METHOD"><ellipse cx="37.86" cy="700.8834" fill="#FFFFFF" rx="3" ry="3" style="stroke:#000000;stroke-width:1;"/></g><text fill="#334155" font-family="Verdana" font-size="10" lengthAdjust="spacing" text-decoration="underline" textLength="84.7803" x="44.86" y="702.8454">invalidate(): void</text></g><!--class IncidentAnalyzer--><g class="entity" data-qualified-name="agent2.IncidentAnalyzer" data-source-line="71" id="ent0005"><rect fill="#F8FAFC" height="119.125" rx="4" ry="4" style="stroke:#94A3B8;stroke-width:1;" width="226.5439" x="250.73" y="595.8994"/><rect fill="#E2E8F0" height="33.2813" rx="4" ry="4" style="stroke:#E2E8F0;stroke-width:1;" width="226.5439" x="250.73" y="595.8994"/><rect fill="#E2E8F0" height="4" style="stroke:#E2E8F0;stroke-width:1;" width="226.5439" x="250.73" y="625.1806"/><rect fill="none" height="119.125" rx="4" ry="4" style="stroke:#94A3B8;stroke-width:1;" width="226.5439" x="250.73" y="595.8994"/><ellipse cx="318.333" cy="612.54" fill="#FFFFFF" rx="9" ry="9" style="stroke:#000000;stroke-width:1;"/><path d="M319.6143,615.8369 Q319.2705,616.0088 318.8955,616.0869 Q318.5205,616.1806 318.0987,616.1806 Q316.6299,616.1806 315.8487,615.2119 Q315.083,614.2431 315.083,612.3994 Q315.083,610.5556 315.8487,609.5869 Q316.6299,608.6181 318.0987,608.6181 Q318.5205,608.6181 318.8955,608.7119 Q319.2862,608.79 319.6143,608.9619 L319.6143,610.5713 Q319.2393,610.2275 318.8799,610.0713 Q318.5362,609.915 318.1768,609.915 Q317.3799,609.915 316.9737,610.54 Q316.5674,611.165 316.5674,612.3994 Q316.5674,613.6338 316.9737,614.2588 Q317.3799,614.8838 318.1768,614.8838 Q318.5362,614.8838 318.8799,614.7275 Q319.2393,614.5713 319.6143,614.2275 L319.6143,615.8369 Z " fill="#1E293B"/><text fill="#64748B" font-family="Verdana" font-size="10" font-style="italic" lengthAdjust="spacing" textLength="40.6689" x="357.4175" y="610.1816">&#171;utility&#187;</text><text fill="#334155" font-family="Verdana" font-size="10" lengthAdjust="spacing" textLength="83.8379" x="335.833" y="621.8222">IncidentAnalyzer</text><line style="stroke:#94A3B8;stroke-width:1;" x1="251.73" x2="476.2739" y1="629.1806" y2="629.1806"/><line style="stroke:#94A3B8;stroke-width:1;" x1="251.73" x2="476.2739" y1="637.1806" y2="637.1806"/><g data-visibility-modifier="PUBLIC_METHOD"><ellipse cx="261.73" cy="665.9619" fill="#FFFFFF" rx="3" ry="3" style="stroke:#000000;stroke-width:1;"/></g><text fill="#334155" font-family="Verdana" font-size="10" lengthAdjust="spacing" text-decoration="underline" textLength="87.7441" x="268.73" y="650.4629">analyze_incident(</text><text fill="#334155" font-family="Verdana" font-size="10" lengthAdjust="spacing" text-decoration="underline" textLength="169.0186" x="275.0874" y="662.1035">ciso_options, phases, alert_count,</text><text fill="#334155" font-family="Verdana" font-size="10" lengthAdjust="spacing" text-decoration="underline" textLength="90.1074" x="275.0874" y="673.7441">assets, cves, iocs,</text><text fill="#334155" font-family="Verdana" font-size="10" lengthAdjust="spacing" text-decoration="underline" textLength="167.207" x="275.0874" y="685.3847">mitre_techniques): Optional[Dict]</text><g data-visibility-modifier="PRIVATE_METHOD"><rect fill="#FFFFFF" height="6" style="stroke:#000000;stroke-width:1;" width="6" x="258.73" y="697.8838"/></g><text fill="#334155" font-family="Verdana" font-size="10" lengthAdjust="spacing" text-decoration="underline" textLength="93.3594" x="268.73" y="697.0254">_fallback_analysis(</text><text fill="#334155" font-family="Verdana" font-size="10" lengthAdjust="spacing" text-decoration="underline" textLength="196.1865" x="275.0874" y="708.666">ciso_options, phases, alert_count): Dict</text></g><!--class DataExtractor--><g class="entity" data-qualified-name="agent2.DataExtractor" data-source-line="77" id="ent0006"><rect fill="#F8FAFC" height="84.2031" rx="4" ry="4" style="stroke:#94A3B8;stroke-width:1;" width="180.8945" x="489.55" y="613.3594"/><rect fill="#E2E8F0" height="33.2813" rx="4" ry="4" style="stroke:#E2E8F0;stroke-width:1;" width="180.8945" x="489.55" y="613.3594"/><rect fill="#E2E8F0" height="4" style="stroke:#E2E8F0;stroke-width:1;" width="180.8945" x="489.55" y="642.6406"/><rect fill="none" height="84.2031" rx="4" ry="4" style="stroke:#94A3B8;stroke-width:1;" width="180.8945" x="489.55" y="613.3594"/><ellipse cx="541.2863" cy="630" fill="#FFFFFF" rx="9" ry="9" style="stroke:#000000;stroke-width:1;"/><path d="M542.5676,633.2969 Q542.2238,633.4688 541.8488,633.5469 Q541.4738,633.6406 541.052,633.6406 Q539.5832,633.6406 538.802,632.6719 Q538.0363,631.7031 538.0363,629.8594 Q538.0363,628.0156 538.802,627.0469 Q539.5832,626.0781 541.052,626.0781 Q541.4738,626.0781 541.8488,626.1719 Q542.2395,626.25 542.5676,626.4219 L542.5676,628.0313 Q542.1926,627.6875 541.8332,627.5313 Q541.4895,627.375 541.1301,627.375 Q540.3332,627.375 539.927,628 Q539.5207,628.625 539.5207,629.8594 Q539.5207,631.0938 539.927,631.7188 Q540.3332,632.3438 541.1301,632.3438 Q541.4895,632.3438 541.8332,632.1875 Q542.1926,632.0313 542.5676,631.6875 L542.5676,633.2969 Z " fill="#1E293B"/><text fill="#64748B" font-family="Verdana" font-size="10" font-style="italic" lengthAdjust="spacing" textLength="40.6689" x="573.4128" y="627.6416">&#171;utility&#187;</text><text fill="#334155" font-family="Verdana" font-size="10" lengthAdjust="spacing" textLength="69.9219" x="558.7863" y="639.2822">DataExtractor</text><line style="stroke:#94A3B8;stroke-width:1;" x1="490.55" x2="669.4445" y1="646.6406" y2="646.6406"/><line style="stroke:#94A3B8;stroke-width:1;" x1="490.55" x2="669.4445" y1="654.6406" y2="654.6406"/><g data-visibility-modifier="PUBLIC_METHOD"><ellipse cx="500.55" cy="665.9609" fill="#FFFFFF" rx="3" ry="3" style="stroke:#000000;stroke-width:1;"/></g><text fill="#334155" font-family="Verdana" font-size="10" lengthAdjust="spacing" text-decoration="underline" textLength="153.6572" x="507.55" y="667.9229">extract_assets(alerts): List[str]</text><g data-visibility-modifier="PUBLIC_METHOD"><ellipse cx="500.55" cy="677.6016" fill="#FFFFFF" rx="3" ry="3" style="stroke:#000000;stroke-width:1;"/></g><text fill="#334155" font-family="Verdana" font-size="10" lengthAdjust="spacing" text-decoration="underline" textLength="144.6045" x="507.55" y="679.5635">extract_cves(alerts): List[str]</text><g data-visibility-modifier="PUBLIC_METHOD"><ellipse cx="500.55" cy="689.2422" fill="#FFFFFF" rx="3" ry="3" style="stroke:#000000;stroke-width:1;"/></g><text fill="#334155" font-family="Verdana" font-size="10" lengthAdjust="spacing" text-decoration="underline" textLength="156.8945" x="507.55" y="691.2041">extract_ioc_bundle(alerts): Dict</text></g><!--class MITREMapper--><g class="entity" data-qualified-name="agent2.MITREMapper" data-source-line="84" id="ent0007"><rect fill="#F8FAFC" height="72.5625" rx="4" ry="4" style="stroke:#94A3B8;stroke-width:1;" width="163.5313" x="218.23" y="865.0294"/><rect fill="#E2E8F0" height="33.2813" rx="4" ry="4" style="stroke:#E2E8F0;stroke-width:1;" width="163.5313" x="218.23" y="865.0294"/><rect fill="#E2E8F0" height="4" style="stroke:#E2E8F0;stroke-width:1;" width="163.5313" x="218.23" y="894.3106"/><rect fill="none" height="72.5625" rx="4" ry="4" style="stroke:#94A3B8;stroke-width:1;" width="163.5313" x="218.23" y="865.0294"/><ellipse cx="261.9121" cy="881.67" fill="#FFFFFF" rx="9" ry="9" style="stroke:#000000;stroke-width:1;"/><path d="M263.1934,884.9669 Q262.8496,885.1388 262.4746,885.2169 Q262.0996,885.3106 261.6778,885.3106 Q260.209,885.3106 259.4278,884.3419 Q258.6621,883.3731 258.6621,881.5294 Q258.6621,879.6856 259.4278,878.7169 Q260.209,877.7481 261.6778,877.7481 Q262.0996,877.7481 262.4746,877.8419 Q262.8653,877.92 263.1934,878.0919 L263.1934,879.7013 Q262.8184,879.3575 262.459,879.2013 Q262.1153,879.045 261.7559,879.045 Q260.959,879.045 260.5528,879.67 Q260.1465,880.295 260.1465,881.5294 Q260.1465,882.7638 260.5528,883.3888 Q260.959,884.0138 261.7559,884.0138 Q262.1153,884.0138 262.459,883.8575 Q262.8184,883.7013 263.1934,883.3575 L263.1934,884.9669 Z " fill="#1E293B"/><text fill="#64748B" font-family="Verdana" font-size="10" font-style="italic" lengthAdjust="spacing" textLength="40.6689" x="293.4112" y="879.3116">&#171;utility&#187;</text><text fill="#334155" font-family="Verdana" font-size="10" lengthAdjust="spacing" textLength="68.667" x="279.4121" y="890.9522">MITREMapper</text><line style="stroke:#94A3B8;stroke-width:1;" x1="219.23" x2="380.7613" y1="898.3106" y2="898.3106"/><line style="stroke:#94A3B8;stroke-width:1;" x1="219.23" x2="380.7613" y1="906.3106" y2="906.3106"/><g data-visibility-modifier="PUBLIC_METHOD"><ellipse cx="229.23" cy="923.4513" fill="#FFFFFF" rx="3" ry="3" style="stroke:#000000;stroke-width:1;"/></g><text fill="#334155" font-family="Verdana" font-size="10" lengthAdjust="spacing" text-decoration="underline" textLength="139.5313" x="236.23" y="919.5929">get_techniques_for_phases(</text><text fill="#334155" font-family="Verdana" font-size="10" lengthAdjust="spacing" text-decoration="underline" textLength="91.0156" x="242.5874" y="931.2335">phases): List[Dict]</text></g><!--class CISOReportGenerator--><g class="entity" data-qualified-name="agent2.CISOReportGenerator" data-source-line="89" id="ent0008"><rect fill="#F8FAFC" height="90.5625" rx="4" ry="4" style="stroke:#94A3B8;stroke-width:1;" width="295.2451" x="682.38" y="610.1794"/><rect fill="#E2E8F0" height="28" rx="4" ry="4" style="stroke:#E2E8F0;stroke-width:1;" width="295.2451" x="682.38" y="610.1794"/><rect fill="#E2E8F0" height="4" style="stroke:#E2E8F0;stroke-width:1;" width="295.2451" x="682.38" y="634.1794"/><rect fill="none" height="90.5625" rx="4" ry="4" style="stroke:#94A3B8;stroke-width:1;" width="295.2451" x="682.38" y="610.1794"/><ellipse cx="771.9874" cy="624.1794" fill="#FFFFFF" rx="9" ry="9" style="stroke:#000000;stroke-width:1;"/><path d="M773.2687,627.4762 Q772.9249,627.6481 772.5499,627.7262 Q772.1749,627.82 771.753,627.82 Q770.2843,627.82 769.503,626.8512 Q768.7374,625.8825 768.7374,624.0387 Q768.7374,622.195 769.503,621.2262 Q770.2843,620.2575 771.753,620.2575 Q772.1749,620.2575 772.5499,620.3512 Q772.9405,620.4294 773.2687,620.6012 L773.2687,622.2106 Q772.8937,621.8669 772.5343,621.7106 Q772.1905,621.5544 771.8312,621.5544 Q771.0343,621.5544 770.628,622.1794 Q770.2218,622.8044 770.2218,624.0387 Q770.2218,625.2731 770.628,625.8981 Q771.0343,626.5231 771.8312,626.5231 Q772.1905,626.5231 772.5343,626.3669 Q772.8937,626.2106 773.2687,625.8669 L773.2687,627.4762 Z " fill="#1E293B"/><text fill="#334155" font-family="Verdana" font-size="10" lengthAdjust="spacing" textLength="108.5303" x="789.4874" y="627.6413">CISOReportGenerator</text><line style="stroke:#94A3B8;stroke-width:1;" x1="683.38" x2="976.6251" y1="638.1794" y2="638.1794"/><line style="stroke:#94A3B8;stroke-width:1;" x1="683.38" x2="976.6251" y1="646.1794" y2="646.1794"/><g data-visibility-modifier="PUBLIC_METHOD"><ellipse cx="693.38" cy="657.4997" fill="#FFFFFF" rx="3" ry="3" style="stroke:#000000;stroke-width:1;"/></g><text fill="#334155" font-family="Verdana" font-size="10" lengthAdjust="spacing" textLength="168.208" x="700.38" y="659.4616">generate(metadata, analysis): str</text><g data-visibility-modifier="PRIVATE_METHOD"><rect fill="#FFFFFF" height="6" style="stroke:#000000;stroke-width:1;" width="6" x="690.38" y="666.1403"/></g><text fill="#334155" font-family="Verdana" font-size="10" lengthAdjust="spacing" textLength="271.2451" x="700.38" y="671.1022">_format_timestamp(metadata, ms_key, *iso_keys): str</text><g data-visibility-modifier="PRIVATE_METHOD"><rect fill="#FFFFFF" height="6" style="stroke:#000000;stroke-width:1;" width="6" x="690.38" y="677.7809"/></g><text fill="#334155" font-family="Verdana" font-size="10" lengthAdjust="spacing" textLength="217.6904" x="700.38" y="682.7429">_get_metadata_value(metadata, *keys): str</text><g data-visibility-modifier="PRIVATE_METHOD"><rect fill="#FFFFFF" height="6" style="stroke:#000000;stroke-width:1;" width="6" x="690.38" y="689.4216"/></g><text fill="#334155" font-family="Verdana" font-size="10" lengthAdjust="spacing" textLength="172.0801" x="700.38" y="694.3835">_build_timeline_rows(timeline): str</text></g><!--class SOCReportGenerator--><g class="entity" data-qualified-name="agent2.SOCReportGenerator" data-source-line="97" id="ent0009"><rect fill="#F8FAFC" height="78.9219" rx="4" ry="4" style="stroke:#94A3B8;stroke-width:1;" width="295.2451" x="989.38" y="615.9994"/><rect fill="#E2E8F0" height="28" rx="4" ry="4" style="stroke:#E2E8F0;stroke-width:1;" width="295.2451" x="989.38" y="615.9994"/><rect fill="#E2E8F0" height="4" style="stroke:#E2E8F0;stroke-width:1;" width="295.2451" x="989.38" y="639.9994"/><rect fill="none" height="78.9219" rx="4" ry="4" style="stroke:#94A3B8;stroke-width:1;" width="295.2451" x="989.38" y="615.9994"/><ellipse cx="1080.462" cy="629.9994" fill="#FFFFFF" rx="9" ry="9" style="stroke:#000000;stroke-width:1;"/><path d="M1081.7433,633.2963 Q1081.3995,633.4681 1081.0245,633.5463 Q1080.6495,633.64 1080.2277,633.64 Q1078.7589,633.64 1077.9777,632.6713 Q1077.212,631.7025 1077.212,629.8588 Q1077.212,628.015 1077.9777,627.0463 Q1078.7589,626.0775 1080.2277,626.0775 Q1080.6495,626.0775 1081.0245,626.1713 Q1081.4152,626.2494 1081.7433,626.4213 L1081.7433,628.0306 Q1081.3683,627.6869 1081.0089,627.5306 Q1080.6652,627.3744 1080.3058,627.3744 Q1079.5089,627.3744 1079.1027,627.9994 Q1078.6964,628.6244 1078.6964,629.8588 Q1078.6964,631.0931 1079.1027,631.7181 Q1079.5089,632.3431 1080.3058,632.3431 Q1080.6652,632.3431 1081.0089,632.1869 Q1081.3683,632.0306 1081.7433,631.6869 L1081.7433,633.2963 Z " fill="#1E293B"/><text fill="#334155" font-family="Verdana" font-size="10" lengthAdjust="spacing" textLength="105.5811" x="1097.962" y="633.4613">SOCReportGenerator</text><line style="stroke:#94A3B8;stroke-width:1;" x1="990.38" x2="1283.6251" y1="643.9994" y2="643.9994"/><line style="stroke:#94A3B8;stroke-width:1;" x1="990.38" x2="1283.6251" y1="651.9994" y2="651.9994"/><g data-visibility-modifier="PUBLIC_METHOD"><ellipse cx="1000.38" cy="663.3197" fill="#FFFFFF" rx="3" ry="3" style="stroke:#000000;stroke-width:1;"/></g><text fill="#334155" font-family="Verdana" font-size="10" lengthAdjust="spacing" textLength="168.208" x="1007.38" y="665.2816">generate(metadata, analysis): str</text><g data-visibility-modifier="PRIVATE_METHOD"><rect fill="#FFFFFF" height="6" style="stroke:#000000;stroke-width:1;" width="6" x="997.38" y="671.9603"/></g><text fill="#334155" font-family="Verdana" font-size="10" lengthAdjust="spacing" textLength="271.2451" x="1007.38" y="676.9222">_format_timestamp(metadata, ms_key, *iso_keys): str</text><g data-visibility-modifier="PRIVATE_METHOD"><rect fill="#FFFFFF" height="6" style="stroke:#000000;stroke-width:1;" width="6" x="997.38" y="683.6009"/></g><text fill="#334155" font-family="Verdana" font-size="10" lengthAdjust="spacing" textLength="172.0801" x="1007.38" y="688.5629">_build_timeline_rows(timeline): str</text></g><!--class CVERepository--><g class="entity" data-qualified-name="agent2.CVERepository" data-source-line="104" id="ent0010"><rect fill="#F8FAFC" height="60.9219" rx="4" ry="4" style="stroke:#94A3B8;stroke-width:1;" width="217.3301" x="393.33" y="870.8494"/><rect fill="#E2E8F0" height="33.2813" rx="4" ry="4" style="stroke:#E2E8F0;stroke-width:1;" width="217.3301" x="393.33" y="870.8494"/><rect fill="#E2E8F0" height="4" style="stroke:#E2E8F0;stroke-width:1;" width="217.3301" x="393.33" y="900.1306"/><rect fill="none" height="60.9219" rx="4" ry="4" style="stroke:#94A3B8;stroke-width:1;" width="217.3301" x="393.33" y="870.8494"/><ellipse cx="461.3627" cy="887.49" fill="#FFFFFF" rx="9" ry="9" style="stroke:#000000;stroke-width:1;"/><path d="M462.644,890.7869 Q462.3002,890.9588 461.9252,891.0369 Q461.5502,891.1306 461.1283,891.1306 Q459.6596,891.1306 458.8783,890.1619 Q458.1127,889.1931 458.1127,887.3494 Q458.1127,885.5056 458.8783,884.5369 Q459.6596,883.5681 461.1283,883.5681 Q461.5502,883.5681 461.9252,883.6619 Q462.3158,883.74 462.644,883.9119 L462.644,885.5213 Q462.269,885.1775 461.9096,885.0213 Q461.5658,884.865 461.2065,884.865 Q460.4096,884.865 460.0033,885.49 Q459.5971,886.115 459.5971,887.3494 Q459.5971,888.5838 460.0033,889.2088 Q460.4096,889.8338 461.2065,889.8338 Q461.5658,889.8338 461.9096,889.6775 Q462.269,889.5213 462.644,889.1775 L462.644,890.7869 Z " fill="#1E293B"/><text fill="#64748B" font-family="Verdana" font-size="10" font-style="italic" lengthAdjust="spacing" textLength="40.6689" x="495.4106" y="885.1316">&#171;utility&#187;</text><text fill="#334155" font-family="Verdana" font-size="10" lengthAdjust="spacing" textLength="73.7646" x="478.8627" y="896.7722">CVERepository</text><line style="stroke:#94A3B8;stroke-width:1;" x1="394.33" x2="609.6601" y1="904.1306" y2="904.1306"/><line style="stroke:#94A3B8;stroke-width:1;" x1="394.33" x2="609.6601" y1="912.1306" y2="912.1306"/><g data-visibility-modifier="PUBLIC_METHOD"><ellipse cx="404.33" cy="923.4509" fill="#FFFFFF" rx="3" ry="3" style="stroke:#000000;stroke-width:1;"/></g><text fill="#334155" font-family="Verdana" font-size="10" lengthAdjust="spacing" text-decoration="underline" textLength="193.3301" x="411.33" y="925.4129">get_cve_details(cve_id): Optional[Dict]</text></g><g class="entity" data-qualified-name="agent2.GMN11" data-source-line="111" id="ent0012"><path d="M748.2,242.4694 L748.2,263.5894 L736.3,267.5894 L748.2,271.5894 L748.2,291.0319 A4,4 0 0 0 752.2,295.0319 L893.7938,295.0319 A4,4 0 0 0 897.7938,291.0319 L897.7938,248.4694 L887.7938,238.4694 L752.2,238.4694 A4,4 0 0 0 748.2,242.4694" fill="#FEF9C3" style="stroke:#FCD34D;stroke-width:1;"/><path d="M887.7938,238.4694 L887.7938,246.4694 A2,2 0 0 0 889.7938,248.4694 L897.7938,248.4694 L887.7938,238.4694" fill="#FEF9C3" style="stroke:#FCD34D;stroke-width:1;"/><text fill="#1E293B" font-family="Verdana" font-size="10" lengthAdjust="spacing" textLength="128.5938" x="754.2" y="252.7516">Singleton &#8212; registado via</text><text fill="#1E293B" font-family="Verdana" font-size="10" lengthAdjust="spacing" textLength="109.6094" x="754.2" y="264.3922">_set_global_reporter()</text><text fill="#1E293B" font-family="Verdana" font-size="10" lengthAdjust="spacing" textLength="58.0859" x="754.2" y="276.0329">Acedido via</text><text fill="#1E293B" font-family="Verdana" font-size="10" lengthAdjust="spacing" textLength="105.7471" x="754.2" y="287.6735">get_global_reporter()</text></g><g class="entity" data-qualified-name="agent2.GMN14" data-source-line="119" id="ent0015"><path d="M37.78,882.8494 L37.78,919.7713 A4,4 0 0 0 41.78,923.7713 L202.2165,923.7713 A4,4 0 0 0 206.2165,919.7713 L206.2165,888.8494 L196.2165,878.8494 L126,878.8494 L122,709.4194 L118,878.8494 L41.78,878.8494 A4,4 0 0 0 37.78,882.8494" fill="#FEF9C3" style="stroke:#FCD34D;stroke-width:1;"/><path d="M196.2165,878.8494 L196.2165,886.8494 A2,2 0 0 0 198.2165,888.8494 L206.2165,888.8494 L196.2165,878.8494" fill="#FEF9C3" style="stroke:#FCD34D;stroke-width:1;"/><text fill="#1E293B" font-family="Verdana" font-size="10" lengthAdjust="spacing" textLength="147.4365" x="43.78" y="893.1316">Cache em mem&#243;ria indexada</text><text fill="#1E293B" font-family="Verdana" font-size="10" lengthAdjust="spacing" textLength="109.6533" x="43.78" y="904.7722">por Number e alert_id</text><text fill="#1E293B" font-family="Verdana" font-size="10" lengthAdjust="spacing" textLength="118.0127" x="43.78" y="916.4129">Lida do dataset original</text></g><g class="entity" data-qualified-name="agent2.GMN17" data-source-line="125" id="ent0018"><path d="M622.45,877.0294 L622.45,925.5919 A4,4 0 0 0 626.45,929.5919 L837.5555,929.5919 A4,4 0 0 0 841.5555,925.5919 L841.5555,883.0294 L831.5555,873.0294 L626.45,873.0294 A4,4 0 0 0 622.45,877.0294" fill="#FEF9C3" style="stroke:#FCD34D;stroke-width:1;"/><path d="M831.5555,873.0294 L831.5555,881.0294 A2,2 0 0 0 833.5555,883.0294 L841.5555,883.0294 L831.5555,873.0294" fill="#FEF9C3" style="stroke:#FCD34D;stroke-width:1;"/><text fill="#1E293B" font-family="Verdana" font-size="10" lengthAdjust="spacing" textLength="109.7021" x="628.45" y="887.3116">Prompt estruturado &#8594;</text><text fill="#1E293B" font-family="Verdana" font-size="10" lengthAdjust="spacing" textLength="157.7051" x="628.45" y="898.9522">LLM (Ollama/Anthropic/OpenAI)</text><text fill="#1E293B" font-family="Verdana" font-size="10" lengthAdjust="spacing" textLength="81.9287" x="628.45" y="910.5929">&#8594; JSON validado</text><text fill="#1E293B" font-family="Verdana" font-size="10" lengthAdjust="spacing" textLength="198.1055" x="628.45" y="922.2335">Fallback rule-based se LLM indispon&#237;vel</text></g><!--link IncidentAnalyzer to GMN17--><g class="link" data-entity-1="ent0005" data-entity-2="ent0018" data-link-type="association" data-source-line="125" id="lnk19"><path d="M477.66,708.5894 C556.15,708.5894 646.45,708.5894 646.45,708.5894 C646.45,708.5894 646.45,819.2594 646.45,872.8694" fill="none" id="IncidentAnalyzer-GMN17" style="stroke:#64748B;stroke-width:1;stroke-dasharray:7,7;"/></g><!--link GraphReporter to AlertLoader--><g class="link" data-entity-1="ent0003" data-entity-2="ent0004" data-link-type="dependency" data-source-line="135" id="lnk20"><path codeLine="135" d="M423.66,267.5894 C294.76,267.5894 133,267.5894 133,267.5894 C133,267.5894 133,488.9594 133,595.5294" fill="none" id="GraphReporter-to-AlertLoader" style="stroke:#64748B;stroke-width:1;stroke-dasharray:7,7;"/><polygon fill="#64748B" points="133,601.5294,137,592.5294,133,596.5294,129,592.5294,133,601.5294" style="stroke:#64748B;stroke-width:1;"/><text fill="#475569" font-family="Verdana" font-size="10" lengthAdjust="spacing" textLength="35.1465" x="97" y="286.5116">&#171;uses&#187;</text></g><!--link GraphReporter to IncidentAnalyzer--><g class="link" data-entity-1="ent0003" data-entity-2="ent0005" data-link-type="dependency" data-source-line="136" id="lnk21"><path codeLine="136" d="M450.6,446.3194 C450.6,500.0294 450.6,549.2494 450.6,589.4594" fill="none" id="GraphReporter-to-IncidentAnalyzer" style="stroke:#64748B;stroke-width:1;stroke-dasharray:7,7;"/><polygon fill="#64748B" points="450.6,595.4594,454.6,586.4594,450.6,590.4594,446.6,586.4594,450.6,595.4594" style="stroke:#64748B;stroke-width:1;"/><text fill="#475569" font-family="Verdana" font-size="10" lengthAdjust="spacing" textLength="35.1465" x="403.1674" y="506.1716">&#171;uses&#187;</text><text fill="#475569" font-family="Verdana" font-size="10" lengthAdjust="spacing" textLength="58.2813" x="391.6" y="517.8122">[_HAS_LLM]</text></g><!--link GraphReporter to DataExtractor--><g class="link" data-entity-1="ent0003" data-entity-2="ent0006" data-link-type="dependency" data-source-line="137" id="lnk22"><path codeLine="137" d="M580,446.3194 C580,508.3794 580,566.4694 580,607.0694" fill="none" id="GraphReporter-to-DataExtractor" style="stroke:#64748B;stroke-width:1;stroke-dasharray:7,7;"/><polygon fill="#64748B" points="580,613.0694,584,604.0694,580,608.0694,576,604.0694,580,613.0694" style="stroke:#64748B;stroke-width:1;"/><text fill="#475569" font-family="Verdana" font-size="10" lengthAdjust="spacing" textLength="35.1465" x="513.3354" y="514.9716">&#171;uses&#187;</text><text fill="#475569" font-family="Verdana" font-size="10" lengthAdjust="spacing" textLength="97.8174" x="482" y="526.6122">[_HAS_ANALYZERS]</text></g><!--link GraphReporter to CISOReportGenerator--><g class="link" data-entity-1="ent0003" data-entity-2="ent0008" data-link-type="dependency" data-source-line="138" id="lnk23"><path codeLine="138" d="M709.22,446.3194 C709.22,506.7894 709.22,563.1794 709.22,603.8994" fill="none" id="GraphReporter-to-CISOReportGenerator" style="stroke:#64748B;stroke-width:1;stroke-dasharray:7,7;"/><polygon fill="#64748B" points="709.22,609.8994,713.22,600.8994,709.22,604.8994,705.22,600.8994,709.22,609.8994" style="stroke:#64748B;stroke-width:1;"/><text fill="#475569" font-family="Verdana" font-size="10" lengthAdjust="spacing" textLength="35.1465" x="655.7469" y="513.3916">&#171;uses&#187;</text><text fill="#475569" font-family="Verdana" font-size="10" lengthAdjust="spacing" textLength="70.2002" x="638.22" y="525.0322">[_HAS_LATEX]</text></g><!--link GraphReporter to SOCReportGenerator--><g class="link" data-entity-1="ent0003" data-entity-2="ent0009" data-link-type="dependency" data-source-line="139" id="lnk24"><path codeLine="139" d="M736.27,370.5894 C901.03,370.5894 1137,370.5894 1137,370.5894 C1137,370.5894 1137,531.1494 1137,609.5494" fill="none" id="GraphReporter-to-SOCReportGenerator" style="stroke:#64748B;stroke-width:1;stroke-dasharray:7,7;"/><polygon fill="#64748B" points="1137,615.5494,1141,606.5494,1137,610.5494,1133,606.5494,1137,615.5494" style="stroke:#64748B;stroke-width:1;"/><text fill="#475569" font-family="Verdana" font-size="10" lengthAdjust="spacing" textLength="35.1465" x="1005.6469" y="355.8716">&#171;uses&#187;</text><text fill="#475569" font-family="Verdana" font-size="10" lengthAdjust="spacing" textLength="70.2002" x="988.12" y="367.5122">[_HAS_LATEX]</text></g><!--link IncidentAnalyzer to MITREMapper--><g class="link" data-entity-1="ent0005" data-entity-2="ent0007" data-link-type="dependency" data-source-line="140" id="lnk25"><path codeLine="140" d="M316.25,715.2894 C316.25,761.9094 316.25,819.1394 316.25,858.5694" fill="none" id="IncidentAnalyzer-to-MITREMapper" style="stroke:#64748B;stroke-width:1;stroke-dasharray:7,7;"/><polygon fill="#64748B" points="316.25,864.5694,320.25,855.5694,316.25,859.5694,312.25,855.5694,316.25,864.5694" style="stroke:#64748B;stroke-width:1;"/><text fill="#475569" font-family="Verdana" font-size="10" lengthAdjust="spacing" textLength="35.1465" x="280.25" y="787.2116">&#171;uses&#187;</text></g><!--link IncidentAnalyzer to CVERepository--><g class="link" data-entity-1="ent0005" data-entity-2="ent0010" data-link-type="dependency" data-source-line="141" id="lnk26"><path codeLine="141" d="M435.3,715.2894 C435.3,764.3294 435.3,825.7394 435.3,864.4994" fill="none" id="IncidentAnalyzer-to-CVERepository" style="stroke:#64748B;stroke-width:1;stroke-dasharray:7,7;"/><polygon fill="#64748B" points="435.3,870.4994,439.3,861.4994,435.3,865.4994,431.3,861.4994,435.3,870.4994" style="stroke:#64748B;stroke-width:1;"/><text fill="#475569" font-family="Verdana" font-size="10" lengthAdjust="spacing" textLength="35.1465" x="399.3" y="790.1716">&#171;uses&#187;</text></g><?plantuml-src tLVDRjj64BxhAQRf8NAgf95_4bi83B2oahYGxTHAYhP9GAp8eRJmSfVTNJfnWW0zzLmKxJFqr5FH9_2Rv4awonzhHJAjSoeGmGAfcM_-VtPz4zx__ikdyTUx2GU7mQFJu2Y08Rp_wJSOJuFPR38ZngSJPEypkyGK8HECovuvup9ZcgKWk4HxaI4eRPVAOqWLey4CXfiUKJDvLX1txlPyiifb72ajKSEkHv-pw6nHCCTAA0sV9yN7GyIOi5pOXqhQ2ZB4pRsjUJTanjyW3EzwpB5WndobT8owaj_RPblptHQavSbkmfAe2VFyk9iCxs-o9k0nCZBLqeQRk9kq_0girNoUM_JKRcrj3tTsciYPHOtArS63tjk-lxthPoBGMhtwLwOdlNr_P-VUdWSuLXRRQS1aBzfgelny9b6yjHrxY2UaWotMGT4yti5X1-W3QUzPRWL2i41fORCOkWFE5YJ9gDvbJj3qUbcf1cumXzoy0MzxFO38iU6HPjdo53DgN6gxjqG7k0qXyMoOQHKXgOZ3ICc4wvHPhcIOcX4aGZ5RWqahQcO9fmj5n9zoOvyVyCY-lDAeehCHd4xfKPDqBYMNYn7CbH8rCLD2X5oID-TCZ83UhZWeOuA7F-QOumYSzffLa2eJleNk2CY_6ThdnkhQkxV64YTw1-4tpoRF9k73m-baHEcton9mktXy0UHnVsC4vuh75SLObJL8rAwB1Ueg6Q5Kh_g2pL4CmD1qum2ieIz7FO0KQLt46-iPMA0D5wuiJk_ZYqpHpZ7S59NoCH9VhOVby4NYd-QPm9SjVGvjyRLrE3zxTVt2Y1jLkTslD6CyW4gi9MK96waqfRfK3fHHTOeMZdafh-GNkM1MwOkGfzIcjj3GC6JOETPUbOyDlpOGOifj2-1dbELMrQaABKzHvTQiLSrfaKKN_NUjVA4OozOpUUGQhHHkOAecB9kqQPNcA5vnMc6lo_JUhGOt4AZjLBb52WyUv9OBRY_szwz6UDNI4OkMrRou0Wp0dyi6h3L3TUTVuLpPcBDjmZbLBJRzufTxs-YO-vN-USv5N5fP2zNJpINDFATcyjFanNme8nxJ2Wia4nTlkWDlESnACEsKKhZ_Gf8-r-agAxfs0DcIqQ8SG1b9H9lM3XpAxK_N0D6vut8LcO9CxQOnj1Wj9QS2kRXF2bLCV23sX0dXZl6mS8Q6-NfEhDBa9U60MJPvRJLDYxfU1h14XsKuPRrCQoGx15pS7m6d156LPInm9TJs_-ZmwUdaY6NPDUld6cwLwp1HEYnJLUImV6rsdcTkV3WxAS-tH-MQKxffgjv_VHfnHjt71b3NYHHJnFL8acrQjSK68U_Ip1D8JNY65mEuvMfARmr95qGD3gd9Sz_OhJQ-71Pdo5qjGxgKkELQ_hf2Ub7EJiR_Vv0Vw_Jusubpsd1t05ox5wWfQUrQneNfktSUTyqVcUb9keK17SPB2ofPl-aGOaPt2O5MoUBYH2SHDH2B5PnpHjpGk5DJg3aJrT62khz1Z232c5_15fqeEX316Qzzc2jhLUgSyBOsIO_TCWHCwMn9B__IdD46ZF4rPPkOf0sEytHEOu9GxrYYJsb10ZdWIa9EqhySVC4fTCzgmsXpRPAI9rgbcGMgiCvjhbtSxt_-rMcV7a7_H0YwGtuPIBlKAkFHboTqzmeENVY4Wgzd9yTGRkfO4UrXjTteUYJmzfoyYi5WeOhYuIPJylBFS_GzT2VPJJX5mIx_kFoRBgdhzz0xT_RN3hYHwmwQy_tz3c3hL5YXNyZduUDW5f8hBpiarrTfMomu3gRV_p0vdNK9TosM3il1qybtNU8T4_j1wLQ4Je6_HxtyT6BN9ss5_WS0?></g></svg>