<svg xmlns="http://www.w3.org/2000/svg" xmlns:xlink="http://www.w3.org/1999/xlink" contentStyleType="text/css" data-diagram-type="DESCRIPTION" height="984px" preserveAspectRatio="none" style="width:2046px;height:984px;background:#FFFFFF;" version="1.1" viewBox="0 0 2046 984" width="2046px" zoomAndPan="magnify"><?plantuml 1.2026.4beta2?><defs/><g><g class="title" data-source-line="27"><text fill="#1E293B" font-family="Verdana" font-size="22" font-weight="700" lengthAdjust="spacing" textLength="625.6787" x="709.5737" y="35.4209">Agent 2 &#8212; Diagrama de Componentes e Interfaces</text></g><!--cluster P2--><g class="cluster" data-qualified-name="P2" data-source-line="29" id="ent0002"><path d="M15,57.6094 L161.5645,57.6094 A6,6 0 0 1 165.5645,61.6094 L172.5645,75.25 L1363,75.25 A4,4 0 0 1 1367,79.25 L1367,489.2994 A4,4 0 0 1 1363,493.2994 L15,493.2994 A4,4 0 0 1 11,489.2994 L11,61.6094 A4,4 0 0 1 15,57.6094" fill="#F1F5F9" style="stroke:#CBD5E1;stroke-width:1;"/><line style="stroke:#CBD5E1;stroke-width:1;" x1="11" x2="172.5645" y1="75.25" y2="75.25"/><text fill="#1E293B" font-family="Verdana" font-size="10" font-weight="700" lengthAdjust="spacing" textLength="148.5645" x="15" y="68.8916">Agent 2 &#8212; Graph Reporter</text></g><!--cluster P1--><g class="cluster" data-qualified-name="P1" data-source-line="72" id="ent0029"><path d="M1399,347.4494 L1516.5215,347.4494 A6,6 0 0 1 1520.5215,351.4494 L1527.5215,365.09 L1787,365.09 A4,4 0 0 1 1791,369.09 L1791,489.2994 A4,4 0 0 1 1787,493.2994 L1399,493.2994 A4,4 0 0 1 1395,489.2994 L1395,351.4494 A4,4 0 0 1 1399,347.4494" fill="#F1F5F9" style="stroke:#CBD5E1;stroke-width:1;"/><line style="stroke:#CBD5E1;stroke-width:1;" x1="1395" x2="1527.5215" y1="365.09" y2="365.09"/><text fill="#1E293B" font-family="Verdana" font-size="10" font-weight="700" lengthAdjust="spacing" textLength="119.5215" x="1399" y="358.7316">Agent 1 &#8212; Partilhado</text></g><!--cluster PSSE--><g class="cluster" data-qualified-name="PSSE" data-source-line="81" id="ent0035"><path d="M1823,376.5594 L1918.1777,376.5594 A6,6 0 0 1 1922.1777,380.5594 L1929.1777,394.2 L2021,394.2 A4,4 0 0 1 2025,398.2 L2025,460.1994 A4,4 0 0 1 2021,464.1994 L1823,464.1994 A4,4 0 0 1 1819,460.1994 L1819,380.5594 A4,4 0 0 1 1823,376.5594" fill="#F1F5F9" style="stroke:#CBD5E1;stroke-width:1;"/><line style="stroke:#CBD5E1;stroke-width:1;" x1="1819" x2="1929.1777" y1="394.2" y2="394.2"/><text fill="#1E293B" font-family="Verdana" font-size="10" font-weight="700" lengthAdjust="spacing" textLength="97.1777" x="1823" y="387.8416">SSE Server :5001</text></g><!--cluster PTEX--><g class="cluster" data-qualified-name="PTEX" data-source-line="87" id="ent0039"><path d="M830,643.1194 L940.1289,643.1194 A6,6 0 0 1 944.1289,647.1194 L951.1289,660.76 L1014,660.76 A4,4 0 0 1 1018,664.76 L1018,726.7594 A4,4 0 0 1 1014,730.7594 L830,730.7594 A4,4 0 0 1 826,726.7594 L826,647.1194 A4,4 0 0 1 830,643.1194" fill="#F1F5F9" style="stroke:#CBD5E1;stroke-width:1;"/><line style="stroke:#CBD5E1;stroke-width:1;" x1="826" x2="951.1289" y1="660.76" y2="660.76"/><text fill="#1E293B" font-family="Verdana" font-size="10" font-weight="700" lengthAdjust="spacing" textLength="112.1289" x="830" y="654.4016">Texer / LaTeX :5002</text></g><!--cluster PLLM--><g class="cluster" data-qualified-name="PLLM" data-source-line="93" id="ent0043"><path d="M257,629.2994 L328.5254,629.2994 A6,6 0 0 1 332.5254,633.2994 L339.5254,646.94 L553,646.94 A4,4 0 0 1 557,650.94 L557,740.5794 A4,4 0 0 1 553,744.5794 L257,744.5794 A4,4 0 0 1 253,740.5794 L253,633.2994 A4,4 0 0 1 257,629.2994" fill="#F1F5F9" style="stroke:#CBD5E1;stroke-width:1;"/><line style="stroke:#CBD5E1;stroke-width:1;" x1="253" x2="339.5254" y1="646.94" y2="646.94"/><text fill="#1E293B" font-family="Verdana" font-size="10" font-weight="700" lengthAdjust="spacing" textLength="73.5254" x="257" y="640.5816">LLM Runtime</text></g><!--cluster POUT--><g class="cluster" data-qualified-name="POUT" data-source-line="99" id="ent0047"><path d="M954,872.5794 L1052.7617,872.5794 A6,6 0 0 1 1056.7617,876.5794 L1063.7617,890.22 L1776,890.22 A4,4 0 0 1 1780,894.22 L1780,965.2194 A4,4 0 0 1 1776,969.2194 L954,969.2194 A4,4 0 0 1 950,965.2194 L950,876.5794 A4,4 0 0 1 954,872.5794" fill="#F1F5F9" style="stroke:#CBD5E1;stroke-width:1;"/><line style="stroke:#CBD5E1;stroke-width:1;" x1="950" x2="1063.7617" y1="890.22" y2="890.22"/><text fill="#1E293B" font-family="Verdana" font-size="10" font-weight="700" lengthAdjust="spacing" textLength="100.7617" x="954" y="883.8616">Sa&#237;da / Artefactos</text></g><!--entity GR--><g class="entity" data-qualified-name="P2.GR" data-source-line="30" id="ent0003"><rect fill="#F8FAFC" height="99.8438" rx="4" ry="4" style="stroke:#94A3B8;stroke-width:1;" width="127.5293" x="697.24" y="87.6094"/><rect fill="#F8FAFC" height="10" style="stroke:#94A3B8;stroke-width:1;" width="15" x="804.7693" y="92.6094"/><rect fill="#F8FAFC" height="2" style="stroke:#94A3B8;stroke-width:1;" width="4" x="802.7693" y="94.6094"/><rect fill="#F8FAFC" height="2" style="stroke:#94A3B8;stroke-width:1;" width="4" x="802.7693" y="98.6094"/><text fill="#0F172A" font-family="Verdana" font-size="10" lengthAdjust="spacing" textLength="3.1787" x="712.24" y="116.8916">&#160;</text><text fill="#0F172A" font-family="Verdana" font-size="10" lengthAdjust="spacing" textLength="3.1787" x="712.24" y="128.5322">&#160;</text><text fill="#0F172A" font-family="Verdana" font-size="10" lengthAdjust="spacing" textLength="74.5361" x="712.24" y="140.1729">GraphReporter</text><text fill="#0F172A" font-family="Verdana" font-size="10" lengthAdjust="spacing" textLength="87.5293" x="712.24" y="151.8135">Thread de polling</text><text fill="#0F172A" font-family="Verdana" font-size="10" lengthAdjust="spacing" textLength="3.1787" x="712.24" y="163.4541">&#160;</text><text fill="#0F172A" font-family="Verdana" font-size="10" lengthAdjust="spacing" textLength="3.1787" x="712.24" y="175.0947">&#160;</text></g><!--entity AL--><g class="entity" data-qualified-name="P2.AL" data-source-line="31" id="ent0004"><rect fill="#F8FAFC" height="99.8438" rx="4" ry="4" style="stroke:#94A3B8;stroke-width:1;" width="124.3848" x="210.81" y="377.4494"/><rect fill="#F8FAFC" height="10" style="stroke:#94A3B8;stroke-width:1;" width="15" x="315.1948" y="382.4494"/><rect fill="#F8FAFC" height="2" style="stroke:#94A3B8;stroke-width:1;" width="4" x="313.1948" y="384.4494"/><rect fill="#F8FAFC" height="2" style="stroke:#94A3B8;stroke-width:1;" width="4" x="313.1948" y="388.4494"/><text fill="#0F172A" font-family="Verdana" font-size="10" lengthAdjust="spacing" textLength="3.1787" x="225.81" y="406.7316">&#160;</text><text fill="#0F172A" font-family="Verdana" font-size="10" lengthAdjust="spacing" textLength="3.1787" x="225.81" y="418.3722">&#160;</text><text fill="#0F172A" font-family="Verdana" font-size="10" lengthAdjust="spacing" textLength="58.2324" x="225.81" y="430.0129">AlertLoader</text><text fill="#0F172A" font-family="Verdana" font-size="10" lengthAdjust="spacing" textLength="84.3848" x="225.81" y="441.6535">Cache de alertas</text><text fill="#0F172A" font-family="Verdana" font-size="10" lengthAdjust="spacing" textLength="3.1787" x="225.81" y="453.2941">&#160;</text><text fill="#0F172A" font-family="Verdana" font-size="10" lengthAdjust="spacing" textLength="3.1787" x="225.81" y="464.9347">&#160;</text></g><!--entity IA--><g class="entity" data-qualified-name="P2.IA" data-source-line="32" id="ent0005"><rect fill="#F8FAFC" height="99.8438" rx="4" ry="4" style="stroke:#94A3B8;stroke-width:1;" width="123.8379" x="27.08" y="377.4494"/><rect fill="#F8FAFC" height="10" style="stroke:#94A3B8;stroke-width:1;" width="15" x="130.9179" y="382.4494"/><rect fill="#F8FAFC" height="2" style="stroke:#94A3B8;stroke-width:1;" width="4" x="128.9179" y="384.4494"/><rect fill="#F8FAFC" height="2" style="stroke:#94A3B8;stroke-width:1;" width="4" x="128.9179" y="388.4494"/><text fill="#0F172A" font-family="Verdana" font-size="10" lengthAdjust="spacing" textLength="3.1787" x="42.08" y="406.7316">&#160;</text><text fill="#0F172A" font-family="Verdana" font-size="10" lengthAdjust="spacing" textLength="3.1787" x="42.08" y="418.3722">&#160;</text><text fill="#0F172A" font-family="Verdana" font-size="10" lengthAdjust="spacing" textLength="83.8379" x="42.08" y="430.0129">IncidentAnalyzer</text><text fill="#0F172A" font-family="Verdana" font-size="10" lengthAdjust="spacing" textLength="64.3262" x="42.08" y="441.6535">LLM wrapper</text><text fill="#0F172A" font-family="Verdana" font-size="10" lengthAdjust="spacing" textLength="3.1787" x="42.08" y="453.2941">&#160;</text><text fill="#0F172A" font-family="Verdana" font-size="10" lengthAdjust="spacing" textLength="3.1787" x="42.08" y="464.9347">&#160;</text></g><!--entity DE--><g class="entity" data-qualified-name="P2.DE" data-source-line="33" id="ent0006"><rect fill="#F8FAFC" height="99.8438" rx="4" ry="4" style="stroke:#94A3B8;stroke-width:1;" width="122.9785" x="1040.51" y="87.6094"/><rect fill="#F8FAFC" height="10" style="stroke:#94A3B8;stroke-width:1;" width="15" x="1143.4885" y="92.6094"/><rect fill="#F8FAFC" height="2" style="stroke:#94A3B8;stroke-width:1;" width="4" x="1141.4885" y="94.6094"/><rect fill="#F8FAFC" height="2" style="stroke:#94A3B8;stroke-width:1;" width="4" x="1141.4885" y="98.6094"/><text fill="#0F172A" font-family="Verdana" font-size="10" lengthAdjust="spacing" textLength="3.1787" x="1055.51" y="116.8916">&#160;</text><text fill="#0F172A" font-family="Verdana" font-size="10" lengthAdjust="spacing" textLength="3.1787" x="1055.51" y="128.5322">&#160;</text><text fill="#0F172A" font-family="Verdana" font-size="10" lengthAdjust="spacing" textLength="69.9219" x="1055.51" y="140.1729">DataExtractor</text><text fill="#0F172A" font-family="Verdana" font-size="10" lengthAdjust="spacing" textLength="82.9785" x="1055.51" y="151.8135">IoC / Asset / CVE</text><text fill="#0F172A" font-family="Verdana" font-size="10" lengthAdjust="spacing" textLength="3.1787" x="1055.51" y="163.4541">&#160;</text><text fill="#0F172A" font-family="Verdana" font-size="10" lengthAdjust="spacing" textLength="3.1787" x="1055.51" y="175.0947">&#160;</text></g><!--entity CG--><g class="entity" data-qualified-name="P2.CG" data-source-line="34" id="ent0007"><rect fill="#F8FAFC" height="99.8438" rx="4" ry="4" style="stroke:#94A3B8;stroke-width:1;" width="148.5303" x="918.73" y="377.4494"/><rect fill="#F8FAFC" height="10" style="stroke:#94A3B8;stroke-width:1;" width="15" x="1047.2603" y="382.4494"/><rect fill="#F8FAFC" height="2" style="stroke:#94A3B8;stroke-width:1;" width="4" x="1045.2603" y="384.4494"/><rect fill="#F8FAFC" height="2" style="stroke:#94A3B8;stroke-width:1;" width="4" x="1045.2603" y="388.4494"/><text fill="#0F172A" font-family="Verdana" font-size="10" lengthAdjust="spacing" textLength="3.1787" x="933.73" y="406.7316">&#160;</text><text fill="#0F172A" font-family="Verdana" font-size="10" lengthAdjust="spacing" textLength="3.1787" x="933.73" y="418.3722">&#160;</text><text fill="#0F172A" font-family="Verdana" font-size="10" lengthAdjust="spacing" textLength="108.5303" x="933.73" y="430.0129">CISOReportGenerator</text><text fill="#0F172A" font-family="Verdana" font-size="10" lengthAdjust="spacing" textLength="58.1396" x="933.73" y="441.6535">LaTeX CISO</text><text fill="#0F172A" font-family="Verdana" font-size="10" lengthAdjust="spacing" textLength="3.1787" x="933.73" y="453.2941">&#160;</text><text fill="#0F172A" font-family="Verdana" font-size="10" lengthAdjust="spacing" textLength="3.1787" x="933.73" y="464.9347">&#160;</text></g><!--entity SG--><g class="entity" data-qualified-name="P2.SG" data-source-line="35" id="ent0008"><rect fill="#F8FAFC" height="99.8438" rx="4" ry="4" style="stroke:#94A3B8;stroke-width:1;" width="145.5811" x="1127.21" y="377.4494"/><rect fill="#F8FAFC" height="10" style="stroke:#94A3B8;stroke-width:1;" width="15" x="1252.7911" y="382.4494"/><rect fill="#F8FAFC" height="2" style="stroke:#94A3B8;stroke-width:1;" width="4" x="1250.7911" y="384.4494"/><rect fill="#F8FAFC" height="2" style="stroke:#94A3B8;stroke-width:1;" width="4" x="1250.7911" y="388.4494"/><text fill="#0F172A" font-family="Verdana" font-size="10" lengthAdjust="spacing" textLength="3.1787" x="1142.21" y="406.7316">&#160;</text><text fill="#0F172A" font-family="Verdana" font-size="10" lengthAdjust="spacing" textLength="3.1787" x="1142.21" y="418.3722">&#160;</text><text fill="#0F172A" font-family="Verdana" font-size="10" lengthAdjust="spacing" textLength="105.5811" x="1142.21" y="430.0129">SOCReportGenerator</text><text fill="#0F172A" font-family="Verdana" font-size="10" lengthAdjust="spacing" textLength="55.1904" x="1142.21" y="441.6535">LaTeX SOC</text><text fill="#0F172A" font-family="Verdana" font-size="10" lengthAdjust="spacing" textLength="3.1787" x="1142.21" y="453.2941">&#160;</text><text fill="#0F172A" font-family="Verdana" font-size="10" lengthAdjust="spacing" textLength="3.1787" x="1142.21" y="464.9347">&#160;</text></g><!--entity MM--><g class="entity" data-qualified-name="P2.MM" data-source-line="36" id="ent0009"><rect fill="#F8FAFC" height="99.8438" rx="4" ry="4" style="stroke:#94A3B8;stroke-width:1;" width="127.6025" x="1223.2" y="87.6094"/><rect fill="#F8FAFC" height="10" style="stroke:#94A3B8;stroke-width:1;" width="15" x="1330.8025" y="92.6094"/><rect fill="#F8FAFC" height="2" style="stroke:#94A3B8;stroke-width:1;" width="4" x="1328.8025" y="94.6094"/><rect fill="#F8FAFC" height="2" style="stroke:#94A3B8;stroke-width:1;" width="4" x="1328.8025" y="98.6094"/><text fill="#0F172A" font-family="Verdana" font-size="10" lengthAdjust="spacing" textLength="3.1787" x="1238.2" y="116.8916">&#160;</text><text fill="#0F172A" font-family="Verdana" font-size="10" lengthAdjust="spacing" textLength="3.1787" x="1238.2" y="128.5322">&#160;</text><text fill="#0F172A" font-family="Verdana" font-size="10" lengthAdjust="spacing" textLength="68.667" x="1238.2" y="140.1729">MITREMapper</text><text fill="#0F172A" font-family="Verdana" font-size="10" lengthAdjust="spacing" textLength="87.6025" x="1238.2" y="151.8135">ATT&amp;CK mapping</text><text fill="#0F172A" font-family="Verdana" font-size="10" lengthAdjust="spacing" textLength="3.1787" x="1238.2" y="163.4541">&#160;</text><text fill="#0F172A" font-family="Verdana" font-size="10" lengthAdjust="spacing" textLength="3.1787" x="1238.2" y="175.0947">&#160;</text></g><!--entity ICONF--><g class="entity" data-qualified-name="P2.ICONF" data-source-line="38" id="ent0010"><ellipse cx="972" cy="137.5294" fill="#E2E8F0" rx="8" ry="8" style="stroke:#64748B;stroke-width:1;"/><text fill="#1E293B" font-family="Verdana" font-size="10" lengthAdjust="spacing" textLength="3.1787" x="900.7329" y="163.8116">&#160;</text><text fill="#1E293B" font-family="Verdana" font-size="10" lengthAdjust="spacing" textLength="3.1787" x="900.7329" y="175.4522">&#160;</text><text fill="#1E293B" font-family="Verdana" font-size="10" lengthAdjust="spacing" textLength="73.0322" x="900.7329" y="187.0929">IConfirmations</text><text fill="#1E293B" font-family="Verdana" font-size="10" lengthAdjust="spacing" textLength="142.5342" x="900.7329" y="198.7335">get_confirmed_hypotheses()</text></g><!--entity IGCTX--><g class="entity" data-qualified-name="P2.IGCTX" data-source-line="39" id="ent0011"><ellipse cx="894" cy="137.5294" fill="#E2E8F0" rx="8" ry="8" style="stroke:#64748B;stroke-width:1;"/><text fill="#1E293B" font-family="Verdana" font-size="10" lengthAdjust="spacing" textLength="72.9736" x="849.5859" y="163.8116">IGraphContext</text><text fill="#1E293B" font-family="Verdana" font-size="10" lengthAdjust="spacing" textLength="88.8281" x="849.5859" y="175.4522">get_graph_state()</text></g><!--entity IALERT--><g class="entity" data-qualified-name="P2.IALERT" data-source-line="40" id="ent0012"><ellipse cx="1342" cy="427.3794" fill="#E2E8F0" rx="8" ry="8" style="stroke:#64748B;stroke-width:1;"/><text fill="#1E293B" font-family="Verdana" font-size="10" lengthAdjust="spacing" textLength="50.6299" x="1294.937" y="453.6616">IAlertData</text><text fill="#1E293B" font-family="Verdana" font-size="10" lengthAdjust="spacing" textLength="94.126" x="1294.937" y="465.3022">get_alerts_by_ids()</text></g><!--entity ILLM--><g class="entity" data-qualified-name="P2.ILLM" data-source-line="41" id="ent0013"><ellipse cx="404" cy="427.3794" fill="#E2E8F0" rx="8" ry="8" style="stroke:#64748B;stroke-width:1;"/><text fill="#1E293B" font-family="Verdana" font-size="10" lengthAdjust="spacing" textLength="63.9209" x="358.1772" y="453.6616">ILLMAnalysis</text><text fill="#1E293B" font-family="Verdana" font-size="10" lengthAdjust="spacing" textLength="91.6455" x="358.1772" y="465.3022">analyze_incident()</text></g><!--entity ILATEX--><g class="entity" data-qualified-name="P2.ILATEX" data-source-line="42" id="ent0014"><ellipse cx="772" cy="427.3794" fill="#E2E8F0" rx="8" ry="8" style="stroke:#64748B;stroke-width:1;"/><text fill="#1E293B" font-family="Verdana" font-size="10" lengthAdjust="spacing" textLength="33.7598" x="745.4473" y="453.6616">ILaTeX</text><text fill="#1E293B" font-family="Verdana" font-size="10" lengthAdjust="spacing" textLength="53.1055" x="745.4473" y="465.3022">generate()</text></g><!--entity IQUEUE--><g class="entity" data-qualified-name="P2.IQUEUE" data-source-line="43" id="ent0015"><ellipse cx="850" cy="427.3794" fill="#E2E8F0" rx="8" ry="8" style="stroke:#64748B;stroke-width:1;"/><text fill="#1E293B" font-family="Verdana" font-size="10" lengthAdjust="spacing" textLength="76.1328" x="798.1104" y="453.6616">IPendingQueue</text><text fill="#1E293B" font-family="Verdana" font-size="10" lengthAdjust="spacing" textLength="103.7793" x="798.1104" y="465.3022">.pending_queue.json</text></g><g class="entity" data-qualified-name="P2.GMN23" data-source-line="54" id="ent0024"><path d="M446.46,95.7894 L446.46,179.2738 A4,4 0 0 0 450.46,183.2738 L633.5332,183.2738 A4,4 0 0 0 637.5332,179.2738 L637.5332,142.2194 L696.95,138.2194 L637.5332,134.2194 L637.5332,101.7894 L627.5332,91.7894 L450.46,91.7894 A4,4 0 0 0 446.46,95.7894" fill="#FEF9C3" style="stroke:#FCD34D;stroke-width:1;"/><path d="M627.5332,91.7894 L627.5332,99.7894 A2,2 0 0 0 629.5332,101.7894 L637.5332,101.7894 L627.5332,91.7894" fill="#FEF9C3" style="stroke:#FCD34D;stroke-width:1;"/><text fill="#1E293B" font-family="Verdana" font-size="10" lengthAdjust="spacing" textLength="143.4766" x="452.46" y="106.0716">Dois caminhos de activa&#231;&#227;o:</text><text fill="#1E293B" font-family="Verdana" font-size="10" lengthAdjust="spacing" textLength="115.6885" x="452.46" y="117.7122">1. trigger_report_now()</text><text fill="#1E293B" font-family="Verdana" font-size="10" lengthAdjust="spacing" textLength="129.0381" x="461.9961" y="129.3529">chamado pelo SSE Server</text><text fill="#1E293B" font-family="Verdana" font-size="10" lengthAdjust="spacing" textLength="129.5898" x="461.9961" y="140.9935">ap&#243;s confirma&#231;&#227;o manual</text><text fill="#1E293B" font-family="Verdana" font-size="10" lengthAdjust="spacing" textLength="83.0518" x="452.46" y="152.6341">2. run() poll loop</text><text fill="#1E293B" font-family="Verdana" font-size="10" lengthAdjust="spacing" textLength="141.4014" x="461.9961" y="164.2747">detecta confirma&#231;&#245;es novas</text><text fill="#1E293B" font-family="Verdana" font-size="10" lengthAdjust="spacing" textLength="160.5371" x="461.9961" y="175.9154">via get_confirmed_hypotheses()</text></g><g class="entity" data-qualified-name="P2.GMN26" data-source-line="64" id="ent0027"><path d="M472.58,397.2694 L472.58,457.4725 A4,4 0 0 0 476.58,461.4725 L699.414,461.4725 A4,4 0 0 0 703.414,457.4725 L703.414,403.2694 L693.414,393.2694 L476.58,393.2694 A4,4 0 0 0 472.58,397.2694" fill="#FEF9C3" style="stroke:#FCD34D;stroke-width:1;"/><path d="M693.414,393.2694 L693.414,401.2694 A2,2 0 0 0 695.414,403.2694 L703.414,403.2694 L693.414,393.2694" fill="#FEF9C3" style="stroke:#FCD34D;stroke-width:1;"/><text fill="#1E293B" font-family="Verdana" font-size="10" lengthAdjust="spacing" textLength="124.0186" x="478.58" y="407.5516">Flags de disponibilidade:</text><text fill="#1E293B" font-family="Verdana" font-size="10" lengthAdjust="spacing" textLength="136.04" x="478.58" y="419.1922">_HAS_LLM      &#8212; LLM activo</text><text fill="#1E293B" font-family="Verdana" font-size="10" lengthAdjust="spacing" textLength="152.6416" x="478.58" y="430.8329">_HAS_LATEX    &#8212; LaTeX activo</text><text fill="#1E293B" font-family="Verdana" font-size="10" lengthAdjust="spacing" textLength="209.834" x="478.58" y="442.4735">_HAS_ANALYZERS &#8212; DataExtractor activo</text><text fill="#1E293B" font-family="Verdana" font-size="10" lengthAdjust="spacing" textLength="169.3262" x="478.58" y="454.1141">Degrada&#231;&#227;o graciosa se ausentes</text></g><!--entity HG--><g class="entity" data-qualified-name="P1.HG" data-source-line="73" id="ent0030"><rect fill="#F8FAFC" height="99.8438" rx="4" ry="4" style="stroke:#94A3B8;stroke-width:1;" width="126.1865" x="1570.91" y="377.4494"/><rect fill="#F8FAFC" height="10" style="stroke:#94A3B8;stroke-width:1;" width="15" x="1677.0965" y="382.4494"/><rect fill="#F8FAFC" height="2" style="stroke:#94A3B8;stroke-width:1;" width="4" x="1675.0965" y="384.4494"/><rect fill="#F8FAFC" height="2" style="stroke:#94A3B8;stroke-width:1;" width="4" x="1675.0965" y="388.4494"/><text fill="#0F172A" font-family="Verdana" font-size="10" lengthAdjust="spacing" textLength="3.1787" x="1585.91" y="406.7316">&#160;</text><text fill="#0F172A" font-family="Verdana" font-size="10" lengthAdjust="spacing" textLength="3.1787" x="1585.91" y="418.3722">&#160;</text><text fill="#0F172A" font-family="Verdana" font-size="10" lengthAdjust="spacing" textLength="86.1865" x="1585.91" y="430.0129">HypothesisGraph</text><text fill="#0F172A" font-family="Verdana" font-size="10" lengthAdjust="spacing" textLength="47.1191" x="1585.91" y="441.6535">Singleton</text><text fill="#0F172A" font-family="Verdana" font-size="10" lengthAdjust="spacing" textLength="3.1787" x="1585.91" y="453.2941">&#160;</text><text fill="#0F172A" font-family="Verdana" font-size="10" lengthAdjust="spacing" textLength="3.1787" x="1585.91" y="464.9347">&#160;</text></g><!--entity DS--><g class="entity" data-qualified-name="P1.DS" data-source-line="74" id="ent0031"><rect fill="#F8FAFC" height="88.2031" rx="4" ry="4" style="stroke:#94A3B8;stroke-width:1;" width="99.2773" x="1411.36" y="383.2694"/><rect fill="#F8FAFC" height="10" style="stroke:#94A3B8;stroke-width:1;" width="15" x="1490.6373" y="388.2694"/><rect fill="#F8FAFC" height="2" style="stroke:#94A3B8;stroke-width:1;" width="4" x="1488.6373" y="390.2694"/><rect fill="#F8FAFC" height="2" style="stroke:#94A3B8;stroke-width:1;" width="4" x="1488.6373" y="394.2694"/><text fill="#0F172A" font-family="Verdana" font-size="10" lengthAdjust="spacing" textLength="3.1787" x="1426.36" y="412.5516">&#160;</text><text fill="#0F172A" font-family="Verdana" font-size="10" lengthAdjust="spacing" textLength="3.1787" x="1426.36" y="424.1922">&#160;</text><text fill="#0F172A" font-family="Verdana" font-size="10" lengthAdjust="spacing" textLength="59.2773" x="1426.36" y="435.8329">Dataset .txt</text><text fill="#0F172A" font-family="Verdana" font-size="10" lengthAdjust="spacing" textLength="3.1787" x="1426.36" y="447.4735">&#160;</text><text fill="#0F172A" font-family="Verdana" font-size="10" lengthAdjust="spacing" textLength="3.1787" x="1426.36" y="459.1141">&#160;</text></g><!--entity IHG--><g class="entity" data-qualified-name="P1.IHG" data-source-line="76" id="ent0032"><ellipse cx="1766" cy="427.3794" fill="#E2E8F0" rx="8" ry="8" style="stroke:#64748B;stroke-width:1;"/><text fill="#1E293B" font-family="Verdana" font-size="10" lengthAdjust="spacing" textLength="33.623" x="1719.0029" y="453.6616">IGraph</text><text fill="#1E293B" font-family="Verdana" font-size="10" lengthAdjust="spacing" textLength="93.9941" x="1719.0029" y="465.3022">get_global_graph()</text></g><!--entity SSE--><g class="entity" data-qualified-name="PSSE.SSE" data-source-line="82" id="ent0036"><rect fill="#F8FAFC" height="41.6406" rx="4" ry="4" style="stroke:#94A3B8;stroke-width:1;" width="95.3369" x="1835.33" y="406.5594"/><rect fill="#F8FAFC" height="10" style="stroke:#94A3B8;stroke-width:1;" width="15" x="1910.6669" y="411.5594"/><rect fill="#F8FAFC" height="2" style="stroke:#94A3B8;stroke-width:1;" width="4" x="1908.6669" y="413.5594"/><rect fill="#F8FAFC" height="2" style="stroke:#94A3B8;stroke-width:1;" width="4" x="1908.6669" y="417.5594"/><text fill="#0F172A" font-family="Verdana" font-size="10" lengthAdjust="spacing" textLength="55.3369" x="1850.33" y="435.8416">SSE Broker</text></g><!--entity IINGEST--><g class="entity" data-qualified-name="PSSE.IINGEST" data-source-line="83" id="ent0037"><ellipse cx="2000" cy="427.3794" fill="#E2E8F0" rx="8" ry="8" style="stroke:#64748B;stroke-width:1;"/><text fill="#1E293B" font-family="Verdana" font-size="10" lengthAdjust="spacing" textLength="63.6523" x="1968.1738" y="453.6616">POST /ingest</text></g><!--entity LATEX--><g class="entity" data-qualified-name="PTEX.LATEX" data-source-line="88" id="ent0040"><rect fill="#F8FAFC" height="41.6406" rx="4" ry="4" style="stroke:#94A3B8;stroke-width:1;" width="81.1133" x="842.44" y="673.1194"/><rect fill="#F8FAFC" height="10" style="stroke:#94A3B8;stroke-width:1;" width="15" x="903.5533" y="678.1194"/><rect fill="#F8FAFC" height="2" style="stroke:#94A3B8;stroke-width:1;" width="4" x="901.5533" y="680.1194"/><rect fill="#F8FAFC" height="2" style="stroke:#94A3B8;stroke-width:1;" width="4" x="901.5533" y="684.1194"/><text fill="#0F172A" font-family="Verdana" font-size="10" lengthAdjust="spacing" textLength="41.1133" x="857.44" y="702.4016">pdflatex</text></g><!--entity ICOMPILE--><g class="entity" data-qualified-name="PTEX.ICOMPILE" data-source-line="89" id="ent0041"><ellipse cx="993" cy="693.9394" fill="#E2E8F0" rx="8" ry="8" style="stroke:#64748B;stroke-width:1;"/><text fill="#1E293B" font-family="Verdana" font-size="10" lengthAdjust="spacing" textLength="113.6133" x="936.1934" y="720.2216">compila&#231;&#227;o .tex &#8594; .pdf</text></g><!--entity LLM--><g class="entity" data-qualified-name="PLLM.LLM" data-source-line="94" id="ent0044"><rect fill="#F8FAFC" height="53.2813" rx="4" ry="4" style="stroke:#94A3B8;stroke-width:1;" width="133.4424" x="277.28" y="667.2994"/><rect fill="#F8FAFC" height="10" style="stroke:#94A3B8;stroke-width:1;" width="15" x="390.7224" y="672.2994"/><rect fill="#F8FAFC" height="2" style="stroke:#94A3B8;stroke-width:1;" width="4" x="388.7224" y="674.2994"/><rect fill="#F8FAFC" height="2" style="stroke:#94A3B8;stroke-width:1;" width="4" x="388.7224" y="678.2994"/><text fill="#0F172A" font-family="Verdana" font-size="10" lengthAdjust="spacing" textLength="93.4424" x="292.28" y="696.5816">Ollama / Anthropic</text><text fill="#0F172A" font-family="Verdana" font-size="10" lengthAdjust="spacing" textLength="43.0469" x="292.28" y="708.2222">/ OpenAI</text></g><!--entity ILLMAPI--><g class="entity" data-qualified-name="PLLM.ILLMAPI" data-source-line="95" id="ent0045"><ellipse cx="480" cy="693.9394" fill="#E2E8F0" rx="8" ry="8" style="stroke:#64748B;stroke-width:1;"/><text fill="#1E293B" font-family="Verdana" font-size="10" lengthAdjust="spacing" textLength="150.3516" x="404.8242" y="720.2216">POST /api/generate/messages</text></g><!--entity JSON--><g class="entity" data-qualified-name="POUT.JSON" data-source-line="100" id="ent0048"><rect fill="#FFFFFF" height="34.6406" rx="4" ry="4" style="stroke:#000000;stroke-width:1;" width="128.6572" x="1433.67" y="910.5794"/><polygon fill="#FFFFFF" points="1545.3272,915.5794,1545.3272,929.5794,1557.3272,929.5794,1557.3272,921.5794,1551.3272,915.5794,1545.3272,915.5794" style="stroke:#000000;stroke-width:1;"/><line style="stroke:#000000;stroke-width:1;" x1="1551.3272" x2="1551.3272" y1="915.5794" y2="921.5794"/><line style="stroke:#000000;stroke-width:1;" x1="1557.3272" x2="1551.3272" y1="921.5794" y2="921.5794"/><text fill="#1E293B" font-family="Verdana" font-size="10" lengthAdjust="spacing" textLength="98.6572" x="1443.67" y="932.8616">graph_report_*.json</text></g><!--entity QFILE--><g class="entity" data-qualified-name="POUT.QFILE" data-source-line="101" id="ent0049"><rect fill="#FFFFFF" height="34.6406" rx="4" ry="4" style="stroke:#000000;stroke-width:1;" width="133.7793" x="1622.11" y="910.5794"/><polygon fill="#FFFFFF" points="1738.8893,915.5794,1738.8893,929.5794,1750.8893,929.5794,1750.8893,921.5794,1744.8893,915.5794,1738.8893,915.5794" style="stroke:#000000;stroke-width:1;"/><line style="stroke:#000000;stroke-width:1;" x1="1744.8893" x2="1744.8893" y1="915.5794" y2="921.5794"/><line style="stroke:#000000;stroke-width:1;" x1="1750.8893" x2="1744.8893" y1="921.5794" y2="921.5794"/><text fill="#1E293B" font-family="Verdana" font-size="10" lengthAdjust="spacing" textLength="103.7793" x="1632.11" y="932.8616">.pending_queue.json</text></g><!--entity CPDF--><g class="entity" data-qualified-name="POUT.CPDF" data-source-line="102" id="ent0050"><rect fill="#FFFFFF" height="34.6406" rx="4" ry="4" style="stroke:#000000;stroke-width:1;" width="149.0332" x="1018.48" y="910.5794"/><polygon fill="#FFFFFF" points="1150.5132,915.5794,1150.5132,929.5794,1162.5132,929.5794,1162.5132,921.5794,1156.5132,915.5794,1150.5132,915.5794" style="stroke:#000000;stroke-width:1;"/><line style="stroke:#000000;stroke-width:1;" x1="1156.5132" x2="1156.5132" y1="915.5794" y2="921.5794"/><line style="stroke:#000000;stroke-width:1;" x1="1162.5132" x2="1156.5132" y1="921.5794" y2="921.5794"/><text fill="#1E293B" font-family="Verdana" font-size="10" lengthAdjust="spacing" textLength="119.0332" x="1028.48" y="932.8616">graph_report_*_ciso.pdf</text></g><!--entity SPDF--><g class="entity" data-qualified-name="POUT.SPDF" data-source-line="103" id="ent0051"><rect fill="#FFFFFF" height="34.6406" rx="4" ry="4" style="stroke:#000000;stroke-width:1;" width="146.2549" x="1227.87" y="910.5794"/><polygon fill="#FFFFFF" points="1357.1249,915.5794,1357.1249,929.5794,1369.1249,929.5794,1369.1249,921.5794,1363.1249,915.5794,1357.1249,915.5794" style="stroke:#000000;stroke-width:1;"/><line style="stroke:#000000;stroke-width:1;" x1="1363.1249" x2="1363.1249" y1="915.5794" y2="921.5794"/><line style="stroke:#000000;stroke-width:1;" x1="1369.1249" x2="1363.1249" y1="921.5794" y2="921.5794"/><text fill="#1E293B" font-family="Verdana" font-size="10" lengthAdjust="spacing" textLength="116.2549" x="1237.87" y="932.8616">graph_report_*_soc.pdf</text></g><!--link GR to ICONF--><g class="link" data-entity-1="ent0003" data-entity-2="ent0010" data-link-type="association" data-source-line="45" id="lnk16"><path d="M825.17,157.2194 C887.24,157.2194 972,157.2194 972,157.2194 C972,157.2194 972,151.9894 972,146.9094" fill="none" id="GR-ICONF" style="stroke:#64748B;stroke-width:1;"/></g><!--link GR to IGCTX--><g class="link" data-entity-1="ent0003" data-entity-2="ent0011" data-link-type="association" data-source-line="46" id="lnk17"><path d="M825.16,138.2194 C848.54,138.2194 872.31,138.2194 884.88,138.2194" fill="none" id="GR-IGCTX" style="stroke:#64748B;stroke-width:1;"/></g><!--link AL to IALERT--><g class="link" data-entity-1="ent0004" data-entity-2="ent0012" data-link-type="association" data-source-line="47" id="lnk18"><path d="M315.89,477.5894 C315.89,515.9294 315.89,562.2194 315.89,562.2194 C315.89,562.2194 1342,562.2194 1342,562.2194 C1342,562.2194 1342,467.1094 1342,436.6394" fill="none" id="AL-IALERT" style="stroke:#64748B;stroke-width:1;"/></g><!--link IA to ILLM--><g class="link" data-entity-1="ent0005" data-entity-2="ent0013" data-link-type="association" data-source-line="48" id="lnk19"><path d="M119.96,477.5794 C119.96,529.8594 119.96,604.2194 119.96,604.2194 C119.96,604.2194 402.86,604.2194 402.86,604.2194 C402.86,604.2194 402.86,472.4294 402.86,436.3894" fill="none" id="IA-ILLM" style="stroke:#64748B;stroke-width:1;"/></g><!--link CG to ILATEX--><g class="link" data-entity-1="ent0007" data-entity-2="ent0014" data-link-type="association" data-source-line="49" id="lnk20"><path d="M918.28,449.2194 C855.18,449.2194 775,449.2194 775,449.2194 C775,449.2194 775,442.6894 775,436.7694" fill="none" id="CG-ILATEX" style="stroke:#64748B;stroke-width:1;"/></g><!--link SG to ILATEX--><g class="link" data-entity-1="ent0008" data-entity-2="ent0014" data-link-type="association" data-source-line="50" id="lnk21"><path d="M1140.65,477.6394 C1140.65,508.1394 1140.65,541.2194 1140.65,541.2194 C1140.65,541.2194 769,541.2194 769,541.2194 C769,541.2194 769,463.8794 769,436.6894" fill="none" id="SG-ILATEX" style="stroke:#64748B;stroke-width:1;"/></g><!--link GR to IQUEUE--><g class="link" data-entity-1="ent0003" data-entity-2="ent0015" data-link-type="association" data-source-line="51" id="lnk22"><path d="M824.9,167.2194 C840.6,167.2194 853,167.2194 853,167.2194 C853,167.2194 853,371.7694 853,418.1194" fill="none" id="GR-IQUEUE" style="stroke:#64748B;stroke-width:1;"/></g><!--link GR to IQUEUE--><g class="link" data-entity-1="ent0003" data-entity-2="ent0015" data-link-type="dependency" data-source-line="121" id="lnk58"><path d="M824.85,178.2194 C837.52,178.2194 847,178.2194 847,178.2194 C847,178.2194 847,366.3994 847,411.9094" fill="none" id="GR-to-IQUEUE" style="stroke:#64748B;stroke-width:1;"/><polygon fill="#64748B" points="847,417.9094,851,408.9094,847,412.9094,843,408.9094,847,417.9094" style="stroke:#64748B;stroke-width:1;"/><text fill="#475569" font-family="Verdana" font-size="10" lengthAdjust="spacing" textLength="79.2334" x="767" y="284.2716">persist / restore</text></g><!--link IA to GMN26--><g class="link" data-entity-1="ent0005" data-entity-2="ent0027" data-link-type="association" data-source-line="64" id="lnk28"><path d="M89,477.5594 C89,536.1694 89,625.2194 89,625.2194 C89,625.2194 478.06,625.2194 478.06,625.2194 C478.06,625.2194 478.06,518.5194 478.06,461.8394" fill="none" id="IA-GMN26" style="stroke:#64748B;stroke-width:1;stroke-dasharray:7,7;"/></g><!--link HG to IHG--><g class="link" data-entity-1="ent0030" data-entity-2="ent0032" data-link-type="association" data-source-line="77" id="lnk33"><path d="M1697.29,428.2194 C1720.58,428.2194 1744.32,428.2194 1756.89,428.2194" fill="none" id="HG-IHG" style="stroke:#64748B;stroke-width:1;"/></g><!--link DS to AL--><g class="link" data-entity-1="ent0031" data-entity-2="ent0004" data-link-type="dependency" data-source-line="78" id="lnk34"><path d="M1422.52,471.6194 C1422.52,517.6894 1422.52,583.2194 1422.52,583.2194 C1422.52,583.2194 296.58,583.2194 296.58,583.2194 C296.58,583.2194 296.58,529.0994 296.58,483.5394" fill="none" id="DS-to-AL" style="stroke:#64748B;stroke-width:1;stroke-dasharray:7,7;"/><polygon fill="#64748B" points="296.58,477.5394,292.58,486.5394,296.58,482.5394,300.58,486.5394,296.58,477.5394" style="stroke:#64748B;stroke-width:1;"/><text fill="#475569" font-family="Verdana" font-size="10" lengthAdjust="spacing" textLength="75.9668" x="786.51" y="580.5016">&#171;l&#234; na startup&#187;</text></g><!--link SSE to IINGEST--><g class="link" data-entity-1="ent0036" data-entity-2="ent0037" data-link-type="association" data-source-line="84" id="lnk38"><path d="M1930.93,428.2194 C1953.39,428.2194 1978.01,428.2194 1990.93,428.2194" fill="none" id="SSE-IINGEST" style="stroke:#64748B;stroke-width:1;"/></g><!--link LATEX to ICOMPILE--><g class="link" data-entity-1="ent0040" data-entity-2="ent0041" data-link-type="association" data-source-line="90" id="lnk42"><path d="M923.96,694.2194 C945.71,694.2194 970.59,694.2194 983.73,694.2194" fill="none" id="LATEX-ICOMPILE" style="stroke:#64748B;stroke-width:1;"/></g><!--link LLM to ILLMAPI--><g class="link" data-entity-1="ent0044" data-entity-2="ent0045" data-link-type="association" data-source-line="96" id="lnk46"><path d="M411.2,694.2194 C434.49,694.2194 457.9,694.2194 470.51,694.2194" fill="none" id="LLM-ILLMAPI" style="stroke:#64748B;stroke-width:1;"/></g><!--link PLLM to POUT--><!--link GR to IHG--><g class="link" data-entity-1="ent0003" data-entity-2="ent0032" data-link-type="dependency" data-source-line="116" id="lnk53"><path d="M795.59,187.5994 C795.59,223.0094 795.59,264.2194 795.59,264.2194 C795.59,264.2194 1766,264.2194 1766,264.2194 C1766,264.2194 1766,377.6194 1766,412.1394" fill="none" id="GR-to-IHG" style="stroke:#64748B;stroke-width:1;"/><polygon fill="#64748B" points="1766,418.1394,1770,409.1394,1766,413.1394,1762,409.1394,1766,418.1394" style="stroke:#64748B;stroke-width:1;"/><text fill="#475569" font-family="Verdana" font-size="10" lengthAdjust="spacing" textLength="72.29" x="1246.44" y="261.5016">&#171;poll cada 2s&#187;</text></g><!--link GR to IALERT--><g class="link" data-entity-1="ent0003" data-entity-2="ent0012" data-link-type="dependency" data-source-line="117" id="lnk54"><path d="M788.29,187.8394 C788.29,236.2694 788.29,302.2194 788.29,302.2194 C788.29,302.2194 1341.9,302.2194 1341.9,302.2194 C1341.9,302.2194 1341.9,382.8594 1341.9,411.9694" fill="none" id="GR-to-IALERT" style="stroke:#64748B;stroke-width:1;"/><polygon fill="#64748B" points="1341.9,417.9694,1345.9,408.9694,1341.9,412.9694,1337.9,408.9694,1341.9,417.9694" style="stroke:#64748B;stroke-width:1;"/><text fill="#475569" font-family="Verdana" font-size="10" lengthAdjust="spacing" textLength="94.126" x="970.78" y="299.5016">get_alerts_by_ids()</text></g><!--link GR to ILLM--><g class="link" data-entity-1="ent0003" data-entity-2="ent0013" data-link-type="dependency" data-source-line="118" id="lnk55"><path d="M733.21,187.8994 C733.21,247.9194 733.21,340.2194 733.21,340.2194 C733.21,340.2194 404,340.2194 404,340.2194 C404,340.2194 404,389.5694 404,412.0494" fill="none" id="GR-to-ILLM" style="stroke:#64748B;stroke-width:1;"/><polygon fill="#64748B" points="404,418.0494,408,409.0494,404,413.0494,400,409.0494,404,418.0494" style="stroke:#64748B;stroke-width:1;"/><text fill="#475569" font-family="Verdana" font-size="10" lengthAdjust="spacing" textLength="91.6455" x="513.85" y="337.5016">analyze_incident()</text></g><!--link GR to ILATEX--><g class="link" data-entity-1="ent0003" data-entity-2="ent0014" data-link-type="dependency" data-source-line="119" id="lnk56"><path d="M772,187.6894 C772,258.6594 772,377.6094 772,412.2494" fill="none" id="GR-to-ILATEX" style="stroke:#64748B;stroke-width:1;"/><polygon fill="#64748B" points="772,418.2494,776,409.2494,772,413.2494,768,409.2494,772,418.2494" style="stroke:#64748B;stroke-width:1;"/><text fill="#475569" font-family="Verdana" font-size="10" lengthAdjust="spacing" textLength="148.418" x="623" y="300.2516">generate(metadata, analysis)</text></g><!--link GR to IINGEST--><g class="link" data-entity-1="ent0003" data-entity-2="ent0037" data-link-type="dependency" data-source-line="120" id="lnk57"><path d="M802.88,187.8394 C802.88,207.8494 802.88,226.2194 802.88,226.2194 C802.88,226.2194 2000,226.2194 2000,226.2194 C2000,226.2194 2000,372.1694 2000,411.9394" fill="none" id="GR-to-IINGEST" style="stroke:#64748B;stroke-width:1;"/><polygon fill="#64748B" points="2000,417.9394,2004,408.9394,2000,412.9394,1996,408.9394,2000,417.9394" style="stroke:#64748B;stroke-width:1;"/><text fill="#475569" font-family="Verdana" font-size="10" lengthAdjust="spacing" textLength="81.1377" x="1396.11" y="223.5016">emit ciso_report</text></g><!--link IA to ILLMAPI--><g class="link" data-entity-1="ent0005" data-entity-2="ent0045" data-link-type="dependency" data-source-line="123" id="lnk59"><path d="M58.04,477.5794 C58.04,542.1894 58.04,646.2194 58.04,646.2194 C58.04,646.2194 483.53,646.2194 483.53,646.2194 C483.53,646.2194 483.53,664.8694 483.53,678.7394" fill="none" id="IA-to-ILLMAPI" style="stroke:#64748B;stroke-width:1;"/><polygon fill="#64748B" points="483.53,684.7394,487.53,675.7394,483.53,679.7394,479.53,675.7394,483.53,684.7394" style="stroke:#64748B;stroke-width:1;"/><text fill="#475569" font-family="Verdana" font-size="10" lengthAdjust="spacing" textLength="67.5391" x="130.3201" y="631.5016">&#171;HTTP POST&#187;</text><text fill="#475569" font-family="Verdana" font-size="10" lengthAdjust="spacing" textLength="82.7393" x="122.72" y="643.1422">LLM_PROVIDER2</text></g><!--link CG to ICOMPILE--><g class="link" data-entity-1="ent0007" data-entity-2="ent0041" data-link-type="dependency" data-source-line="124" id="lnk60"><path d="M993,477.5094 C993,542.6694 993,645.9494 993,678.5094" fill="none" id="CG-to-ICOMPILE" style="stroke:#64748B;stroke-width:1;"/><polygon fill="#64748B" points="993,684.5094,997,675.5094,993,679.5094,989,675.5094,993,684.5094" style="stroke:#64748B;stroke-width:1;"/><text fill="#475569" font-family="Verdana" font-size="10" lengthAdjust="spacing" textLength="61.7383" x="931" y="578.2916">compila .tex</text></g><!--link SG to ICOMPILE--><g class="link" data-entity-1="ent0008" data-entity-2="ent0041" data-link-type="dependency" data-source-line="125" id="lnk61"><path d="M1154.08,477.5694 C1154.08,554.8694 1154.08,694.2194 1154.08,694.2194 C1154.08,694.2194 1042.2,694.2194 1008.12,694.2194" fill="none" id="SG-to-ICOMPILE" style="stroke:#64748B;stroke-width:1;"/><polygon fill="#64748B" points="1002.12,694.2194,1011.12,698.2194,1007.12,694.2194,1011.12,690.2194,1002.12,694.2194" style="stroke:#64748B;stroke-width:1;"/><text fill="#475569" font-family="Verdana" font-size="10" lengthAdjust="spacing" textLength="61.7383" x="1092.08" y="659.1516">compila .tex</text></g><!--link GR to JSON--><g class="link" data-entity-1="ent0003" data-entity-2="ent0048" data-link-type="dependency" data-source-line="127" id="lnk62"><path d="M810.18,187.5594 C810.18,291.2894 810.18,520.2194 810.18,520.2194 C810.18,520.2194 1472.16,520.2194 1472.16,520.2194 C1472.16,520.2194 1472.16,825.6494 1472.16,904.1194" fill="none" id="GR-to-JSON" style="stroke:#64748B;stroke-width:1;stroke-dasharray:7,7;"/><polygon fill="#64748B" points="1472.16,910.1194,1476.16,901.1194,1472.16,905.1194,1468.16,901.1194,1472.16,910.1194" style="stroke:#64748B;stroke-width:1;"/><text fill="#475569" font-family="Verdana" font-size="10" lengthAdjust="spacing" textLength="30.752" x="1138.79" y="517.5016">&#171;cria&#187;</text></g><!--link GR to QFILE--><g class="link" data-entity-1="ent0003" data-entity-2="ent0049" data-link-type="dependency" data-source-line="128" id="lnk63"><path d="M817.47,187.8194 C817.47,287.2094 817.47,499.2194 817.47,499.2194 C817.47,499.2194 1659.6,499.2194 1659.6,499.2194 C1659.6,499.2194 1659.6,823.6294 1659.6,904.2994" fill="none" id="GR-to-QFILE" style="stroke:#64748B;stroke-width:1;stroke-dasharray:7,7;"/><polygon fill="#64748B" points="1659.6,910.2994,1663.6,901.2994,1659.6,905.2994,1655.6,901.2994,1659.6,910.2994" style="stroke:#64748B;stroke-width:1;"/><text fill="#475569" font-family="Verdana" font-size="10" lengthAdjust="spacing" textLength="52.1191" x="1235.38" y="496.5016">&#171;persiste&#187;</text></g><!--link CG to CPDF--><g class="link" data-entity-1="ent0007" data-entity-2="ent0050" data-link-type="dependency" data-source-line="129" id="lnk64"><path d="M1042.87,477.6594 C1042.87,586.7394 1042.87,834.8494 1042.87,904.1594" fill="none" id="CG-to-CPDF" style="stroke:#64748B;stroke-width:1;stroke-dasharray:7,7;"/><polygon fill="#64748B" points="1042.87,910.1594,1046.87,901.1594,1042.87,905.1594,1038.87,901.1594,1042.87,910.1594" style="stroke:#64748B;stroke-width:1;"/><text fill="#475569" font-family="Verdana" font-size="10" lengthAdjust="spacing" textLength="34.9756" x="1007.87" y="691.1916">&#171;gera&#187;</text></g><!--link SG to SPDF--><g class="link" data-entity-1="ent0008" data-entity-2="ent0051" data-link-type="dependency" data-source-line="130" id="lnk65"><path d="M1250.33,477.6594 C1250.33,586.7394 1250.33,834.8494 1250.33,904.1594" fill="none" id="SG-to-SPDF" style="stroke:#64748B;stroke-width:1;stroke-dasharray:7,7;"/><polygon fill="#64748B" points="1250.33,910.1594,1254.33,901.1594,1250.33,905.1594,1246.33,901.1594,1250.33,910.1594" style="stroke:#64748B;stroke-width:1;"/><text fill="#475569" font-family="Verdana" font-size="10" lengthAdjust="spacing" textLength="34.9756" x="1215.33" y="691.1916">&#171;gera&#187;</text></g><?plantuml-src tLTTRjj647xdAQOkKDj5BLkodTX6O82XP9cDP2cY4gID0s55hgIjgLsMNFadHO4-jQz5qPwW3mKAzAde2NoJdAGpknHD_JW7Y130sjdls_cVKJRXmn-_VXh_d4se-swpvxPTgC67dtu7hzFkTYuQ5_r600tmyM_lpFNmiEKUmEj6h-zxRciRUPzE39pFz8HFEIGn4zBHAW6jOAYqLbE8HCf3BPHqiYiX4vQoASH2SdsNS52fdgZIXLGHptW2J_PAmfJ9An9MZ_USibZDP1IgLF8KZaho8GklnkRIKx5AuVEH-PGG4H-nMQpFbDGvfCfhn_l3zP10lETGBHlagMcY99VwkKeZdkPl71-m_U7HMjYAHKSZDWhNGKisxOsgJski1FAbvkc8XNn1xPE3fmT7mxMmPRMynez6PKUwY63ZnVV2ONJ8gsj0AqvKHuUZunBGJLDryvXLvhBatS7JmyCdPVQ5qcjqyD5nkB-CAfix2gFzWyXnjD0n1tUCCSpxi2xO62aCS_aGNvu1VuXG1ewJMFTWeynjfYoPG8ydMA0ytG2MGRS6FpW0uVmbU7ifBwK1pd6NiZz9EOj8Ow9YhF8nOTuHlTbR9RinJtLBiOYe7Widd9YCf2mhc6vhbUdBK4HuSYMBxzuJlTLgmmqQaz0XP_hkAhFED6lSwfI5MY7ILnxiWfjbNEDVxtMZ8DSRgsJF3phMsIR7jcFcYHRhypT0LmNNQwvoWuxt21Ll2cQmXjds-xr6EtVDxVU_y5x058_byBRR3XB5FB6mOQBaAJaIwPJH-C60ZhaUX5R4ey7aBb4ujZAURMsR3FjUv-9iyHNVv1UVqVnMsmV691bacca-vpMz_fibdaajnTgIJ4wpmV1k8A92dTl2PR34mpIQd6O2xMKskmEHPtjEHD0oZG99gane2yDQRh-nR5cNomWZztB6P_nILX9x77nFvyftcPAM-l9LurM3OjhimKuH6dl8_NLRT9XxuRjqigPvJVCzrnuidEmJnVCI6nfYFjAWHhP90EfAP12ogP0JbPcMm0LopUx_klzJdHX4jG8w5UCnJmUfAQg1L3TRs-OEF-44-pvIaF1OGH0q8E3fDK_droov_nSLvCLXdiM2aZCM6qIj0kbCRcsR7ePOgMHEZBZ6NSRArFzmY4XrpR8vvbemUBpG48K1DruNtgCZ4-E-wLU0ivYDZTkHoB0Fn5348i8XOLqVdBl1WBhTV6XOqS54I9K05Eq2ODfi6U9UkArllctq0ZijotEXZArphFWeZn9-3ONA66IOb5bc1chPfHzNvcdLlDvbgHRn17DYPsbrtImzp-CaCjDrE3AmC6EkbIpQ_BovVgBH-AfeQj7vz0gSTPsSjt2iXYosdJnl5VFokQbKyxKUGALoIZL-0i-UnVT_WqIlDVenIqvF5nnzA30uETpRgreNIRha98cUf-gAftRM1Or56xkTe0-xw3JFjBNAlsWs0kekekuKvxBsFhz5nRjvaic0cZM02c39W2GQnJWURetwDSE1e2BESrr187pu-JUe86q-8DjTlqLMs_hQUH2LJQA2xCsa5bDkJI71aYcTEARTZBj7wacg4X5Uobteu3XoVMlUyf2pqM69s9sFkTqfppBKc1LZqUtwP1ogsodE2wbYz_z4HYlkwn7LkkLsEw_wnaAgKvB3Xftp-NJvyc4oVXrqBXQ0ZutGbsSsL8yzEGX5fehOUjtwsSV0cGeBR41OT6iJpZgz-r_S7c0ApjtYFnTGxmJGTRqNBbQBiudTjlDs8Y9S8UzeqkwSueyP59kQcb_C4X9Z6DRZgLOtJKaLLv6waNH5YJ8PNhcXrnmoioN6yrcv9N2fOKvnf6JR3Yq3H6BBcJOp0pV4AwXbs6JpMxDY4B1canOOCk04LZVc0y1KB3sIxyWfrwX9iwyi2yVE0zZs6QBvL6YWHEMPA11cWI40VvGWatuyfTYrAiMnJfimDmdhppXstkztWGhuzDJyL1jqUvtNVhtHgpcqAmcTDnB2youq3UW47xycUsXEKLKQJM4gc0qTYKqDsj1QEpdUeKQweuepLxX5YH9OSR0e_Xy0?></g></svg>