<svg xmlns="http://www.w3.org/2000/svg" xmlns:xlink="http://www.w3.org/1999/xlink" contentStyleType="text/css" data-diagram-type="STATE" height="784px" preserveAspectRatio="none" style="width:843px;height:784px;background:#FFFFFF;" version="1.1" viewBox="0 0 843 784" width="843px" zoomAndPan="magnify"><?plantuml 1.2026.4beta2?><defs/><g><g class="title" data-source-line="23"><text fill="#1E293B" font-family="Verdana" font-size="22" font-weight="700" lengthAdjust="spacing" textLength="720.3389" x="60.532" y="35.4209">Agent 2 &#8212; M&#225;quina de Estados: Ciclo de Vida do Relat&#243;rio</text></g><g class="entity" data-qualified-name="Inactivo" id="ent0002"><rect fill="#F8FAFC" height="54.9219" rx="5" ry="5" style="stroke:#94A3B8;stroke-width:1;" width="205.7129" x="622.69" y="715.5294"/><line style="stroke:#94A3B8;stroke-width:1;" x1="622.69" x2="828.4029" y1="737.17" y2="737.17"/><text fill="#475569" font-family="Verdana" font-size="10" lengthAdjust="spacing" textLength="39.6484" x="705.7222" y="729.8116">Inactivo</text><text fill="#475569" font-family="Verdana" font-size="10" lengthAdjust="spacing" textLength="185.7129" x="627.69" y="751.4522">entry / carregar .pending_queue.json</text><text fill="#475569" font-family="Verdana" font-size="10" lengthAdjust="spacing" textLength="142.5244" x="627.69" y="763.0929">do    / aguardar confirma&#231;&#227;o</text></g><g class="entity" data-qualified-name="EmFila" id="ent0003"><rect fill="#F8FAFC" height="66.5625" rx="5" ry="5" style="stroke:#94A3B8;stroke-width:1;" width="211.3086" x="355.89" y="58.6094"/><line style="stroke:#94A3B8;stroke-width:1;" x1="355.89" x2="567.1986" y1="80.25" y2="80.25"/><text fill="#475569" font-family="Verdana" font-size="10" lengthAdjust="spacing" textLength="33.4961" x="444.7963" y="72.8916">EmFila</text><text fill="#475569" font-family="Verdana" font-size="10" lengthAdjust="spacing" textLength="191.3086" x="360.89" y="94.5322">entry / _pending_queue[label] = entry</text><text fill="#475569" font-family="Verdana" font-size="10" lengthAdjust="spacing" textLength="168.3252" x="360.89" y="106.1729">do    / aguardar _process_queue()</text><text fill="#475569" font-family="Verdana" font-size="10" lengthAdjust="spacing" textLength="102.6074" x="360.89" y="117.8135">entry / attempts = 0</text></g><g class="entity" data-qualified-name="AProcessar" id="ent0004"><rect fill="#F8FAFC" height="78.2031" rx="5" ry="5" style="stroke:#94A3B8;stroke-width:1;" width="209.0869" x="164" y="185.9994"/><line style="stroke:#94A3B8;stroke-width:1;" x1="164" x2="373.0869" y1="207.64" y2="207.64"/><text fill="#475569" font-family="Verdana" font-size="10" lengthAdjust="spacing" textLength="55.4102" x="240.8384" y="200.2816">AProcessar</text><text fill="#475569" font-family="Verdana" font-size="10" lengthAdjust="spacing" textLength="110.9863" x="169" y="221.9222">entry / attempts += 1</text><text fill="#475569" font-family="Verdana" font-size="10" lengthAdjust="spacing" textLength="189.0869" x="169" y="233.5629">do    / contexto + alertas + extrac&#231;&#227;o</text><text fill="#475569" font-family="Verdana" font-size="10" lengthAdjust="spacing" textLength="146.3232" x="169" y="245.2035">do    / LLM analyze_incident()</text><text fill="#475569" font-family="Verdana" font-size="10" lengthAdjust="spacing" textLength="140.5518" x="169" y="256.8441">do    / assemblar report Dict</text></g><g class="entity" data-qualified-name="AGerarPDF" id="ent0005"><rect fill="#F8FAFC" height="66.5625" rx="5" ry="5" style="stroke:#94A3B8;stroke-width:1;" width="207.0068" x="376.04" y="324.1994"/><line style="stroke:#94A3B8;stroke-width:1;" x1="376.04" x2="583.0468" y1="345.84" y2="345.84"/><text fill="#475569" font-family="Verdana" font-size="10" lengthAdjust="spacing" textLength="54.5752" x="452.2558" y="338.4816">AGerarPDF</text><text fill="#475569" font-family="Verdana" font-size="10" lengthAdjust="spacing" textLength="187.0068" x="381.04" y="360.1222">do / CISOReportGenerator.generate()</text><text fill="#475569" font-family="Verdana" font-size="10" lengthAdjust="spacing" textLength="184.0576" x="381.04" y="371.7629">do / SOCReportGenerator.generate()</text><text fill="#475569" font-family="Verdana" font-size="10" lengthAdjust="spacing" textLength="181.3135" x="381.04" y="383.4035">do / POST :5002/generate (pdflatex)</text></g><g class="entity" data-qualified-name="AEmitir" id="ent0006"><rect fill="#F8FAFC" height="66.5625" rx="5" ry="5" style="stroke:#94A3B8;stroke-width:1;" width="148.4277" x="437.33" y="450.7594"/><line style="stroke:#94A3B8;stroke-width:1;" x1="437.33" x2="585.7577" y1="472.4" y2="472.4"/><text fill="#475569" font-family="Verdana" font-size="10" lengthAdjust="spacing" textLength="36.4893" x="493.2992" y="465.0416">AEmitir</text><text fill="#475569" font-family="Verdana" font-size="10" lengthAdjust="spacing" textLength="93.3496" x="442.33" y="486.6822">do / _emit_report()</text><text fill="#475569" font-family="Verdana" font-size="10" lengthAdjust="spacing" textLength="92.4707" x="464.581" y="498.3229">POST :5001/ingest</text><text fill="#475569" font-family="Verdana" font-size="10" lengthAdjust="spacing" textLength="106.1768" x="464.581" y="509.9635">{type: "ciso_report"}</text></g><g class="entity" data-qualified-name="Concluido" id="ent0007"><rect fill="#F8FAFC" height="78.2031" rx="5" ry="5" style="stroke:#94A3B8;stroke-width:1;" width="239.9023" x="418.59" y="577.3194"/><line style="stroke:#94A3B8;stroke-width:1;" x1="418.59" x2="658.4923" y1="598.96" y2="598.96"/><text fill="#475569" font-family="Verdana" font-size="10" lengthAdjust="spacing" textLength="49.2969" x="513.8927" y="591.6016">Concluido</text><text fill="#475569" font-family="Verdana" font-size="10" lengthAdjust="spacing" textLength="161.0986" x="423.59" y="613.2422">entry / _dequeue_success(label)</text><text fill="#475569" font-family="Verdana" font-size="10" lengthAdjust="spacing" textLength="219.9023" x="423.59" y="624.8829">entry / _processed_confirmations.add(label)</text><text fill="#475569" font-family="Verdana" font-size="10" lengthAdjust="spacing" textLength="203.7158" x="423.59" y="636.5235">entry / guardar JSON em reports/agent2/</text><text fill="#475569" font-family="Verdana" font-size="10" lengthAdjust="spacing" textLength="208.6621" x="423.59" y="648.1641">entry / emit ciso_report SSE &#8594; Dashboard</text></g><g class="start_entity" data-qualified-name=".start." data-source-line="25" id="ent0002"><ellipse cx="788.54" cy="616.4294" fill="#FFFFFF" rx="10" ry="10" style="stroke:#000000;stroke-width:1;"/></g><g class="entity" data-qualified-name="GMN2" data-source-line="79" id="ent0003"><path d="M602.34,62.7894 L602.34,88.4494 L567.51,92.4494 L602.34,96.4494 L602.34,120.9925 A5,5 0 0 0 607.34,125.9925 L757.7443,125.9925 A5,5 0 0 0 762.7443,120.9925 L762.7443,67.7894 L752.7443,57.7894 L607.34,57.7894 A5,5 0 0 0 602.34,62.7894" fill="#FEF9C3" style="stroke:#FCD34D;stroke-width:1;"/><path d="M752.7443,57.7894 L752.7443,65.2894 A2.5,2.5 0 0 0 755.2443,67.7894 L762.7443,67.7894 L752.7443,57.7894" fill="#FEF9C3" style="stroke:#FCD34D;stroke-width:1;"/><text fill="#1E293B" font-family="Verdana" font-size="10" lengthAdjust="spacing" textLength="121.1719" x="608.34" y="72.0716">Fila persistida em disco:</text><text fill="#1E293B" font-family="Verdana" font-size="10" lengthAdjust="spacing" textLength="103.7793" x="608.34" y="83.7122">.pending_queue.json</text><text fill="#1E293B" font-family="Verdana" font-size="10" lengthAdjust="spacing" textLength="107.2705" x="608.34" y="95.3529">Sobrevive a rein&#237;cios.</text><text fill="#1E293B" font-family="Verdana" font-size="10" lengthAdjust="spacing" textLength="139.4043" x="608.34" y="106.9935">Cada entrada tem attempts</text><text fill="#1E293B" font-family="Verdana" font-size="10" lengthAdjust="spacing" textLength="125.0146" x="608.34" y="118.6341">para auditoria de retries.</text></g><g class="entity" data-qualified-name="GMN5" data-source-line="87" id="ent0006"><path d="M407.79,195.9994 L407.79,210.4494 L373.43,214.4494 L407.79,218.4494 L407.79,254.2025 A5,5 0 0 0 412.79,259.2025 L596.2949,259.2025 A5,5 0 0 0 601.2949,254.2025 L601.2949,200.9994 L591.2949,190.9994 L412.79,190.9994 A5,5 0 0 0 407.79,195.9994" fill="#FEF9C3" style="stroke:#FCD34D;stroke-width:1;"/><path d="M591.2949,190.9994 L591.2949,198.4994 A2.5,2.5 0 0 0 593.7949,200.9994 L601.2949,200.9994 L591.2949,190.9994" fill="#FEF9C3" style="stroke:#FCD34D;stroke-width:1;"/><text fill="#1E293B" font-family="Verdana" font-size="10" lengthAdjust="spacing" textLength="95.4004" x="413.79" y="205.2816">M&#243;dulos opcionais:</text><text fill="#1E293B" font-family="Verdana" font-size="10" lengthAdjust="spacing" textLength="133.1006" x="413.79" y="216.9222">[_HAS_LLM] &#8212; an&#225;lise LLM</text><text fill="#1E293B" font-family="Verdana" font-size="10" lengthAdjust="spacing" textLength="165.4248" x="413.79" y="228.5629">[_HAS_ANALYZERS] &#8212; IoC/assets</text><text fill="#1E293B" font-family="Verdana" font-size="10" lengthAdjust="spacing" textLength="106.04" x="413.79" y="240.2035">[_HAS_LATEX] &#8212; PDF</text><text fill="#1E293B" font-family="Verdana" font-size="10" lengthAdjust="spacing" textLength="172.5049" x="413.79" y="251.8441">Degrada&#231;&#227;o graciosa se ausentes.</text></g><!--link *start* to Inactivo--><g class="link" data-entity-1="ent0002" data-entity-2="ent0002" data-link-type="dependency" data-source-line="25" id="lnk3"><path d="M788.54,626.7794 C788.54,645.9094 788.54,681.3694 788.54,709.2294" fill="none" id="*start*-to-Inactivo" style="stroke:#64748B;stroke-width:1;"/><polygon fill="#64748B" points="788.54,715.2294,792.54,706.2294,788.54,710.2294,784.54,706.2294,788.54,715.2294" style="stroke:#64748B;stroke-width:1;"/><text fill="#1E293B" font-family="Verdana" font-size="10" lengthAdjust="spacing" textLength="60.9766" x="718.5771" y="656.2916">inicializa&#231;&#227;o</text><text fill="#1E293B" font-family="Verdana" font-size="10" lengthAdjust="spacing" textLength="77.0508" x="710.54" y="667.9322">/ _load_queue()</text></g><!--link Inactivo to EmFila--><g class="link" data-entity-1="ent0002" data-entity-2="ent0003" data-link-type="dependency" data-source-line="32" id="lnk4"><path d="M710.62,715.0894 C710.62,598.5294 710.62,156.4494 710.62,156.4494 C710.62,156.4494 487.49,156.4494 487.49,156.4494 C487.49,156.4494 487.49,147.0594 487.49,131.3094" fill="none" id="Inactivo-to-EmFila" style="stroke:#64748B;stroke-width:1;"/><polygon fill="#64748B" points="487.49,125.3094,483.49,134.3094,487.49,130.3094,491.49,134.3094,487.49,125.3094" style="stroke:#64748B;stroke-width:1;"/><text fill="#1E293B" font-family="Verdana" font-size="10" lengthAdjust="spacing" textLength="108.6719" x="578.3471" y="282.9216">confirma&#231;&#227;o recebida</text><text fill="#1E293B" font-family="Verdana" font-size="10" lengthAdjust="spacing" textLength="88.6084" x="588.3788" y="294.5622">[_enqueue(label)]</text><text fill="#1E293B" font-family="Verdana" font-size="10" lengthAdjust="spacing" textLength="154.126" x="555.62" y="306.2029">/ persistir .pending_queue.json</text></g><!--link EmFila to AProcessar--><g class="link" data-entity-1="ent0003" data-entity-2="ent0004" data-link-type="dependency" data-source-line="40" id="lnk5"><path d="M361.62,125.5094 C361.62,143.8494 361.62,160.6594 361.62,179.8194" fill="none" id="EmFila-to-AProcessar" style="stroke:#64748B;stroke-width:1;"/><polygon fill="#64748B" points="361.62,185.8194,365.62,176.8194,361.62,180.8194,357.62,176.8194,361.62,185.8194" style="stroke:#64748B;stroke-width:1;"/><text fill="#1E293B" font-family="Verdana" font-size="10" lengthAdjust="spacing" textLength="137.2559" x="223.62" y="140.9416">_process_queue() chamado</text><text fill="#1E293B" font-family="Verdana" font-size="10" lengthAdjust="spacing" textLength="129.4385" x="227.5287" y="152.5822">[label in _pending_queue]</text></g><!--link AProcessar to EmFila--><g class="link" data-entity-1="ent0004" data-entity-2="ent0003" data-link-type="dependency" data-source-line="76" id="lnk12"><path d="M367.35,185.8494 C367.35,166.6694 367.35,149.8194 367.35,131.4494" fill="none" id="AProcessar-to-EmFila" style="stroke:#64748B;stroke-width:1;"/><polygon fill="#64748B" points="367.35,125.4494,363.35,134.4494,367.35,130.4494,371.35,134.4494,367.35,125.4494" style="stroke:#64748B;stroke-width:1;"/><text fill="#1E293B" font-family="Verdana" font-size="10" lengthAdjust="spacing" textLength="136.3477" x="368.35" y="165.9316">[excep&#231;&#227;o LLM ou timeout]</text><text fill="#1E293B" font-family="Verdana" font-size="10" lengthAdjust="spacing" textLength="80.3955" x="396.3261" y="177.5722">/ manter em fila</text><text fill="#1E293B" font-family="Verdana" font-size="10" lengthAdjust="spacing" textLength="128.1934" x="375.6059" y="189.2129">retry na pr&#243;xima itera&#231;&#227;o</text></g><!--link AProcessar to AGerarPDF--><g class="link" data-entity-1="ent0004" data-entity-2="ent0005" data-link-type="dependency" data-source-line="49" id="lnk6"><path d="M373.45,237.4494 C384.56,237.4494 391.92,237.4494 391.92,237.4494 C391.92,237.4494 391.92,282.2194 391.92,317.7294" fill="none" id="AProcessar-to-AGerarPDF" style="stroke:#64748B;stroke-width:1;"/><polygon fill="#64748B" points="391.92,323.7294,395.92,314.7294,391.92,318.7294,387.92,314.7294,391.92,323.7294" style="stroke:#64748B;stroke-width:1;"/><text fill="#1E293B" font-family="Verdana" font-size="10" lengthAdjust="spacing" textLength="116.0254" x="249.0064" y="281.6316">[_HAS_LATEX == True]</text><text fill="#1E293B" font-family="Verdana" font-size="10" lengthAdjust="spacing" textLength="168.1982" x="222.92" y="293.2722">/ CISOGenerator + SOCGenerator</text></g><!--link AGerarPDF to AEmitir--><g class="link" data-entity-1="ent0005" data-entity-2="ent0006" data-link-type="dependency" data-source-line="57" id="lnk7"><path d="M510.19,391.0694 C510.19,409.3694 510.19,425.9694 510.19,444.2994" fill="none" id="AGerarPDF-to-AEmitir" style="stroke:#64748B;stroke-width:1;"/><polygon fill="#64748B" points="510.19,450.2994,514.19,441.2994,510.19,445.2994,506.19,441.2994,510.19,450.2994" style="stroke:#64748B;stroke-width:1;"/><text fill="#1E293B" font-family="Verdana" font-size="10" lengthAdjust="spacing" textLength="125.3174" x="384.19" y="417.9616">PDF gerado com sucesso</text></g><!--link AProcessar to AEmitir--><g class="link" data-entity-1="ent0004" data-entity-2="ent0006" data-link-type="dependency" data-source-line="58" id="lnk8"><path d="M268.54,264.4494 C268.54,334.4794 268.54,473.4494 268.54,473.4494 C268.54,473.4494 359.55,473.4494 430.98,473.4494" fill="none" id="AProcessar-to-AEmitir" style="stroke:#64748B;stroke-width:1;"/><polygon fill="#64748B" points="436.98,473.4494,427.98,469.4494,431.98,473.4494,427.98,477.4494,436.98,473.4494" style="stroke:#64748B;stroke-width:1;"/><text fill="#1E293B" font-family="Verdana" font-size="10" lengthAdjust="spacing" textLength="119.3359" x="148.54" y="450.4516">[_HAS_LATEX == False]</text></g><!--link AEmitir to Concluido--><g class="link" data-entity-1="ent0006" data-entity-2="ent0007" data-link-type="dependency" data-source-line="64" id="lnk9"><path d="M511.54,517.7894 C511.54,535.8694 511.54,552.2394 511.54,571.0994" fill="none" id="AEmitir-to-Concluido" style="stroke:#64748B;stroke-width:1;"/><polygon fill="#64748B" points="511.54,577.0994,515.54,568.0994,511.54,572.0994,507.54,568.0994,511.54,577.0994" style="stroke:#64748B;stroke-width:1;"/><text fill="#1E293B" font-family="Verdana" font-size="10" lengthAdjust="spacing" textLength="150.3467" x="360.54" y="544.7316">[SSE /ingest retorna ok=True]</text></g><!--link AEmitir to EmFila--><g class="link" data-entity-1="ent0006" data-entity-2="ent0003" data-link-type="dependency" data-source-line="65" id="lnk10"><path d="M437.13,495.4494 C330.25,495.4494 146,495.4494 146,495.4494 C146,495.4494 146,92.4494 146,92.4494 C146,92.4494 257.93,92.4494 349.59,92.4494" fill="none" id="AEmitir-to-EmFila" style="stroke:#64748B;stroke-width:1;"/><polygon fill="#64748B" points="355.59,92.4494,346.59,88.4494,350.59,92.4494,346.59,96.4494,355.59,92.4494" style="stroke:#64748B;stroke-width:1;"/><text fill="#1E293B" font-family="Verdana" font-size="10" lengthAdjust="spacing" textLength="98.5107" x="29.5854" y="320.0016">[SSE /ingest falhou]</text><text fill="#1E293B" font-family="Verdana" font-size="10" lengthAdjust="spacing" textLength="133.6816" x="12" y="331.6422">/ manter em fila para retry</text></g><!--link Concluido to Inactivo--><g class="link" data-entity-1="ent0007" data-entity-2="ent0002" data-link-type="dependency" data-source-line="74" id="lnk11"><path d="M640.59,655.7794 C640.59,675.0794 640.59,691.8694 640.59,709.2994" fill="none" id="Concluido-to-Inactivo" style="stroke:#64748B;stroke-width:1;"/><polygon fill="#64748B" points="640.59,715.2994,644.59,706.2994,640.59,710.2994,636.59,706.2994,640.59,715.2994" style="stroke:#64748B;stroke-width:1;"/><text fill="#1E293B" font-family="Verdana" font-size="10" lengthAdjust="spacing" textLength="161.665" x="478.59" y="682.8216">/ aguardar pr&#243;xima confirma&#231;&#227;o</text></g><?plantuml-src tLRTJkD65BxFKvnkBnQAba082qIYafi4IiLVCQtQ0hB6zd4oYptZdHbJOBLIUzFhgceVODMBNlMAHyYRy2GzOpl6SS9AlLqBYSJdPxxlEp-Jb_3ur--Vnb_h9GmEdFqpvyY1BZp-yYSSJNxzzhk3OmS6GnYwvyxWn2MdJuTmwpCpnWGXZHaNhPQHAHW9lZH69X1oXO7XKhJqDHSfKoo1c0iqToc2L6OiMpMBafa80wa4AbXVgnby5boFScjVnbB1vr7-r3n2Z5WMcpqfJEcoZfsT3N-nYyllSVO4rp23NqaLeYhZTxfimz-USvb3iXsnA6YwrN2iHUjR7TPqS8nHtCzcFBjRcvklTsgUZbBovzBukhlLtVQRne_nFPQBu6Aq4smqlUgyeo3Sw8PKI6vY16U4ma2dxEGFRpCk62a9GsrOA7KF-Zo8fNtpFG_98k4COsOc3ufJQI--k89Nhxw40y6e2suaz80B7d0Mytis-MVojxmKRV1YoKBlROOPBYrJFrXzdaBUjQ0UJt3K7RGXO4hXY2bOJL64N8oA1AjlD3NRJ0HXegSDR9Gn5L9484N4LL80QBrljIfdYtMOxF6OKToC6r0VeqyKByM5Xw806pCVu-Khoo55fRasV36UabEPsZAgJfdoyMR2BlBKLx1RsEi1StIyLCa0jQuKN92T6OD9QZGbNBECImVBrpajmYbJRouN16EMKA69TOw8ojT0UZKbLyjZ2SwadOEniWlhJQSfCTBTu2tja1LWCIh3o1teXM91KR5duWuFZu095j_TeyT5m4CwDLTZeJVJ6XC_fdSAKzf4CE21iTBKl7Dvzb4nTJhOezWBxsl7zGwTy-4FiBiBvuhes-Bt3zoJVQIjnGnDq0gu9_tgQoLFbITNfvQL41Kfpd8WLUJggFXKb7GkWWxvVm6d9-uvz3RNrZhjgICifM54uugtopdrAYHdFaouRUWUs3SZCb6QW9Qwpgm-Sawfoh-XqnwBTQrFIhTSXYeaH-WXVVMAUYmjNmeedWhuUflQ3hMfBE_iFTA35m7NienxyJvdKYQskFfI1776GxiBBbnt26KMAZo9HkjCNk_cfPo9gaPe9YHYyLXcUT4JHcsg01E8hAFTfZOZ3Mj9zEbSIxMEefhv4FCPyaXHAsIvK9xpBcSJGs-wckpDgbTP67uyShefld5FZYtWGYdTPdQvTzhFHDbYG4rPi48y_lO739WU-v9IMgMV8XkBlhQXKZLvkEK9QspUPWCzIOwt0QR5thLJBJCmF46PcGNAssR8TGSgPNKI9u_fCOAkE51yD3OWe_8KufmVDjtRT7UX_RcY0zaZs-9BnPM-mXj-Ws1BpSNatu1BlMhrOpO12MV_quwhDXtPyivWMSYfstX-ULgu72cG3W6BhednIHYAFveyX5aiDSYKZXECQukmdB73ewlyRcPYyY7c6grUbTKvTWv__6buvXO-1xBVjcilHrMRqS9AGqwl1pYo70hjwQCbo83oiamJlphe_m00?></g></svg>