<svg xmlns="http://www.w3.org/2000/svg" xmlns:xlink="http://www.w3.org/1999/xlink" contentStyleType="text/css" data-diagram-type="DESCRIPTION" height="1648px" preserveAspectRatio="none" style="width:958px;height:1648px;background:#FFFFFF;" version="1.1" viewBox="0 0 958 1648" width="958px" zoomAndPan="magnify"><?plantuml 1.2026.4beta2?><defs/><g><g class="title" data-source-line="28"><text fill="#1E293B" font-family="Verdana" font-size="22" font-weight="700" lengthAdjust="spacing" textLength="395.3662" x="280.5369" y="35.4209">FastAPI Backend &#8212; Deployment</text></g><!--cluster HOST--><g class="cluster" data-qualified-name="HOST" data-source-line="30" id="ent0002"><polygon fill="#F1F5F9" points="213.62,67.6094,223.62,57.6094,933.44,57.6094,933.44,1001.6094,923.44,1011.6094,213.62,1011.6094,213.62,67.6094" style="stroke:#94A3B8;stroke-width:1;"/><line style="stroke:#94A3B8;stroke-width:1;" x1="923.44" x2="933.44" y1="67.6094" y2="57.6094"/><line style="stroke:#94A3B8;stroke-width:1;" x1="213.62" x2="923.44" y1="67.6094" y2="67.6094"/><line style="stroke:#94A3B8;stroke-width:1;" x1="923.44" x2="923.44" y1="67.6094" y2="1011.6094"/><text fill="#0F172A" font-family="Verdana" font-size="10" font-weight="700" lengthAdjust="spacing" textLength="74.3457" x="532.3571" y="79.8916">Servidor SOC</text></g><!--cluster API--><g class="cluster" data-qualified-name="HOST.API" data-source-line="32" id="ent0003"><polygon fill="#F1F5F9" points="245.62,516.6094,255.62,506.6094,901.44,506.6094,901.44,969.6094,891.44,979.6094,245.62,979.6094,245.62,516.6094" style="stroke:#94A3B8;stroke-width:1;"/><line style="stroke:#94A3B8;stroke-width:1;" x1="891.44" x2="901.44" y1="516.6094" y2="506.6094"/><line style="stroke:#94A3B8;stroke-width:1;" x1="245.62" x2="891.44" y1="516.6094" y2="516.6094"/><line style="stroke:#94A3B8;stroke-width:1;" x1="891.44" x2="891.44" y1="516.6094" y2="979.6094"/><text fill="#0F172A" font-family="Verdana" font-size="10" font-weight="700" lengthAdjust="spacing" textLength="94.5898" x="522.2351" y="528.8916">FastAPI Backend</text><text fill="#0F172A" font-family="Verdana" font-size="10" font-weight="700" lengthAdjust="spacing" textLength="181.1328" x="478.9636" y="540.5322">Processo: uvicorn app.main:app</text><text fill="#0F172A" font-family="Verdana" font-size="10" font-weight="700" lengthAdjust="spacing" textLength="84.9756" x="527.0422" y="552.1729">127.0.0.1:8000</text></g><!--cluster SSE_NODE--><g class="cluster" data-qualified-name="HOST.SSE_NODE" data-source-line="55" id="ent0016"><polygon fill="#F1F5F9" points="551.14,353.6094,561.14,343.6094,723.48,343.6094,723.48,456.6094,713.48,466.6094,551.14,466.6094,551.14,353.6094" style="stroke:#94A3B8;stroke-width:1;"/><line style="stroke:#94A3B8;stroke-width:1;" x1="713.48" x2="723.48" y1="353.6094" y2="343.6094"/><line style="stroke:#94A3B8;stroke-width:1;" x1="551.14" x2="713.48" y1="353.6094" y2="353.6094"/><line style="stroke:#94A3B8;stroke-width:1;" x1="713.48" x2="713.48" y1="353.6094" y2="466.6094"/><text fill="#0F172A" font-family="Verdana" font-size="10" font-weight="700" lengthAdjust="spacing" textLength="97.1777" x="584.7211" y="365.8916">SSE Server :5001</text></g><!--cluster AGENTS--><g class="cluster" data-qualified-name="HOST.AGENTS" data-source-line="59" id="ent0018"><polygon fill="#F1F5F9" points="549.72,118.6094,559.72,108.6094,888.65,108.6094,888.65,293.6094,878.65,303.6094,549.72,303.6094,549.72,118.6094" style="stroke:#94A3B8;stroke-width:1;"/><line style="stroke:#94A3B8;stroke-width:1;" x1="878.65" x2="888.65" y1="118.6094" y2="108.6094"/><line style="stroke:#94A3B8;stroke-width:1;" x1="549.72" x2="878.65" y1="118.6094" y2="118.6094"/><line style="stroke:#94A3B8;stroke-width:1;" x1="878.65" x2="878.65" y1="118.6094" y2="303.6094"/><text fill="#0F172A" font-family="Verdana" font-size="10" font-weight="700" lengthAdjust="spacing" textLength="103.3789" x="663.4955" y="130.8916">Agent 1 + Agent 2</text></g><!--cluster LLM_NODE--><g class="cluster" data-qualified-name="LLM_NODE" data-source-line="76" id="ent0026"><polygon fill="#F1F5F9" points="519.47,1228.6094,529.47,1218.6094,754.15,1218.6094,754.15,1613.6094,744.15,1623.6094,519.47,1623.6094,519.47,1228.6094" style="stroke:#94A3B8;stroke-width:1;"/><line style="stroke:#94A3B8;stroke-width:1;" x1="744.15" x2="754.15" y1="1228.6094" y2="1218.6094"/><line style="stroke:#94A3B8;stroke-width:1;" x1="519.47" x2="744.15" y1="1228.6094" y2="1228.6094"/><line style="stroke:#94A3B8;stroke-width:1;" x1="744.15" x2="744.15" y1="1228.6094" y2="1623.6094"/><text fill="#0F172A" font-family="Verdana" font-size="10" font-weight="700" lengthAdjust="spacing" textLength="73.5254" x="596.0473" y="1240.8916">LLM Runtime</text></g><!--cluster OLLAMA_N--><g class="cluster" data-qualified-name="LLM_NODE.OLLAMA_N" data-source-line="77" id="ent0027"><polygon fill="#F1F5F9" points="551.47,1454.6094,561.47,1444.6094,722.15,1444.6094,722.15,1581.6094,712.15,1591.6094,551.47,1591.6094,551.47,1454.6094" style="stroke:#94A3B8;stroke-width:1;"/><line style="stroke:#94A3B8;stroke-width:1;" x1="712.15" x2="722.15" y1="1454.6094" y2="1444.6094"/><line style="stroke:#94A3B8;stroke-width:1;" x1="551.47" x2="712.15" y1="1454.6094" y2="1454.6094"/><line style="stroke:#94A3B8;stroke-width:1;" x1="712.15" x2="712.15" y1="1454.6094" y2="1591.6094"/><text fill="#0F172A" font-family="Verdana" font-size="10" font-weight="700" lengthAdjust="spacing" textLength="81.543" x="592.0385" y="1466.8916">Ollama :11434</text><text fill="#0F172A" font-family="Verdana" font-size="10" font-weight="700" lengthAdjust="spacing" textLength="35.542" x="615.039" y="1478.5322">(local)</text></g><!--cluster ANTH_N--><g class="cluster" data-qualified-name="LLM_NODE.ANTH_N" data-source-line="80" id="ent0029"><polygon fill="#F1F5F9" points="556.4,1279.6094,566.4,1269.6094,717.23,1269.6094,717.23,1394.6094,707.23,1404.6094,556.4,1404.6094,556.4,1279.6094" style="stroke:#94A3B8;stroke-width:1;"/><line style="stroke:#94A3B8;stroke-width:1;" x1="707.23" x2="717.23" y1="1279.6094" y2="1269.6094"/><line style="stroke:#94A3B8;stroke-width:1;" x1="556.4" x2="707.23" y1="1279.6094" y2="1279.6094"/><line style="stroke:#94A3B8;stroke-width:1;" x1="707.23" x2="707.23" y1="1279.6094" y2="1404.6094"/><text fill="#0F172A" font-family="Verdana" font-size="10" font-weight="700" lengthAdjust="spacing" textLength="77.3438" x="594.1431" y="1291.8916">Anthropic API</text><text fill="#0F172A" font-family="Verdana" font-size="10" font-weight="700" lengthAdjust="spacing" textLength="49.7949" x="607.9175" y="1303.5322">(remoto)</text></g><!--cluster NVD_NODE--><g class="cluster" data-qualified-name="NVD_NODE" data-source-line="86" id="ent0031"><polygon fill="#F1F5F9" points="558.79,1061.6094,568.79,1051.6094,714.83,1051.6094,714.83,1176.6094,704.83,1186.6094,558.79,1186.6094,558.79,1061.6094" style="stroke:#94A3B8;stroke-width:1;"/><line style="stroke:#94A3B8;stroke-width:1;" x1="704.83" x2="714.83" y1="1061.6094" y2="1051.6094"/><line style="stroke:#94A3B8;stroke-width:1;" x1="558.79" x2="704.83" y1="1061.6094" y2="1061.6094"/><line style="stroke:#94A3B8;stroke-width:1;" x1="704.83" x2="704.83" y1="1061.6094" y2="1186.6094"/><text fill="#0F172A" font-family="Verdana" font-size="10" font-weight="700" lengthAdjust="spacing" textLength="61.1377" x="602.2412" y="1073.8916">NVD / NIST</text><text fill="#0F172A" font-family="Verdana" font-size="10" font-weight="700" lengthAdjust="spacing" textLength="49.7949" x="607.9125" y="1085.5322">(remoto)</text></g><!--cluster BROWSER--><g class="cluster" data-qualified-name="BROWSER" data-source-line="97" id="ent0036"><polygon fill="#F1F5F9" points="21,472.6094,31,462.6094,189.62,462.6094,189.62,628.6094,179.62,638.6094,21,638.6094,21,472.6094" style="stroke:#94A3B8;stroke-width:1;"/><line style="stroke:#94A3B8;stroke-width:1;" x1="179.62" x2="189.62" y1="472.6094" y2="462.6094"/><line style="stroke:#94A3B8;stroke-width:1;" x1="21" x2="179.62" y1="472.6094" y2="472.6094"/><line style="stroke:#94A3B8;stroke-width:1;" x1="179.62" x2="179.62" y1="472.6094" y2="638.6094"/><text fill="#0F172A" font-family="Verdana" font-size="10" font-weight="700" lengthAdjust="spacing" textLength="93.2715" x="54.6743" y="484.8916">Chrome Browser</text></g><!--entity APP--><g class="entity" data-qualified-name="HOST.API.APP" data-source-line="33" id="ent0004"><rect fill="#E2E8F0" height="41.6406" rx="4" ry="4" style="stroke:#94A3B8;stroke-width:1;" width="99.5459" x="330.59" y="827.7894"/><rect fill="#E2E8F0" height="10" style="stroke:#94A3B8;stroke-width:1;" width="15" x="410.1359" y="832.7894"/><rect fill="#E2E8F0" height="2" style="stroke:#94A3B8;stroke-width:1;" width="4" x="408.1359" y="834.7894"/><rect fill="#E2E8F0" height="2" style="stroke:#94A3B8;stroke-width:1;" width="4" x="408.1359" y="838.7894"/><text fill="#1E293B" font-family="Verdana" font-size="10" lengthAdjust="spacing" textLength="59.5459" x="345.59" y="857.0716">FastAPI App</text></g><!--entity CVES--><g class="entity" data-qualified-name="HOST.API.CVES" data-source-line="34" id="ent0005"><rect fill="#E2E8F0" height="41.6406" rx="4" ry="4" style="stroke:#94A3B8;stroke-width:1;" width="100.2783" x="330.22" y="673.7894"/><rect fill="#E2E8F0" height="10" style="stroke:#94A3B8;stroke-width:1;" width="15" x="410.4983" y="678.7894"/><rect fill="#E2E8F0" height="2" style="stroke:#94A3B8;stroke-width:1;" width="4" x="408.4983" y="680.7894"/><rect fill="#E2E8F0" height="2" style="stroke:#94A3B8;stroke-width:1;" width="4" x="408.4983" y="684.7894"/><text fill="#1E293B" font-family="Verdana" font-size="10" lengthAdjust="spacing" textLength="60.2783" x="345.22" y="703.0716">CVE Service</text></g><!--entity LLMS--><g class="entity" data-qualified-name="HOST.API.LLMS" data-source-line="35" id="ent0006"><rect fill="#E2E8F0" height="53.2813" rx="4" ry="4" style="stroke:#94A3B8;stroke-width:1;" width="99.9072" x="330.41" y="744.9694"/><rect fill="#E2E8F0" height="10" style="stroke:#94A3B8;stroke-width:1;" width="15" x="410.3172" y="749.9694"/><rect fill="#E2E8F0" height="2" style="stroke:#94A3B8;stroke-width:1;" width="4" x="408.3172" y="751.9694"/><rect fill="#E2E8F0" height="2" style="stroke:#94A3B8;stroke-width:1;" width="4" x="408.3172" y="755.9694"/><text fill="#1E293B" font-family="Verdana" font-size="10" lengthAdjust="spacing" textLength="59.9072" x="345.41" y="774.2516">LLM Service</text><text fill="#1E293B" font-family="Verdana" font-size="10" lengthAdjust="spacing" textLength="38.7305" x="345.41" y="785.8922">(litellm)</text></g><!--entity CFG--><g class="entity" data-qualified-name="HOST.API.CFG" data-source-line="36" id="ent0007"><rect fill="#E2E8F0" height="53.2813" rx="4" ry="4" style="stroke:#94A3B8;stroke-width:1;" width="91.0791" x="591.27" y="588.9694"/><rect fill="#E2E8F0" height="10" style="stroke:#94A3B8;stroke-width:1;" width="15" x="662.3491" y="593.9694"/><rect fill="#E2E8F0" height="2" style="stroke:#94A3B8;stroke-width:1;" width="4" x="660.3491" y="595.9694"/><rect fill="#E2E8F0" height="2" style="stroke:#94A3B8;stroke-width:1;" width="4" x="660.3491" y="599.9694"/><text fill="#1E293B" font-family="Verdana" font-size="10" lengthAdjust="spacing" textLength="41.0156" x="606.27" y="618.2516">Settings</text><text fill="#1E293B" font-family="Verdana" font-size="10" lengthAdjust="spacing" textLength="51.0791" x="606.27" y="629.8922">(pydantic)</text></g><!--entity ENV--><g class="entity" data-qualified-name="HOST.API.ENV" data-source-line="37" id="ent0008"><rect fill="#F8FAFC" height="46.2813" rx="4" ry="4" style="stroke:#64748B;stroke-width:1;" width="94.9219" x="782.52" y="592.4694"/><polygon fill="#F8FAFC" points="860.4419,597.4694,860.4419,611.4694,872.4419,611.4694,872.4419,603.4694,866.4419,597.4694,860.4419,597.4694" style="stroke:#64748B;stroke-width:1;"/><line style="stroke:#64748B;stroke-width:1;" x1="866.4419" x2="866.4419" y1="597.4694" y2="603.4694"/><line style="stroke:#64748B;stroke-width:1;" x1="872.4419" x2="866.4419" y1="603.4694" y2="603.4694"/><text fill="#1E293B" font-family="Verdana" font-size="10" lengthAdjust="spacing" textLength="21.5869" x="792.52" y="614.7516">.env</text><text fill="#1E293B" font-family="Verdana" font-size="10" lengthAdjust="spacing" textLength="64.9219" x="792.52" y="626.3922">configura&#231;&#227;o</text></g><!--entity CACHE--><g class="entity" data-qualified-name="HOST.API.CACHE" data-source-line="38" id="ent0009"><rect fill="#F8FAFC" height="46.2813" rx="4" ry="4" style="stroke:#64748B;stroke-width:1;" width="131.4189" x="571.1" y="672.4694"/><polygon fill="#F8FAFC" points="685.5189,677.4694,685.5189,691.4694,697.5189,691.4694,697.5189,683.4694,691.5189,677.4694,685.5189,677.4694" style="stroke:#64748B;stroke-width:1;"/><line style="stroke:#64748B;stroke-width:1;" x1="691.5189" x2="691.5189" y1="677.4694" y2="683.4694"/><line style="stroke:#64748B;stroke-width:1;" x1="697.5189" x2="691.5189" y1="683.4694" y2="683.4694"/><text fill="#1E293B" font-family="Verdana" font-size="10" lengthAdjust="spacing" textLength="81.4453" x="581.1" y="694.7516">data/cve_cache/</text><ellipse cx="586.6" cy="701.2506" fill="#1E293B" rx="2.5" ry="2.5"/><text fill="#1E293B" font-family="Verdana" font-size="10" lengthAdjust="spacing" textLength="89.4189" x="593.1" y="706.3922">.json (cache NVD)</text></g><g class="entity" data-qualified-name="HOST.API.GMN10" data-source-line="41" id="ent0011"><path d="M297.87,903.3294 L297.87,951.8919 A4,4 0 0 0 301.87,955.8919 L458.8593,955.8919 A4,4 0 0 0 462.8593,951.8919 L462.8593,909.3294 L452.8593,899.3294 L301.87,899.3294 A4,4 0 0 0 297.87,903.3294" fill="#FEF9C3" style="stroke:#FCD34D;stroke-width:1;"/><path d="M452.8593,899.3294 L452.8593,907.3294 A2,2 0 0 0 454.8593,909.3294 L462.8593,909.3294 L452.8593,899.3294" fill="#FEF9C3" style="stroke:#FCD34D;stroke-width:1;"/><text fill="#1E293B" font-family="Verdana" font-size="10" lengthAdjust="spacing" textLength="128.2617" x="303.87" y="913.6116">Arrancado por run.bat [2]</text><text fill="#1E293B" font-family="Verdana" font-size="10" lengthAdjust="spacing" textLength="119.5215" x="303.87" y="925.2522">ap&#243;s build da extens&#227;o.</text><text fill="#1E293B" font-family="Verdana" font-size="10" lengthAdjust="spacing" textLength="112.0557" x="303.87" y="936.8929">M&#243;dulo: app.main:app</text><text fill="#1E293B" font-family="Verdana" font-size="10" lengthAdjust="spacing" textLength="143.9893" x="303.87" y="948.5335">Dir: soc-dashboard/backend/</text></g><g class="entity" data-qualified-name="HOST.API.GMN13" data-source-line="48" id="ent0014"><path d="M269.62,591.3294 L269.62,639.8919 A4,4 0 0 0 273.62,643.8919 L487.0985,643.8919 A4,4 0 0 0 491.0985,639.8919 L491.0985,619.6094 L591.04,615.6094 L491.0985,611.6094 L491.0985,597.3294 L481.0985,587.3294 L273.62,587.3294 A4,4 0 0 0 269.62,591.3294" fill="#FEF9C3" style="stroke:#FCD34D;stroke-width:1;"/><path d="M481.0985,587.3294 L481.0985,595.3294 A2,2 0 0 0 483.0985,597.3294 L491.0985,597.3294 L481.0985,587.3294" fill="#FEF9C3" style="stroke:#FCD34D;stroke-width:1;"/><text fill="#1E293B" font-family="Verdana" font-size="10" lengthAdjust="spacing" textLength="200.4785" x="275.62" y="601.6116">LLM_PROVIDER2 define o modelo activo</text><text fill="#1E293B" font-family="Verdana" font-size="10" lengthAdjust="spacing" textLength="156.0352" x="275.62" y="613.2522">para an&#225;lise (CVE, SIEM, Chat).</text><text fill="#1E293B" font-family="Verdana" font-size="10" lengthAdjust="spacing" textLength="125.2588" x="275.62" y="624.8929">LLM_PROVIDER = "none"</text><text fill="#1E293B" font-family="Verdana" font-size="10" lengthAdjust="spacing" textLength="163.0371" x="275.62" y="636.5335">Agent 1 &#233; rule-based (sem LLM).</text></g><!--entity SSE--><g class="entity" data-qualified-name="HOST.SSE_NODE.SSE" data-source-line="56" id="ent0017"><rect fill="#E2E8F0" height="41.6406" rx="4" ry="4" style="stroke:#94A3B8;stroke-width:1;" width="95.3369" x="589.14" y="400.7894"/><rect fill="#E2E8F0" height="10" style="stroke:#94A3B8;stroke-width:1;" width="15" x="664.4769" y="405.7894"/><rect fill="#E2E8F0" height="2" style="stroke:#94A3B8;stroke-width:1;" width="4" x="662.4769" y="407.7894"/><rect fill="#E2E8F0" height="2" style="stroke:#94A3B8;stroke-width:1;" width="4" x="662.4769" y="411.7894"/><text fill="#1E293B" font-family="Verdana" font-size="10" lengthAdjust="spacing" textLength="55.3369" x="604.14" y="430.0716">SSE Broker</text></g><!--entity HG--><g class="entity" data-qualified-name="HOST.AGENTS.HG" data-source-line="60" id="ent0019"><rect fill="#E2E8F0" height="41.6406" rx="4" ry="4" style="stroke:#94A3B8;stroke-width:1;" width="126.1865" x="573.72" y="237.7894"/><rect fill="#E2E8F0" height="10" style="stroke:#94A3B8;stroke-width:1;" width="15" x="679.9065" y="242.7894"/><rect fill="#E2E8F0" height="2" style="stroke:#94A3B8;stroke-width:1;" width="4" x="677.9065" y="244.7894"/><rect fill="#E2E8F0" height="2" style="stroke:#94A3B8;stroke-width:1;" width="4" x="677.9065" y="248.7894"/><text fill="#1E293B" font-family="Verdana" font-size="10" lengthAdjust="spacing" textLength="86.1865" x="588.72" y="267.0716">HypothesisGraph</text></g><!--entity GR--><g class="entity" data-qualified-name="HOST.AGENTS.GR" data-source-line="61" id="ent0020"><rect fill="#E2E8F0" height="41.6406" rx="4" ry="4" style="stroke:#94A3B8;stroke-width:1;" width="114.5361" x="579.54" y="165.7894"/><rect fill="#E2E8F0" height="10" style="stroke:#94A3B8;stroke-width:1;" width="15" x="674.0761" y="170.7894"/><rect fill="#E2E8F0" height="2" style="stroke:#94A3B8;stroke-width:1;" width="4" x="672.0761" y="172.7894"/><rect fill="#E2E8F0" height="2" style="stroke:#94A3B8;stroke-width:1;" width="4" x="672.0761" y="176.7894"/><text fill="#1E293B" font-family="Verdana" font-size="10" lengthAdjust="spacing" textLength="74.5361" x="594.54" y="195.0716">GraphReporter</text></g><!--entity RPTS--><g class="entity" data-qualified-name="HOST.AGENTS.RPTS" data-source-line="62" id="ent0021"><rect fill="#F8FAFC" height="34.6406" rx="4" ry="4" style="stroke:#64748B;stroke-width:1;" width="69.3408" x="795.31" y="241.2894"/><polygon fill="#F8FAFC" points="847.6508,246.2894,847.6508,260.2894,859.6508,260.2894,859.6508,252.2894,853.6508,246.2894,847.6508,246.2894" style="stroke:#64748B;stroke-width:1;"/><line style="stroke:#64748B;stroke-width:1;" x1="853.6508" x2="853.6508" y1="246.2894" y2="252.2894"/><line style="stroke:#64748B;stroke-width:1;" x1="859.6508" x2="853.6508" y1="252.2894" y2="252.2894"/><text fill="#1E293B" font-family="Verdana" font-size="10" lengthAdjust="spacing" textLength="39.3408" x="805.31" y="263.5716">reports/</text></g><!--entity OLLAMACOMP--><g class="entity" data-qualified-name="LLM_NODE.OLLAMA_N.OLLAMACOMP" data-source-line="78" id="ent0028"><rect fill="#E2E8F0" height="53.2813" rx="4" ry="4" style="stroke:#94A3B8;stroke-width:1;" width="122.6758" x="575.47" y="1513.9694"/><rect fill="#E2E8F0" height="10" style="stroke:#94A3B8;stroke-width:1;" width="15" x="678.1458" y="1518.9694"/><rect fill="#E2E8F0" height="2" style="stroke:#94A3B8;stroke-width:1;" width="4" x="676.1458" y="1520.9694"/><rect fill="#E2E8F0" height="2" style="stroke:#94A3B8;stroke-width:1;" width="4" x="676.1458" y="1524.9694"/><text fill="#1E293B" font-family="Verdana" font-size="10" lengthAdjust="spacing" textLength="43.457" x="590.47" y="1543.2516">llama3.2</text><text fill="#1E293B" font-family="Verdana" font-size="10" lengthAdjust="spacing" textLength="82.6758" x="590.47" y="1554.8922">ou outro modelo</text></g><!--entity ANTHCOMP--><g class="entity" data-qualified-name="LLM_NODE.ANTH_N.ANTHCOMP" data-source-line="81" id="ent0030"><rect fill="#E2E8F0" height="41.6406" rx="4" ry="4" style="stroke:#94A3B8;stroke-width:1;" width="112.832" x="580.4" y="1338.7894"/><rect fill="#E2E8F0" height="10" style="stroke:#94A3B8;stroke-width:1;" width="15" x="673.232" y="1343.7894"/><rect fill="#E2E8F0" height="2" style="stroke:#94A3B8;stroke-width:1;" width="4" x="671.232" y="1345.7894"/><rect fill="#E2E8F0" height="2" style="stroke:#94A3B8;stroke-width:1;" width="4" x="671.232" y="1349.7894"/><text fill="#1E293B" font-family="Verdana" font-size="10" lengthAdjust="spacing" textLength="72.832" x="595.4" y="1368.0716">claude-haiku-*</text></g><!--entity NVDCOMP--><g class="entity" data-qualified-name="NVD_NODE.NVDCOMP" data-source-line="87" id="ent0032"><rect fill="#E2E8F0" height="41.6406" rx="4" ry="4" style="stroke:#94A3B8;stroke-width:1;" width="108.042" x="582.79" y="1120.7894"/><rect fill="#E2E8F0" height="10" style="stroke:#94A3B8;stroke-width:1;" width="15" x="670.832" y="1125.7894"/><rect fill="#E2E8F0" height="2" style="stroke:#94A3B8;stroke-width:1;" width="4" x="668.832" y="1127.7894"/><rect fill="#E2E8F0" height="2" style="stroke:#94A3B8;stroke-width:1;" width="4" x="668.832" y="1131.7894"/><text fill="#1E293B" font-family="Verdana" font-size="10" lengthAdjust="spacing" textLength="68.042" x="597.79" y="1150.0716">CVE REST API</text></g><!--entity EXT--><g class="entity" data-qualified-name="BROWSER.EXT" data-source-line="98" id="ent0037"><rect fill="#E2E8F0" height="53.2813" rx="4" ry="4" style="stroke:#94A3B8;stroke-width:1;" width="134.624" x="38" y="568.9694"/><rect fill="#E2E8F0" height="10" style="stroke:#94A3B8;stroke-width:1;" width="15" x="152.624" y="573.9694"/><rect fill="#E2E8F0" height="2" style="stroke:#94A3B8;stroke-width:1;" width="4" x="150.624" y="575.9694"/><rect fill="#E2E8F0" height="2" style="stroke:#94A3B8;stroke-width:1;" width="4" x="150.624" y="579.9694"/><text fill="#1E293B" font-family="Verdana" font-size="10" lengthAdjust="spacing" textLength="94.624" x="53" y="598.2516">RedShift Extension</text><text fill="#1E293B" font-family="Verdana" font-size="10" lengthAdjust="spacing" textLength="51.6113" x="53" y="609.8922">(popup.ts)</text></g><!--entity DASH--><g class="entity" data-qualified-name="BROWSER.DASH" data-source-line="99" id="ent0038"><rect fill="#E2E8F0" height="41.6406" rx="4" ry="4" style="stroke:#94A3B8;stroke-width:1;" width="116.8262" x="46.9" y="497.7894"/><rect fill="#E2E8F0" height="10" style="stroke:#94A3B8;stroke-width:1;" width="15" x="143.7262" y="502.7894"/><rect fill="#E2E8F0" height="2" style="stroke:#94A3B8;stroke-width:1;" width="4" x="141.7262" y="504.7894"/><rect fill="#E2E8F0" height="2" style="stroke:#94A3B8;stroke-width:1;" width="4" x="141.7262" y="508.7894"/><text fill="#1E293B" font-family="Verdana" font-size="10" lengthAdjust="spacing" textLength="76.8262" x="61.9" y="527.0716">Dashboard SPA</text></g><!--link API to GMN10--><g class="link" data-entity-1="ent0003" data-entity-2="ent0011" data-link-type="association" data-source-line="41" id="lnk12"><path d="M380.44,557.2294 C380.44,558.8794 380.44,563.2894 380.44,563.2894 C380.44,563.2894 531.44,563.2894 531.44,563.2894 C531.44,563.2894 531.44,927.6094 531.44,927.6094 C531.44,927.6094 498.25,927.6094 462.98,927.6094" fill="none" id="API-GMN10" style="stroke:#64748B;stroke-width:1;stroke-dasharray:7,7;"/></g><!--link API to SSE_NODE--><g class="link" data-entity-1="ent0003" data-entity-2="ent0016" data-link-type="dependency" data-source-line="65" id="lnk22"><path d="M436.44,505.7841 C436.44,503.1616 436.44,500.4824 436.44,497.7578 C436.44,486.8594 436.44,475.2344 436.44,463.6094 C436.44,417.1094 436.44,370.6094 436.44,370.6094 C436.44,370.6094 483.45,370.6094 531.93,370.6094 C537.99,370.6094 538.073,370.6094 544.09,370.6094" fill="none" id="API-to-SSE_NODE" style="stroke:#64748B;stroke-width:1;"/><polygon fill="#64748B" points="550.09,370.6094,541.09,366.6094,545.09,370.6094,541.09,374.6094,550.09,370.6094" style="stroke:#64748B;stroke-width:1;"/><text fill="#475569" font-family="Verdana" font-size="10" lengthAdjust="spacing" textLength="81.1377" x="335.357" y="401.7216">emit ciso_report</text><text fill="#475569" font-family="Verdana" font-size="10" lengthAdjust="spacing" textLength="120.9717" x="315.44" y="413.3622">(via trigger_report_now)</text></g><!--link API to AGENTS--><g class="link" data-entity-1="ent0003" data-entity-2="ent0018" data-link-type="dependency" data-source-line="66" id="lnk23"><path d="M381.44,505.6953 C381.44,504.586 381.44,503.4624 381.44,502.3248 C381.44,497.7746 381.44,493.0017 381.44,488.0311 C381.44,448.2666 381.44,395.8538 381.44,343.6431 C381.44,239.2219 381.44,135.6094 381.44,135.6094 C381.44,135.6094 441.355,135.6094 503.1425,135.6094 C518.5894,135.6094 528.1533,135.6094 542.9273,135.6094" fill="none" id="API-to-AGENTS" style="stroke:#64748B;stroke-width:1;"/><polygon fill="#64748B" points="548.9273,135.6094,539.9273,131.6094,543.9273,135.6094,539.9273,139.6094,548.9273,135.6094" style="stroke:#64748B;stroke-width:1;"/><text fill="#475569" font-family="Verdana" font-size="10" lengthAdjust="spacing" textLength="93.9941" x="287.44" y="229.0316">get_global_graph()</text><text fill="#475569" font-family="Verdana" font-size="10" lengthAdjust="spacing" textLength="65.2588" x="301.8077" y="240.6722">read reports/</text></g><!--link CFG to ENV--><g class="link" data-entity-1="ent0007" data-entity-2="ent0008" data-link-type="dependency" data-source-line="68" id="lnk24"><path d="M682.59,615.6094 C712.6,615.6094 745.76,615.6094 776.18,615.6094" fill="none" id="CFG-to-ENV" style="stroke:#64748B;stroke-width:1;stroke-dasharray:7,7;"/><polygon fill="#64748B" points="782.18,615.6094,773.18,611.6094,777.18,615.6094,773.18,619.6094,782.18,615.6094" style="stroke:#64748B;stroke-width:1;"/><text fill="#475569" font-family="Verdana" font-size="10" lengthAdjust="spacing" textLength="86.7627" x="733.38" y="625.8916">pydantic-settings</text><text fill="#475569" font-family="Verdana" font-size="10" lengthAdjust="spacing" textLength="63.2422" x="745.1403" y="637.5322">carrega .env</text></g><!--link CVES to CACHE--><g class="link" data-entity-1="ent0005" data-entity-2="ent0009" data-link-type="dependency" data-source-line="69" id="lnk25"><path d="M430.72,687.6694 C470.84,687.6694 521.31,687.6694 565,687.6694" fill="none" id="CVES-to-CACHE" style="stroke:#64748B;stroke-width:1;stroke-dasharray:7,7;"/><polygon fill="#64748B" points="571,687.6694,562,683.6694,566,687.6694,562,691.6694,571,687.6694" style="stroke:#64748B;stroke-width:1;"/><text fill="#475569" font-family="Verdana" font-size="10" lengthAdjust="spacing" textLength="84.2871" x="415.86" y="697.9516">l&#234;/escreve cache</text></g><!--link CVES to NVD_NODE--><g class="link" data-entity-1="ent0005" data-entity-2="ent0031" data-link-type="dependency" data-source-line="93" id="lnk33"><path d="M430.88,701.5494 C457.4,701.5494 484.44,701.5494 484.44,701.5494 C484.44,701.5494 484.44,1090.6094 484.44,1090.6094 C484.44,1090.6094 519.615,1090.6094 556.1637,1090.6094 C556.7348,1090.6094 557.3062,1090.6094 557.8778,1090.6094 C558.1637,1090.6094 552.4495,1090.6094 552.7354,1090.6094" fill="none" id="CVES-to-NVD_NODE" style="stroke:#64748B;stroke-width:1;"/><polygon fill="#64748B" points="558.7354,1090.6094,549.7354,1086.6094,553.7354,1090.6094,549.7354,1094.6094,558.7354,1090.6094" style="stroke:#64748B;stroke-width:1;"/><text fill="#475569" font-family="Verdana" font-size="10" lengthAdjust="spacing" textLength="49.7998" x="485.44" y="955.4216">httpx GET</text></g><!--link LLMS to OLLAMA_N--><g class="link" data-entity-1="ent0006" data-entity-2="ent0027" data-link-type="dependency" data-source-line="94" id="lnk34"><path d="M430.67,780.4894 C451.3,780.4894 470.44,780.4894 470.44,780.4894 C470.44,780.4894 470.44,1483.6094 470.44,1483.6094 C470.44,1483.6094 508.8475,1483.6094 548.755,1483.6094 C549.3786,1483.6094 544.0025,1483.6094 544.6266,1483.6094" fill="none" id="LLMS-to-OLLAMA_N" style="stroke:#64748B;stroke-width:1;"/><polygon fill="#64748B" points="550.6266,1483.6094,541.6266,1479.6094,545.6266,1483.6094,541.6266,1487.6094,550.6266,1483.6094" style="stroke:#64748B;stroke-width:1;"/><text fill="#475569" font-family="Verdana" font-size="10" lengthAdjust="spacing" textLength="60.4639" x="394.0772" y="1205.2616">litellm POST</text><text fill="#475569" font-family="Verdana" font-size="10" lengthAdjust="spacing" textLength="91.7383" x="378.44" y="1216.9022">[provider=ollama]</text></g><!--link LLMS to ANTH_N--><g class="link" data-entity-1="ent0006" data-entity-2="ent0029" data-link-type="dependency" data-source-line="95" id="lnk35"><path d="M430.61,762.7294 C454.3,762.7294 477.44,762.7294 477.44,762.7294 C477.44,762.7294 477.44,1308.6094 477.44,1308.6094 C477.44,1308.6094 514.23,1308.6094 552.4575,1308.6094 C553.6521,1308.6094 548.8481,1308.6094 550.0445,1308.6094" fill="none" id="LLMS-to-ANTH_N" style="stroke:#64748B;stroke-width:1;"/><polygon fill="#64748B" points="556.0445,1308.6094,547.0445,1304.6094,551.0445,1308.6094,547.0445,1312.6094,556.0445,1308.6094" style="stroke:#64748B;stroke-width:1;"/><text fill="#475569" font-family="Verdana" font-size="10" lengthAdjust="spacing" textLength="60.4639" x="394.0303" y="1101.8616">litellm POST</text><text fill="#475569" font-family="Verdana" font-size="10" lengthAdjust="spacing" textLength="105.6445" x="371.44" y="1113.5022">[provider=anthropic]</text></g><!--link EXT to API--><g class="link" data-entity-1="ent0037" data-entity-2="ent0003" data-link-type="dependency" data-source-line="102" id="lnk39"><path d="M168.44,568.5194 C168.44,561.8694 168.44,556.6094 168.44,556.6094 C168.44,556.6094 180.8706,556.6094 199.7108,556.6094 C209.1309,556.6094 220.1533,556.6094 232.0255,556.6094 C234.9936,556.6094 238.0147,556.6094 241.0773,556.6094 C241.8429,556.6094 242.6111,556.6094 243.3817,556.6094 C243.767,556.6094 238.1529,556.6094 238.5394,556.6094" fill="none" id="EXT-to-API" style="stroke:#64748B;stroke-width:1;"/><polygon fill="#64748B" points="244.5394,556.6094,235.5394,552.6094,239.5394,556.6094,235.5394,560.6094,244.5394,556.6094" style="stroke:#64748B;stroke-width:1;"/><text fill="#475569" font-family="Verdana" font-size="10" lengthAdjust="spacing" textLength="144.8535" x="269.14" y="541.8916">POST :8000/api/v1/analysis/*</text><text fill="#475569" font-family="Verdana" font-size="10" lengthAdjust="spacing" textLength="88.2715" x="297.431" y="553.5322">(CVE, SIEM, Chat)</text></g><!--link DASH to API--><g class="link" data-entity-1="ent0038" data-entity-2="ent0003" data-link-type="dependency" data-source-line="103" id="lnk40"><path d="M164,518.6094 C184.2,518.6094 207.8275,518.6094 231.9063,518.6094 C234.9161,518.6094 237.933,518.6094 240.9511,518.6094 C242.4602,518.6094 237.9696,518.6094 239.4785,518.6094" fill="none" id="DASH-to-API" style="stroke:#64748B;stroke-width:1;"/><polygon fill="#64748B" points="245.4785,518.6094,236.4785,514.6094,240.4785,518.6094,236.4785,522.6094,245.4785,518.6094" style="stroke:#64748B;stroke-width:1;"/><text fill="#475569" font-family="Verdana" font-size="10" lengthAdjust="spacing" textLength="87.1973" x="194.6742" y="503.8916">GET :8000/health</text><text fill="#475569" font-family="Verdana" font-size="10" lengthAdjust="spacing" textLength="104.7656" x="185.89" y="515.5322">GET :8000/api/config</text></g><?plantuml-src tLPTRjj647xdAQRkW-qq-fTZMK02o18j6xKbGLJT5f4WhCYbk36vIonNIjmWG8zGeEq1YZuKxMlG4-WcEKbdbwH5oKuF49iFukutCz_EpxSyX4-___9bFDOXd7Uwtzg37dpw-JVeNNNwuyvD1vfjwDcZw-6FD_PWWg0lvy3MLogW4OKu98nRLaXz1Kg0PCj0WSSaTHKJt4hk68-99164Z5Dr7rCGKWMYiC65HnCQGwDQM9I4t-d5LjKgheeLzrmXEPNGAgmlY7ktD9jT4Ge9N_lchu3mg4zMeReGN6MG6gsVDHPFGnps4uLQaSy0IPuBwL6PcPyrIMFHsaSyub7pJ_opFLI1HDMldTP9ORyZ5VE9gtPYlMYUDbkBfr2FuhLyuhi5P5T4iU2Kg_ydluNjUwHrslAhEx6bUFjvOhXPE5_pzEJanUxvrHDPelwPszX75GdxhjTeUfQbc0efN914TKPNe1rHxgKZH-DGt4Tu1ClI7GK73fLhvg6rC-mU04dWSkXCuBrb0QI0FJTJFfB2fKaYsh1QCzrcGEAu7663j_77bDVgf-Kg_jVQhMgrQdng-_Ve4S3DKmYlSyUTE9wbeD4-f7jhWo7eKWF1TsSVStrzasEc_2XaYePXT6pWkFK8xb2b65ycY8tlFS8LSrDmzw9li2Jh6ZWeKxwUSbTmdorNacp-slmfp77imUqUr2EALDmrdRl43MXbof-LtoI2mv5vXy5jxzXOTZlTIzionXoh1mkXb8X0-3f5PXbqTn3k4az0Z6MHArvU42HUdsNx9DvyJ62nOg477W7wJb6U8BLojd-p-UYjGYnFiIpPNe_9DYJ2BNaa2HQ2IA-oIEjQCGZT9vfOWQBHB2IOvmTqMkUZyV3sgcUFwreGKBD0G8Jj4Wh0VB2roA2wKO7mpHyXIoWSOVsUWtDbtpo7Ra3KSVa9Z_0I3ZWMwo1FnrBNhGQRlp4N8IqjI48zE4fefCqo5m-y0JviMzTnqlP17MoVLAirKm9Sd0-6FVjnGshukHHtLCuouAwxdCat6QTwsjjzlBISnzukxsE1uf-mf2z971YNb_rzbDaRKwoqoiBsntkz9SrkKZ7HngE9axFImrCglTgUg0qqOWfSbeXvQeLTlcO455uuIogpnJaNRuyBzja9sh2aQhuCnOA4ywNcTNGyvP8I3t8AEYhs0PJBh_GGe4a-GwNaOQvS8YLT4j3Ze_4uiyR0z3wQX9j_AZHn9LrJCEDXuMai9J1wW9NIYSJd4EfbSEp-TuFU40QRN-68B0Xx9m3dGalKSLkN7yOhZ1xHXneLrWuo2IXMEmKDmv141DgrMhFHrA8XN1Ac0pgyliOlalaWm-_KobWrolKf5oiGAoNpdfzjBRl3crJ5FXJYTRWAf8YPgrEEyIIDX19fmCvWSlbqE3SaAu-M0iBkLgLdinoy4y7qmI4qoZ2nnrtxQlmeLuM4OCfGYA02Wojdyf2nxT8UCzpupA1eMHxRU4tWSMOPDAE5XF0vX6ksr8BvBqtoWgLQ81BWMhvIWfPf3js33y7Q42WLluE-FR6qVflTXwfWzwG23wEX9lmwbWAlBofV2bETsTOcI-pdBKXUbLb-5tRn7J_MK0FU9bIQ99oFXzyxA4ew1uKCZAdd10o5qJRgYzzm-ZuHyIekgoIzJ-mV9hislLnomHbr3AJNSIvrkX2QKiQ1R1kUOExE2ebPPLsh44x2UnIIoZECig-XblPICCV4PTO19Q4Afdoxelsbzzb_?></g></svg>