<svg xmlns="http://www.w3.org/2000/svg" xmlns:xlink="http://www.w3.org/1999/xlink" contentStyleType="text/css" data-diagram-type="DESCRIPTION" height="1550px" preserveAspectRatio="none" style="width:1220px;height:1550px;background:#FFFFFF;" version="1.1" viewBox="0 0 1220 1550" width="1220px" zoomAndPan="magnify"><?plantuml 1.2026.4beta2?><defs/><g><g class="title" data-source-line="24"><text fill="#1E293B" font-family="Verdana" font-size="22" font-weight="700" lengthAdjust="spacing" textLength="625.6787" x="296.6306" y="35.4209">Agent 1 &#8212; Diagrama de Componentes e Interfaces</text></g><!--cluster Host: Servidor SOC--><g class="cluster" data-qualified-name="Host. Servidor SOC" data-source-line="30" id="ent0002"><path d="M15,181.6094 L120.7979,181.6094 A6,6 0 0 1 124.7979,185.6094 L131.7979,199.25 L1201.94,199.25 A4,4 0 0 1 1205.94,203.25 L1205.94,1531.6094 A4,4 0 0 1 1201.94,1535.6094 L15,1535.6094 A4,4 0 0 1 11,1531.6094 L11,185.6094 A4,4 0 0 1 15,181.6094" fill="#F1F5F9" style="stroke:#CBD5E1;stroke-width:1;"/><line style="stroke:#CBD5E1;stroke-width:1;" x1="11" x2="131.7979" y1="199.25" y2="199.25"/><text fill="#0F172A" font-family="Verdana" font-size="10" font-weight="700" lengthAdjust="spacing" textLength="107.7979" x="15" y="192.8916">Host: Servidor SOC</text></g><!--cluster SSE Server (:5001)--><g class="cluster" data-qualified-name="Host. Servidor SOC.SSE Server ..5001." data-source-line="32" id="ent0003"><path d="M408.7,219.6094 L513.0184,219.6094 A6,6 0 0 1 517.0184,223.6094 L524.0184,237.25 L563.89,237.25 A4,4 0 0 1 567.89,241.25 L567.89,722.6094 A4,4 0 0 1 563.89,726.6094 L408.7,726.6094 A4,4 0 0 1 404.7,722.6094 L404.7,223.6094 A4,4 0 0 1 408.7,219.6094" fill="#F1F5F9" style="stroke:#CBD5E1;stroke-width:1;"/><line style="stroke:#CBD5E1;stroke-width:1;" x1="404.7" x2="524.0184" y1="237.25" y2="237.25"/><text fill="#0F172A" font-family="Verdana" font-size="10" font-weight="700" lengthAdjust="spacing" textLength="106.3184" x="408.7" y="230.8916">SSE Server (:5001)</text></g><!--cluster Agent 1 (:8002)--><g class="cluster" data-qualified-name="Host. Servidor SOC.Agent 1 ..8002." data-source-line="49" id="ent0018"><path d="M39,1139.6094 L125.4717,1139.6094 A6,6 0 0 1 129.4717,1143.6094 L136.4717,1157.25 L1177.94,1157.25 A4,4 0 0 1 1181.94,1161.25 L1181.94,1452.6094 A4,4 0 0 1 1177.94,1456.6094 L39,1456.6094 A4,4 0 0 1 35,1452.6094 L35,1143.6094 A4,4 0 0 1 39,1139.6094" fill="#F1F5F9" style="stroke:#CBD5E1;stroke-width:1;"/><line style="stroke:#CBD5E1;stroke-width:1;" x1="35" x2="136.4717" y1="1157.25" y2="1157.25"/><text fill="#0F172A" font-family="Verdana" font-size="10" font-weight="700" lengthAdjust="spacing" textLength="88.4717" x="39" y="1150.8916">Agent 1 (:8002)</text></g><!--cluster Agent 2 ? Graph Reporter--><g class="cluster" data-qualified-name="Host. Servidor SOC.Agent 2 . Graph Reporter" data-source-line="76" id="ent0038"><path d="M204.92,927.6094 L351.4845,927.6094 A6,6 0 0 1 355.4845,931.6094 L362.4845,945.25 L507.29,945.25 A4,4 0 0 1 511.29,949.25 L511.29,1111.6094 A4,4 0 0 1 507.29,1115.6094 L204.92,1115.6094 A4,4 0 0 1 200.92,1111.6094 L200.92,931.6094 A4,4 0 0 1 204.92,927.6094" fill="#F1F5F9" style="stroke:#CBD5E1;stroke-width:1;"/><line style="stroke:#CBD5E1;stroke-width:1;" x1="200.92" x2="362.4845" y1="945.25" y2="945.25"/><text fill="#0F172A" font-family="Verdana" font-size="10" font-weight="700" lengthAdjust="spacing" textLength="148.5645" x="204.92" y="938.8916">Agent 2 &#8212; Graph Reporter</text></g><!--cluster Texer / LaTeX (:5002)--><g class="cluster" data-qualified-name="Host. Servidor SOC.Texer . LaTeX ..5002." data-source-line="83" id="ent0043"><path d="M412.1,750.6094 L531.3695,750.6094 A6,6 0 0 1 535.3695,754.6094 L542.3695,768.25 L560.48,768.25 A4,4 0 0 1 564.48,772.25 L564.48,899.6094 A4,4 0 0 1 560.48,903.6094 L412.1,903.6094 A4,4 0 0 1 408.1,899.6094 L408.1,754.6094 A4,4 0 0 1 412.1,750.6094" fill="#F1F5F9" style="stroke:#CBD5E1;stroke-width:1;"/><line style="stroke:#CBD5E1;stroke-width:1;" x1="408.1" x2="542.3695" y1="768.25" y2="768.25"/><text fill="#0F172A" font-family="Verdana" font-size="10" font-weight="700" lengthAdjust="spacing" textLength="121.2695" x="412.1" y="761.8916">Texer / LaTeX (:5002)</text></g><!--cluster Cliente Web--><g class="cluster" data-qualified-name="Cliente Web" data-source-line="102" id="ent0053"><path d="M208.93,57.6094 L275.0404,57.6094 A6,6 0 0 1 279.0404,61.6094 L286.0404,75.25 L562.3,75.25 A4,4 0 0 1 566.3,79.25 L566.3,153.6094 A4,4 0 0 1 562.3,157.6094 L208.93,157.6094 A4,4 0 0 1 204.93,153.6094 L204.93,61.6094 A4,4 0 0 1 208.93,57.6094" fill="#F1F5F9" style="stroke:#CBD5E1;stroke-width:1;"/><line style="stroke:#CBD5E1;stroke-width:1;" x1="204.93" x2="286.0404" y1="75.25" y2="75.25"/><text fill="#0F172A" font-family="Verdana" font-size="10" font-weight="700" lengthAdjust="spacing" textLength="68.1104" x="208.93" y="68.8916">Cliente Web</text></g><g class="entity" data-qualified-name="Host. Servidor SOC.GMN47" data-source-line="90" id="ent0048"><path d="M1024.43,1476.1494 L1024.43,1513.0713 A4,4 0 0 0 1028.43,1517.0713 L1152.0892,1517.0713 A4,4 0 0 0 1156.0892,1513.0713 L1156.0892,1482.1494 L1146.0892,1472.1494 L1028.43,1472.1494 A4,4 0 0 0 1024.43,1476.1494" fill="#FEF9C3" style="stroke:#FCD34D;stroke-width:1;"/><path d="M1146.0892,1472.1494 L1146.0892,1480.1494 A2,2 0 0 0 1148.0892,1482.1494 L1156.0892,1482.1494 L1146.0892,1472.1494" fill="#FEF9C3" style="stroke:#FCD34D;stroke-width:1;"/><text fill="#1E293B" font-family="Verdana" font-size="10" lengthAdjust="spacing" textLength="95.5859" x="1030.43" y="1486.4316">Naive Bayes online</text><text fill="#1E293B" font-family="Verdana" font-size="10" lengthAdjust="spacing" textLength="95.5566" x="1030.43" y="1498.0722">Persistido em JSON</text><text fill="#1E293B" font-family="Verdana" font-size="10" lengthAdjust="spacing" textLength="110.6592" x="1030.43" y="1509.7129">Aprende por operador</text></g><g class="entity" data-qualified-name="Host. Servidor SOC.GMN50" data-source-line="96" id="ent0051"><path d="M798.08,1479.1494 L798.08,1516.0713 A4,4 0 0 0 802.08,1520.0713 L950.578,1520.0713 A4,4 0 0 0 954.578,1516.0713 L954.578,1485.1494 L944.578,1475.1494 L802.08,1475.1494 A4,4 0 0 0 798.08,1479.1494" fill="#FEF9C3" style="stroke:#FCD34D;stroke-width:1;"/><path d="M944.578,1475.1494 L944.578,1483.1494 A2,2 0 0 0 946.578,1485.1494 L954.578,1485.1494 L944.578,1475.1494" fill="#FEF9C3" style="stroke:#FCD34D;stroke-width:1;"/><text fill="#1E293B" font-family="Verdana" font-size="10" lengthAdjust="spacing" textLength="135.498" x="804.08" y="1489.4316">Grafo dirigido de hip&#243;teses</text><text fill="#1E293B" font-family="Verdana" font-size="10" lengthAdjust="spacing" textLength="131.0303" x="804.08" y="1501.0722">Decay temporal de scores</text><text fill="#1E293B" font-family="Verdana" font-size="10" lengthAdjust="spacing" textLength="120.9521" x="804.08" y="1512.7129">Persistido entre sess&#245;es</text></g><!--entity SSE--><g class="entity" data-qualified-name="Host. Servidor SOC.SSE Server ..5001..SSE" data-source-line="33" id="ent0004"><rect fill="#F8FAFC" height="53.2813" rx="4" ry="4" style="stroke:#94A3B8;stroke-width:1;" width="125.9131" x="423.34" y="656.9694"/><rect fill="#F8FAFC" height="10" style="stroke:#94A3B8;stroke-width:1;" width="15" x="529.2531" y="661.9694"/><rect fill="#F8FAFC" height="2" style="stroke:#94A3B8;stroke-width:1;" width="4" x="527.2531" y="663.9694"/><rect fill="#F8FAFC" height="2" style="stroke:#94A3B8;stroke-width:1;" width="4" x="527.2531" y="667.9694"/><text fill="#0F172A" font-family="Verdana" font-size="10" lengthAdjust="spacing" textLength="55.3369" x="438.34" y="686.2516">SSE Broker</text><text fill="#0F172A" font-family="Verdana" font-size="10" lengthAdjust="spacing" textLength="85.9131" x="438.34" y="697.8922">/ingest + /events</text></g><!--entity SSEH--><g class="entity" data-qualified-name="Host. Servidor SOC.SSE Server ..5001..SSEH" data-source-line="34" id="ent0005"><rect fill="#F8FAFC" height="53.2813" rx="4" ry="4" style="stroke:#94A3B8;stroke-width:1;" width="131.1914" x="420.7" y="514.9694"/><rect fill="#F8FAFC" height="10" style="stroke:#94A3B8;stroke-width:1;" width="15" x="531.8914" y="519.9694"/><rect fill="#F8FAFC" height="2" style="stroke:#94A3B8;stroke-width:1;" width="4" x="529.8914" y="521.9694"/><rect fill="#F8FAFC" height="2" style="stroke:#94A3B8;stroke-width:1;" width="4" x="529.8914" y="525.9694"/><text fill="#0F172A" font-family="Verdana" font-size="10" lengthAdjust="spacing" textLength="68.3203" x="435.7" y="544.2516">HTTP Handler</text><text fill="#0F172A" font-family="Verdana" font-size="10" lengthAdjust="spacing" textLength="91.1914" x="435.7" y="555.8922">do_GET / do_POST</text></g><!--entity ISSE_OUT--><g class="entity" data-qualified-name="Host. Servidor SOC.SSE Server ..5001..ISSE_OUT" data-source-line="35" id="ent0006"><ellipse cx="486.29" cy="258.6094" fill="#E2E8F0" rx="8" ry="8" style="stroke:#64748B;stroke-width:1;"/><text fill="#1E293B" font-family="Verdana" font-size="10" lengthAdjust="spacing" textLength="60.415" x="456.0825" y="284.8916">GET /events</text></g><!--entity ISSE_IN--><g class="entity" data-qualified-name="Host. Servidor SOC.SSE Server ..5001..ISSE_IN" data-source-line="36" id="ent0007"><ellipse cx="486.29" cy="612.6094" fill="#E2E8F0" rx="8" ry="8" style="stroke:#64748B;stroke-width:1;"/><text fill="#1E293B" font-family="Verdana" font-size="10" lengthAdjust="spacing" textLength="63.6523" x="454.4638" y="638.8916">POST /ingest</text></g><!--entity IPROC--><g class="entity" data-qualified-name="Host. Servidor SOC.SSE Server ..5001..IPROC" data-source-line="37" id="ent0008"><ellipse cx="486.29" cy="364.6094" fill="#E2E8F0" rx="8" ry="8" style="stroke:#64748B;stroke-width:1;"/><text fill="#1E293B" font-family="Verdana" font-size="10" lengthAdjust="spacing" textLength="154.7314" x="408.9243" y="390.8916">POST /api/agent1/process-next</text></g><!--entity ICONF--><g class="entity" data-qualified-name="Host. Servidor SOC.SSE Server ..5001..ICONF" data-source-line="38" id="ent0009"><ellipse cx="486.29" cy="417.6094" fill="#E2E8F0" rx="8" ry="8" style="stroke:#64748B;stroke-width:1;"/><text fill="#1E293B" font-family="Verdana" font-size="10" lengthAdjust="spacing" textLength="186.1914" x="393.1943" y="443.8916">POST /api/agent1/confirm-hypothesis</text></g><!--entity ISEEK--><g class="entity" data-qualified-name="Host. Servidor SOC.SSE Server ..5001..ISEEK" data-source-line="39" id="ent0010"><ellipse cx="486.29" cy="470.6094" fill="#E2E8F0" rx="8" ry="8" style="stroke:#64748B;stroke-width:1;"/><text fill="#1E293B" font-family="Verdana" font-size="10" lengthAdjust="spacing" textLength="113.4521" x="429.5639" y="496.8916">POST /api/agent1/seek</text></g><!--entity IFINISH--><g class="entity" data-qualified-name="Host. Servidor SOC.SSE Server ..5001..IFINISH" data-source-line="40" id="ent0011"><ellipse cx="486.29" cy="311.6094" fill="#E2E8F0" rx="8" ry="8" style="stroke:#64748B;stroke-width:1;"/><text fill="#1E293B" font-family="Verdana" font-size="10" lengthAdjust="spacing" textLength="117.1094" x="427.7353" y="337.8916">POST /api/agent1/finish</text></g><!--entity MAIN--><g class="entity" data-qualified-name="Host. Servidor SOC.Agent 1 ..8002..MAIN" data-source-line="50" id="ent0019"><rect fill="#F8FAFC" height="53.2813" rx="4" ry="4" style="stroke:#94A3B8;stroke-width:1;" width="105.918" x="51" y="1225.9694"/><rect fill="#F8FAFC" height="10" style="stroke:#94A3B8;stroke-width:1;" width="15" x="136.918" y="1230.9694"/><rect fill="#F8FAFC" height="2" style="stroke:#94A3B8;stroke-width:1;" width="4" x="134.918" y="1232.9694"/><rect fill="#F8FAFC" height="2" style="stroke:#94A3B8;stroke-width:1;" width="4" x="134.918" y="1236.9694"/><text fill="#0F172A" font-family="Verdana" font-size="10" lengthAdjust="spacing" textLength="40.4297" x="66" y="1255.2516">main.py</text><text fill="#0F172A" font-family="Verdana" font-size="10" lengthAdjust="spacing" textLength="65.918" x="66" y="1266.8922">Orchestrador</text></g><!--entity PAL--><g class="entity" data-qualified-name="Host. Servidor SOC.Agent 1 ..8002..PAL" data-source-line="51" id="ent0020"><rect fill="#F8FAFC" height="53.2813" rx="4" ry="4" style="stroke:#94A3B8;stroke-width:1;" width="133.1006" x="222.26" y="1228.9694"/><rect fill="#F8FAFC" height="10" style="stroke:#94A3B8;stroke-width:1;" width="15" x="335.3606" y="1233.9694"/><rect fill="#F8FAFC" height="2" style="stroke:#94A3B8;stroke-width:1;" width="4" x="333.3606" y="1235.9694"/><rect fill="#F8FAFC" height="2" style="stroke:#94A3B8;stroke-width:1;" width="4" x="333.3606" y="1239.9694"/><text fill="#0F172A" font-family="Verdana" font-size="10" lengthAdjust="spacing" textLength="93.1006" x="237.26" y="1258.2516">process_alert_loop</text><text fill="#0F172A" font-family="Verdana" font-size="10" lengthAdjust="spacing" textLength="84.0918" x="237.26" y="1269.8922">Thread dedicada</text></g><!--entity WM--><g class="entity" data-qualified-name="Host. Servidor SOC.Agent 1 ..8002..WM" data-source-line="52" id="ent0021"><rect fill="#F8FAFC" height="41.6406" rx="4" ry="4" style="stroke:#94A3B8;stroke-width:1;" width="123.4814" x="424.55" y="1240.7894"/><rect fill="#F8FAFC" height="10" style="stroke:#94A3B8;stroke-width:1;" width="15" x="528.0314" y="1245.7894"/><rect fill="#F8FAFC" height="2" style="stroke:#94A3B8;stroke-width:1;" width="4" x="526.0314" y="1247.7894"/><rect fill="#F8FAFC" height="2" style="stroke:#94A3B8;stroke-width:1;" width="4" x="526.0314" y="1251.7894"/><text fill="#0F172A" font-family="Verdana" font-size="10" lengthAdjust="spacing" textLength="83.4814" x="439.55" y="1270.0716">WindowManager</text></g><!--entity AW--><g class="entity" data-qualified-name="Host. Servidor SOC.Agent 1 ..8002..AW" data-source-line="53" id="ent0022"><rect fill="#F8FAFC" height="53.2813" rx="4" ry="4" style="stroke:#94A3B8;stroke-width:1;" width="151.3672" x="1014.57" y="1278.9694"/><rect fill="#F8FAFC" height="10" style="stroke:#94A3B8;stroke-width:1;" width="15" x="1145.9372" y="1283.9694"/><rect fill="#F8FAFC" height="2" style="stroke:#94A3B8;stroke-width:1;" width="4" x="1143.9372" y="1285.9694"/><rect fill="#F8FAFC" height="2" style="stroke:#94A3B8;stroke-width:1;" width="4" x="1143.9372" y="1289.9694"/><text fill="#0F172A" font-family="Verdana" font-size="10" lengthAdjust="spacing" textLength="84.082" x="1029.57" y="1308.2516">AdaptiveWindow</text><text fill="#0F172A" font-family="Verdana" font-size="10" lengthAdjust="spacing" textLength="111.3672" x="1029.57" y="1319.8922">(inst&#226;ncias por janela)</text></g><!--entity HG--><g class="entity" data-qualified-name="Host. Servidor SOC.Agent 1 ..8002..HG" data-source-line="54" id="ent0023"><rect fill="#F8FAFC" height="53.2813" rx="4" ry="4" style="stroke:#94A3B8;stroke-width:1;" width="126.1865" x="611.89" y="1169.9694"/><rect fill="#F8FAFC" height="10" style="stroke:#94A3B8;stroke-width:1;" width="15" x="718.0765" y="1174.9694"/><rect fill="#F8FAFC" height="2" style="stroke:#94A3B8;stroke-width:1;" width="4" x="716.0765" y="1176.9694"/><rect fill="#F8FAFC" height="2" style="stroke:#94A3B8;stroke-width:1;" width="4" x="716.0765" y="1180.9694"/><text fill="#0F172A" font-family="Verdana" font-size="10" lengthAdjust="spacing" textLength="86.1865" x="626.89" y="1199.2516">HypothesisGraph</text><text fill="#0F172A" font-family="Verdana" font-size="10" lengthAdjust="spacing" textLength="47.1191" x="626.89" y="1210.8922">Singleton</text></g><!--entity PC--><g class="entity" data-qualified-name="Host. Servidor SOC.Agent 1 ..8002..PC" data-source-line="55" id="ent0024"><rect fill="#F8FAFC" height="53.2813" rx="4" ry="4" style="stroke:#94A3B8;stroke-width:1;" width="146.4746" x="803.09" y="1349.9694"/><rect fill="#F8FAFC" height="10" style="stroke:#94A3B8;stroke-width:1;" width="15" x="929.5646" y="1354.9694"/><rect fill="#F8FAFC" height="2" style="stroke:#94A3B8;stroke-width:1;" width="4" x="927.5646" y="1356.9694"/><rect fill="#F8FAFC" height="2" style="stroke:#94A3B8;stroke-width:1;" width="4" x="927.5646" y="1360.9694"/><text fill="#0F172A" font-family="Verdana" font-size="10" lengthAdjust="spacing" textLength="106.4746" x="818.09" y="1379.2516">ProbabilisticClassifier</text><text fill="#0F172A" font-family="Verdana" font-size="10" lengthAdjust="spacing" textLength="47.1191" x="818.09" y="1390.8922">Singleton</text></g><!--entity ICALLBACK--><g class="entity" data-qualified-name="Host. Servidor SOC.Agent 1 ..8002..ICALLBACK" data-source-line="57" id="ent0025"><ellipse cx="103.96" cy="1181.6094" fill="#E2E8F0" rx="8" ry="8" style="stroke:#64748B;stroke-width:1;"/><text fill="#1E293B" font-family="Verdana" font-size="10" lengthAdjust="spacing" textLength="112.4707" x="47.7246" y="1207.8916">POST /agent1/callback</text></g><!--entity IWE--><g class="entity" data-qualified-name="Host. Servidor SOC.Agent 1 ..8002..IWE" data-source-line="58" id="ent0026"><ellipse cx="486.29" cy="1196.6094" fill="#E2E8F0" rx="8" ry="8" style="stroke:#64748B;stroke-width:1;"/><text fill="#1E293B" font-family="Verdana" font-size="10" lengthAdjust="spacing" textLength="88.1006" x="442.2397" y="1222.8916">IWindowEvidence</text></g><!--entity ICL--><g class="entity" data-qualified-name="Host. Servidor SOC.Agent 1 ..8002..ICL" data-source-line="59" id="ent0027"><ellipse cx="876.32" cy="1305.6094" fill="#E2E8F0" rx="8" ry="8" style="stroke:#64748B;stroke-width:1;"/><text fill="#1E293B" font-family="Verdana" font-size="10" lengthAdjust="spacing" textLength="69.1162" x="841.7619" y="1331.8916">IClassification</text></g><!--entity IGS--><g class="entity" data-qualified-name="Host. Servidor SOC.Agent 1 ..8002..IGS" data-source-line="60" id="ent0028"><ellipse cx="876.32" cy="1178.6094" fill="#E2E8F0" rx="8" ry="8" style="stroke:#64748B;stroke-width:1;"/><text fill="#1E293B" font-family="Verdana" font-size="10" lengthAdjust="spacing" textLength="60.0928" x="846.2736" y="1204.8916">IGraphState</text></g><!--entity GR--><g class="entity" data-qualified-name="Host. Servidor SOC.Agent 2 . Graph Reporter.GR" data-source-line="77" id="ent0039"><rect fill="#F8FAFC" height="53.2813" rx="4" ry="4" style="stroke:#94A3B8;stroke-width:1;" width="127.5293" x="225.04" y="1045.9694"/><rect fill="#F8FAFC" height="10" style="stroke:#94A3B8;stroke-width:1;" width="15" x="332.5693" y="1050.9694"/><rect fill="#F8FAFC" height="2" style="stroke:#94A3B8;stroke-width:1;" width="4" x="330.5693" y="1052.9694"/><rect fill="#F8FAFC" height="2" style="stroke:#94A3B8;stroke-width:1;" width="4" x="330.5693" y="1056.9694"/><text fill="#0F172A" font-family="Verdana" font-size="10" lengthAdjust="spacing" textLength="74.5361" x="240.04" y="1075.2516">GraphReporter</text><text fill="#0F172A" font-family="Verdana" font-size="10" lengthAdjust="spacing" textLength="87.5293" x="240.04" y="1086.8922">Thread de polling</text></g><!--entity PQ--><g class="entity" data-qualified-name="Host. Servidor SOC.Agent 2 . Graph Reporter.PQ" data-source-line="78" id="ent0040"><rect fill="#F8FAFC" height="53.2813" rx="4" ry="4" style="stroke:#94A3B8;stroke-width:1;" width="143.7793" x="216.92" y="957.9694"/><rect fill="#F8FAFC" height="10" style="stroke:#94A3B8;stroke-width:1;" width="15" x="340.6993" y="962.9694"/><rect fill="#F8FAFC" height="2" style="stroke:#94A3B8;stroke-width:1;" width="4" x="338.6993" y="964.9694"/><rect fill="#F8FAFC" height="2" style="stroke:#94A3B8;stroke-width:1;" width="4" x="338.6993" y="968.9694"/><text fill="#0F172A" font-family="Verdana" font-size="10" lengthAdjust="spacing" textLength="73.1836" x="231.92" y="987.2516">PendingQueue</text><text fill="#0F172A" font-family="Verdana" font-size="10" lengthAdjust="spacing" textLength="103.7793" x="231.92" y="998.8922">.pending_queue.json</text></g><!--entity IGC--><g class="entity" data-qualified-name="Host. Servidor SOC.Agent 2 . Graph Reporter.IGC" data-source-line="79" id="ent0041"><ellipse cx="486.29" cy="1072.6094" fill="#E2E8F0" rx="8" ry="8" style="stroke:#64748B;stroke-width:1;"/><text fill="#1E293B" font-family="Verdana" font-size="10" lengthAdjust="spacing" textLength="142.5342" x="415.0229" y="1098.8916">get_confirmed_hypotheses()</text></g><!--entity TEX--><g class="entity" data-qualified-name="Host. Servidor SOC.Texer . LaTeX ..5002..TEX" data-source-line="84" id="ent0044"><rect fill="#F8FAFC" height="53.2813" rx="4" ry="4" style="stroke:#94A3B8;stroke-width:1;" width="124.3799" x="424.1" y="833.9694"/><rect fill="#F8FAFC" height="10" style="stroke:#94A3B8;stroke-width:1;" width="15" x="528.4799" y="838.9694"/><rect fill="#F8FAFC" height="2" style="stroke:#94A3B8;stroke-width:1;" width="4" x="526.4799" y="840.9694"/><rect fill="#F8FAFC" height="2" style="stroke:#94A3B8;stroke-width:1;" width="4" x="526.4799" y="844.9694"/><text fill="#0F172A" font-family="Verdana" font-size="10" lengthAdjust="spacing" textLength="84.3799" x="439.1" y="863.2516">ReportGenerator</text><text fill="#0F172A" font-family="Verdana" font-size="10" lengthAdjust="spacing" textLength="53.3887" x="439.1" y="874.8922">PDF + .tex</text></g><!--entity ITEX--><g class="entity" data-qualified-name="Host. Servidor SOC.Texer . LaTeX ..5002..ITEX" data-source-line="85" id="ent0045"><ellipse cx="486.29" cy="789.6094" fill="#E2E8F0" rx="8" ry="8" style="stroke:#64748B;stroke-width:1;"/><text fill="#1E293B" font-family="Verdana" font-size="10" lengthAdjust="spacing" textLength="78.208" x="447.186" y="815.8916">POST /generate</text></g><!--entity DASH--><g class="entity" data-qualified-name="Cliente Web.DASH" data-source-line="103" id="ent0054"><rect fill="#F8FAFC" height="53.2813" rx="4" ry="4" style="stroke:#94A3B8;stroke-width:1;" width="135.7617" x="220.93" y="87.9694"/><rect fill="#F8FAFC" height="10" style="stroke:#94A3B8;stroke-width:1;" width="15" x="336.6917" y="92.9694"/><rect fill="#F8FAFC" height="2" style="stroke:#94A3B8;stroke-width:1;" width="4" x="334.6917" y="94.9694"/><rect fill="#F8FAFC" height="2" style="stroke:#94A3B8;stroke-width:1;" width="4" x="334.6917" y="98.9694"/><text fill="#0F172A" font-family="Verdana" font-size="10" lengthAdjust="spacing" textLength="76.8262" x="235.93" y="117.2516">Dashboard SPA</text><text fill="#0F172A" font-family="Verdana" font-size="10" lengthAdjust="spacing" textLength="95.7617" x="235.93" y="128.8922">(Vite + TypeScript)</text></g><!--entity SLICE--><g class="entity" data-qualified-name="Cliente Web.SLICE" data-source-line="104" id="ent0055"><rect fill="#F8FAFC" height="53.2813" rx="4" ry="4" style="stroke:#94A3B8;stroke-width:1;" width="128.0127" x="422.29" y="87.9694"/><rect fill="#F8FAFC" height="10" style="stroke:#94A3B8;stroke-width:1;" width="15" x="530.3027" y="92.9694"/><rect fill="#F8FAFC" height="2" style="stroke:#94A3B8;stroke-width:1;" width="4" x="528.3027" y="94.9694"/><rect fill="#F8FAFC" height="2" style="stroke:#94A3B8;stroke-width:1;" width="4" x="528.3027" y="98.9694"/><text fill="#0F172A" font-family="Verdana" font-size="10" lengthAdjust="spacing" textLength="35.8643" x="437.29" y="117.2516">Slice.ts</text><text fill="#0F172A" font-family="Verdana" font-size="10" lengthAdjust="spacing" textLength="88.0127" x="437.29" y="128.8922">Controlo de ritmo</text></g><!--link SSE to ISSE_OUT--><g class="link" data-entity-1="ent0004" data-entity-2="ent0006" data-link-type="association" data-source-line="41" id="lnk12"><path d="M549.7,683.6094 C574.42,683.6094 596.94,683.6094 596.94,683.6094 C596.94,683.6094 596.94,258.6094 596.94,258.6094 C596.94,258.6094 522.48,258.6094 495.73,258.6094" fill="none" id="SSE-ISSE_OUT" style="stroke:#64748B;stroke-width:1;"/></g><!--link SSE to ISSE_IN--><g class="link" data-entity-1="ent0004" data-entity-2="ent0007" data-link-type="association" data-source-line="42" id="lnk13"><path d="M486.94,656.7694 C486.94,644.5194 486.94,630.7994 486.94,621.9494" fill="none" id="SSE-ISSE_IN" style="stroke:#64748B;stroke-width:1;"/></g><!--link SSEH to IPROC--><g class="link" data-entity-1="ent0005" data-entity-2="ent0008" data-link-type="association" data-source-line="43" id="lnk14"><path d="M522.94,514.7294 C522.94,465.2094 522.94,364.6094 522.94,364.6094 C522.94,364.6094 506.4,364.6094 495.54,364.6094" fill="none" id="SSEH-IPROC" style="stroke:#64748B;stroke-width:1;"/></g><!--link SSEH to ICONF--><g class="link" data-entity-1="ent0005" data-entity-2="ent0009" data-link-type="association" data-source-line="44" id="lnk15"><path d="M509.94,514.6794 C509.94,477.3994 509.94,414.6094 509.94,414.6094 C509.94,414.6094 502.25,414.6094 495.64,414.6094" fill="none" id="SSEH-ICONF" style="stroke:#64748B;stroke-width:1;"/></g><!--link SSEH to ISEEK--><g class="link" data-entity-1="ent0005" data-entity-2="ent0010" data-link-type="association" data-source-line="45" id="lnk16"><path d="M486.94,514.7694 C486.94,502.5194 486.94,488.7994 486.94,479.9494" fill="none" id="SSEH-ISEEK" style="stroke:#64748B;stroke-width:1;"/></g><!--link SSEH to IFINISH--><g class="link" data-entity-1="ent0005" data-entity-2="ent0011" data-link-type="association" data-source-line="46" id="lnk17"><path d="M536.94,514.7094 C536.94,453.1094 536.94,307.1094 536.94,307.1094 C536.94,307.1094 510.2,307.1094 495.58,307.1094" fill="none" id="SSEH-IFINISH" style="stroke:#64748B;stroke-width:1;"/></g><!--link MAIN to ICALLBACK--><g class="link" data-entity-1="ent0019" data-entity-2="ent0025" data-link-type="association" data-source-line="62" id="lnk29"><path d="M104.94,1225.7694 C104.94,1213.5194 104.94,1199.7994 104.94,1190.9494" fill="none" id="MAIN-ICALLBACK" style="stroke:#64748B;stroke-width:1;"/></g><!--link WM to IWE--><g class="link" data-entity-1="ent0021" data-entity-2="ent0026" data-link-type="association" data-source-line="63" id="lnk30"><path d="M486.94,1240.3294 C486.94,1228.6294 486.94,1214.7194 486.94,1205.7794" fill="none" id="WM-IWE" style="stroke:#64748B;stroke-width:1;"/></g><!--link PC to ICL--><g class="link" data-entity-1="ent0024" data-entity-2="ent0027" data-link-type="association" data-source-line="64" id="lnk31"><path d="M876.94,1349.7694 C876.94,1337.5194 876.94,1323.7994 876.94,1314.9494" fill="none" id="PC-ICL" style="stroke:#64748B;stroke-width:1;"/></g><!--link HG to IGS--><g class="link" data-entity-1="ent0023" data-entity-2="ent0028" data-link-type="association" data-source-line="65" id="lnk32"><path d="M738.41,1181.7294 C785.21,1181.7294 844.51,1181.7294 867.06,1181.7294" fill="none" id="HG-IGS" style="stroke:#64748B;stroke-width:1;"/></g><!--link HG to IGS--><g class="link" data-entity-1="ent0023" data-entity-2="ent0028" data-link-type="dependency" data-source-line="118" id="lnk66"><path d="M738.41,1175.8494 C785.21,1175.8494 838.51,1175.8494 861.06,1175.8494" fill="none" id="HG-to-IGS" style="stroke:#64748B;stroke-width:1;"/><polygon fill="#64748B" points="867.06,1175.8494,858.06,1171.8494,862.06,1175.8494,858.06,1179.8494,867.06,1175.8494" style="stroke:#64748B;stroke-width:1;"/><text fill="#475569" font-family="Verdana" font-size="10" lengthAdjust="spacing" textLength="63.7451" x="803.73" y="1186.1316">state update</text></g><!--link MAIN to PAL--><!--link MAIN to PAL--><g class="link" data-entity-1="ent0019" data-entity-2="ent0020" data-link-type="dependency" data-source-line="111" id="lnk59"><path d="M156.93,1245.7294 C177.2,1245.7294 194.59,1245.7294 215.99,1245.7294" fill="none" id="MAIN-to-PAL" style="stroke:#64748B;stroke-width:1;"/><polygon fill="#64748B" points="221.99,1245.7294,212.99,1241.7294,216.99,1245.7294,212.99,1249.7294,221.99,1245.7294" style="stroke:#64748B;stroke-width:1;"/><text fill="#475569" font-family="Verdana" font-size="10" lengthAdjust="spacing" textLength="74.7119" x="114.46" y="1256.0116">enqueue(alert)</text></g><!--link PAL to WM--><!--link PAL to WM--><g class="link" data-entity-1="ent0020" data-entity-2="ent0021" data-link-type="dependency" data-source-line="112" id="lnk60"><path d="M355.67,1254.6094 C377.82,1254.6094 396.38,1254.6094 418.16,1254.6094" fill="none" id="PAL-to-WM" style="stroke:#64748B;stroke-width:1;"/><polygon fill="#64748B" points="424.16,1254.6094,415.16,1250.6094,419.16,1254.6094,415.16,1258.6094,424.16,1254.6094" style="stroke:#64748B;stroke-width:1;"/><text fill="#475569" font-family="Verdana" font-size="10" lengthAdjust="spacing" textLength="48.3496" x="390.92" y="1264.8916">on_alert()</text></g><!--link WM to AW--><!--link WM to AW--><g class="link" data-entity-1="ent0021" data-entity-2="ent0022" data-link-type="dependency" data-source-line="113" id="lnk61"><path d="M506.94,1282.9194 C506.94,1287.4694 506.94,1290.9394 506.94,1290.9394 C506.94,1290.9394 850.32,1290.9394 1008.3,1290.9394" fill="none" id="WM-to-AW" style="stroke:#64748B;stroke-width:1;"/><polygon fill="#64748B" points="1014.3,1290.9394,1005.3,1286.9394,1009.3,1290.9394,1005.3,1294.9394,1014.3,1290.9394" style="stroke:#64748B;stroke-width:1;"/><text fill="#475569" font-family="Verdana" font-size="10" lengthAdjust="spacing" textLength="90.9863" x="665.61" y="1301.2216">&#171;creates / routes&#187;</text></g><!--link AW to HG--><!--link HG to PC--><!--link GR to PQ--><g class="link" data-entity-1="ent0039" data-entity-2="ent0040" data-link-type="association" data-source-line="80" id="lnk42"><path d="M288.94,1045.7294 C288.94,1034.9094 288.94,1022.4594 288.94,1011.6294" fill="none" id="GR-PQ" style="stroke:#64748B;stroke-width:1;"/></g><!--link TEX to ITEX--><g class="link" data-entity-1="ent0044" data-entity-2="ent0045" data-link-type="association" data-source-line="86" id="lnk46"><path d="M486.94,833.7694 C486.94,821.5194 486.94,807.7994 486.94,798.9494" fill="none" id="TEX-ITEX" style="stroke:#64748B;stroke-width:1;"/></g><!--link PC to GMN47--><g class="link" data-entity-1="ent0024" data-entity-2="ent0048" data-link-type="association" data-source-line="90" id="lnk49"><path d="M949.88,1376.6094 C1012.01,1376.6094 1090.94,1376.6094 1090.94,1376.6094 C1090.94,1376.6094 1090.94,1437.5694 1090.94,1471.8594" fill="none" id="PC-GMN47" style="stroke:#64748B;stroke-width:1;stroke-dasharray:7,7;"/></g><!--link HG to GMN50--><g class="link" data-entity-1="ent0023" data-entity-2="ent0051" data-link-type="association" data-source-line="96" id="lnk52"><path d="M654.94,1223.5894 C654.94,1297.4694 654.94,1497.6094 654.94,1497.6094 C654.94,1497.6094 734.02,1497.6094 797.65,1497.6094" fill="none" id="HG-GMN50" style="stroke:#64748B;stroke-width:1;stroke-dasharray:7,7;"/></g><!--reverse link DASH to SLICE--><g class="link" data-entity-1="ent0054" data-entity-2="ent0055" data-link-type="composition" data-source-line="105" id="lnk56"><path d="M369.05,114.6094 C390.12,114.6094 401.25,114.6094 422.04,114.6094" fill="none" id="DASH-backto-SLICE" style="stroke:#64748B;stroke-width:1;"/><polygon fill="#64748B" points="357.05,114.6094,363.05,118.6094,369.05,114.6094,363.05,110.6094,357.05,114.6094" style="stroke:#64748B;stroke-width:1;"/></g><!--link DASH to IPROC--><g class="link" data-entity-1="ent0054" data-entity-2="ent0008" data-link-type="dependency" data-source-line="109" id="lnk57"><path d="M275.94,141.5094 C275.94,205.5294 275.94,361.6094 275.94,361.6094 C275.94,361.6094 430.27,361.6094 470.98,361.6094" fill="none" id="DASH-to-IPROC" style="stroke:#64748B;stroke-width:1;"/><polygon fill="#64748B" points="476.98,361.6094,467.98,357.6094,471.98,361.6094,467.98,365.6094,476.98,361.6094" style="stroke:#64748B;stroke-width:1;"/><text fill="#475569" font-family="Verdana" font-size="10" lengthAdjust="spacing" textLength="67.5391" x="196.1754" y="362.3616">&#171;HTTP POST&#187;</text><text fill="#475569" font-family="Verdana" font-size="10" lengthAdjust="spacing" textLength="90.0098" x="184.94" y="374.0022">request next alert</text></g><!--link IPROC to MAIN--><g class="link" data-entity-1="ent0008" data-entity-2="ent0019" data-link-type="dependency" data-source-line="110" id="lnk58"><path d="M477.07,367.6094 C420.98,367.6094 127.94,367.6094 127.94,367.6094 C127.94,367.6094 127.94,1071.3194 127.94,1219.6394" fill="none" id="IPROC-to-MAIN" style="stroke:#64748B;stroke-width:1;"/><polygon fill="#64748B" points="127.94,1225.6394,131.94,1216.6394,127.94,1220.6394,123.94,1216.6394,127.94,1225.6394" style="stroke:#64748B;stroke-width:1;"/><text fill="#475569" font-family="Verdana" font-size="10" lengthAdjust="spacing" textLength="42.5684" x="84.94" y="632.3416">dispatch</text></g><!--link AW to ICL--><g class="link" data-entity-1="ent0022" data-entity-2="ent0027" data-link-type="dependency" data-source-line="114" id="lnk62"><path d="M1014.23,1302.6094 C965.71,1302.6094 913.9,1302.6094 891.67,1302.6094" fill="none" id="AW-to-ICL" style="stroke:#64748B;stroke-width:1;"/><polygon fill="#64748B" points="885.67,1302.6094,894.67,1306.6094,890.67,1302.6094,894.67,1298.6094,885.67,1302.6094" style="stroke:#64748B;stroke-width:1;"/><text fill="#475569" font-family="Verdana" font-size="10" lengthAdjust="spacing" textLength="80.2295" x="868.95" y="1299.8916">classify(phases)</text></g><!--link ICL to AW--><g class="link" data-entity-1="ent0027" data-entity-2="ent0022" data-link-type="dependency" data-source-line="115" id="lnk63"><path d="M885.79,1308.6094 C908.11,1308.6094 959.78,1308.6094 1008.21,1308.6094" fill="none" id="ICL-to-AW" style="stroke:#64748B;stroke-width:1;"/><polygon fill="#64748B" points="1014.21,1308.6094,1005.21,1304.6094,1009.21,1308.6094,1005.21,1312.6094,1014.21,1308.6094" style="stroke:#64748B;stroke-width:1;"/><text fill="#475569" font-family="Verdana" font-size="10" lengthAdjust="spacing" textLength="71.6895" x="878" y="1318.8916">CISOOption[3]</text></g><!--link AW to IWE--><g class="link" data-entity-1="ent0022" data-entity-2="ent0026" data-link-type="dependency" data-source-line="116" id="lnk64"><path d="M1014.16,1288.0994 C872.35,1288.0994 581.94,1288.0994 581.94,1288.0994 C581.94,1288.0994 581.94,1199.6094 581.94,1199.6094 C581.94,1199.6094 525.4,1199.6094 501.46,1199.6094" fill="none" id="AW-to-IWE" style="stroke:#64748B;stroke-width:1;"/><polygon fill="#64748B" points="495.46,1199.6094,504.46,1203.6094,500.46,1199.6094,504.46,1195.6094,495.46,1199.6094" style="stroke:#64748B;stroke-width:1;"/><text fill="#475569" font-family="Verdana" font-size="10" lengthAdjust="spacing" textLength="88.5547" x="621.56" y="1285.3816">&#171;emits evidence&#187;</text></g><!--link IWE to HG--><g class="link" data-entity-1="ent0026" data-entity-2="ent0023" data-link-type="dependency" data-source-line="117" id="lnk65"><path d="M495.65,1193.6094 C516.62,1193.6094 562.89,1193.6094 605.62,1193.6094" fill="none" id="IWE-to-HG" style="stroke:#64748B;stroke-width:1;"/><polygon fill="#64748B" points="611.62,1193.6094,602.62,1189.6094,606.62,1193.6094,602.62,1197.6094,611.62,1193.6094" style="stroke:#64748B;stroke-width:1;"/><text fill="#475569" font-family="Verdana" font-size="10" lengthAdjust="spacing" textLength="76.9629" x="476.64" y="1190.8916">add_evidence()</text></g><!--link AW to ISSE_IN--><g class="link" data-entity-1="ent0022" data-entity-2="ent0007" data-link-type="dependency" data-source-line="121" id="lnk67"><path d="M1090.94,1278.7494 C1090.94,1150.8394 1090.94,609.6094 1090.94,609.6094 C1090.94,609.6094 578.71,609.6094 501.79,609.6094" fill="none" id="AW-to-ISSE_IN" style="stroke:#64748B;stroke-width:1;"/><polygon fill="#64748B" points="495.79,609.6094,504.79,613.6094,500.79,609.6094,504.79,605.6094,495.79,609.6094" style="stroke:#64748B;stroke-width:1;"/><text fill="#475569" font-family="Verdana" font-size="10" lengthAdjust="spacing" textLength="81.25" x="1007.5757" y="656.8916">window_created</text><text fill="#475569" font-family="Verdana" font-size="10" lengthAdjust="spacing" textLength="84.5215" x="1005.94" y="668.5322">window_updated</text><text fill="#475569" font-family="Verdana" font-size="10" lengthAdjust="spacing" textLength="75.0439" x="1010.6788" y="680.1729">window_closed</text><text fill="#475569" font-family="Verdana" font-size="10" lengthAdjust="spacing" textLength="23.0908" x="1036.6553" y="691.8135">alert</text></g><!--link HG to ISSE_IN--><g class="link" data-entity-1="ent0023" data-entity-2="ent0007" data-link-type="dependency" data-source-line="122" id="lnk68"><path d="M643.94,1169.7494 C643.94,1055.4894 643.94,615.6094 643.94,615.6094 C643.94,615.6094 535.62,615.6094 501.68,615.6094" fill="none" id="HG-to-ISSE_IN" style="stroke:#64748B;stroke-width:1;"/><polygon fill="#64748B" points="495.68,615.6094,504.68,619.6094,500.68,615.6094,504.68,611.6094,495.68,615.6094" style="stroke:#64748B;stroke-width:1;"/><text fill="#475569" font-family="Verdana" font-size="10" lengthAdjust="spacing" textLength="109.9365" x="644.94" y="828.8316">hypothesis_confirmed</text><text fill="#475569" font-family="Verdana" font-size="10" lengthAdjust="spacing" textLength="99.8389" x="649.9888" y="840.4722">graph_state_update</text></g><!--link MAIN to ISSE_IN--><g class="link" data-entity-1="ent0019" data-entity-2="ent0007" data-link-type="dependency" data-source-line="123" id="lnk69"><path d="M142.94,1225.7994 C142.94,1104.1094 142.94,609.6094 142.94,609.6094 C142.94,609.6094 416.51,609.6094 471.11,609.6094" fill="none" id="MAIN-to-ISSE_IN" style="stroke:#64748B;stroke-width:1;"/><polygon fill="#64748B" points="477.11,609.6094,468.11,605.6094,472.11,609.6094,468.11,613.6094,477.11,609.6094" style="stroke:#64748B;stroke-width:1;"/><text fill="#475569" font-family="Verdana" font-size="10" lengthAdjust="spacing" textLength="83.8574" x="58.94" y="760.9016">agent1_progress</text><text fill="#475569" font-family="Verdana" font-size="10" lengthAdjust="spacing" textLength="74.1748" x="63.7813" y="772.5422">next_alert_info</text></g><!--link ISSE_OUT to DASH--><g class="link" data-entity-1="ent0006" data-entity-2="ent0054" data-link-type="dependency" data-source-line="124" id="lnk70"><path d="M476.98,258.6094 C443.32,258.6094 329.94,258.6094 329.94,258.6094 C329.94,258.6094 329.94,189.4094 329.94,147.6994" fill="none" id="ISSE_OUT-to-DASH" style="stroke:#64748B;stroke-width:1;"/><polygon fill="#64748B" points="329.94,141.6994,325.94,150.6994,329.94,146.6994,333.94,150.6994,329.94,141.6994" style="stroke:#64748B;stroke-width:1;"/><text fill="#475569" font-family="Verdana" font-size="10" lengthAdjust="spacing" textLength="69.6924" x="275" y="268.8916">&#171;SSE stream&#187;</text></g><!--link DASH to ICONF--><g class="link" data-entity-1="ent0054" data-entity-2="ent0009" data-link-type="dependency" data-source-line="127" id="lnk71"><path d="M248.94,141.4994 C248.94,215.1294 248.94,414.6094 248.94,414.6094 C248.94,414.6094 427.11,414.6094 470.99,414.6094" fill="none" id="DASH-to-ICONF" style="stroke:#64748B;stroke-width:1;"/><polygon fill="#64748B" points="476.99,414.6094,467.99,410.6094,471.99,414.6094,467.99,418.6094,476.99,414.6094" style="stroke:#64748B;stroke-width:1;"/><text fill="#475569" font-family="Verdana" font-size="10" lengthAdjust="spacing" textLength="67.5391" x="137.502" y="402.3616">&#171;HTTP POST&#187;</text><text fill="#475569" font-family="Verdana" font-size="10" lengthAdjust="spacing" textLength="154.6631" x="93.94" y="414.0022">{window_id, hypothesis_label}</text></g><!--link ICONF to HG--><g class="link" data-entity-1="ent0009" data-entity-2="ent0023" data-link-type="dependency" data-source-line="128" id="lnk72"><path d="M495.7,420.6094 C533.96,420.6094 675.94,420.6094 675.94,420.6094 C675.94,420.6094 675.94,1027.4494 675.94,1163.8994" fill="none" id="ICONF-to-HG" style="stroke:#64748B;stroke-width:1;"/><polygon fill="#64748B" points="675.94,1169.8994,679.94,1160.8994,675.94,1164.8994,671.94,1160.8994,675.94,1169.8994" style="stroke:#64748B;stroke-width:1;"/><text fill="#475569" font-family="Verdana" font-size="10" lengthAdjust="spacing" textLength="111.1816" x="563.94" y="715.4116">confirm_by_operator()</text></g><!--link ICONF to GR--><g class="link" data-entity-1="ent0009" data-entity-2="ent0039" data-link-type="dependency" data-source-line="129" id="lnk73"><path d="M476.88,420.6094 C450.2,420.6094 375.94,420.6094 375.94,420.6094 C375.94,420.6094 375.94,1050.3794 375.94,1050.3794 C375.94,1050.3794 372.11,1050.3794 359.05,1050.3794" fill="none" id="ICONF-to-GR" style="stroke:#64748B;stroke-width:1;"/><polygon fill="#64748B" points="353.05,1050.3794,362.05,1054.3794,358.05,1050.3794,362.05,1046.3794,353.05,1050.3794" style="stroke:#64748B;stroke-width:1;"/><text fill="#475569" font-family="Verdana" font-size="10" lengthAdjust="spacing" textLength="102.9688" x="272.94" y="706.7516">trigger_report_now()</text></g><!--link DASH to IFINISH--><g class="link" data-entity-1="ent0054" data-entity-2="ent0011" data-link-type="dependency" data-source-line="132" id="lnk74"><path d="M302.94,141.5894 C302.94,195.5394 302.94,311.6094 302.94,311.6094 C302.94,311.6094 433.58,311.6094 470.95,311.6094" fill="none" id="DASH-to-IFINISH" style="stroke:#64748B;stroke-width:1;"/><polygon fill="#64748B" points="476.95,311.6094,467.95,307.6094,471.95,311.6094,467.95,315.6094,476.95,311.6094" style="stroke:#64748B;stroke-width:1;"/><text fill="#475569" font-family="Verdana" font-size="10" lengthAdjust="spacing" textLength="67.5391" x="236.93" y="321.8916">&#171;HTTP POST&#187;</text></g><!--link IFINISH to WM--><g class="link" data-entity-1="ent0011" data-entity-2="ent0021" data-link-type="dependency" data-source-line="133" id="lnk75"><path d="M495.54,316.1094 C516.73,316.1094 566.94,316.1094 566.94,316.1094 C566.94,316.1094 566.94,1259.8794 566.94,1259.8794 C566.94,1259.8794 565.06,1259.8794 554.24,1259.8794" fill="none" id="IFINISH-to-WM" style="stroke:#64748B;stroke-width:1;"/><polygon fill="#64748B" points="548.24,1259.8794,557.24,1263.8794,553.24,1259.8794,557.24,1255.8794,548.24,1259.8794" style="stroke:#64748B;stroke-width:1;"/><text fill="#475569" font-family="Verdana" font-size="10" lengthAdjust="spacing" textLength="76.499" x="489.94" y="771.9316">close_window()</text></g><!--link IFINISH to HG--><g class="link" data-entity-1="ent0011" data-entity-2="ent0023" data-link-type="dependency" data-source-line="134" id="lnk76"><path d="M495.77,311.6094 C538.01,311.6094 706.94,311.6094 706.94,311.6094 C706.94,311.6094 706.94,1015.3194 706.94,1163.6394" fill="none" id="IFINISH-to-HG" style="stroke:#64748B;stroke-width:1;"/><polygon fill="#64748B" points="706.94,1169.6394,710.94,1160.6394,706.94,1164.6394,702.94,1160.6394,706.94,1169.6394" style="stroke:#64748B;stroke-width:1;"/><text fill="#475569" font-family="Verdana" font-size="10" lengthAdjust="spacing" textLength="111.1816" x="594.94" y="645.3216">confirm_by_operator()</text></g><!--link GR to IGC--><g class="link" data-entity-1="ent0039" data-entity-2="ent0041" data-link-type="dependency" data-source-line="137" id="lnk77"><path d="M352.93,1075.6094 C398.43,1075.6094 449.16,1075.6094 471.07,1075.6094" fill="none" id="GR-to-IGC" style="stroke:#64748B;stroke-width:1;"/><polygon fill="#64748B" points="477.07,1075.6094,468.07,1071.6094,472.07,1075.6094,468.07,1079.6094,477.07,1075.6094" style="stroke:#64748B;stroke-width:1;"/><text fill="#475569" font-family="Verdana" font-size="10" lengthAdjust="spacing" textLength="45.0098" x="369" y="1085.8916">&#171;poll 2s&#187;</text></g><!--link IGC to GR--><g class="link" data-entity-1="ent0041" data-entity-2="ent0039" data-link-type="dependency" data-source-line="138" id="lnk78"><path d="M477.03,1069.6094 C455.07,1069.6094 404.26,1069.6094 358.75,1069.6094" fill="none" id="IGC-to-GR" style="stroke:#64748B;stroke-width:1;"/><polygon fill="#64748B" points="352.75,1069.6094,361.75,1073.6094,357.75,1069.6094,361.75,1065.6094,352.75,1069.6094" style="stroke:#64748B;stroke-width:1;"/><text fill="#475569" font-family="Verdana" font-size="10" lengthAdjust="spacing" textLength="111.4893" x="415.89" y="1066.8916">confirmed hypotheses</text></g><!--link GR to ITEX--><g class="link" data-entity-1="ent0039" data-entity-2="ent0045" data-link-type="dependency" data-source-line="139" id="lnk79"><path d="M352.86,1059.1994 C380.2,1059.1994 405.94,1059.1994 405.94,1059.1994 C405.94,1059.1994 405.94,789.6094 405.94,789.6094 C405.94,789.6094 449.97,789.6094 471.08,789.6094" fill="none" id="GR-to-ITEX" style="stroke:#64748B;stroke-width:1;"/><polygon fill="#64748B" points="477.08,789.6094,468.08,785.6094,472.08,789.6094,468.08,793.6094,477.08,789.6094" style="stroke:#64748B;stroke-width:1;"/><text fill="#475569" font-family="Verdana" font-size="10" lengthAdjust="spacing" textLength="67.9639" x="337.94" y="925.6616">generate PDF</text></g><!--link GR to ISSE_IN--><g class="link" data-entity-1="ent0039" data-entity-2="ent0007" data-link-type="dependency" data-source-line="140" id="lnk80"><path d="M352.91,1054.7894 C373.43,1054.7894 390.94,1054.7894 390.94,1054.7894 C390.94,1054.7894 390.94,615.6094 390.94,615.6094 C390.94,615.6094 446.68,615.6094 470.8,615.6094" fill="none" id="GR-to-ISSE_IN" style="stroke:#64748B;stroke-width:1;"/><polygon fill="#64748B" points="476.8,615.6094,467.8,611.6094,471.8,615.6094,467.8,619.6094,476.8,615.6094" style="stroke:#64748B;stroke-width:1;"/><text fill="#475569" font-family="Verdana" font-size="10" lengthAdjust="spacing" textLength="55.3662" x="334.94" y="821.5616">ciso_report</text></g><?plantuml-src tLRDRXit4BxlKx3kmNPJsPP_4bi836pMigpMjXIlMWMmWWMrovKOhyWjbxRZ1W7w23sqBz0USkgfw1FuJV8adI6frUedoJr60divtmpdvviPhfEFV_x-TVpprib9sszT-HS-sIKVV_k319sBRkUoUTbhXkG9QSFlgrC_Q8Q0_7gYzhxHOpPX9Cye5vvNt72HKqKdHCbRaSHI2QR8OULyIEERaH46CfEAV9kQdmeYOIczpVIf5Df1wcptQ6-u6XBoNncfxrI4WPpaKZ2XNqYLCELi7EtJlU7XIjYIHuSfJUDLq8fFEsdzsIwjWDf2CvNIcCrT-tJ_sVxXS2LiyLgsomxJQY1TGD3HlBruc1om-WhGKX3rz20zMWP-BWHVANd_ASUDiAAz_-pWu6drWakfLxZ1qgDuRn5LZIYDaxtznFCqrnaZ_WZIJEgcWKuu7O4AXNBFIi0AmcP9BAgKoxXW-Y5dH2ezbbx6Kasq98gFnfeaNB5OSocW_Nnncr4oBqSJX1LeFv6yW6-JhiBJSiI0uugyyzmPMJkJXMwGaAaxda0COITO0x57I8a8mwQHWzv6us1dfxw9208_roXweUGDKmEnpGNSeM4-RBCxYAvuJMX1066XPxrUbvnHaMG8JcJKQlR8DZWOTJjXRuezCs0-pGbPCoXhRmqnRG15dPzwYpWqGfmBCs3xSZMEvdoROddgsxcIaFkY9jXRfzYzwWHVL8kbIBcQrCOFkOIK5jov5tGkJx-eN31suvniDd_y8ZpbWXTZgt3Qlco7DakO_DfyGYf7BdJCAHwLGKqFIaUd1wKhquFoglTpT9ZIUgDnkBEpE-F21ARcLlum41qLGqAqei0dKzSBtpbpxP8TKI21ZZ8fyu7eZHMZ2JH6mcEQKAFHzS-jGfy3LUulg82hhR7-XPNu2SqrlsCMCH0RN1JwyIyHSm3bmEGtLB2CRXebl-z8M5QhfMW-7eWG69CnBOM1dRKihAlaa0vvnWlDuo2ZHS5JZhITXtS3xnErSnoXMOOxmZ73Fpz_uGTBvMxR29hGVqp4p8BxpINOr8-OOkixc-TBC1DOgAbsbbgXTHABOEfUTQD_WKVkicvWvDRaMGi_K7cTd4hr-84IckbR62ondC1_Q9V7_s30S777YyT_xXWlAjTSZta2qRo6k4Ijh2RyNXIvQg8Vym9NCR-_A70rGlyMRZ7LMCLL-uOnYI5N3BW1sIffQuwdfnKs0eSocC8ZK-dMbIC64mcSlRnbjsm0RBUVqI_ulVMccFBYvM9LOEn6RcAm99hE35PiRBeYsTviNK7IZVPy63ts5eRlDZcdFVRA3k5AurddMmoU9rHBYA5xSWfJU4kpjyQTNlFLQfgEh8eZoXG6lx7qzjFu8M3FkTKYKympmYufD1zvGH-015BWlh8rPgh0jaaaOHFoGzYndU_d2dB5J6FAd9dP008uCzQNRt5bXkga4XSU7w59i33c-UE_6fDd02SifWz4CrYfYcO8AE2bveHLPuHM88FXWxIjNWqXbeaECevxcVJPqARt-eGMuw6aAY5XruSfypC7yHFIWzqSnehdsWwO4zzCokimup7RqiL01F2yKF0iG9SKrnDfLznvEy1kGppvhbPp1-_H2tDMgntROKqQvFbpipInMCV70w4Oy0mMB6ugOYQePv6eO_gk0PagSghZiMVx40JOT0s8rd1qmwXjUgOJGGXzru3gsNcyiUbX7y8nT1tU7aChu2DY6r_0yCVniOVzY1u6Q3Is4-bX8nzJoEocXyUbVj0EEvqSPzNrtkjIiTyqfjc4QtZzk9a7Xb600EZh1g594arbu1NsEkgsGf0LEDh8RPvGfCswMNbDypuexx3h3x3tPh96Deva8DotLPvznvaiyDFcT7fRQMMsucSzF10Zd1kHySOPdELyfcitGGHxRmIa15fWyTpwuoALtdHz6pt304mF1WKRbD49f0Q23EozzF73uzzora0pnk0sNsRCEnSWJxwlHf7H8SlUUrQfJBgBBHe-HEO262KRcnKG3AS6qT28i8aZPMPE9EGzO715c2TAnI7xU5XqoPkUb-GpkO-idtXTHVuPh_3XQqUxXpFJaCDs34vjiejKnPFIxx9mP3PyIrMSU0qodOO4ncSfAWiPyqAwgFy7?></g></svg>