<svg xmlns="http://www.w3.org/2000/svg" xmlns:xlink="http://www.w3.org/1999/xlink" contentStyleType="text/css" data-diagram-type="ACTIVITY" height="1052px" preserveAspectRatio="none" style="width:813px;height:1052px;background:#FFFFFF;" version="1.1" viewBox="0 0 813 1052" width="813px" zoomAndPan="magnify"><?plantuml 1.2026.4beta2?><defs><filter height="1" id="b1aimoo0lufu4o0" width="1" x="0" y="0"><feFlood flood-color="#FFFFFF" result="flood"/><feComposite in="SourceGraphic" in2="flood" operator="over"/></filter></defs><g><g class="title" data-source-line="11"><text fill="#000000" font-family="Arial" font-size="22" font-weight="700" lengthAdjust="spacing" textLength="522.7148" x="144.4287" y="35.4209">Agent 1 &#8212; Condi&#231;&#245;es para Gerar Relat&#243;rio</text></g><ellipse cx="404.7861" cy="66.6094" fill="#FFFFFF" rx="10" ry="10" style="stroke:#000000;stroke-width:1;"/><rect fill="#FFFFFF" height="204.1719" rx="4" ry="4" style="stroke:#000000;stroke-width:1;" width="787.5723" x="11" y="86.6094"/><path d="M196.4375,86.6094 L196.4375,95.9063 L186.4375,105.9063 L11,105.9063" fill="none" style="stroke:#000000;stroke-width:1;"/><text fill="#000000" font-family="Arial" font-size="14" lengthAdjust="spacing" textLength="175.4375" x="14" y="100.6045">Confirma&#231;&#227;o da hip&#243;tese</text><line style="stroke:#64748B;stroke-width:1.5;" x1="111.709" x2="697.0049" y1="122.9063" y2="122.9063"/><rect fill="#FFFFFF" height="47.9375" rx="4" ry="4" style="stroke:#000000;stroke-width:1;" width="153.418" x="35" y="142.9063"/><text fill="#000000" font-family="Arial" font-size="12" lengthAdjust="spacing" textLength="113.5195" x="45" y="164.0449">Operador confirma</text><text fill="#000000" font-family="Arial" font-size="12" lengthAdjust="spacing" textLength="133.418" x="45" y="178.0137">confirm_by_operator()</text><rect fill="#FFFFFF" height="47.9375" rx="4" ry="4" style="stroke:#000000;stroke-width:1;" width="173.5098" x="216.418" y="142.9063"/><text fill="#000000" font-family="Arial" font-size="12" lengthAdjust="spacing" textLength="128.707" x="226.418" y="164.0449">Converg&#234;ncia normal</text><text fill="#000000" font-family="Arial" font-size="12" lengthAdjust="spacing" textLength="153.5098" x="226.418" y="178.0137">prob &#8805; 85% e alertas &#8805; 3</text><rect fill="#FFFFFF" height="47.9375" rx="4" ry="4" style="stroke:#000000;stroke-width:1;" width="173.5098" x="417.9277" y="142.9063"/><text fill="#000000" font-family="Arial" font-size="12" font-weight="700" lengthAdjust="spacing" textLength="139.6523" x="427.9277" y="164.0449">Converg&#234;ncia r&#225;pida</text><text fill="#000000" font-family="Arial" font-size="12" lengthAdjust="spacing" textLength="153.5098" x="427.9277" y="178.0137">prob &#8805; 97% e alertas &#8805; 1</text><rect fill="#FFFFFF" height="47.9375" rx="4" ry="4" style="stroke:#000000;stroke-width:1;" width="155.1348" x="619.4375" y="142.9063"/><text fill="#000000" font-family="Arial" font-size="12" lengthAdjust="spacing" textLength="80.209" x="629.4375" y="164.0449">Timeout auto</text><text fill="#000000" font-family="Arial" font-size="12" lengthAdjust="spacing" textLength="135.1348" x="629.4375" y="178.0137">expires_at_ms expirou</text><line style="stroke:#64748B;stroke-width:1.5;" x1="111.709" x2="697.0049" y1="210.8438" y2="210.8438"/><rect fill="#FFFFFF" height="47.9375" rx="4" ry="4" style="stroke:#000000;stroke-width:1;" width="184.8594" x="312.3564" y="230.8438"/><text fill="#000000" font-family="Arial" font-size="12" lengthAdjust="spacing" textLength="113.4023" x="322.3564" y="251.9824">Hip&#243;tese registada</text><text fill="#000000" font-family="Arial" font-size="12" lengthAdjust="spacing" textLength="164.8594" x="322.3564" y="265.9512">em _confirmed_hypotheses</text><line style="stroke:#64748B;stroke-width:1.5;" x1="269.3867" x2="676.229" y1="310.7813" y2="310.7813"/><rect fill="#FFFFFF" height="336" rx="4" ry="4" style="stroke:#000000;stroke-width:1;" width="378.8423" x="11.9438" y="320.7813"/><path d="M244.6792,320.7813 L244.6792,330.0781 L234.6792,340.0781 L11.9438,340.0781" fill="none" style="stroke:#000000;stroke-width:1;"/><text fill="#000000" font-family="Arial" font-size="14" lengthAdjust="spacing" textLength="222.7354" x="14.9438" y="334.7764">Caminho 1 - trigger_report_now</text><path d="M31.9438,484.8711 L31.9438,510.0039 L147.9873,510.0039 L147.9873,494.8711 L137.9873,484.8711 L31.9438,484.8711" fill="#FFFFFF"/><path d="M137.9873,484.8711 L137.9873,494.8711 L147.9873,494.8711 L137.9873,484.8711" fill="#FFFFFF"/><text fill="#000000" filter="url(#b1aimoo0lufu4o0)" font-family="Arial" font-size="13" lengthAdjust="spacing" textLength="95.0435" x="37.9438" y="501.938">&#160;&#160;&#160;&#160;&#160;&#160;&#160;&#160;&#160;&#160;&#160;&#160;&#160;&#160;&#160;&#160;&#160;&#160;&#160;&#160;&#160;&#160;&#160;</text><rect fill="#FFFFFF" height="47.9375" rx="4" ry="4" style="stroke:#000000;stroke-width:1;" width="195.8867" x="171.4434" y="357.0781"/><text fill="#000000" font-family="Arial" font-size="12" lengthAdjust="spacing" textLength="175.8867" x="181.4434" y="378.2168">get_global_reporter() &#8800; None</text><text fill="#000000" font-family="Arial" font-size="12" lengthAdjust="spacing" textLength="136.9453" x="181.4434" y="392.1855">(Agent 2 est&#225; a correr)</text><rect fill="#FFFFFF" height="47.9375" rx="4" ry="4" style="stroke:#000000;stroke-width:1;" width="222.7988" x="157.9873" y="432"/><text fill="#000000" font-family="Arial" font-size="12" lengthAdjust="spacing" textLength="202.7988" x="167.9873" y="453.1387">label &#8713; _processed_confirmations</text><text fill="#000000" font-family="Arial" font-size="12" lengthAdjust="spacing" textLength="93.8965" x="167.9873" y="467.1074">(n&#227;o duplicado)</text><rect fill="#FFFFFF" height="47.9375" rx="4" ry="4" style="stroke:#000000;stroke-width:1;" width="203.6152" x="167.5791" y="514.9375"/><text fill="#000000" font-family="Arial" font-size="12" lengthAdjust="spacing" textLength="130.5117" x="177.5791" y="536.0762">LLM responde &#8804; 120s</text><text fill="#000000" font-family="Arial" font-size="12" lengthAdjust="spacing" textLength="183.6152" x="177.5791" y="550.0449">(AGENT2_TIMEOUT_SECONDS)</text><rect fill="#FFFFFF" height="47.9375" rx="4" ry="4" style="stroke:#000000;stroke-width:1;" width="153.9277" x="192.4229" y="589.8594"/><text fill="#000000" font-family="Arial" font-size="12" lengthAdjust="spacing" textLength="97.5117" x="202.4229" y="610.998">POST /ingest OK</text><text fill="#000000" font-family="Arial" font-size="12" lengthAdjust="spacing" textLength="133.9277" x="202.4229" y="624.9668">(SSE server responde)</text><rect fill="#FFFFFF" height="322.0313" rx="4" ry="4" style="stroke:#000000;stroke-width:1;" width="378.8423" x="418.7861" y="327.7656"/><path d="M647.6455,327.7656 L647.6455,337.0625 L637.6455,347.0625 L418.7861,347.0625" fill="none" style="stroke:#000000;stroke-width:1;"/><text fill="#000000" font-family="Arial" font-size="14" lengthAdjust="spacing" textLength="218.8594" x="421.7861" y="341.7607">Caminho 2 - poll loop (cada 2s)</text><path d="M438.7861,484.8711 L438.7861,510.0039 L554.8296,510.0039 L554.8296,494.8711 L544.8296,484.8711 L438.7861,484.8711" fill="#FFFFFF"/><path d="M544.8296,484.8711 L544.8296,494.8711 L554.8296,494.8711 L544.8296,484.8711" fill="#FFFFFF"/><text fill="#000000" filter="url(#b1aimoo0lufu4o0)" font-family="Arial" font-size="13" lengthAdjust="spacing" textLength="95.0435" x="444.7861" y="501.938">&#160;&#160;&#160;&#160;&#160;&#160;&#160;&#160;&#160;&#160;&#160;&#160;&#160;&#160;&#160;&#160;&#160;&#160;&#160;&#160;&#160;&#160;&#160;</text><rect fill="#FFFFFF" height="33.9688" rx="4" ry="4" style="stroke:#000000;stroke-width:1;" width="142.8008" x="604.8286" y="364.0625"/><text fill="#000000" font-family="Arial" font-size="12" lengthAdjust="spacing" textLength="122.8008" x="614.8286" y="385.2012">reporter.run() activo</text><rect fill="#FFFFFF" height="47.9375" rx="4" ry="4" style="stroke:#000000;stroke-width:1;" width="181.7832" x="585.3374" y="425.0156"/><text fill="#000000" font-family="Arial" font-size="12" lengthAdjust="spacing" textLength="161.7832" x="595.3374" y="446.1543">get_global_graph() &#8800; None</text><text fill="#000000" font-family="Arial" font-size="12" lengthAdjust="spacing" textLength="155.7598" x="595.3374" y="460.123">(Agent 1 registou o grafo)</text><rect fill="#FFFFFF" height="47.9375" rx="4" ry="4" style="stroke:#000000;stroke-width:1;" width="210.9043" x="570.7769" y="507.9531"/><text fill="#000000" font-family="Arial" font-size="12" lengthAdjust="spacing" textLength="190.9043" x="580.7769" y="529.0918">confirma&#231;&#245;es novas detectadas</text><text fill="#000000" font-family="Arial" font-size="12" lengthAdjust="spacing" textLength="163.3125" x="580.7769" y="543.0605">(since _last_processed_ms)</text><rect fill="#FFFFFF" height="47.9375" rx="4" ry="4" style="stroke:#000000;stroke-width:1;" width="222.7988" x="564.8296" y="582.875"/><text fill="#000000" font-family="Arial" font-size="12" lengthAdjust="spacing" textLength="202.7988" x="574.8296" y="604.0137">label &#8713; _processed_confirmations</text><text fill="#000000" font-family="Arial" font-size="12" lengthAdjust="spacing" textLength="145.6582" x="574.8296" y="617.9824">(deduplica&#231;&#227;o por label)</text><line style="stroke:#64748B;stroke-width:1.5;" x1="269.3867" x2="676.229" y1="676.7813" y2="676.7813"/><rect fill="#FFFFFF" height="47.9375" rx="4" ry="4" style="stroke:#000000;stroke-width:1;" width="209.252" x="300.1602" y="696.7813"/><text fill="#000000" font-family="Arial" font-size="12" lengthAdjust="spacing" textLength="142.166" x="310.1602" y="717.9199">_generate_ciso_report()</text><text fill="#000000" font-family="Arial" font-size="12" lengthAdjust="spacing" textLength="189.252" x="310.1602" y="731.8887">LLM + IoCs + assets + timeline</text><rect fill="#FFFFFF" height="47.9375" rx="4" ry="4" style="stroke:#000000;stroke-width:1;" width="209.4395" x="300.0664" y="764.7188"/><text fill="#000000" font-family="Arial" font-size="12" lengthAdjust="spacing" textLength="189.4395" x="310.0664" y="785.8574">_save_report() + _emit_report()</text><text fill="#000000" font-family="Arial" font-size="12" lengthAdjust="spacing" textLength="175.1484" x="310.0664" y="799.8262">PDF/LaTeX + SSE ciso_report</text><rect fill="#FFFFFF" height="47.9375" rx="4" ry="4" style="stroke:#000000;stroke-width:1;" width="195.1895" x="307.1914" y="832.6563"/><text fill="#000000" font-family="Arial" font-size="12" lengthAdjust="spacing" textLength="175.1895" x="317.1914" y="853.7949">Card em Intelligence Reports</text><text fill="#000000" font-family="Arial" font-size="12" lengthAdjust="spacing" textLength="122.291" x="317.1914" y="867.7637">badge &#9203; desaparece</text><path d="M435.7861,890.5938 L435.7861,959.6914 L415.7861,963.6914 L435.7861,967.6914 L435.7861,1036.7891 A0,0 0 0 0 435.7861,1036.7891 L753.0059,1036.7891 A0,0 0 0 0 753.0059,1036.7891 L753.0059,900.5938 L743.0059,890.5938 L435.7861,890.5938 A0,0 0 0 0 435.7861,890.5938" fill="#FFFFFF" style="stroke:#000000;stroke-width:1;"/><path d="M743.0059,890.5938 L743.0059,900.5938 L753.0059,900.5938 L743.0059,890.5938" fill="#FFFFFF" style="stroke:#000000;stroke-width:1;"/><text fill="#000000" font-family="Arial" font-size="13" lengthAdjust="spacing" textLength="102.0322" x="441.7861" y="907.6606">N&#195;O gerado se:</text><text fill="#000000" font-family="Arial" font-size="13" lengthAdjust="spacing" textLength="117.0952" x="441.7861" y="922.7935">Agent 2 n&#227;o corre</text><text fill="#000000" font-family="Arial" font-size="13" lengthAdjust="spacing" textLength="106.4058" x="441.7861" y="937.9263">reporter = None</text><text fill="#000000" font-family="Arial" font-size="13" lengthAdjust="spacing" textLength="137.249" x="441.7861" y="953.0591">LLM timeout (&gt;120s)</text><text fill="#000000" font-family="Arial" font-size="13" lengthAdjust="spacing" textLength="125.6963" x="441.7861" y="968.1919">label j&#225; processado</text><text fill="#000000" font-family="Arial" font-size="13" lengthAdjust="spacing" textLength="91.127" x="441.7861" y="983.3247">graph = None</text><text fill="#000000" font-family="Arial" font-size="13" lengthAdjust="spacing" textLength="26" x="441.7861" y="998.4575">&#8212;&#8212;</text><text fill="#000000" font-family="Arial" font-size="13" lengthAdjust="spacing" textLength="111.0269" x="441.7861" y="1013.5903">Caminho 1 falha:</text><text fill="#000000" font-family="Arial" font-size="13" lengthAdjust="spacing" textLength="296.2197" x="441.7861" y="1028.7231">remove de _processed para retry no poll loop</text><ellipse cx="404.7861" cy="963.6914" fill="none" rx="11" ry="11" style="stroke:#000000;stroke-width:1;"/><ellipse cx="404.7861" cy="963.6914" fill="#FFFFFF" rx="6" ry="6" style="stroke:#000000;stroke-width:1;"/><line style="stroke:#64748B;stroke-width:1;" x1="111.709" x2="111.709" y1="124.4063" y2="142.9063"/><polygon fill="#64748B" points="107.709,132.9063,111.709,142.9063,115.709,132.9063,111.709,136.9063" style="stroke:#64748B;stroke-width:1;"/><line style="stroke:#64748B;stroke-width:1;" x1="303.1729" x2="303.1729" y1="124.4063" y2="142.9063"/><polygon fill="#64748B" points="299.1729,132.9063,303.1729,142.9063,307.1729,132.9063,303.1729,136.9063" style="stroke:#64748B;stroke-width:1;"/><line style="stroke:#64748B;stroke-width:1;" x1="504.6826" x2="504.6826" y1="124.4063" y2="142.9063"/><polygon fill="#64748B" points="500.6826,132.9063,504.6826,142.9063,508.6826,132.9063,504.6826,136.9063" style="stroke:#64748B;stroke-width:1;"/><line style="stroke:#64748B;stroke-width:1;" x1="697.0049" x2="697.0049" y1="124.4063" y2="142.9063"/><polygon fill="#64748B" points="693.0049,132.9063,697.0049,142.9063,701.0049,132.9063,697.0049,136.9063" style="stroke:#64748B;stroke-width:1;"/><line style="stroke:#64748B;stroke-width:1;" x1="111.709" x2="111.709" y1="190.8438" y2="210.8438"/><polygon fill="#64748B" points="107.709,200.8438,111.709,210.8438,115.709,200.8438,111.709,204.8438" style="stroke:#64748B;stroke-width:1;"/><line style="stroke:#64748B;stroke-width:1;" x1="303.1729" x2="303.1729" y1="190.8438" y2="210.8438"/><polygon fill="#64748B" points="299.1729,200.8438,303.1729,210.8438,307.1729,200.8438,303.1729,204.8438" style="stroke:#64748B;stroke-width:1;"/><line style="stroke:#64748B;stroke-width:1;" x1="504.6826" x2="504.6826" y1="190.8438" y2="210.8438"/><polygon fill="#64748B" points="500.6826,200.8438,504.6826,210.8438,508.6826,200.8438,504.6826,204.8438" style="stroke:#64748B;stroke-width:1;"/><line style="stroke:#64748B;stroke-width:1;" x1="697.0049" x2="697.0049" y1="190.8438" y2="210.8438"/><polygon fill="#64748B" points="693.0049,200.8438,697.0049,210.8438,701.0049,200.8438,697.0049,204.8438" style="stroke:#64748B;stroke-width:1;"/><line style="stroke:#64748B;stroke-width:1;" x1="404.7861" x2="404.7861" y1="212.3438" y2="230.8438"/><polygon fill="#64748B" points="400.7861,220.8438,404.7861,230.8438,408.7861,220.8438,404.7861,224.8438" style="stroke:#64748B;stroke-width:1;"/><line style="stroke:#64748B;stroke-width:1;" x1="404.7861" x2="404.7861" y1="76.6094" y2="122.9063"/><polygon fill="#64748B" points="400.7861,112.9063,404.7861,122.9063,408.7861,112.9063,404.7861,116.9063" style="stroke:#64748B;stroke-width:1;"/><line style="stroke:#64748B;stroke-width:1;" x1="269.3867" x2="269.3867" y1="405.0156" y2="432"/><polygon fill="#64748B" points="265.3867,422,269.3867,432,273.3867,422,269.3867,426" style="stroke:#64748B;stroke-width:1;"/><line style="stroke:#64748B;stroke-width:1;" x1="269.3867" x2="269.3867" y1="479.9375" y2="514.9375"/><polygon fill="#64748B" points="265.3867,504.9375,269.3867,514.9375,273.3867,504.9375,269.3867,508.9375" style="stroke:#64748B;stroke-width:1;"/><line style="stroke:#64748B;stroke-width:1;" x1="269.3867" x2="269.3867" y1="562.875" y2="589.8594"/><polygon fill="#64748B" points="265.3867,579.8594,269.3867,589.8594,273.3867,579.8594,269.3867,583.8594" style="stroke:#64748B;stroke-width:1;"/><line style="stroke:#64748B;stroke-width:1;" x1="676.229" x2="676.229" y1="398.0313" y2="425.0156"/><polygon fill="#64748B" points="672.229,415.0156,676.229,425.0156,680.229,415.0156,676.229,419.0156" style="stroke:#64748B;stroke-width:1;"/><line style="stroke:#64748B;stroke-width:1;" x1="676.229" x2="676.229" y1="472.9531" y2="507.9531"/><polygon fill="#64748B" points="672.229,497.9531,676.229,507.9531,680.229,497.9531,676.229,501.9531" style="stroke:#64748B;stroke-width:1;"/><line style="stroke:#64748B;stroke-width:1;" x1="676.229" x2="676.229" y1="555.8906" y2="582.875"/><polygon fill="#64748B" points="672.229,572.875,676.229,582.875,680.229,572.875,676.229,576.875" style="stroke:#64748B;stroke-width:1;"/><line style="stroke:#64748B;stroke-width:1;" x1="269.3867" x2="269.3867" y1="312.2813" y2="357.0781"/><polygon fill="#64748B" points="265.3867,347.0781,269.3867,357.0781,273.3867,347.0781,269.3867,351.0781" style="stroke:#64748B;stroke-width:1;"/><line style="stroke:#64748B;stroke-width:1;" x1="676.229" x2="676.229" y1="312.2813" y2="364.0625"/><polygon fill="#64748B" points="672.229,354.0625,676.229,364.0625,680.229,354.0625,676.229,358.0625" style="stroke:#64748B;stroke-width:1;"/><line style="stroke:#64748B;stroke-width:1;" x1="269.3867" x2="269.3867" y1="637.7969" y2="676.7813"/><polygon fill="#64748B" points="265.3867,666.7813,269.3867,676.7813,273.3867,666.7813,269.3867,670.7813" style="stroke:#64748B;stroke-width:1;"/><line style="stroke:#64748B;stroke-width:1;" x1="676.229" x2="676.229" y1="630.8125" y2="676.7813"/><polygon fill="#64748B" points="672.229,666.7813,676.229,676.7813,680.229,666.7813,676.229,670.7813" style="stroke:#64748B;stroke-width:1;"/><line style="stroke:#64748B;stroke-width:1;" x1="404.7861" x2="404.7861" y1="278.7813" y2="310.7813"/><polygon fill="#64748B" points="400.7861,300.7813,404.7861,310.7813,408.7861,300.7813,404.7861,304.7813" style="stroke:#64748B;stroke-width:1;"/><line style="stroke:#64748B;stroke-width:1;" x1="404.7861" x2="404.7861" y1="678.2813" y2="696.7813"/><polygon fill="#64748B" points="400.7861,686.7813,404.7861,696.7813,408.7861,686.7813,404.7861,690.7813" style="stroke:#64748B;stroke-width:1;"/><line style="stroke:#64748B;stroke-width:1;" x1="404.7861" x2="404.7861" y1="744.7188" y2="764.7188"/><polygon fill="#64748B" points="400.7861,754.7188,404.7861,764.7188,408.7861,754.7188,404.7861,758.7188" style="stroke:#64748B;stroke-width:1;"/><line style="stroke:#64748B;stroke-width:1;" x1="404.7861" x2="404.7861" y1="812.6563" y2="832.6563"/><polygon fill="#64748B" points="400.7861,822.6563,404.7861,832.6563,408.7861,822.6563,404.7861,826.6563" style="stroke:#64748B;stroke-width:1;"/><line style="stroke:#64748B;stroke-width:1;" x1="404.7861" x2="404.7861" y1="880.5938" y2="952.6914"/><polygon fill="#64748B" points="400.7861,942.6914,404.7861,952.6914,408.7861,942.6914,404.7861,946.6914" style="stroke:#64748B;stroke-width:1;"/><?plantuml-src tLJ1RYD54BtFLnHPeNM48CG4DjZ1afLain69lOgDnC7Ig3rJ7ZVRqptgRZj4AoGaBkm93d1d1GY9QyGN-4_o9RnkpoG6V803bxL6yanrl-gkzrxLOxhxyVituqaUqybv_-ogVzcd0xhx-WSwDZgNgzzMVx2ZIbX1Pso5fIjMmgzkhJI0l3db9ybRViubKwM4r8bx8NKekgI-jURws2XZwT571qyE3gSRYzOiT9uPgzdIuKOyvvbOAF_KQ3yGIDgtKgWayT8hV1IiFUt_Iv8JvuNrIO9LmANHj0FGJDfI0FUpeLpGN5QhMy-ET-XbGkGg9Jt-YJh32lbot3shCHDTlwNJczI4LMziQxVRm4WKeVu8nZbBjiNgTvr9GTe0hYQwicPATwz-fSCFtoOceTXwuMBaWwrfZgQzlsQogzULpCNHthItaUxZ9tzFjxyrtLYMR1O8BRoPQFwoafPTAdnQEefVPX5mhFEQ27nqdZKCaUL2Wj8SJ719QSq6v-dyfZAmW6FNJRu2xJM9cxoBKkgvWNJlahUoADYcbYjZVQhDzSxBU3zjF9FYcITwT3sNdhjAQkx4rxY1w6WgiXVhI8-s_y0DzlGY85GIigxBBzYdXJ9JeUgp6VA1hfzeO3HFT6jjhpQnywlN9A2yjMoZme0hCML5Tz--eXJCP-mSIc_C4SfqIA6ZhnPW88Dv6kZ5nINOSnKiopZm5zfllnzszyzE1-DsEZw_F1r-Dav7fyV3mSceGJqVZiQq9tM1-z3mK-mVZKx9iOKXxjF5pGtfzs9leRuDwYkZ52bZAchXUeBQRdVj-_-V_8Rnz-n2WtMHURaqtNy8KrXHpRUfib_Rpop847RDxidD7dewp09jbcY2d3rdmQk1PYTrnfGguVo6TANxJyhcNCkwdXseXYAk5c2ZQP9EYYk7-S1f9fsftTRQdUXWX7Vet1mx_0cSuyEBHry6jhj0Eh7aUm3MKYwbtyZm_EJfteKOy-TO2tROE03mOs5pGdEUQyzAILm3XL_5LTGm5Na1_trt2tgSW4SumvaOawPAacW0jEOyjEvWzSsGYZW0ORWE8arlH8F7na2m4PK-YM8X4WhqzPXfzOBDTn5T4_m5cghc5taHZc8_O37LyU3bOLhCX9gBJZofD4l6lJSaMezzozxUGFK7SoUDy_u4?></g></svg>